<?xml version="1.0" encoding="utf-8"?>
<!-- Generator: Adobe Illustrator 15.0.0, SVG Export Plug-In . SVG Version: 6.00 Build 0)  -->
<!DOCTYPE svg PUBLIC "-//W3C//DTD SVG 1.1//EN" "http://www.w3.org/Graphics/SVG/1.1/DTD/svg11.dtd">
<svg version="1.1" id="レイヤー_1" xmlns="http://www.w3.org/2000/svg" xmlns:xlink="http://www.w3.org/1999/xlink" x="0px"
	 y="0px" width="400px" height="300px" viewBox="0 0 400 300" style="enable-background:new 0 0 400 300;" xml:space="preserve">
<style type="text/css">
<![CDATA[
	.st0{fill:none;}
	.st1{fill:#D31111;}
]]>
</style>
<g>
	<path class="st0" d="M96.661,94.962C87.882,111.379,82.896,130.117,82.896,150c0,64.572,52.532,117.105,117.104,117.105
		c19.883,0,38.62-4.988,55.038-13.768L96.661,94.962z"/>
	<path class="st0" d="M300.979,209.238C311.22,191.848,317.104,171.6,317.104,150c0-64.572-52.532-117.105-117.104-117.105
		c-21.6,0-41.848,5.885-59.238,16.126L300.979,209.238z"/>
	<path class="st1" d="M200,4.471C119.627,4.471,54.472,69.627,54.472,150S119.627,295.529,200,295.529
		c80.374,0,145.528-65.156,145.528-145.529S280.374,4.471,200,4.471z M317.104,150c0,21.6-5.885,41.848-16.126,59.238
		L140.762,49.021C158.152,38.78,178.4,32.895,200,32.895C264.572,32.895,317.104,85.428,317.104,150z M82.896,150
		c0-19.883,4.986-38.621,13.766-55.038l158.377,158.376c-16.418,8.779-35.155,13.768-55.038,13.768
		C135.428,267.105,82.896,214.572,82.896,150z"/>
</g>
</svg>
