<?xml version="1.0" encoding="utf-8"?>
<!-- Generator: Adobe Illustrator 15.0.0, SVG Export Plug-In . SVG Version: 6.00 Build 0)  -->
<!DOCTYPE svg PUBLIC "-//W3C//DTD SVG 1.1//EN" "http://www.w3.org/Graphics/SVG/1.1/DTD/svg11.dtd">
<svg version="1.1" id="レイヤー_1" xmlns="http://www.w3.org/2000/svg" xmlns:xlink="http://www.w3.org/1999/xlink" x="0px"
	 y="0px" width="400px" height="300px" viewBox="0 0 400 300" style="enable-background:new 0 0 400 300;" xml:space="preserve">
<style type="text/css">
<![CDATA[
	.st0{fill:#034F93;stroke:#FFFFFF;stroke-width:7;stroke-linecap:round;stroke-linejoin:round;stroke-miterlimit:10;}
	.st1{fill:#034F93;}
]]>
</style>
<g>
	<g>
		<path class="st0" d="M166.128,73.618c-0.126-0.91-0.254-1.827-0.315-2.289c-3.251-23.807,8.756-41.527,34.196-41.527
			c25.059,0,37.445,17.721,34.187,41.527c-0.062,0.462-0.188,1.379-0.311,2.289l-20.208,113.223
			c-0.823,4.783-5.409,7.707-13.67,7.707c-8.596,0-12.851-2.924-13.674-7.707L166.128,73.618z"/>
		<circle class="st0" cx="200.001" cy="242.46" r="27.738"/>
	</g>
	<g>
		<path class="st1" d="M166.128,73.618c-0.126-0.91-0.254-1.827-0.315-2.289c-3.251-23.807,8.756-41.527,34.196-41.527
			c25.059,0,37.445,17.721,34.187,41.527c-0.062,0.462-0.188,1.379-0.311,2.289l-20.208,113.223
			c-0.823,4.783-5.409,7.707-13.67,7.707c-8.596,0-12.851-2.924-13.674-7.707L166.128,73.618z"/>
		<circle class="st1" cx="200.001" cy="242.46" r="27.738"/>
	</g>
</g>
</svg>
