<?xml version="1.0" encoding="utf-8"?>
<!-- Generator: Adobe Illustrator 15.0.0, SVG Export Plug-In . SVG Version: 6.00 Build 0)  -->
<!DOCTYPE svg PUBLIC "-//W3C//DTD SVG 1.1//EN" "http://www.w3.org/Graphics/SVG/1.1/DTD/svg11.dtd">
<svg version="1.1" id="レイヤー_1" xmlns="http://www.w3.org/2000/svg" xmlns:xlink="http://www.w3.org/1999/xlink" x="0px"
	 y="0px" width="400px" height="300px" viewBox="0 0 400 300" style="enable-background:new 0 0 400 300;" xml:space="preserve">
<style type="text/css">
<![CDATA[
	.st0{fill:#91AEB7;}
]]>
</style>
<g>
	<path class="st0" d="M124.307,128.913h71.421c4.142,0,7.5-3.357,7.5-7.5c0-4.142-3.358-7.5-7.5-7.5h-71.421
		c-4.142,0-7.5,3.358-7.5,7.5C116.807,125.556,120.165,128.913,124.307,128.913z"/>
	<path class="st0" d="M183.315,152.541c0-4.143-3.358-7.5-7.5-7.5h-71.419c-4.142,0-7.5,3.357-7.5,7.5s3.358,7.5,7.5,7.5h71.419
		C179.957,160.041,183.315,156.684,183.315,152.541z"/>
	<path class="st0" d="M203.229,183.668c0-4.143-3.358-7.5-7.5-7.5h-71.421c-4.142,0-7.5,3.357-7.5,7.5s3.358,7.5,7.5,7.5h71.421
		C199.87,191.168,203.229,187.811,203.229,183.668z"/>
	<path class="st0" d="M303.104,151.854c0-20.051-12.223-37.34-30.197-44.287c2.318-5.661,3.518-11.74,3.518-17.968
		c0-26.203-21.316-47.521-47.52-47.521s-47.521,21.317-47.521,47.521c0,4.143,3.358,7.5,7.5,7.5s7.5-3.357,7.5-7.5
		c0-17.932,14.589-32.521,32.521-32.521s32.52,14.589,32.52,32.521c0,6.634-1.988,13.017-5.75,18.459
		c-1.469,2.122-1.742,4.85-0.725,7.221s3.18,4.054,5.729,4.454c15.893,2.496,27.426,16.005,27.426,32.121
		c0,15.275-10.828,28.653-25.748,31.811c-2.33,0.493-4.285,2.062-5.273,4.229c-0.986,2.166-0.887,4.672,0.27,6.753
		c2.664,4.793,4.072,10.241,4.072,15.755c0,17.933-14.588,32.521-32.52,32.521s-32.521-14.589-32.521-32.521
		c0-4.143-3.358-7.5-7.5-7.5s-7.5,3.357-7.5,7.5c0,26.203,21.318,47.521,47.521,47.521s47.52-21.318,47.52-47.521
		c0-5.028-0.803-10.021-2.354-14.771C291.318,188.311,303.104,171.113,303.104,151.854z"/>
</g>
</svg>
