<?xml version="1.0" encoding="utf-8"?>
<!-- Generator: Adobe Illustrator 15.0.0, SVG Export Plug-In . SVG Version: 6.00 Build 0)  -->
<!DOCTYPE svg PUBLIC "-//W3C//DTD SVG 1.1//EN" "http://www.w3.org/Graphics/SVG/1.1/DTD/svg11.dtd">
<svg version="1.1" id="レイヤー_1" xmlns="http://www.w3.org/2000/svg" xmlns:xlink="http://www.w3.org/1999/xlink" x="0px"
	 y="0px" width="400px" height="300px" viewBox="0 0 400 300" style="enable-background:new 0 0 400 300;" xml:space="preserve">
<style type="text/css">
<![CDATA[
	.st0{fill:#FF97BF;}
]]>
</style>
<g>
	<path class="st0" d="M309.275,108.77c0,13.754-3.881,26.916-11.641,39.481c-9.221,14.859-26.656,35.066-52.309,60.621
		c-15.156,14.69-30.264,29.378-45.327,44.066c-15.062-14.688-30.125-29.376-45.188-44.066
		c-25.837-25.641-43.319-45.848-52.447-60.621c-7.761-12.565-11.64-25.727-11.64-39.481c0-11.8,3.103-21.989,9.312-30.565
		c6.848-9.508,16.889-15.961,30.126-19.358c4.564-1.188,9.128-1.783,13.693-1.783c20.083,0,38.798,10.401,56.144,31.202
		c17.711-20.801,36.516-31.202,56.418-31.202c4.564,0,9.127,0.595,13.693,1.783c13.146,3.396,23.143,9.806,29.99,19.23
		C306.215,86.654,309.275,96.884,309.275,108.77z"/>
</g>
</svg>
