<?xml version="1.0" encoding="utf-8"?>
<!-- Generator: Adobe Illustrator 15.0.0, SVG Export Plug-In . SVG Version: 6.00 Build 0)  -->
<!DOCTYPE svg PUBLIC "-//W3C//DTD SVG 1.1//EN" "http://www.w3.org/Graphics/SVG/1.1/DTD/svg11.dtd">
<svg version="1.1" id="レイヤー_1" xmlns="http://www.w3.org/2000/svg" xmlns:xlink="http://www.w3.org/1999/xlink" x="0px"
	 y="0px" width="400px" height="300px" viewBox="0 0 400 300" style="enable-background:new 0 0 400 300;" xml:space="preserve">
<style type="text/css">
<![CDATA[
	.st0{fill:#EDC620;}
	.st1{fill:#93A6AD;}
	.st2{fill:#FFE045;}
	.st3{fill:#FFED9F;}
	.st4{fill:none;}
	.st5{fill:#A9B8BF;}
]]>
</style>
<g>
	<path class="st4" d="M345.711,266.396c0.614,0.053,1.205,0.079,1.757,0.079c4.748,0,5.695-1.899,6.052-2.614
		c5.424-10.872-17.305-48.899-36.041-75.138C316.405,211.272,315.491,263.812,345.711,266.396z"/>
	<path class="st2" d="M102.749,63.959l216.913,67.176l0.548-0.12c-1.811-10.833-5.892-15.6-5.948-15.663
		c-0.78-0.883-1.034-2.056-0.787-3.127L82.583,30.26C90.375,35.941,97.328,47.827,102.749,63.959z"/>
	<path class="st2" d="M371.146,119.834c1.754,4.995,3.229,11.158,3.785,18.468l-41.166,8.043
		c-0.897,14.09-7.733,27.947-10.992,33.829l39.962,7.177c0,0,13.141-19.713,12.41-45.264c-0.712-24.947-12.41-37.964-12.41-37.964
		l-35.88,8.642c1.682,2.59,4.297,7.617,5.824,15.514L371.146,119.834z"/>
	<path class="st2" d="M309.303,179.369c0.101-0.16,9.346-15.077,11.343-30.461l-2.443,0.478l-205.35-35.998
		c1.085,10.393,1.694,21.363,1.753,32.705c0.298,56.414-11.191,107.475-28.916,121.357l223.207-85.31
		C308.652,181.231,308.763,180.229,309.303,179.369z"/>
	<path class="st3" d="M371.146,119.834l-38.467,8.444c0.891,4.607,1.411,10.188,1.155,16.834c-0.016,0.411-0.043,0.822-0.069,1.232
		l41.166-8.043C374.375,130.992,372.899,124.829,371.146,119.834z"/>
	<path class="st3" d="M102.749,63.959c4.631,13.782,8.145,30.661,10.104,49.428l205.35,35.998l2.443-0.478
		c0.176-1.354,0.302-2.713,0.354-4.065c0.208-5.413-0.15-9.996-0.79-13.828l-0.548,0.12L102.749,63.959z"/>
	<path class="st0" d="M114.606,146.093c-0.059-11.342-0.668-22.312-1.753-32.705c-1.959-18.767-5.473-35.646-10.104-49.428
		c-5.421-16.132-12.374-28.018-20.165-33.7c-3.369-2.457-6.895-3.754-10.52-3.734c-23.122,0.124-41.593,53.848-41.232,119.99
		c0.339,66.166,22.022,124.77,45.15,124.646c3.404-0.016,6.648-1.313,9.709-3.711C103.415,253.567,114.904,202.507,114.606,146.093z
		"/>
	<path class="st1" d="M333.765,146.345c0.026-0.411,0.054-0.821,0.069-1.232c0.256-6.646-0.265-12.227-1.155-16.834
		c-1.527-7.896-4.143-12.923-5.824-15.514c-0.863-1.33-1.481-2.021-1.576-2.125c-1.3-1.414-3.482-1.503-4.908-0.217
		c-0.221,0.199-0.399,0.426-0.557,0.664c1.771,2.208,9.004,12.589,8.18,34.026c-0.716,18.605-12.271,37.199-12.763,37.981
		c-0.665,1.058-1.804,1.638-2.967,1.638c-0.534,0-1.07-0.13-1.572-0.383c0,0.008-0.001,0.016-0.001,0.024
		c-1.114,21.188-4.504,85.668,34.425,88.997c0.811,0.069,1.603,0.104,2.353,0.104c7.504,0,10.839-3.529,12.316-6.489
		c4.452-8.926-1.371-26.491-17.802-53.7c-7.565-12.528-15.676-24.19-20.482-30.895c0.3-0.502,0.737-1.251,1.272-2.217
		C326.031,174.292,332.867,160.436,333.765,146.345z M353.52,263.86c-0.356,0.715-1.304,2.614-6.052,2.614
		c-0.552,0-1.143-0.026-1.757-0.079c-30.22-2.584-29.306-55.123-28.232-77.673C336.215,214.961,358.943,252.988,353.52,263.86z"/>
	<path class="st5" d="M315.23,183.094c0.491-0.782,12.047-19.376,12.763-37.981c0.824-21.437-6.409-31.818-8.18-34.026
		c-0.202-0.252-0.337-0.403-0.377-0.446c-1.3-1.414-3.482-1.503-4.908-0.217c-0.55,0.496-0.899,1.129-1.055,1.803
		c-0.247,1.072,0.007,2.244,0.787,3.127c0.057,0.063,4.138,4.829,5.948,15.663c0.64,3.832,0.998,8.415,0.79,13.828
		c-0.052,1.352-0.178,2.71-0.354,4.065c-1.997,15.384-11.242,30.301-11.343,30.461c-0.54,0.86-0.65,1.862-0.405,2.771
		c0.221,0.821,0.73,1.566,1.507,2.055c0.094,0.059,0.191,0.104,0.287,0.153c0.502,0.253,1.038,0.383,1.572,0.383
		C313.427,184.731,314.565,184.151,315.23,183.094z"/>
</g>
</svg>
