<?xml version="1.0" encoding="utf-8"?>
<!-- Generator: Adobe Illustrator 15.0.0, SVG Export Plug-In . SVG Version: 6.00 Build 0)  -->
<!DOCTYPE svg PUBLIC "-//W3C//DTD SVG 1.1//EN" "http://www.w3.org/Graphics/SVG/1.1/DTD/svg11.dtd">
<svg version="1.1" id="レイヤー_1" xmlns="http://www.w3.org/2000/svg" xmlns:xlink="http://www.w3.org/1999/xlink" x="0px"
	 y="0px" width="400px" height="300px" viewBox="0 0 400 300" style="enable-background:new 0 0 400 300;" xml:space="preserve">
<style type="text/css">
<![CDATA[
	.st0{fill:#AEE0FF;}
	.st1{fill:#76BEFF;}
]]>
</style>
<g>
	<path class="st1" d="M223.707,77.807c-29.589,6.405-59.293,28.022-73.985,56.584c-17.024,28.471-18.637,55.815-18.637,55.815
		s28.589-21.374,55.703-26.29c26.506-6.862,65.561,1.475,80.336,5.19c29.728,7.233,52.769-9.265,56.295-29.979
		C331.322,92.723,277.692,66.119,223.707,77.807z M274.028,116.854c-14.359,0-26-7.163-26-16s11.641-16,26-16s26,7.163,26,16
		S288.388,116.854,274.028,116.854z"/>
	<path class="st1" d="M190.748,190.499c-18.698-1.623-40.247,5.741-54.177,19.968c-15.292,13.747-21.253,29.648-21.253,29.648
		s20.844-7.425,37.801-5.373c16.957,0.789,38.561,12.879,46.63,17.786c16.283,9.726,32.949,4.175,38.83-7.45
		C251.752,219.039,224.859,193.463,190.748,190.499z M230.525,221.152c-1.878,3.36-7.978,3.529-13.624,0.377
		c-5.646-3.152-8.701-8.433-6.823-11.793s7.978-3.529,13.624-0.377S232.403,217.792,230.525,221.152z"/>
	<path class="st1" d="M167.098,59.815c-12.487-26.376-49.182-20.823-72.444,4.301c-12.75,13.772-19.208,34.424-18.837,55.572
		c0.361,20.56,2.211,33.165,2.211,33.165s16.293-19.926,28.49-31.882c14.935-14.641,33.823-22.556,42.647-25.92
		C166.835,88.157,172.673,71.59,167.098,59.815z M137.516,62.348c-6.331,1.317-12.099-0.672-12.884-4.442
		c-0.785-3.771,3.711-7.897,10.042-9.215c6.331-1.317,12.099,0.672,12.884,4.443C148.343,56.905,143.847,61.03,137.516,62.348z"/>
	<ellipse class="st0" cx="274.028" cy="100.854" rx="26" ry="16"/>
	
		<ellipse transform="matrix(-0.2037 -0.979 0.979 -0.2037 109.4653 200.0705)" class="st0" cx="136.095" cy="55.519" rx="6.975" ry="11.709"/>
	
		<ellipse transform="matrix(0.4878 -0.8729 0.8729 0.4878 -75.2365 302.658)" class="st0" cx="220.302" cy="215.444" rx="6.971" ry="11.709"/>
</g>
</svg>
