<?xml version="1.0" encoding="utf-8"?>
<!-- Generator: Adobe Illustrator 15.0.0, SVG Export Plug-In . SVG Version: 6.00 Build 0)  -->
<!DOCTYPE svg PUBLIC "-//W3C//DTD SVG 1.1//EN" "http://www.w3.org/Graphics/SVG/1.1/DTD/svg11.dtd">
<svg version="1.1" id="レイヤー_1" xmlns="http://www.w3.org/2000/svg" xmlns:xlink="http://www.w3.org/1999/xlink" x="0px"
	 y="0px" width="400px" height="300px" viewBox="0 0 400 300" style="enable-background:new 0 0 400 300;" xml:space="preserve">
<style type="text/css">
<![CDATA[
	.st0{fill:#F22319;}
]]>
</style>
<g>
	<g>
		<path class="st0" d="M282.26,148.525c-4.254,2.629-5.221,4.95-7.541,10.982c-0.387,0.772-0.966,1.547-2.706,1.547
			c-6.187,0-53.358-21.963-68.245-62.95c-0.967,0.31-1.16,0.31-2.513,0.464c-40.6,48.875-76.751,59.856-94.925,64.496l-0.772-1.546
			c31.125-16.395,58.771-45.472,71.144-75.322l33.446,6.806c1.74,0.309,2.32,1.392,2.32,1.701c0,1.238-2.32,2.01-3.867,2.32
			c13.533,20.107,34.413,33.408,82.745,45.008l0.193,1.546C289.992,144.35,282.646,148.216,282.26,148.525z M259.446,177.603v40.059
			c0,3.094,0,5.104-5.22,6.96c-7.347,2.629-13.727,2.784-14.5,2.784c-2.899,0-5.8-1.548-5.8-4.177v-6.806h-72.304v3.868
			c0,2.783-7.733,8.351-19.139,8.351c-5.993,0-5.993-1.855-5.993-4.639v-63.568l25.132,8.352h70.372l8.699-8.042
			c0.773-0.773,2.514-1.393,3.674-1.393c2.127,0,3.866,0.928,4.252,1.083l14.693,9.125c0.967,0.619,1.354,1.547,1.354,2.166
			C264.666,173.272,262.926,174.818,259.446,177.603z M232.573,147.443h-74.238l-2.319-3.403h47.558l10.246-11.291
			c0.581-0.618,1.354-1.546,3.094-1.546c1.354,0,2.514,0.773,3.48,1.392l13.727,10.053c0.192,0.154,1.739,1.392,1.739,2.784
			C235.86,146.979,234.313,147.443,232.573,147.443z M233.927,172.189h-72.304v40.677h72.304V172.189z"/>
	</g>
	<path class="st0" d="M255.678,294.559c-13.538,0-28.513-3.711-40.061-9.927c-6.577-3.541-11.821-7.757-15.597-12.458
		c-11.843,14.692-36.482,22.385-55.704,22.385c-15.007,0.001-25.717-4.502-30.156-12.681c-0.65-1.197-1.233-2.604-1.626-4.219
		c-0.652,0.082-1.308,0.124-1.969,0.124c-0.001,0-0.003,0-0.004,0c-11.145,0.001-20.058-11.536-24.455-31.654
		c-4.044-18.503-3.099-39.471,4.566-53.434c-10.519-3.749-21.028-13.676-29.358-28.104c-8.167-14.145-15.105-35.163-7.782-47.848
		c1.287-2.229,2.953-4.077,4.935-5.51c-1.156-2.758-1.167-5.35-0.984-7c1.343-12.114,16.865-22.528,25.999-27.657
		c14.429-8.104,30.363-12.943,42.625-12.943c2.286,0,4.371,0.166,6.271,0.46c0.384-3.786,1.549-8.136,3.832-13.118
		c9.393-20.497,36.246-45.534,54.196-45.534c3.319,0,6.734,0.901,9.595,3.002c2.86-2.102,6.275-3.002,9.595-3.002
		c17.95,0,44.802,25.037,54.194,45.534c2.282,4.98,3.447,9.332,3.832,13.118c1.9-0.294,3.985-0.46,6.271-0.46
		c12.261,0,28.195,4.838,42.625,12.943c9.133,5.129,24.656,15.543,25.999,27.657c0.183,1.65,0.173,4.239-0.981,6.995
		c5.116,3.721,8.024,10.194,8.026,18.642c0.003,21.315-18.474,54.972-40.242,62.814c7.664,13.956,8.616,34.918,4.578,53.414
		c-4.395,20.134-13.31,31.683-24.46,31.686c-0.001,0-0.003,0-0.004,0c-0.661,0-1.319-0.041-1.971-0.124
		c-0.394,1.614-0.976,3.02-1.625,4.216c-4.439,8.178-15.147,12.683-30.153,12.684C255.682,294.559,255.68,294.559,255.678,294.559z
		 M206.987,253.208c0,9.489,9.558,16.052,15.255,19.118c9.463,5.095,22.276,8.259,33.44,8.258c10.33,0,16.42-2.7,17.872-5.375
		c1.135-2.091,0.074-5.923-2.908-10.513c-0.765-1.176-1.13-2.495-1.13-3.801c0-2.286,1.121-4.527,3.183-5.866
		c3.234-2.103,7.563-1.184,9.665,2.053c3.451,5.31,6.067,6.726,7.068,6.726c2.195-0.001,7.619-6.069,10.811-20.69
		c4.416-20.229,1.729-45.485-10.313-51.011c-2.562-1.175-4.073-3.705-4.076-6.352c0-0.975,0.205-1.967,0.639-2.913
		c1.61-3.508,5.757-5.046,9.266-3.437c1.432,0.657,2.873,0.976,4.408,0.976c0.001,0,0.002,0,0.003,0
		c15.634-0.004,35.419-31.32,35.416-50.51c-0.001-8.226-3.59-8.226-5.965-8.226c-1.258,0-2.705,0.183-4.304,0.542
		c-3.765,0.843-7.503-1.522-8.349-5.288c-0.115-0.514-0.171-1.029-0.171-1.535c-0.001-3.198,2.208-6.083,5.458-6.813
		c4.905-1.102,6.177-2.455,6.38-2.711c-0.009-0.521-0.592-2.38-3.268-5.34c-9.567-10.586-34.139-22.892-51.476-22.892
		c-3.715,0-8.675,0.619-11.22,3.57c-2.519,2.923-6.931,3.25-9.854,0.73c-1.604-1.384-2.426-3.336-2.425-5.3
		c0.001-1.614,0.559-3.235,1.695-4.555c3.401-3.946,0.832-11.253-1.004-15.257c-8.27-18.048-31.427-37.38-41.489-37.38
		c-0.976,0-2.607,0-2.607,6.018c0,3.859-3.128,6.987-6.987,6.987c-3.859,0-6.987-3.128-6.987-6.987c0-6.018-1.632-6.018-2.607-6.018
		c-10.063,0-33.222,19.332-41.492,37.381c-1.834,4.004-4.405,11.311-1.003,15.256c1.137,1.32,1.694,2.941,1.695,4.555
		c0.001,1.964-0.821,3.917-2.425,5.3c-2.922,2.52-7.335,2.193-9.855-0.73c-2.543-2.951-7.505-3.57-11.219-3.57
		c-17.338,0-41.908,12.306-51.476,22.893c-2.675,2.96-3.257,4.817-3.266,5.339c0.202,0.256,1.473,1.609,6.378,2.711
		c3.25,0.729,5.459,3.615,5.458,6.813c0,0.506-0.056,1.021-0.171,1.535c-0.847,3.766-4.585,6.129-8.348,5.288
		c-1.599-0.359-3.047-0.542-4.305-0.542c-3.538,0-4.351,1.409-4.742,2.086c-2.894,5.013-0.774,19.053,7.782,33.873
		c7.989,13.838,18.356,22.777,26.411,22.777c1.538,0,2.981-0.318,4.414-0.976c3.504-1.609,7.656-0.07,9.265,3.437
		c0.434,0.946,0.639,1.938,0.638,2.913c-0.001,2.646-1.513,5.177-4.075,6.352c-12.05,5.529-14.734,30.798-10.31,51.038
		c3.192,14.603,8.61,20.663,10.802,20.663c1.003,0,3.622-1.417,7.071-6.726c2.104-3.236,6.433-4.154,9.667-2.053
		c2.06,1.339,3.181,3.579,3.181,5.866c0,1.306-0.365,2.625-1.129,3.8c-2.983,4.593-4.044,8.426-2.909,10.516
		c1.452,2.675,7.542,5.374,17.874,5.373c22.519,0,48.696-11.959,48.696-27.376c0-3.858,3.128-6.987,6.987-6.987
		C203.859,246.221,206.987,249.35,206.987,253.208z"/>
</g>
</svg>
