<?xml version="1.0" encoding="utf-8"?>
<!-- Generator: Adobe Illustrator 15.0.0, SVG Export Plug-In . SVG Version: 6.00 Build 0)  -->
<!DOCTYPE svg PUBLIC "-//W3C//DTD SVG 1.1//EN" "http://www.w3.org/Graphics/SVG/1.1/DTD/svg11.dtd">
<svg version="1.1" id="レイヤー_1" xmlns="http://www.w3.org/2000/svg" xmlns:xlink="http://www.w3.org/1999/xlink" x="0px"
	 y="0px" width="400px" height="300px" viewBox="0 0 400 300" style="enable-background:new 0 0 400 300;" xml:space="preserve">
<style type="text/css">
<![CDATA[
	.st0{fill:#D31111;stroke:#FFFFFF;stroke-width:7;stroke-linecap:round;stroke-linejoin:round;stroke-miterlimit:10;}
	.st1{fill:#D31111;}
]]>
</style>
<g>
	<g>
		<g>
			<path class="st0" d="M343.917,39.31c-41.615,56.552-59.606,77.857-90.38,113.839c29.354,16.097,40.728,18.567,50.309,22.051
				l-33.1,45.297c-8.712-8.71-24.95-24.665-46.562-37.048c-24.619,23.198-52.552,51.131-98.477,83.325
				c-10.694,7.498-32.816,19.412-43.527,20.583c-10.917,1.195-28.908-5.906-25.725-20.69
				c3.471-16.129,43.554-101.048,50.526-116.727c7.72-17.369,14.272-34.445,25.259-42.684c6.97-5.227,13.945-8.712,22.651-8.712
				c7.045,0,16.065,6.797,22.646,10.454c7.841,4.355,15.062,8.889,31.023,18.112c31.918-38.138,57.99-77.494,81.93-114.596
				L343.917,39.31z M183.942,157.883c-12.023-7.771-21.548-14.268-24.655-15.098c-1.455-0.414-2.852-0.622-4.199-0.622
				c-5.699,0-9.068,2.877-11.659,7.928c-12.986,25.31-32.396,61.291-44.927,87.522c-0.843,1.767-1.556,3.108-1.556,4.353
				c0,1.97,0.934,2.953,2.798,2.953c2.074,0,4.509-1.4,7.307-4.197C130.473,217.714,157.411,191.567,183.942,157.883z"/>
		</g>
	</g>
	<g>
		<g>
			<path class="st1" d="M343.917,39.31c-41.615,56.552-59.606,77.857-90.38,113.839c29.354,16.097,40.728,18.567,50.309,22.051
				l-33.1,45.297c-8.712-8.71-24.95-24.665-46.562-37.048c-24.619,23.198-52.552,51.131-98.477,83.325
				c-10.694,7.498-32.816,19.412-43.527,20.583c-10.917,1.195-28.908-5.906-25.725-20.69
				c3.471-16.129,43.554-101.048,50.526-116.727c7.72-17.369,14.272-34.445,25.259-42.684c6.97-5.227,13.945-8.712,22.651-8.712
				c7.045,0,16.065,6.797,22.646,10.454c7.841,4.355,15.062,8.889,31.023,18.112c31.918-38.138,57.99-77.494,81.93-114.596
				L343.917,39.31z M183.942,157.883c-12.023-7.771-21.548-14.268-24.655-15.098c-1.455-0.414-2.852-0.622-4.199-0.622
				c-5.699,0-9.068,2.877-11.659,7.928c-12.986,25.31-32.396,61.291-44.927,87.522c-0.843,1.767-1.556,3.108-1.556,4.353
				c0,1.97,0.934,2.953,2.798,2.953c2.074,0,4.509-1.4,7.307-4.197C130.473,217.714,157.411,191.567,183.942,157.883z"/>
		</g>
	</g>
</g>
</svg>
