<?xml version="1.0" encoding="utf-8"?>
<!-- Generator: Adobe Illustrator 15.0.0, SVG Export Plug-In . SVG Version: 6.00 Build 0)  -->
<!DOCTYPE svg PUBLIC "-//W3C//DTD SVG 1.1//EN" "http://www.w3.org/Graphics/SVG/1.1/DTD/svg11.dtd">
<svg version="1.1" id="レイヤー_1" xmlns="http://www.w3.org/2000/svg" xmlns:xlink="http://www.w3.org/1999/xlink" x="0px"
	 y="0px" width="400px" height="300px" viewBox="0 0 400 300" style="enable-background:new 0 0 400 300;" xml:space="preserve">
<style type="text/css">
<![CDATA[
	.st0{fill:#F22319;}
	.st1{fill:none;}
]]>
</style>
<g>
	<path class="st1" d="M125.315,90.121c0.211,0.071,0.43,0.118,0.648,0.167C125.864,90.238,125.653,90.174,125.315,90.121z"/>
	<path class="st1" d="M240.142,161.293C239.495,161.4,239.904,161.399,240.142,161.293L240.142,161.293z"/>
	<path class="st1" d="M123.606,89.219c0.534,0.41,1.003,0.68,1.388,0.859c0.117,0.013,0.226,0.027,0.322,0.043
		C124.705,89.915,124.128,89.619,123.606,89.219z"/>
	<path class="st1" d="M327.303,84.271c-5.547-3.062-11.727-6.02-17.155-6.623c-6.104-0.677-12.294-0.651-18.374,0.268
		c-2.784,0.42-5.535,0.977-8.151,2.059c-1.302,0.539-2.431,1.574-2.481,1.69c-2.757,6.269-17.054,7.049-14.098-1.398
		c3.061-8.742,0.739-19.054-2.535-27.417c-3.06-7.815-7.405-14.806-14.266-19.813c-13.413-9.789-30.543-13.703-46.937-14.043
		c-14.749-0.307-32.273,2.004-43.768,12.169c-14.698,12.999-21.893,33.304-23.337,52.478c-0.333,4.426-5.915,7.625-10.237,6.647
		c0.244,0.123-0.173,0.161-0.97-0.21c-0.15-0.017-0.314-0.032-0.5-0.043c-0.989-0.061-1.979-0.115-2.968-0.157
		c-2.988-0.128-5.977-0.223-8.966-0.285c-5.61-0.115-9.467-0.489-14.773,0.553c-16.522,3.244-29.627,13.459-37.944,27.921
		c-11.86,21.562-16.836,66.543,13.8,74.892c5.778,1.574,3.274,7.7-0.171,10.059c-7.005,4.796-7.567,17.407-6.665,24.948
		c1.074,8.973,6.068,17.477,13.289,22.904c7.791,5.856,17.663,10.185,27.563,8.104c10.194-2.143,18.594-9.764,25.669-16.946
		c3.502-3.556,15.095-2.95,12.179,4.177c-3.411,8.337-0.977,17.071,4.823,23.748c5.057,5.821,13.232,11.739,21.42,11.036
		c15.799-1.357,25.719-19.036,32.876-31.263c2.623-4.48,13.843-5.736,13.637,1.331c-0.311,10.626,9.999,13.342,18.699,10.045
		c7.968-3.019,7.562-16.006,8.899-22.962c0.866-4.499,8.938-6.845,12.303-4.052c11.217,9.313,24.605,9.322,35.833-0.156
		c7.76-6.552,11.283-12.118,14.257-21.037c2.498-7.491,4.748-15.772,4.001-23.75c-0.098-1.045-0.345-2.454-0.877-3.731
		c-0.218-0.523-0.816-1.432-1.067-1.593c-0.56-0.36,0.286-0.296-0.72-0.166c-0.846,0.108-3.103,0.838-4.907,1.622
		c-7.169,3.114-13.055-6.462-5.387-9.981c16.064-7.376,31.455-17.931,41.07-33.093c8.138-12.832,13.494-30.276,3.657-43.74
		C339.622,92.437,333.812,87.865,327.303,84.271z M288.584,179.071c-9.174,16.237-24.285,26.492-42.449,30.382
		c-28.284,6.058-67.339-5.332-78.821-34.59c-5.734-14.611-1.095-29.833,8.808-41.455c13.608-15.971,36.482-24.156,57.261-22.79
		c17.778,1.168,38.853,12.59,31.857,33.517c-6.116,18.298-29.572,30.593-47.013,19.63c-2.446-1.538,3.349-4.328,4.106-4.633
		c2.5-1.003,6.828-2.387,9.382-0.781c2.054,1.291,4.205,2.396,6.629,2.795c0.644,0.106,1.269,0.13,1.907,0.087
		c7.183-3.947,12.207-13.756,11.903-21.867c-0.359-9.599-7.431-16.781-16.287-19.829c-18.533-6.379-38.118,0.466-49.252,16.323
		c-8.665,12.341-10.008,27.638-1.961,40.65c7.842,12.684,21.727,21.451,35.897,25.411c13.578,3.793,28.532,4.221,39.945-4.157
		c18.592-13.648,24.963-39.722,19.894-61.47C275,113.161,260.09,90.875,236.475,83.892c-20.11-5.947-43.162-4.692-62.309,4.015
		c-21.208,9.644-38.409,26.621-48.068,47.855c-9.097,19.997-14.107,44.243-2.1,64.206c12.81,21.297,39.978,32.055,63.436,36.014
		c27.442,4.632,52.102-4.749,75.804-17.87c2.768-1.532,6.951-2.805,10.121-1.945c3.271,0.886-0.223,3.537-1.557,4.275
		c-28.9,15.998-61.039,27.67-94.48,22.025c-26.794-4.521-60.007-17.363-70.896-44.693c-8.373-21.017-2.437-45.14,7.891-64.401
		c10.951-20.424,28.109-36.607,48.974-46.7c20.48-9.907,43.825-14.829,66.59-12.483c10.724,1.104,21.522,3.516,31.037,8.767
		c10.005,5.522,17.518,14.027,23.401,23.741C297.443,128.361,301.473,156.259,288.584,179.071z"/>
	<path class="st0" d="M354.655,88.285c-10.333-12.529-28.032-21.572-44.19-22.665c-7.646-0.517-18.224-0.519-27.224,2.148
		c-0.296-15.801-8.71-32.415-19.893-42.162c-14.857-12.95-36.753-17.687-55.924-18.306c-20.026-0.646-41.072,3.329-57.073,16.005
		c-16.19,12.827-25.061,34.15-28.007,54.519c-1.737,0.054-3.347,0.13-4.6,0.099c-6.507-0.163-13.166-0.563-19.601,0.562
		C76.775,82.22,58.089,94.907,47.253,113.75c-14.073,25.585-18.895,72.619,11.504,87.422c-5.178,7.196-6.915,16.282-6.815,25.649
		c0.138,13.068,6.853,24.449,16.604,32.718c10.097,8.563,24.179,12.966,37.284,11.341c8.705-1.079,16.682-4.883,23.85-9.92
		c2.977,16.755,20.064,30.682,37.207,31.736c18.166,1.116,31.744-11.438,41.888-25.531c6.428,6.54,17.733,8.099,27.699,5.835
		c7.306-1.66,14.246-5.364,18.036-12.065c1.93-3.411,2.95-7.146,3.687-10.966c12.833,5.281,27.339,3.255,39.786-4.502
		c11.586-7.221,19.611-17.678,24.095-30.374c3.524-9.978,6.242-21.345,4.259-31.913c-0.61-3.249-1.992-5.669-3.862-7.407
		c13.253-8.452,24.917-19.434,32.809-33.09C365.289,125.361,368.064,104.543,354.655,88.285z M340.367,142.202
		c-9.615,15.162-25.006,25.717-41.07,33.093c-7.668,3.52-1.782,13.096,5.387,9.981c1.805-0.784,4.062-1.514,4.907-1.622
		c1.006-0.13,0.16-0.194,0.72,0.166c0.251,0.161,0.85,1.069,1.067,1.593c0.532,1.277,0.779,2.687,0.877,3.731
		c0.747,7.978-1.503,16.259-4.001,23.75c-2.974,8.919-6.497,14.485-14.257,21.037c-11.228,9.479-24.616,9.47-35.833,0.156
		c-3.364-2.793-11.437-0.447-12.303,4.052c-1.338,6.956-0.932,19.943-8.899,22.962c-8.7,3.297-19.01,0.581-18.699-10.045
		c0.206-7.067-11.014-5.812-13.637-1.331c-7.157,12.227-17.078,29.905-32.876,31.263c-8.188,0.703-16.363-5.215-21.42-11.036
		c-5.8-6.677-8.234-15.411-4.823-23.748c2.916-7.127-8.677-7.732-12.179-4.177c-7.076,7.183-15.476,14.804-25.669,16.946
		c-9.9,2.081-19.772-2.247-27.563-8.104c-7.22-5.428-12.214-13.932-13.289-22.904c-0.903-7.541-0.341-20.152,6.665-24.948
		c3.446-2.358,5.95-8.484,0.171-10.059c-30.637-8.349-25.661-53.33-13.8-74.892c8.317-14.462,21.422-24.678,37.944-27.921
		c5.306-1.042,9.163-0.668,14.773-0.553c2.99,0.062,5.979,0.157,8.966,0.285c0.99,0.042,1.979,0.096,2.968,0.157
		c0.186,0.011,0.35,0.027,0.5,0.043c-0.385-0.179-0.854-0.449-1.388-0.859c0.522,0.4,1.099,0.696,1.709,0.902
		c0.338,0.054,0.549,0.117,0.648,0.167c4.322,0.978,9.904-2.222,10.237-6.647c1.444-19.174,8.639-39.479,23.337-52.478
		c11.494-10.166,29.019-12.476,43.768-12.169c16.394,0.341,33.523,4.255,46.937,14.043c6.86,5.007,11.206,11.998,14.266,19.813
		c3.274,8.364,5.596,18.676,2.535,27.417c-2.956,8.448,11.341,7.667,14.098,1.398c0.051-0.116,1.18-1.152,2.481-1.69
		c2.616-1.082,5.367-1.638,8.151-2.059c6.08-0.919,12.271-0.945,18.374-0.268c5.429,0.603,11.608,3.56,17.155,6.623
		c6.51,3.594,12.319,8.166,16.722,14.191C353.861,111.926,348.505,129.37,340.367,142.202z"/>
	<path class="st0" d="M125.964,90.288c-0.218-0.049-0.438-0.097-0.648-0.167c-0.096-0.016-0.205-0.03-0.322-0.043
		C125.791,90.449,126.208,90.411,125.964,90.288z"/>
	<path class="st0" d="M260.918,82.956c-9.515-5.251-20.313-7.663-31.037-8.767c-22.766-2.345-46.11,2.577-66.59,12.483
		c-20.865,10.093-38.022,26.276-48.974,46.7c-10.328,19.262-16.264,43.385-7.891,64.401c10.888,27.33,44.101,40.172,70.896,44.693
		c33.441,5.645,65.58-6.027,94.48-22.025c1.334-0.738,4.827-3.39,1.557-4.275c-3.17-0.859-7.354,0.413-10.121,1.945
		c-23.702,13.121-48.362,22.502-75.804,17.87c-23.458-3.959-50.626-14.717-63.436-36.014c-12.007-19.963-6.997-44.209,2.1-64.206
		c9.659-21.234,26.859-38.211,48.068-47.855c19.147-8.707,42.199-9.962,62.309-4.015c23.615,6.984,38.525,29.27,43.917,52.403
		c5.069,21.748-1.302,47.821-19.894,61.47c-11.413,8.378-26.367,7.95-39.945,4.157c-14.171-3.96-28.055-12.728-35.897-25.411
		c-8.047-13.013-6.704-28.31,1.961-40.65c11.134-15.857,30.719-22.702,49.252-16.323c8.856,3.048,15.928,10.23,16.287,19.829
		c0.304,8.11-4.721,17.919-11.903,21.867c-0.639,0.043-1.264,0.02-1.907-0.087c-2.424-0.399-4.575-1.504-6.629-2.795
		c-2.554-1.605-6.882-0.222-9.382,0.781c-0.758,0.305-6.553,3.095-4.106,4.633c17.44,10.963,40.896-1.332,47.013-19.63
		c6.995-20.927-14.079-32.349-31.857-33.517c-20.779-1.366-43.653,6.819-57.261,22.79c-9.903,11.622-14.542,26.844-8.808,41.455
		c11.482,29.258,50.537,40.647,78.821,34.59c18.164-3.89,33.275-14.145,42.449-30.382c12.889-22.812,8.859-50.71-4.265-72.375
		C278.436,96.983,270.923,88.478,260.918,82.956z M240.142,161.293C239.904,161.399,239.495,161.4,240.142,161.293L240.142,161.293z
		"/>
</g>
</svg>
