<?xml version="1.0" encoding="utf-8"?>
<!-- Generator: Adobe Illustrator 15.0.0, SVG Export Plug-In . SVG Version: 6.00 Build 0)  -->
<!DOCTYPE svg PUBLIC "-//W3C//DTD SVG 1.1//EN" "http://www.w3.org/Graphics/SVG/1.1/DTD/svg11.dtd">
<svg version="1.1" id="レイヤー_1" xmlns="http://www.w3.org/2000/svg" xmlns:xlink="http://www.w3.org/1999/xlink" x="0px"
	 y="0px" width="400px" height="300px" viewBox="0 0 400 300" style="enable-background:new 0 0 400 300;" xml:space="preserve">
<style type="text/css">
<![CDATA[
	.st0{fill:#563F36;}
]]>
</style>
<g>
	<g>
		<path class="st0" d="M200.88,240.104c-21.165,1.277-57.939,20.071-69.468-18.946c-7.935-26.964,20.08-34.472,29.284-41.783
			c15.102-12.052,10.055-31.289,40.165-30.598c29.79,0.711,25.544,17.868,40.952,29.501c9.38,7.049,36.98,12.204,30.41,40.962
			C263.186,259.013,224.284,238.623,200.88,240.104z"/>
		<path class="st0" d="M231.039,137.571c-15.207,0.322-23.691-20.547-22.963-41.958c0.691-21.399,14.244-49.362,38.833-39.206
			c24.55,10.123,20.231,30.745,17.144,42.536C261.02,110.717,246.898,137.245,231.039,137.571z"/>
		<path class="st0" d="M265.432,180.999c-8.776-8.073-6.586-37.49,5.488-50.6c12.066-13.176,32.537-23.235,45.904-13.795
			c13.35,9.478,12.6,37.719-11.708,52.984C280.822,184.877,271.982,187.043,265.432,180.999z"/>
		<path class="st0" d="M168.942,138.739c15.205-0.264,22.943-21.415,21.438-42.782c-1.555-21.361-16.164-48.774-40.317-37.721
			c-24.159,11.068-19.082,31.476-15.565,43.147C137.995,113.062,153.088,138.992,168.942,138.739z"/>
		<path class="st0" d="M136.24,183.424c8.471-8.354,5.192-37.687-7.39-50.363c-12.553-12.664-33.391-21.997-46.393-12.014
			c-12.965,9.973-11.168,38.131,13.704,52.478C121.012,187.892,129.907,189.716,136.24,183.424z"/>
	</g>
</g>
</svg>
