<?xml version="1.0" encoding="utf-8"?>
<!-- Generator: Adobe Illustrator 15.0.0, SVG Export Plug-In . SVG Version: 6.00 Build 0)  -->
<!DOCTYPE svg PUBLIC "-//W3C//DTD SVG 1.1//EN" "http://www.w3.org/Graphics/SVG/1.1/DTD/svg11.dtd">
<svg version="1.1" id="レイヤー_1" xmlns="http://www.w3.org/2000/svg" xmlns:xlink="http://www.w3.org/1999/xlink" x="0px"
	 y="0px" width="400px" height="300px" viewBox="0 0 400 300" style="enable-background:new 0 0 400 300;" xml:space="preserve">
<style type="text/css">
<![CDATA[
	.st0{fill:#F9C953;}
	.st1{fill:#FFCB48;}
]]>
</style>
<g>
	<polygon class="st1" points="134.121,89.984 155.189,127.342 197.221,135.83 168.207,167.416 173.125,210.016 134.121,192.176 
		95.118,210.016 100.033,167.414 71.023,135.83 113.055,127.342 	"/>
	<polygon class="st0" points="265.873,89.985 286.941,127.342 328.973,135.83 299.959,167.416 304.877,210.016 265.873,192.176 
		226.869,210.016 231.785,167.416 202.775,135.83 244.807,127.342 	"/>
	<polygon class="st1" points="328.977,135.83 286.943,127.342 266.038,90.271 265.877,89.985 244.811,127.342 202.778,135.83 
		231.789,167.416 226.873,210.016 265.877,192.176 266.038,192.25 304.881,210.016 299.963,167.416 	"/>
</g>
</svg>
