<?xml version="1.0" encoding="utf-8"?>
<!-- Generator: Adobe Illustrator 15.0.0, SVG Export Plug-In . SVG Version: 6.00 Build 0)  -->
<!DOCTYPE svg PUBLIC "-//W3C//DTD SVG 1.1//EN" "http://www.w3.org/Graphics/SVG/1.1/DTD/svg11.dtd">
<svg version="1.1" id="レイヤー_1" xmlns="http://www.w3.org/2000/svg" xmlns:xlink="http://www.w3.org/1999/xlink" x="0px"
	 y="0px" width="400px" height="300px" viewBox="0 0 400 300" style="enable-background:new 0 0 400 300;" xml:space="preserve">
<style type="text/css">
<![CDATA[
	.st0{fill:#D31111;}
]]>
</style>
<g>
	<path class="st0" d="M184.339,221.374h-30.182l-64.16-104.878v104.878H60.955V78.342h37.964l56.377,92.444V78.342h29.043V221.374z"
		/>
	<path class="st0" d="M339.045,212.547c-19.236,7.91-37.364,11.864-54.385,11.864c-23.665,0-42.156-6.549-55.475-19.646
		c-13.32-13.099-19.979-31.447-19.979-55.05c0-22.715,6.817-40.748,20.454-54.1c13.634-13.35,32.222-20.026,55.76-20.026
		c17.716,0,35.464,4.209,53.245,12.623v29.043h-3.321c-11.2-8.352-20.344-13.65-27.43-15.897
		c-7.088-2.245-13.921-3.369-20.501-3.369c-13.921,0-24.946,4.541-33.077,13.62c-8.131,9.08-12.195,21.592-12.195,37.537
		c0,17.339,4.19,30.548,12.576,39.626c8.383,9.08,20.547,13.62,36.492,13.62c6.137,0,11.864-0.79,17.18-2.372v-32.556h-31.985
		v-22.779h62.642V212.547z"/>
</g>
</svg>
