<?xml version="1.0" encoding="utf-8"?>
<!-- Generator: Adobe Illustrator 15.0.0, SVG Export Plug-In . SVG Version: 6.00 Build 0)  -->
<!DOCTYPE svg PUBLIC "-//W3C//DTD SVG 1.1//EN" "http://www.w3.org/Graphics/SVG/1.1/DTD/svg11.dtd">
<svg version="1.1" id="レイヤー_1" xmlns="http://www.w3.org/2000/svg" xmlns:xlink="http://www.w3.org/1999/xlink" x="0px"
	 y="0px" width="400px" height="300px" viewBox="0 0 400 300" style="enable-background:new 0 0 400 300;" xml:space="preserve">
<style type="text/css">
<![CDATA[
	.st0{fill:#4DAA4D;}
	.st1{fill:#FF7C24;}
	.st2{fill:#FF97BF;}
	.st3{fill:#FFE045;}
	.st4{fill:none;}
	.st5{fill:#D31111;}
	.st6{fill:#76BEFF;}
]]>
</style>
<g>
	<rect x="209.174" y="91.927" class="st4" width="56.854" height="44.035"/>
	<path class="st5" d="M286.482,216.226c-0.483,6.987-0.946,11.001-1.393,12.04c-0.446,1.041-1.209,2.026-2.286,2.954
		c-1.078,0.931-2.211,1.394-3.399,1.394h-5.908c-3.79,0-5.686-1.745-5.686-5.239v-66.442h28.538V67.067H179.632v93.864h18.394
		c0.073,1.562,0.112,3.16,0.112,4.794c0,33.147-14.977,58.155-44.926,75.026l14.158,21.069c18.43-8.993,32.811-21.293,43.143-36.9
		c10.328-15.606,15.495-35.115,15.495-58.525c0-1.856-0.038-3.68-0.112-5.464h12.932v73.243c0,4.608,0.687,8.583,2.062,11.928
		c1.374,3.344,3.362,5.981,5.965,7.915c2.601,1.933,5.722,3.25,9.363,3.957c3.642,0.705,9.884,1.06,18.729,1.06
		c6.688,0,11.873-0.279,15.552-0.836c3.679-0.558,7.115-1.804,10.312-3.734c3.195-1.934,5.573-4.46,7.135-7.581
		c1.56-3.121,2.341-6.837,2.341-11.147v-37.123l-23.076-3.232C287.208,202.291,286.966,209.241,286.482,216.226z M266.027,135.961
		h-56.854V91.927h56.854V135.961z"/>
	<path class="st5" d="M181.081,178.435c-17.243-13.971-26.978-22.034-29.208-24.191c12.486-18.578,21.218-37.753,26.198-57.522
		l-5.239-6.131h-23.522V61.605h-27.2v28.984H97.918v23.299h45.483c-9.662,26.83-28.315,50.018-55.962,69.562l13.043,21.516
		c7.358-5.054,14.269-10.404,20.735-16.053v73.799h27.424v-77.813c5.201,5.129,11.594,11.037,19.174,17.726L181.081,178.435z"/>
	
		<rect x="34.548" y="24.292" transform="matrix(-0.8905 -0.4549 0.4549 -0.8905 79.7814 103.3342)" class="st6" width="35.552" height="35.552"/>
	
		<rect x="16.352" y="179.405" transform="matrix(0.9413 -0.3377 0.3377 0.9413 -64.5768 23.1053)" class="st0" width="35.552" height="35.552"/>
	
		<rect x="42.59" y="87.085" transform="matrix(0.3377 0.9413 -0.9413 0.3377 131.7424 13.8403)" class="st2" width="26.893" height="26.892"/>
	
		<rect x="41.275" y="249.307" transform="matrix(-0.9574 -0.2889 0.2889 -0.9574 32.9328 532.4489)" class="st1" width="28.974" height="28.973"/>
	
		<rect x="346.345" y="228.066" transform="matrix(-0.9413 -0.3377 0.3377 -0.9413 623.8417 600.1969)" class="st0" width="35.552" height="35.552"/>
	
		<rect x="350.558" y="67.951" transform="matrix(0.152 0.9884 -0.9884 0.152 397.0951 -291.357)" class="st3" width="35.552" height="35.552"/>
	
		<rect x="324.838" y="159.459" transform="matrix(0.9413 0.3377 -0.3377 0.9413 78.2617 -104.0795)" class="st6" width="26.891" height="26.893"/>
	
		<rect x="308.89" y="26.242" transform="matrix(0.9413 0.3376 -0.3376 0.9413 32.3295 -106.5031)" class="st1" width="26.893" height="26.892"/>
</g>
</svg>
