<?xml version="1.0" encoding="utf-8"?>
<!-- Generator: Adobe Illustrator 15.0.0, SVG Export Plug-In . SVG Version: 6.00 Build 0)  -->
<!DOCTYPE svg PUBLIC "-//W3C//DTD SVG 1.1//EN" "http://www.w3.org/Graphics/SVG/1.1/DTD/svg11.dtd">
<svg version="1.1" id="レイヤー_1" xmlns="http://www.w3.org/2000/svg" xmlns:xlink="http://www.w3.org/1999/xlink" x="0px"
	 y="0px" width="400px" height="300px" viewBox="0 0 400 300" style="enable-background:new 0 0 400 300;" xml:space="preserve">
<style type="text/css">
<![CDATA[
	.st0{fill:#E4E4E4;}
	.st1{fill:#4DAA4D;}
	.st2{fill:#EFAB78;}
	.st3{fill:#F5C8A3;}
	.st4{fill:none;}
]]>
</style>
<g>
	<path class="st4" d="M262.09,31.658c0.573-0.095,1.164-0.164,1.796-0.174C263.276,31.382,262.677,31.457,262.09,31.658z"/>
	<path class="st4" d="M161.686,101.144c-12.407,0.362-11.12,22.029-30.988,17.509c8.469,6.842,12.092,24.07,12.092,24.07
		s27.285,20.978,34.656,4.157C185.566,128.351,177.788,109.446,161.686,101.144z"/>
	<path class="st3" d="M259.034,210.574c2.648-16.269,20.86-47.309,19.898-53.065c-1.893-11.34,5.033-126.367-15.047-126.025
		c-0.632,0.011-1.223,0.08-1.796,0.174c-3.344,1.145-6.188,6.931-7.054,14.459c-0.47,4.087-0.68,67.413-0.68,67.413
		s-2.042-0.34-4.086-3.743c-2.044-3.403,0.681-56.865,0.681-56.865s-0.186-0.682-0.287-1.906c-0.016,0.244-0.029,0.484-0.041,0.717
		c-0.176-12.104-1.921-42.302-14.984-42.028c-4.06,0.084-6.748,2.689-8.534,6.287c4.001-7.024,10.235-5.948,10.235-5.948
		c-4.082-0.68-7.829,5.786-8.848,14.634c-0.471,4.087-0.68,80.005-0.68,80.005s-2.044-0.34-4.088-3.743
		c-2.042-3.402,0.683-69.456,0.683-69.456s-0.354-1.294-0.352-3.538c-0.1,0.918-0.175,1.812-0.23,2.667
		c-0.327-10.737-2.787-28.924-15.751-28.735c-2.622,0.038-4.737,0.969-6.44,2.603c3.388-2.511,6.782-1.922,6.782-1.922
		c-4.084-0.681-7.829,5.786-8.85,14.633c-0.47,4.087-0.678,74.561-0.678,74.561s-2.044-0.34-4.087-3.742
		c-0.136-0.227-0.257-0.738-0.364-1.482c-0.187,0.508-0.39,0.975-0.617,1.389c-0.861,1.57-15.849-16.923-24.017-17.943
		c-8.035-1.002-20.254,2.019-27.917,10.727c-11.3,12.841-24.972,32.424-19.047,35.229c-15.122,1.06-1.751,39.494,0.186,50.147
		c9.45,9.449,48.113,31.457,48.113,40.905c0.465,1.386,0.888,2.93,1.275,4.57h86.478C258.936,211.225,258.981,210.9,259.034,210.574
		z M177.446,146.879c-7.372,16.821-34.656-4.157-34.656-4.157s-3.624-17.228-12.092-24.07c19.869,4.52,18.581-17.147,30.988-17.509
		C177.788,109.446,185.566,128.351,177.446,146.879z"/>
	<path class="st2" d="M250.271,109.787c2.044,3.403,4.086,3.743,4.086,3.743s0.21-63.326,0.68-67.413
		c0.866-7.528,3.71-13.314,7.054-14.459c0.587-0.201,1.187-0.276,1.796-0.174c0,0-7.831-1.361-11.571,8.847
		c-1.752,4.775-1.828,8.557-1.65,10.686c0.102,1.224,0.287,1.906,0.287,1.906S248.227,106.384,250.271,109.787z"/>
	<path class="st2" d="M224.407,31.483c0,0-2.725,66.054-0.683,69.456c2.044,3.403,4.088,3.743,4.088,3.743s0.209-75.918,0.68-80.005
		c1.019-8.848,4.766-15.313,8.848-14.634c0,0-6.234-1.076-10.235,5.948c-0.481,0.846-0.934,1.802-1.336,2.9
		c-1.367,3.726-1.712,6.849-1.713,9.054C224.054,30.189,224.407,31.483,224.407,31.483z"/>
	<path class="st2" d="M198.888,91.751c0,0,0.208-70.473,0.678-74.561c1.021-8.847,4.766-15.314,8.85-14.633
		c0,0-3.395-0.588-6.782,1.922c-1.757,1.303-3.512,3.438-4.791,6.925c-2.572,7.018-3.903,64.698-2.407,75.122
		c0.107,0.744,0.228,1.255,0.364,1.482C196.843,91.412,198.888,91.751,198.888,91.751z"/>
	<polygon class="st0" points="273.957,228.133 273.957,211.551 258.89,211.551 172.412,211.551 161.23,211.551 161.23,228.133 	"/>
	<polygon class="st1" points="273.957,228.133 161.23,228.133 150.907,228.133 150.907,298.125 284.281,298.125 284.281,228.133 	
		"/>
</g>
</svg>
