<?xml version="1.0" encoding="utf-8"?>
<!-- Generator: Adobe Illustrator 15.0.0, SVG Export Plug-In . SVG Version: 6.00 Build 0)  -->
<!DOCTYPE svg PUBLIC "-//W3C//DTD SVG 1.1//EN" "http://www.w3.org/Graphics/SVG/1.1/DTD/svg11.dtd">
<svg version="1.1" id="レイヤー_1" xmlns="http://www.w3.org/2000/svg" xmlns:xlink="http://www.w3.org/1999/xlink" x="0px"
	 y="0px" width="400px" height="300px" viewBox="0 0 400 300" style="enable-background:new 0 0 400 300;" xml:space="preserve">
<style type="text/css">
<![CDATA[
	.st0{fill:#D31111;}
]]>
</style>
<g>
	<g>
		<g>
			<path class="st0" d="M87.481,74.907c-0.126-0.91-0.254-1.827-0.315-2.29c-3.251-23.807,8.756-41.526,34.196-41.526
				c25.06,0,37.445,17.72,34.188,41.526c-0.062,0.462-0.188,1.38-0.311,2.29l-20.208,113.222c-0.823,4.783-5.409,7.707-13.671,7.707
				c-8.596,0-12.851-2.924-13.674-7.707L87.481,74.907z"/>
			<circle class="st0" cx="121.354" cy="243.748" r="27.738"/>
		</g>
		<g>
			<path class="st0" d="M87.481,74.907c-0.126-0.91-0.254-1.827-0.315-2.29c-3.251-23.807,8.756-41.526,34.196-41.526
				c25.06,0,37.445,17.72,34.188,41.526c-0.062,0.462-0.188,1.38-0.311,2.29l-20.208,113.222c-0.823,4.783-5.409,7.707-13.671,7.707
				c-8.596,0-12.851-2.924-13.674-7.707L87.481,74.907z"/>
			<circle class="st0" cx="121.354" cy="243.748" r="27.738"/>
		</g>
	</g>
	<g>
		<path class="st0" d="M269.223,184.09c-0.312,8.322-6.11,13.16-16.596,13.16c-10.857,0-16.961-4.838-17.488-13.357l-0.174-2.805
			c-0.738-11.902,1.432-20.529,6.954-28.398c4.723-6.494,6.417-8.216,21.376-18.876c11.079-7.989,15.192-12.383,15.799-23.508
			c0.831-15.188-8.498-22.557-22.719-22.558c-13.474,0-20.116,7.369-24.311,23.727c-2.604,10.511-8.729,14.35-16.248,14.35
			c-3.646,0-7.616-0.814-11.939-2.459c-8.943-3.048-16.972-9.57-18.865-20.822c-0.517-3.063-0.551-6.17-0.391-9.643
			c1.671-16.172,7.597-30.657,16.638-41.483c12.964-15.785,31.818-24.5,57.389-24.501c50.004,0.001,75.938,34.961,68.43,79.546
			c-5.475,32.501-23.673,44.087-36.702,53.187c-8.972,6.049-20.634,10.613-21.056,21.844L269.223,184.09z"/>
	</g>
	<circle class="st0" cx="246.907" cy="246.896" r="26.188"/>
</g>
</svg>
