<?xml version="1.0" encoding="utf-8"?>
<!-- Generator: Adobe Illustrator 15.0.0, SVG Export Plug-In . SVG Version: 6.00 Build 0)  -->
<!DOCTYPE svg PUBLIC "-//W3C//DTD SVG 1.1//EN" "http://www.w3.org/Graphics/SVG/1.1/DTD/svg11.dtd">
<svg version="1.1" id="レイヤー_1" xmlns="http://www.w3.org/2000/svg" xmlns:xlink="http://www.w3.org/1999/xlink" x="0px"
	 y="0px" width="400px" height="300px" viewBox="0 0 400 300" style="enable-background:new 0 0 400 300;" xml:space="preserve">
<style type="text/css">
<![CDATA[
	.st0{fill:#1A8E1A;}
]]>
</style>
<g>
	<path class="st0" d="M123.739,224.506c-21.768,0-38.866-6.628-51.3-19.884s-18.65-31.432-18.65-54.527
		c0-23.221,6.185-41.46,18.556-54.717c12.369-13.255,29.501-19.884,51.395-19.884c21.829,0,38.961,6.644,51.395,19.932
		c12.433,13.288,18.649,31.511,18.649,54.669c0,22.969-6.186,41.113-18.555,54.432C162.857,217.847,145.694,224.506,123.739,224.506
		z M123.834,98.083c-11.327,0-20.344,4.525-27.05,13.573c-6.707,9.049-10.061,21.862-10.061,38.439
		c0,16.515,3.354,29.281,10.061,38.297c6.706,9.018,15.723,13.525,27.05,13.525c11.262,0,20.247-4.539,26.955-13.62
		c6.706-9.079,10.061-21.845,10.061-38.297c0-16.515-3.339-29.295-10.014-38.344C144.16,102.608,135.159,98.083,123.834,98.083z"/>
	<path class="st0" d="M346.211,221.469h-38.724l-47.076-59.225l-10.63,12.054v47.171H218.65V78.437h31.32v67.957l57.042-67.957
		h36.445l-58.465,66.438L346.211,221.469z"/>
</g>
</svg>
