<?xml version="1.0" encoding="utf-8"?>
<!-- Generator: Adobe Illustrator 15.0.0, SVG Export Plug-In . SVG Version: 6.00 Build 0)  -->
<!DOCTYPE svg PUBLIC "-//W3C//DTD SVG 1.1//EN" "http://www.w3.org/Graphics/SVG/1.1/DTD/svg11.dtd">
<svg version="1.1" id="レイヤー_1" xmlns="http://www.w3.org/2000/svg" xmlns:xlink="http://www.w3.org/1999/xlink" x="0px"
	 y="0px" width="400px" height="300px" viewBox="0 0 400 300" style="enable-background:new 0 0 400 300;" xml:space="preserve">
<style type="text/css">
<![CDATA[
	.st0{fill:none;}
	.st1{fill:#034F93;}
]]>
</style>
<g>
	<path class="st0" d="M287.886,62.114C264.411,38.639,233.199,25.71,200,25.71c-33.198,0-64.41,12.929-87.886,36.404
		C88.639,85.589,75.711,116.801,75.711,150s12.928,64.411,36.403,87.887C135.59,261.361,166.802,274.29,200,274.29
		c33.199,0,64.411-12.929,87.886-36.403c23.475-23.476,36.403-54.688,36.403-87.887S311.36,85.589,287.886,62.114z M222.722,232.438
		c-13.771,3.383-24.884,5.074-33.34,5.074c-5.961,0-10.611-1.169-13.952-3.504c-3.343-2.335-5.014-5.877-5.014-10.63
		c0-2.254,0.321-5.074,0.967-8.456l14.496-70.064c0.644-3.22,0.966-5.315,0.966-6.281c0-2.175-0.927-3.703-2.778-4.591
		c-1.854-0.885-7.006-1.329-15.462-1.329l0.725-5.557c14.415-3.703,26.133-5.557,35.152-5.557c5.395,0,9.604,0.947,12.624,2.839
		c3.02,1.894,4.53,4.853,4.53,8.879c0,1.691-0.162,3.343-0.484,4.953l-15.824,76.104c-0.403,2.096-0.604,3.624-0.604,4.591
		c0,3.222,1.329,5.336,3.986,6.342c2.657,1.008,7.568,1.51,14.736,1.51L222.722,232.438z M225.019,92.37
		c-3.383,3.424-7.611,5.134-12.685,5.134c-4.913,0-8.98-1.61-12.201-4.832c-3.222-3.22-4.832-7.327-4.832-12.321
		c0-5.637,1.691-10.087,5.074-13.349c3.382-3.262,7.649-4.893,12.805-4.893c4.911,0,8.958,1.51,12.14,4.53
		c3.182,3.02,4.771,7.147,4.771,12.382C230.091,84.499,228.399,88.948,225.019,92.37z"/>
	<path class="st1" d="M200,6.71C120.863,6.71,56.711,70.863,56.711,150S120.863,293.29,200,293.29S343.289,229.137,343.289,150
		S279.137,6.71,200,6.71z M287.886,237.887C264.411,261.361,233.199,274.29,200,274.29c-33.198,0-64.41-12.929-87.886-36.403
		C88.639,214.411,75.711,183.199,75.711,150s12.928-64.411,36.403-87.886C135.59,38.639,166.802,25.71,200,25.71
		c33.199,0,64.411,12.929,87.886,36.404c23.475,23.475,36.403,54.687,36.403,87.886S311.36,214.411,287.886,237.887z"/>
	<path class="st1" d="M213.18,62.109c-5.155,0-9.423,1.631-12.805,4.893c-3.383,3.262-5.074,7.712-5.074,13.349
		c0,4.994,1.61,9.102,4.832,12.321c3.221,3.222,7.288,4.832,12.201,4.832c5.073,0,9.302-1.71,12.685-5.134
		c3.381-3.422,5.072-7.871,5.072-13.349c0-5.234-1.59-9.362-4.771-12.382C222.138,63.619,218.091,62.109,213.18,62.109z"/>
	<path class="st1" d="M204.724,218.908c0-0.967,0.2-2.495,0.604-4.591l15.824-76.104c0.322-1.61,0.484-3.262,0.484-4.953
		c0-4.026-1.511-6.985-4.53-8.879c-3.02-1.892-7.229-2.839-12.624-2.839c-9.02,0-20.737,1.854-35.152,5.557l-0.725,5.557
		c8.456,0,13.608,0.444,15.462,1.329c1.852,0.888,2.778,2.416,2.778,4.591c0,0.966-0.322,3.062-0.966,6.281l-14.496,70.064
		c-0.646,3.382-0.967,6.202-0.967,8.456c0,4.753,1.671,8.295,5.014,10.63c3.341,2.335,7.991,3.504,13.952,3.504
		c8.456,0,19.569-1.691,33.34-5.074l0.725-5.678c-7.168,0-12.079-0.502-14.736-1.51C206.053,224.244,204.724,222.13,204.724,218.908
		z"/>
</g>
</svg>
