<?xml version="1.0" encoding="utf-8"?>
<!-- Generator: Adobe Illustrator 15.0.0, SVG Export Plug-In . SVG Version: 6.00 Build 0)  -->
<!DOCTYPE svg PUBLIC "-//W3C//DTD SVG 1.1//EN" "http://www.w3.org/Graphics/SVG/1.1/DTD/svg11.dtd">
<svg version="1.1" id="レイヤー_1" xmlns="http://www.w3.org/2000/svg" xmlns:xlink="http://www.w3.org/1999/xlink" x="0px"
	 y="0px" width="400px" height="300px" viewBox="0 0 400 300" style="enable-background:new 0 0 400 300;" xml:space="preserve">
<style type="text/css">
<![CDATA[
	.st0{fill:#E4E4E4;}
	.st1{fill:#EFAB78;}
	.st2{fill:#F5C8A3;}
	.st3{fill:#FF7517;}
]]>
</style>
<g>
	<path class="st2" d="M265.399,154.547c4.597-13.283,9.005-39.638-3.035-46.281c-11.001-6.07-15.554,0.759-15.554,0.759
		s1.112-10.426-9.104-13.277c-16.312-4.553-21.867,13.27-21.867,13.27S241.88,7.36,219.152,3.001
		c-24.457-4.689-33.131,99.391-33.131,99.391s-27.59-92.734-49.694-84.482c-21.529,8.037,18.222,101.046,18.222,101.046
		s-15.628,0.413-23.191,21.536c-7.5,20.945,15.388,59.101,23.101,71.059h84.105c1.722-3.359,4.628-8.751,9.007-16.035
		C256.098,181.331,261.985,164.409,265.399,154.547z M192.451,173.562c-3.664,6.839-10.439,8.796-16.307,8.796
		c-2.983,0-5.731-0.506-7.718-1.133l-0.212-0.075l-29.968-11.759c-1.704-0.669-2.543-2.592-1.874-4.295
		c0.667-1.702,2.589-2.542,4.294-1.874l29.846,11.712c1.177,0.347,11.943,3.258,16.098-4.502c3.891-7.261-1.929-12.92-3.368-14.162
		l-32.564-13.849c-1.684-0.716-2.468-2.662-1.752-4.345c0.716-1.684,2.661-2.47,4.346-1.752l33.4,14.205l0.341,0.265
		C191.317,154.142,197.995,163.211,192.451,173.562z M237.229,162.589c-2.701-1.057-4.967-2.846-6.556-5.113
		c-2.761,2.909-6.772,4.562-11.041,4.562c-2.055,0-4.166-0.38-6.224-1.186c-8.13-3.186-12.381-11.807-9.478-19.219l10.446-26.67
		c0.668-1.703,2.587-2.545,4.295-1.877c1.703,0.667,2.543,2.59,1.876,4.293l-10.446,26.669c-1.571,4.011,0.997,8.781,5.723,10.633
		c4.729,1.85,9.852,0.094,11.422-3.917l1.854-4.734c0.001-0.002,0.001-0.004,0.002-0.006l8.59-21.93
		c0.666-1.702,2.586-2.543,4.292-1.876c1.704,0.667,2.545,2.589,1.877,4.293l-8.589,21.931c-0.542,1.383-0.43,2.948,0.314,4.41
		c0.812,1.594,2.253,2.86,4.058,3.566c3.58,1.405,7.454,0.11,8.628-2.887l8.589-21.929c0.667-1.704,2.589-2.544,4.293-1.877
		c1.704,0.668,2.544,2.59,1.876,4.293l-8.589,21.93c-1.874,4.784-6.666,7.657-11.884,7.657
		C240.798,163.605,238.99,163.278,237.229,162.589z"/>
	<path class="st1" d="M187.012,150.793l-0.341-0.265l-33.4-14.205c-1.685-0.717-3.63,0.069-4.346,1.752
		c-0.716,1.684,0.068,3.629,1.752,4.345l32.564,13.849c1.439,1.242,7.259,6.901,3.368,14.162c-4.154,7.76-14.92,4.849-16.098,4.502
		l-29.846-11.712c-1.705-0.668-3.626,0.172-4.294,1.874c-0.669,1.703,0.17,3.626,1.874,4.295l29.968,11.759l0.212,0.075
		c1.986,0.627,4.734,1.133,7.718,1.133c5.867,0,12.643-1.957,16.307-8.796C197.995,163.211,191.317,154.142,187.012,150.793z"/>
	<path class="st1" d="M254.442,155.948l8.589-21.93c0.668-1.703-0.172-3.625-1.876-4.293c-1.704-0.667-3.626,0.173-4.293,1.877
		l-8.589,21.929c-1.174,2.997-5.048,4.292-8.628,2.887c-1.805-0.706-3.245-1.973-4.058-3.566c-0.744-1.462-0.856-3.027-0.314-4.41
		l8.589-21.931c0.668-1.704-0.173-3.626-1.877-4.293c-1.706-0.667-3.626,0.175-4.292,1.876l-8.59,21.93
		c-0.001,0.002-0.001,0.004-0.002,0.006l-1.854,4.734c-1.57,4.011-6.693,5.767-11.422,3.917c-4.726-1.852-7.294-6.622-5.723-10.633
		l10.446-26.669c0.667-1.704-0.173-3.626-1.876-4.293c-1.708-0.668-3.627,0.174-4.295,1.877l-10.446,26.67
		c-2.903,7.413,1.348,16.034,9.478,19.219c2.058,0.806,4.169,1.186,6.224,1.186c4.269,0,8.28-1.653,11.041-4.562
		c1.589,2.268,3.854,4.057,6.556,5.113c1.761,0.689,3.568,1.017,5.329,1.017C247.776,163.605,252.568,160.732,254.442,155.948z"/>
	<polygon class="st0" points="152.651,211.551 141.469,211.551 141.469,228.133 254.196,228.133 254.196,211.551 239.129,211.551 
		238.563,211.551 154.458,211.551 	"/>
	<polygon class="st3" points="131.146,228.133 131.146,298.125 264.521,298.125 264.521,228.133 254.196,228.133 141.469,228.133 	
		"/>
</g>
</svg>
