<?xml version="1.0" encoding="utf-8"?>
<!-- Generator: Adobe Illustrator 15.0.0, SVG Export Plug-In . SVG Version: 6.00 Build 0)  -->
<!DOCTYPE svg PUBLIC "-//W3C//DTD SVG 1.1//EN" "http://www.w3.org/Graphics/SVG/1.1/DTD/svg11.dtd">
<svg version="1.1" id="レイヤー_1" xmlns="http://www.w3.org/2000/svg" xmlns:xlink="http://www.w3.org/1999/xlink" x="0px"
	 y="0px" width="400px" height="300px" viewBox="0 0 400 300" style="enable-background:new 0 0 400 300;" xml:space="preserve">
<style type="text/css">
<![CDATA[
	.st0{fill:#F4A60B;}
]]>
</style>
<g>
	<path class="st0" d="M313.294,260.341c-0.005,0.001-0.012,0.001-0.02,0H86.707c-4.823,0-9.28-2.573-11.691-6.75
		s-2.412-9.323,0-13.5L186.85,46.408c2.398-4.153,6.82-6.723,11.616-6.75c0.024,0,0.051,0,0.075,0c4.768,0,9.184,2.515,11.616,6.62
		l114.376,193.082c1.429,2.141,2.261,4.715,2.261,7.481C326.794,254.297,320.75,260.341,313.294,260.341z M110.09,233.341h179.497
		L198.691,79.898L110.09,233.341z"/>
</g>
</svg>
