<?xml version="1.0" encoding="utf-8"?>
<!-- Generator: Adobe Illustrator 15.0.0, SVG Export Plug-In . SVG Version: 6.00 Build 0)  -->
<!DOCTYPE svg PUBLIC "-//W3C//DTD SVG 1.1//EN" "http://www.w3.org/Graphics/SVG/1.1/DTD/svg11.dtd">
<svg version="1.1" id="レイヤー_1" xmlns="http://www.w3.org/2000/svg" xmlns:xlink="http://www.w3.org/1999/xlink" x="0px"
	 y="0px" width="400px" height="300px" viewBox="0 0 400 300" style="enable-background:new 0 0 400 300;" xml:space="preserve">
<style type="text/css">
<![CDATA[
	.st0{fill:#F5F5F5;}
	.st1{fill:#D31111;}
]]>
</style>
<g>
	<path class="st1" d="M316.178,170.503L344.59,150l-28.41-20.504l19.725-28.961l-33.728-9.51l8.584-33.97l-34.944,2.58
		l-3.501-34.867l-31.962,14.357L225.098,7.583L200,32.046L174.902,7.583l-15.254,31.542l-31.961-14.358l-3.5,34.867L89.24,57.053
		l8.583,33.973l-33.725,9.51l19.723,28.961L55.41,150l28.41,20.503l-19.723,28.962l33.727,9.512l-8.584,33.969l34.947-2.58
		l3.499,34.867l31.963-14.358l15.255,31.543L200,267.952l25.099,24.464l15.254-31.543l31.96,14.359l3.501-34.867l34.946,2.581
		l-8.584-33.972l33.725-9.508L316.178,170.503z M199.446,234.667c-10.472,0-18.96-8.488-18.96-18.962
		c0-10.471,8.488-18.961,18.96-18.961c10.472,0,18.962,8.49,18.962,18.961C218.408,226.179,209.918,234.667,199.446,234.667z
		 M222.822,98.726c-0.044,0.316-0.129,0.943-0.213,1.565l-13.813,77.396c-0.563,3.269-3.697,5.268-9.345,5.268
		c-5.875,0-8.784-1.999-9.347-5.268l-13.812-77.396c-0.085-0.622-0.173-1.249-0.215-1.565c-2.222-16.273,5.984-28.386,23.376-28.386
		C216.581,70.339,225.049,82.452,222.822,98.726z"/>
	<path class="st0" d="M199.453,70.339c-17.392,0-25.598,12.113-23.376,28.386c0.042,0.317,0.13,0.943,0.215,1.565l13.812,77.396
		c0.563,3.269,3.472,5.268,9.347,5.268c5.648,0,8.782-1.999,9.345-5.268l13.813-77.396c0.084-0.622,0.169-1.25,0.213-1.565
		C225.049,82.452,216.581,70.339,199.453,70.339z"/>
	<circle class="st0" cx="199.446" cy="215.706" r="18.961"/>
</g>
</svg>
