<?xml version="1.0" encoding="utf-8"?>
<!-- Generator: Adobe Illustrator 15.0.0, SVG Export Plug-In . SVG Version: 6.00 Build 0)  -->
<!DOCTYPE svg PUBLIC "-//W3C//DTD SVG 1.1//EN" "http://www.w3.org/Graphics/SVG/1.1/DTD/svg11.dtd">
<svg version="1.1" id="レイヤー_1" xmlns="http://www.w3.org/2000/svg" xmlns:xlink="http://www.w3.org/1999/xlink" x="0px"
	 y="0px" width="400px" height="300px" viewBox="0 0 400 300" style="enable-background:new 0 0 400 300;" xml:space="preserve">
<style type="text/css">
<![CDATA[
	.st0{fill:#FFE045;}
	.st1{fill:#303030;}
]]>
</style>
<g>
	<path class="st0" d="M367.977,285.497L203.872,8.468c-3.336-5.631-8.743-5.601-12.016,0.068L31.973,285.43
		c-3.273,5.668-0.596,10.306,5.949,10.306h324.22C368.687,295.735,371.312,291.128,367.977,285.497z M200.031,275.015
		c-11.228,0-20.33-9.102-20.33-20.33c0-11.228,9.102-20.33,20.33-20.33c11.229,0,20.331,9.103,20.331,20.33
		C220.362,265.913,211.26,275.015,200.031,275.015z M225.095,129.259c-0.046,0.338-0.138,1.011-0.227,1.678l-14.813,82.982
		c-0.603,3.506-3.963,5.647-10.019,5.647c-6.3,0-9.418-2.142-10.022-5.647l-14.809-82.982c-0.091-0.667-0.186-1.339-0.231-1.678
		c-2.382-17.449,6.417-30.437,25.064-30.437C218.404,98.823,227.482,111.811,225.095,129.259z"/>
	<path class="st1" d="M200.038,98.823c-18.647,0-27.446,12.988-25.064,30.437c0.045,0.339,0.14,1.011,0.231,1.678l14.809,82.982
		c0.604,3.506,3.723,5.647,10.022,5.647c6.056,0,9.416-2.142,10.019-5.647l14.813-82.982c0.089-0.667,0.181-1.34,0.227-1.678
		C227.482,111.811,218.404,98.823,200.038,98.823z"/>
	<circle class="st1" cx="200.031" cy="254.685" r="20.33"/>
</g>
</svg>
