<?xml version="1.0" encoding="utf-8"?>
<!-- Generator: Adobe Illustrator 15.0.0, SVG Export Plug-In . SVG Version: 6.00 Build 0)  -->
<!DOCTYPE svg PUBLIC "-//W3C//DTD SVG 1.1//EN" "http://www.w3.org/Graphics/SVG/1.1/DTD/svg11.dtd">
<svg version="1.1" id="レイヤー_1" xmlns="http://www.w3.org/2000/svg" xmlns:xlink="http://www.w3.org/1999/xlink" x="0px"
	 y="0px" width="400px" height="300px" viewBox="0 0 400 300" style="enable-background:new 0 0 400 300;" xml:space="preserve">
<style type="text/css">
<![CDATA[
	.st0{fill:#034F93;}
]]>
</style>
<g>
	<path class="st0" d="M202.784,26.916c-32.319,0.001-56.148,8.716-72.535,24.501c-11.426,10.826-18.916,25.312-21.028,41.483
		c-0.202,3.473-0.159,6.579,0.494,9.643c2.393,11.252,12.54,17.774,23.843,20.822c5.464,1.645,10.483,2.459,15.091,2.459
		c9.503,0,17.243-3.839,20.536-14.35c5.3-16.357,13.696-23.727,30.725-23.727c17.975,0.001,29.766,7.369,28.716,22.558
		c-0.768,11.125-5.966,15.519-19.968,23.508c-18.908,10.66-21.049,12.382-27.018,18.876c-6.98,7.869-9.723,16.496-8.79,28.398
		l0.219,2.805c0.667,8.52,8.381,13.357,22.105,13.357c13.252,0,20.58-4.838,20.975-13.16l0.123-2.598
		c0.533-11.23,15.271-15.795,26.612-21.844c16.467-9.1,39.468-20.686,46.387-53.187C298.759,61.877,265.981,26.917,202.784,26.916z"
		/>
	<circle class="st0" cx="190.46" cy="246.896" r="26.188"/>
</g>
</svg>
