<?xml version="1.0" encoding="utf-8"?>
<!-- Generator: Adobe Illustrator 15.0.0, SVG Export Plug-In . SVG Version: 6.00 Build 0)  -->
<!DOCTYPE svg PUBLIC "-//W3C//DTD SVG 1.1//EN" "http://www.w3.org/Graphics/SVG/1.1/DTD/svg11.dtd">
<svg version="1.1" id="レイヤー_1" xmlns="http://www.w3.org/2000/svg" xmlns:xlink="http://www.w3.org/1999/xlink" x="0px"
	 y="0px" width="400px" height="300px" viewBox="0 0 400 300" style="enable-background:new 0 0 400 300;" xml:space="preserve">
<style type="text/css">
<![CDATA[
	.st0{fill:#FFCB48;}
]]>
</style>
<g>
	<polygon class="st0" points="67.582,89.984 88.65,127.342 130.681,135.83 101.668,167.416 106.586,210.016 67.582,192.176 
		28.578,210.016 33.494,167.414 4.484,135.83 46.516,127.342 	"/>
	<polygon class="st0" points="199.999,89.985 221.066,127.342 263.098,135.83 234.085,167.416 239.003,210.016 199.999,192.176 
		160.995,210.016 165.911,167.416 136.901,135.83 178.933,127.342 	"/>
	<polygon class="st0" points="332.416,89.985 353.483,127.342 395.516,135.83 366.503,167.416 371.42,210.016 332.416,192.176 
		293.413,210.016 298.328,167.416 269.318,135.83 311.35,127.342 	"/>
</g>
</svg>
