<?xml version="1.0" encoding="utf-8"?>
<!-- Generator: Adobe Illustrator 15.0.0, SVG Export Plug-In . SVG Version: 6.00 Build 0)  -->
<!DOCTYPE svg PUBLIC "-//W3C//DTD SVG 1.1//EN" "http://www.w3.org/Graphics/SVG/1.1/DTD/svg11.dtd">
<svg version="1.1" id="レイヤー_1" xmlns="http://www.w3.org/2000/svg" xmlns:xlink="http://www.w3.org/1999/xlink" x="0px"
	 y="0px" width="400px" height="300px" viewBox="0 0 400 300" style="enable-background:new 0 0 400 300;" xml:space="preserve">
<style type="text/css">
<![CDATA[
	.st0{fill:#EDC620;}
	.st1{fill:#F5F5F5;}
	.st2{fill:#FFE045;}
]]>
</style>
<g>
	<path class="st0" d="M304.413,132.883l-22.245-38.521c6.717-2.534,11.502-9.004,11.502-16.61c0-9.803-7.952-17.754-17.763-17.754
		c-9.808,0-17.76,7.951-17.76,17.754c0,6.727,3.737,12.577,9.246,15.594l-25.585,31.614l29.752,42.667L304.413,132.883z"/>
	<path class="st0" d="M162.394,120.378L141.5,93.237c5.407-3.046,9.066-8.833,9.066-15.484c0-9.803-7.953-17.754-17.762-17.754
		c-9.808,0-17.762,7.951-17.762,17.754c0,7.561,4.729,13.999,11.379,16.565L99.404,135.85l30.045,31.777L162.394,120.378z"/>
	<path class="st2" d="M304.413,132.883l-32.853,34.744l-29.752-42.667l-31.905-45.755c-2.825,1.438-6.014,2.267-9.401,2.267
		s-6.575-0.828-9.4-2.267l-28.708,41.173l-32.944,47.249L99.404,135.85l-29.319-31.01c-2.879,1.884-6.254,3.06-9.887,3.313
		l14.92,129.862l-3.344-37.088c0,0,28.627,22.064,128.733,22.064c100.104,0,128.731-22.066,128.731-22.066l-3.346,37.09
		l14.916-129.811c-3.749-0.081-7.244-1.157-10.252-2.973L304.413,132.883z"/>
	<path class="st0" d="M209.903,79.206c6.745-3.434,11.376-10.427,11.376-18.518c0-11.469-9.304-20.769-20.777-20.769
		s-20.776,9.3-20.776,20.769c0,8.091,4.631,15.084,11.376,18.518c2.825,1.438,6.013,2.267,9.4,2.267S207.078,80.644,209.903,79.206z
		 M195.773,45.897c3.144,0,5.693,2.55,5.693,5.697c0,3.146-2.55,5.696-5.693,5.696c-3.145,0-5.694-2.55-5.694-5.696
		C190.079,48.447,192.629,45.897,195.773,45.897z"/>
	<circle class="st1" cx="195.773" cy="51.594" r="5.697"/>
	<path class="st0" d="M341.265,66.674c-11.474,0-20.777,9.301-20.777,20.77c0,7.557,4.044,14.149,10.07,17.788
		c3.008,1.815,6.503,2.892,10.252,2.973c0.152,0.004,0.302,0.023,0.455,0.023c11.474,0,20.777-9.304,20.777-20.784
		C362.042,75.975,352.738,66.674,341.265,66.674z M336.535,72.653c3.145,0,5.695,2.55,5.695,5.696c0,3.147-2.551,5.697-5.695,5.697
		c-3.146,0-5.695-2.55-5.695-5.697C330.84,75.203,333.39,72.653,336.535,72.653z"/>
	<circle class="st1" cx="336.535" cy="78.35" r="5.697"/>
	<path class="st0" d="M79.513,87.443c0-11.468-9.305-20.769-20.777-20.769c-11.475,0-20.777,9.301-20.777,20.769
		c0,11.481,9.303,20.785,20.777,20.785c0.494,0,0.978-0.04,1.463-0.074c3.633-0.254,7.007-1.43,9.887-3.313
		C75.757,101.129,79.513,94.73,79.513,87.443z M54.005,84.046c-3.144,0-5.694-2.55-5.694-5.697s2.551-5.696,5.694-5.696
		c3.145,0,5.695,2.549,5.695,5.696S57.149,84.046,54.005,84.046z"/>
	<circle class="st1" cx="54.005" cy="78.35" r="5.697"/>
	<path class="st0" d="M200.508,222.992c-100.106,0-128.733-22.064-128.733-22.064l3.344,37.088c0,0,25.283,22.064,125.39,22.064
		c100.104,0,125.386-22.064,125.386-22.064l3.346-37.09C329.239,200.926,300.612,222.992,200.508,222.992z M91.364,235.215
		c-4.218,0-7.635-3.418-7.635-7.637c0-4.215,3.417-7.633,7.635-7.633c4.216,0,7.634,3.418,7.634,7.633
		C98.998,231.797,95.58,235.215,91.364,235.215z M130.058,245.926c-4.217,0-7.635-3.418-7.635-7.637
		c0-4.215,3.418-7.633,7.635-7.633s7.635,3.418,7.635,7.633C137.692,242.508,134.274,245.926,130.058,245.926z M175.443,251.277
		c-4.216,0-7.636-3.418-7.636-7.639c0-4.215,3.42-7.631,7.636-7.631c4.218,0,7.635,3.416,7.635,7.631
		C183.078,247.859,179.661,251.277,175.443,251.277z M223.504,251.277c-4.217,0-7.635-3.418-7.635-7.639
		c0-4.215,3.418-7.631,7.635-7.631c4.216,0,7.636,3.416,7.636,7.631C231.14,247.859,227.72,251.277,223.504,251.277z
		 M268.552,245.926c-4.217,0-7.635-3.418-7.635-7.639c0-4.215,3.418-7.631,7.635-7.631s7.636,3.416,7.636,7.631
		C276.188,242.508,272.769,245.926,268.552,245.926z M308.249,235.215c-4.217,0-7.634-3.418-7.634-7.639
		c0-4.213,3.417-7.631,7.634-7.631s7.636,3.418,7.636,7.631C315.885,231.795,312.466,235.215,308.249,235.215z"/>
	<circle class="st2" cx="91.364" cy="227.58" r="7.635"/>
	<circle class="st2" cx="130.058" cy="238.291" r="7.635"/>
	<path class="st2" d="M175.443,236.008c-4.216,0-7.636,3.416-7.636,7.631c0,4.221,3.42,7.639,7.636,7.639
		c4.218,0,7.635-3.418,7.635-7.639C183.078,239.424,179.661,236.008,175.443,236.008z"/>
	<path class="st2" d="M223.504,236.008c-4.217,0-7.635,3.416-7.635,7.631c0,4.221,3.418,7.639,7.635,7.639
		c4.216,0,7.636-3.418,7.636-7.639C231.14,239.424,227.72,236.008,223.504,236.008z"/>
	<path class="st2" d="M268.552,230.656c-4.217,0-7.635,3.416-7.635,7.631c0,4.221,3.418,7.639,7.635,7.639s7.636-3.418,7.636-7.639
		C276.188,234.072,272.769,230.656,268.552,230.656z"/>
	<path class="st2" d="M308.249,219.945c-4.217,0-7.634,3.418-7.634,7.631c0,4.221,3.417,7.639,7.634,7.639s7.636-3.42,7.636-7.639
		C315.885,223.363,312.466,219.945,308.249,219.945z"/>
</g>
</svg>
