<?xml version="1.0" encoding="utf-8"?>
<!-- Generator: Adobe Illustrator 15.0.0, SVG Export Plug-In . SVG Version: 6.00 Build 0)  -->
<!DOCTYPE svg PUBLIC "-//W3C//DTD SVG 1.1//EN" "http://www.w3.org/Graphics/SVG/1.1/DTD/svg11.dtd">
<svg version="1.1" id="レイヤー_1" xmlns="http://www.w3.org/2000/svg" xmlns:xlink="http://www.w3.org/1999/xlink" x="0px"
	 y="0px" width="400px" height="300px" viewBox="0 0 400 300" style="enable-background:new 0 0 400 300;" xml:space="preserve">
<style type="text/css">
<![CDATA[
	.st0{fill:#FFCB48;}
	.st1{fill:#9CAFB7;}
]]>
</style>
<g>
	<path class="st1" d="M193.506,160.426h70.644c29.984,0,54.312-21.259,54.312-47.492c0-22.26-17.574-40.807-41.189-45.957
		c-1.85-20.383-17.836-36.382-37.52-36.382c-7.809,0-15.066,2.521-21.096,6.822c-10.713-15.747-28.752-26.103-49.224-26.103
		c-32.876,0-59.519,26.65-59.519,59.525c0,0.287,0.082,0.562,0.09,0.863c-16.521,8.149-27.801,23.464-27.801,41.23
		c0,26.232,24.307,47.492,54.292,47.492h28.763l60.977-67.477L193.506,160.426z"/>
	<g>
		<path class="st0" d="M193.07,161.325c0.24-0.494,0.633-1.305,0.873-1.799L225.8,93.849c0.24-0.495,0.135-0.566-0.234-0.158
			l-59.635,65.993c-0.369,0.408-0.972,1.076-1.341,1.484l-26.685,29.529c-0.369,0.408-0.233,0.849,0.301,0.978l67.059,16.256
			c0.534,0.129,0.819,0.659,0.633,1.176l-28.305,78.638c-0.187,0.518-0.083,0.571,0.23,0.119l72.684-104.896
			c0.313-0.452,0.135-0.938-0.397-1.079l-58.404-15.5c-0.531-0.142-0.77-0.662-0.53-1.156L193.07,161.325z"/>
	</g>
	<g>
		<path class="st0" d="M296.636,173.583c0.22-0.505,0.116-0.567-0.23-0.141l-33.629,41.451c-0.347,0.427-0.195,0.894,0.336,1.037
			l25.117,6.781c0.531,0.144,0.827,0.688,0.658,1.212l-10.746,33.254c-0.169,0.523-0.07,0.569,0.221,0.102l27.881-44.818
			c0.291-0.468,0.097-0.978-0.431-1.133l-21.732-6.424c-0.527-0.155-0.779-0.695-0.56-1.2L296.636,173.583z"/>
	</g>
	<g>
		<path class="st0" d="M116.027,173.583c0.22-0.505,0.116-0.567-0.23-0.141l-33.629,41.451c-0.346,0.427-0.195,0.894,0.335,1.037
			l25.118,6.781c0.531,0.144,0.827,0.688,0.658,1.212l-10.747,33.254c-0.169,0.523-0.07,0.569,0.221,0.103l27.882-44.82
			c0.291-0.467,0.097-0.977-0.431-1.132l-21.733-6.424c-0.527-0.155-0.779-0.695-0.56-1.2L116.027,173.583z"/>
	</g>
</g>
</svg>
