<?xml version="1.0" encoding="utf-8"?>
<!-- Generator: Adobe Illustrator 15.0.0, SVG Export Plug-In . SVG Version: 6.00 Build 0)  -->
<!DOCTYPE svg PUBLIC "-//W3C//DTD SVG 1.1//EN" "http://www.w3.org/Graphics/SVG/1.1/DTD/svg11.dtd">
<svg version="1.1" id="レイヤー_1" xmlns="http://www.w3.org/2000/svg" xmlns:xlink="http://www.w3.org/1999/xlink" x="0px"
	 y="0px" width="400px" height="300px" viewBox="0 0 400 300" style="enable-background:new 0 0 400 300;" xml:space="preserve">
<style type="text/css">
<![CDATA[
	.st0{fill:#FF7C24;}
	.st1{fill:#FFCC33;}
	.st2{fill:none;}
]]>
</style>
<g>
	<path class="st2" d="M200.004,41.266c-59.951,0-108.726,48.775-108.726,108.731s48.775,108.737,108.726,108.737
		c59.941-0.014,108.723-48.796,108.723-108.737C308.728,90.041,259.945,41.266,200.004,41.266z M200.004,244.932
		c-52.341,0-94.922-42.595-94.922-94.935s42.581-94.928,94.922-94.928c52.339,0,94.92,42.588,94.92,94.928
		S252.344,244.919,200.004,244.932z"/>
	<path class="st1" d="M340.983,149.997l-34.886-28.448l16.016-42.069l-44.456-7.137l-7.13-44.468l-42.069,16.021L200.004,8.997
		l-28.448,34.898l-42.07-16.021l-7.138,44.461l-44.455,7.137l16.014,42.076l-34.892,28.448l34.892,28.455l-16.021,42.055
		l44.461,7.145l7.131,44.469l42.077-16.027l28.448,34.911l28.427-34.911l42.082,16.027l7.144-44.469l44.456-7.131l-16.016-42.068
		L340.983,149.997z M200.004,258.734c-59.951,0-108.726-48.781-108.726-108.737S140.054,41.266,200.004,41.266
		c59.941,0,108.723,48.775,108.723,108.731C308.728,209.938,259.945,258.721,200.004,258.734z"/>
	<path class="st0" d="M200.004,55.069c-52.341,0-94.922,42.588-94.922,94.928s42.581,94.935,94.922,94.935
		c52.339-0.013,94.92-42.595,94.92-94.935S252.344,55.069,200.004,55.069z"/>
</g>
</svg>
