<?xml version="1.0" encoding="utf-8"?>
<!-- Generator: Adobe Illustrator 15.0.0, SVG Export Plug-In . SVG Version: 6.00 Build 0)  -->
<!DOCTYPE svg PUBLIC "-//W3C//DTD SVG 1.1//EN" "http://www.w3.org/Graphics/SVG/1.1/DTD/svg11.dtd">
<svg version="1.1" id="レイヤー_1" xmlns="http://www.w3.org/2000/svg" xmlns:xlink="http://www.w3.org/1999/xlink" x="0px"
	 y="0px" width="400px" height="300px" viewBox="0 0 400 300" style="enable-background:new 0 0 400 300;" xml:space="preserve">
<style type="text/css">
<![CDATA[
	.st0{fill:#B7D7E5;}
	.st1{fill:#FF7C24;}
	.st2{fill:#FFCC33;}
	.st3{fill:none;}
]]>
</style>
<g>
	<path class="st3" d="M143.694,30.633c-44.514,0-80.726,36.211-80.726,80.724c0,43.404,34.411,78.891,77.375,80.655
		c0.353-3.493,1.002-6.897,1.9-10.199c-38.191-0.777-69.021-32.074-69.021-70.456c0-38.859,31.61-70.484,70.471-70.484
		c38.866,0,70.478,31.625,70.478,70.484c0,8.555-1.535,16.757-4.339,24.35c3.482,0.371,6.879,1.026,10.167,1.941
		c2.85-8.247,4.419-17.087,4.419-26.291C224.419,66.844,188.207,30.633,143.694,30.633z"/>
	<path class="st2" d="M140.022,198.41c0-2.16,0.109-4.294,0.321-6.398c-42.964-1.765-77.375-37.251-77.375-80.655
		c0-44.513,36.212-80.724,80.726-80.724c44.513,0,80.725,36.211,80.725,80.724c0,9.204-1.569,18.044-4.419,26.291
		c1.719,0.479,3.407,1.028,5.063,1.646l-2.59-6.804l25.906-21.133l-25.906-21.124l11.888-31.226l-33.019-5.305L196.06,20.69
		l-31.249,11.887L143.694,6.671l-21.125,25.906L91.336,20.69l-5.297,33.012L53.035,59l11.886,31.232l-25.906,21.124l25.906,21.133
		l-11.894,31.233l33.012,5.282l5.297,33.033l31.233-11.9l10.709,13.141c2.167-1.449,4.449-2.774,6.839-3.953
		C140.109,199.005,140.022,198.715,140.022,198.41z"/>
	<path class="st1" d="M143.694,40.872c-38.86,0-70.471,31.625-70.471,70.484c0,38.382,30.829,69.679,69.021,70.456
		c7.286-26.776,31.754-46.472,60.841-46.472c2.28,0,4.53,0.129,6.748,0.365c2.804-7.593,4.339-15.795,4.339-24.35
		C214.172,72.497,182.561,40.872,143.694,40.872z"/>
	<path class="st0" d="M317.343,194.317c-1.959-21.597-18.897-38.548-39.753-38.548c-8.272,0-15.965,2.67-22.351,7.228
		c-7.303-10.735-17.825-19.1-30.176-23.704c-1.656-0.617-3.345-1.167-5.063-1.646c-3.288-0.915-6.685-1.57-10.167-1.941
		c-2.218-0.236-4.468-0.365-6.748-0.365c-29.087,0-53.555,19.695-60.841,46.472c-0.898,3.302-1.548,6.706-1.9,10.199
		c-0.212,2.104-0.321,4.238-0.321,6.398c0,0.305,0.087,0.595,0.095,0.915c-2.39,1.179-4.672,2.504-6.839,3.953
		c-13.701,9.165-22.617,23.478-22.617,39.732c0,27.793,25.755,50.318,57.524,50.318h135.253c31.77,0,57.547-22.525,57.547-50.318
		C360.985,219.426,342.364,199.774,317.343,194.317z"/>
</g>
</svg>
