<?xml version="1.0" encoding="utf-8"?>
<!-- Generator: Adobe Illustrator 15.0.0, SVG Export Plug-In . SVG Version: 6.00 Build 0)  -->
<!DOCTYPE svg PUBLIC "-//W3C//DTD SVG 1.1//EN" "http://www.w3.org/Graphics/SVG/1.1/DTD/svg11.dtd">
<svg version="1.1" id="レイヤー_1" xmlns="http://www.w3.org/2000/svg" xmlns:xlink="http://www.w3.org/1999/xlink" x="0px"
	 y="0px" width="400px" height="300px" viewBox="0 0 400 300" style="enable-background:new 0 0 400 300;" xml:space="preserve">
<style type="text/css">
<![CDATA[
	.st0{fill:#B7D7E5;}
	.st1{fill:#76BEFF;}
]]>
</style>
<g>
	<path class="st0" d="M283.406,64.66c-2.006-22.096-19.336-39.439-40.674-39.439c-8.463,0-16.332,2.731-22.869,7.396
		c-11.611-17.07-31.167-28.297-53.359-28.297c-35.639,0-64.521,28.891-64.521,64.528c0,0.312,0.089,0.608,0.098,0.937
		c-17.909,8.833-30.137,25.435-30.137,44.694c0,28.438,26.349,51.483,58.854,51.483H269.18c32.504,0,58.877-23.046,58.877-51.483
		C328.057,90.349,309.006,70.243,283.406,64.66z"/>
	<g>
		<path class="st1" d="M123.745,213.976c0,6.286-5.096,11.381-11.382,11.381s-11.382-5.095-11.382-11.381
			s5.096-29.268,11.382-29.268S123.745,207.689,123.745,213.976z"/>
		<path class="st1" d="M123.745,275.762c0,6.286-5.096,11.382-11.382,11.382s-11.382-5.096-11.382-11.382
			s5.096-29.268,11.382-29.268S123.745,269.476,123.745,275.762z"/>
		<path class="st1" d="M285.127,213.976c0,6.286-5.096,11.381-11.381,11.381c-6.287,0-11.383-5.095-11.383-11.381
			s5.096-29.268,11.383-29.268C280.031,184.708,285.127,207.689,285.127,213.976z"/>
		<path class="st1" d="M285.127,275.762c0,6.286-5.096,11.382-11.381,11.382c-6.287,0-11.383-5.096-11.383-11.382
			s5.096-29.268,11.383-29.268C280.031,246.494,285.127,269.476,285.127,275.762z"/>
		<path class="st1" d="M204.705,206.252c0,6.286-5.095,11.382-11.381,11.382s-11.381-5.096-11.381-11.382
			s5.095-29.268,11.381-29.268S204.705,199.966,204.705,206.252z"/>
		<path class="st1" d="M204.705,284.298c0,6.286-5.095,11.383-11.381,11.383s-11.381-5.097-11.381-11.383
			s5.095-29.267,11.381-29.267S204.705,278.012,204.705,284.298z"/>
		<path class="st1" d="M165.308,245.275c0,6.286-5.096,11.382-11.382,11.382s-11.382-5.096-11.382-11.382
			s5.096-29.268,11.382-29.268S165.308,238.989,165.308,245.275z"/>
		<path class="st1" d="M243.564,245.275c0,6.286-5.096,11.382-11.383,11.382c-6.285,0-11.381-5.096-11.381-11.382
			s5.096-29.268,11.381-29.268C238.469,216.008,243.564,238.989,243.564,245.275z"/>
	</g>
</g>
</svg>
