<?xml version="1.0" encoding="utf-8"?>
<!-- Generator: Adobe Illustrator 15.0.0, SVG Export Plug-In . SVG Version: 6.00 Build 0)  -->
<!DOCTYPE svg PUBLIC "-//W3C//DTD SVG 1.1//EN" "http://www.w3.org/Graphics/SVG/1.1/DTD/svg11.dtd">
<svg version="1.1" id="レイヤー_1" xmlns="http://www.w3.org/2000/svg" xmlns:xlink="http://www.w3.org/1999/xlink" x="0px"
	 y="0px" width="400px" height="300px" viewBox="0 0 400 300" style="enable-background:new 0 0 400 300;" xml:space="preserve">
<style type="text/css">
<![CDATA[
	.st0{fill:#B7D7E5;}
	.st1{fill:#2B274C;}
	.st2{fill:#FFE357;}
	.st3{fill:#9CAFB7;}
	.st4{fill:#76BEFF;}
]]>
</style>
<g>
	<path class="st1" d="M18.463,22.057v255.887h363.074V22.058L18.463,22.057z M46.305,222.283l-3.836,6.444
		c-1.122,1.885-3.116,2.932-5.162,2.932c-1.044,0-2.101-0.272-3.063-0.846c-2.848-1.694-3.782-5.377-2.087-8.225l3.836-6.444
		c1.694-2.847,5.376-3.784,8.225-2.086C47.065,215.753,48,219.436,46.305,222.283z M52.389,206.321
		c-1.043,0-2.101-0.272-3.063-0.845c-2.848-1.695-3.782-5.378-2.087-8.226l7.334-12.321c1.694-2.846,5.376-3.782,8.225-2.087
		c2.848,1.695,3.782,5.378,2.087,8.226l-7.334,12.321C56.429,205.274,54.435,206.321,52.389,206.321z M65.819,166.037l3.836-6.444
		c1.694-2.848,5.377-3.783,8.225-2.086c2.848,1.694,3.782,5.377,2.087,8.225l-3.836,6.444c-1.122,1.885-3.116,2.932-5.162,2.932
		c-1.044,0-2.101-0.272-3.063-0.846C65.059,172.567,64.125,168.885,65.819,166.037z M78.962,251.328l-3.785,6.475
		c-1.116,1.908-3.124,2.973-5.186,2.973c-1.028,0-2.07-0.265-3.022-0.821c-2.86-1.672-3.824-5.347-2.151-8.208l3.785-6.475
		c1.672-2.859,5.347-3.824,8.208-2.151C79.671,244.792,80.635,248.467,78.962,251.328z M97.935,218.876l-7.489,12.811
		c-1.116,1.908-3.123,2.973-5.186,2.973c-1.028,0-2.07-0.265-3.022-0.821c-2.861-1.672-3.824-5.347-2.152-8.208l7.489-12.811
		c1.671-2.86,5.347-3.826,8.208-2.151C98.644,212.34,99.607,216.015,97.935,218.876z M104.231,202.207
		c-1.028,0-2.07-0.265-3.022-0.821c-2.861-1.672-3.824-5.347-2.152-8.208l7.489-12.811c1.672-2.86,5.347-3.826,8.208-2.151
		c2.861,1.672,3.824,5.347,2.152,8.208l-7.489,12.811C108.301,201.143,106.294,202.207,104.231,202.207z M111.624,237.65
		l20.388-58.788c0.18-0.52-0.109-1.054-0.643-1.188l-48.155-12.117c-0.533-0.135-0.675-0.584-0.313-0.998l15.245-17.51H83.333
		c-23.5,0-42.551-16.662-42.551-37.221c0-13.924,8.842-25.927,21.787-32.312c-0.004-0.236-0.068-0.452-0.068-0.678
		c0-25.764,20.879-46.65,46.646-46.65c16.043,0,30.182,8.116,38.578,20.457c4.723-3.372,10.412-5.348,16.531-5.348
		c15.426,0,27.955,12.539,29.404,28.514c9.02,1.968,16.909,6.434,22.633,12.51c2.657-2.656,5.817-4.922,9.361-6.67
		c-0.002-0.195-0.057-0.373-0.057-0.559c0-21.3,17.26-38.566,38.561-38.566c13.264,0,24.951,6.71,31.891,16.912
		c3.904-2.787,8.609-4.42,13.666-4.42c12.754,0,23.109,10.365,24.307,23.571c15.303,3.337,26.688,15.353,26.688,29.773
		c0,16.996-15.762,30.769-35.188,30.769h-37.815l-4.097,9.409c-0.221,0.505,0.031,1.045,0.559,1.201l29.195,8.629
		c0.527,0.155,0.721,0.665,0.43,1.132l-37.01,59.493c-0.291,0.467-0.389,0.422-0.221-0.102l14.332-44.344
		c0.168-0.523-0.127-1.068-0.658-1.213l-33.65-9.086c-0.531-0.143-0.684-0.609-0.336-1.037l19.539-24.083H242.82
		c-8.922,0-17.062-2.911-23.264-7.699c-7.51,10.573-20.905,17.617-36.178,17.617h-59.367l39.916,10.994
		c0.529,0.146,0.713,0.64,0.408,1.098l-52.484,78.622C111.546,238.221,111.443,238.17,111.624,237.65z M336.319,157.023l-3.431,6.67
		c-1.064,2.069-3.164,3.257-5.34,3.257c-0.924,0-1.861-0.214-2.74-0.665c-2.946-1.516-4.106-5.134-2.591-8.08l3.431-6.67
		c1.516-2.947,5.134-4.105,8.08-2.592C336.675,150.459,337.835,154.077,336.319,157.023z M237.236,149.691l-3.639,6.559
		c-1.096,1.976-3.143,3.091-5.252,3.091c-0.984,0-1.982-0.242-2.904-0.754c-2.898-1.607-3.944-5.26-2.338-8.157l3.639-6.559
		c1.607-2.897,5.26-3.945,8.156-2.337C237.797,143.142,238.843,146.794,237.236,149.691z M178.689,169.277l-3.747,6.496
		c-1.111,1.926-3.128,3.003-5.203,3.003c-1.018,0-2.048-0.259-2.993-0.804c-2.87-1.655-3.855-5.325-2.199-8.195l3.747-6.496
		c1.656-2.87,5.325-3.854,8.195-2.199S180.345,166.407,178.689,169.277z M127.74,257.596l-3.747,6.496
		c-1.111,1.926-3.128,3.003-5.203,3.003c-1.018,0-2.048-0.259-2.993-0.804c-2.87-1.655-3.855-5.325-2.199-8.195l3.747-6.496
		c1.656-2.871,5.325-3.854,8.195-2.199C128.411,251.056,129.396,254.726,127.74,257.596z M145.858,226.189l-7.152,12.396
		c-1.111,1.926-3.129,3.003-5.203,3.003c-1.018,0-2.048-0.259-2.993-0.804c-2.87-1.656-3.854-5.325-2.199-8.195l7.152-12.396
		c1.657-2.87,5.326-3.854,8.196-2.199C146.529,219.65,147.514,223.319,145.858,226.189z M151.622,210.184
		c-1.018,0-2.048-0.259-2.993-0.804c-2.871-1.656-3.855-5.325-2.199-8.195l7.152-12.397c1.657-2.87,5.327-3.854,8.195-2.199
		c2.871,1.656,3.855,5.325,2.199,8.195l-7.152,12.397C155.713,209.106,153.696,210.184,151.622,210.184z M175.49,261.01
		l-3.639,6.559c-1.096,1.976-3.143,3.09-5.252,3.09c-0.985,0-1.983-0.243-2.905-0.754c-2.898-1.608-3.943-5.26-2.336-8.158
		l3.639-6.559c1.607-2.898,5.26-3.941,8.157-2.336C176.052,254.46,177.098,258.111,175.49,261.01z M191.607,231.951l-6.362,11.47
		c-1.096,1.976-3.143,3.091-5.252,3.091c-0.985,0-1.983-0.242-2.905-0.754c-2.897-1.607-3.943-5.26-2.336-8.157l6.362-11.47
		c1.608-2.897,5.259-3.944,8.158-2.337C192.168,225.401,193.214,229.054,191.607,231.951z M207.725,202.895l-6.361,11.47
		c-1.097,1.976-3.143,3.091-5.253,3.091c-0.985,0-1.983-0.242-2.905-0.754c-2.898-1.607-3.944-5.26-2.337-8.157l6.362-11.47
		c1.608-2.897,5.26-3.944,8.157-2.337S209.332,199.997,207.725,202.895z M212.228,188.397c-0.985,0-1.983-0.242-2.905-0.754
		c-2.897-1.607-3.943-5.26-2.336-8.157l6.361-11.47c1.608-2.898,5.261-3.944,8.158-2.337s3.943,5.26,2.336,8.157l-6.361,11.47
		C216.384,187.282,214.337,188.397,212.228,188.397z M231.737,261.309l-3.399,6.686c-1.059,2.082-3.166,3.281-5.354,3.281
		c-0.914,0-1.843-0.21-2.714-0.652c-2.954-1.502-4.131-5.114-2.629-8.068l3.399-6.686c1.501-2.953,5.113-4.129,8.067-2.629
		C232.062,254.742,233.239,258.354,231.737,261.309z M246.399,232.473l-5.788,11.383c-1.059,2.082-3.166,3.281-5.353,3.281
		c-0.915,0-1.843-0.21-2.714-0.652c-2.955-1.502-4.131-5.114-2.629-8.068l5.787-11.383c1.501-2.953,5.113-4.128,8.067-2.629
		C246.725,225.906,247.901,229.519,246.399,232.473z M261.062,203.637l-5.788,11.383c-1.059,2.082-3.166,3.281-5.353,3.281
		c-0.915,0-1.843-0.21-2.714-0.652c-2.955-1.502-4.131-5.114-2.629-8.068l5.787-11.383c1.502-2.953,5.114-4.129,8.067-2.629
		C261.387,197.07,262.563,200.683,261.062,203.637z M264.584,189.465c-0.915,0-1.844-0.21-2.715-0.652
		c-2.954-1.502-4.131-5.114-2.629-8.068l3.399-6.686c1.502-2.952,5.114-4.129,8.067-2.629c2.954,1.502,4.131,5.114,2.629,8.068
		l-3.399,6.686C268.878,188.266,266.77,189.465,264.584,189.465z M286.066,254.731l-3.431,6.67
		c-1.063,2.069-3.164,3.257-5.341,3.257c-0.924,0-1.861-0.214-2.738-0.665c-2.947-1.516-4.107-5.134-2.592-8.08l3.431-6.67
		c1.515-2.947,5.133-4.106,8.079-2.592C286.422,248.167,287.582,251.785,286.066,254.731z M304.039,219.788l-7.095,13.794
		c-1.063,2.068-3.165,3.257-5.341,3.257c-0.924,0-1.861-0.214-2.739-0.665c-2.946-1.516-4.106-5.133-2.591-8.08l7.094-13.794
		c1.516-2.946,5.135-4.106,8.08-2.592C304.394,213.224,305.554,216.841,304.039,219.788z M309.576,201.895
		c-0.924,0-1.861-0.214-2.739-0.665c-2.946-1.516-4.106-5.133-2.591-8.08l7.094-13.794c1.515-2.947,5.133-4.105,8.08-2.592
		c2.946,1.516,4.106,5.133,2.592,8.08l-7.096,13.794C313.854,200.706,311.752,201.895,309.576,201.895z M331.055,251.706
		l-3.412,6.68c-1.061,2.077-3.166,3.272-5.348,3.272c-0.919,0-1.851-0.211-2.725-0.657c-2.951-1.507-4.121-5.121-2.615-8.072
		l3.412-6.68c1.507-2.952,5.12-4.123,8.072-2.615C331.391,245.141,332.561,248.755,331.055,251.706z M349.033,216.497l-7.097,13.898
		c-1.062,2.077-3.166,3.272-5.349,3.272c-0.918,0-1.85-0.211-2.724-0.657c-2.951-1.507-4.122-5.121-2.615-8.072l7.097-13.898
		c1.508-2.952,5.12-4.122,8.072-2.615C349.369,209.932,350.541,213.546,349.033,216.497z M363.326,188.507l-3.41,6.68
		c-1.062,2.077-3.166,3.272-5.35,3.272c-0.918,0-1.85-0.211-2.724-0.657c-2.951-1.507-4.122-5.121-2.614-8.072l3.41-6.68
		c1.508-2.952,5.121-4.122,8.073-2.615C363.663,181.941,364.834,185.556,363.326,188.507z"/>
	<path class="st0" d="M219.557,129.432c6.201,4.788,14.342,7.699,23.264,7.699h32.971l25.096-30.932
		c0.346-0.428,0.449-0.364,0.23,0.141l-13.409,30.791h37.815c19.426,0,35.188-13.772,35.188-30.769
		c0-14.421-11.385-26.437-26.688-29.773c-1.197-13.206-11.553-23.571-24.307-23.571c-5.057,0-9.762,1.633-13.666,4.42
		c-6.939-10.202-18.627-16.912-31.891-16.912c-21.301,0-38.561,17.267-38.561,38.566c0,0.186,0.055,0.363,0.057,0.559
		c-3.544,1.748-6.704,4.014-9.361,6.67c6.021,6.391,9.648,14.564,9.648,23.508C225.943,117.023,223.601,123.738,219.557,129.432z"/>
	<path class="st3" d="M146.436,92l-24.925,53.337c-0.233,0.499,0.01,1.025,0.54,1.172l1.96,0.54h59.367
		c15.273,0,28.668-7.044,36.178-17.617c4.044-5.693,6.387-12.408,6.387-19.604c0-8.943-3.627-17.117-9.648-23.508
		c-5.725-6.076-13.613-10.542-22.633-12.51c-1.449-15.975-13.979-28.514-29.404-28.514c-6.119,0-11.809,1.976-16.531,5.348
		c-8.396-12.341-22.535-20.457-38.578-20.457c-25.768,0-46.646,20.887-46.646,46.65c0,0.226,0.064,0.441,0.068,0.678
		c-12.945,6.386-21.787,18.389-21.787,32.312c0,20.559,19.051,37.221,42.551,37.221h14.811l48.058-55.199
		C146.564,91.434,146.669,91.502,146.436,92z"/>
	<path class="st4" d="M95.783,210.668c-2.86-1.675-6.536-0.709-8.208,2.151l-7.489,12.811c-1.672,2.861-0.709,6.536,2.152,8.208
		c0.952,0.557,1.994,0.821,3.022,0.821c2.062,0,4.07-1.064,5.186-2.973l7.489-12.811C99.607,216.015,98.644,212.34,95.783,210.668z"
		/>
	<path class="st4" d="M114.754,178.216c-2.861-1.675-6.536-0.709-8.208,2.151l-7.489,12.811c-1.672,2.861-0.709,6.536,2.152,8.208
		c0.952,0.557,1.994,0.821,3.022,0.821c2.062,0,4.07-1.064,5.186-2.973l7.489-12.811
		C118.578,183.562,117.615,179.888,114.754,178.216z"/>
	<path class="st4" d="M76.811,243.12c-2.861-1.673-6.536-0.708-8.208,2.151l-3.785,6.475c-1.672,2.861-0.709,6.536,2.151,8.208
		c0.952,0.557,1.994,0.821,3.022,0.821c2.062,0,4.07-1.064,5.186-2.973l3.785-6.475C80.635,248.467,79.671,244.792,76.811,243.12z"
		/>
	<path class="st4" d="M325.648,151.535l-3.431,6.67c-1.516,2.946-0.355,6.564,2.591,8.08c0.879,0.451,1.816,0.665,2.74,0.665
		c2.176,0,4.275-1.188,5.34-3.257l3.431-6.67c1.516-2.946,0.355-6.564-2.591-8.08C330.782,147.43,327.164,148.588,325.648,151.535z"
		/>
	<path class="st4" d="M301.447,211.708c-2.945-1.515-6.564-0.354-8.08,2.592l-7.094,13.794c-1.516,2.947-0.355,6.564,2.591,8.08
		c0.878,0.451,1.815,0.665,2.739,0.665c2.176,0,4.277-1.188,5.341-3.257l7.095-13.794
		C305.554,216.841,304.394,213.224,301.447,211.708z"/>
	<path class="st4" d="M319.42,176.764c-2.947-1.514-6.565-0.355-8.08,2.592l-7.094,13.794c-1.516,2.947-0.355,6.564,2.591,8.08
		c0.878,0.451,1.815,0.665,2.739,0.665c2.176,0,4.277-1.188,5.34-3.257l7.096-13.794
		C323.526,181.896,322.366,178.279,319.42,176.764z"/>
	<path class="st4" d="M283.475,246.651c-2.946-1.515-6.564-0.355-8.079,2.592l-3.431,6.67c-1.516,2.946-0.355,6.564,2.592,8.08
		c0.877,0.451,1.814,0.665,2.738,0.665c2.177,0,4.277-1.188,5.341-3.257l3.431-6.67
		C287.582,251.785,286.422,248.167,283.475,246.651z"/>
	<path class="st4" d="M226.742,143.871l-3.639,6.559c-1.606,2.897-0.561,6.55,2.338,8.157c0.922,0.512,1.92,0.754,2.904,0.754
		c2.109,0,4.156-1.115,5.252-3.091l3.639-6.559c1.606-2.897,0.561-6.55-2.338-8.157C232.002,139.926,228.35,140.974,226.742,143.871
		z"/>
	<path class="st4" d="M205.388,194.737c-2.897-1.607-6.549-0.561-8.157,2.337l-6.362,11.47c-1.607,2.897-0.561,6.55,2.337,8.157
		c0.922,0.512,1.92,0.754,2.905,0.754c2.11,0,4.156-1.115,5.253-3.091l6.361-11.47C209.332,199.997,208.285,196.345,205.388,194.737
		z"/>
	<path class="st4" d="M223.842,173.837c1.607-2.897,0.562-6.55-2.336-8.157s-6.55-0.562-8.158,2.337l-6.361,11.47
		c-1.607,2.897-0.562,6.55,2.336,8.157c0.922,0.512,1.92,0.754,2.905,0.754c2.109,0,4.156-1.115,5.253-3.091L223.842,173.837z"/>
	<path class="st4" d="M189.271,223.794c-2.898-1.607-6.549-0.561-8.158,2.337l-6.362,11.47c-1.607,2.897-0.561,6.55,2.336,8.157
		c0.922,0.512,1.92,0.754,2.905,0.754c2.109,0,4.156-1.115,5.252-3.091l6.362-11.47
		C193.214,229.054,192.168,225.401,189.271,223.794z"/>
	<path class="st4" d="M173.154,252.852c-2.897-1.605-6.55-0.562-8.157,2.336l-3.639,6.559c-1.607,2.898-0.562,6.55,2.336,8.158
		c0.922,0.511,1.92,0.754,2.905,0.754c2.109,0,4.156-1.114,5.252-3.09l3.639-6.559C177.098,258.111,176.052,254.46,173.154,252.852z
		"/>
	<path class="st4" d="M270.707,171.43c-2.953-1.5-6.565-0.323-8.067,2.629l-3.399,6.686c-1.502,2.954-0.325,6.566,2.629,8.068
		c0.871,0.442,1.8,0.652,2.715,0.652c2.186,0,4.294-1.199,5.353-3.281l3.399-6.686C274.838,176.544,273.661,172.932,270.707,171.43z
		"/>
	<path class="st4" d="M243.771,224.404c-2.954-1.499-6.566-0.324-8.067,2.629l-5.787,11.383c-1.502,2.954-0.326,6.566,2.629,8.068
		c0.871,0.442,1.799,0.652,2.714,0.652c2.187,0,4.294-1.199,5.353-3.281l5.788-11.383
		C247.901,229.519,246.725,225.906,243.771,224.404z"/>
	<path class="st4" d="M258.433,195.568c-2.953-1.5-6.565-0.324-8.067,2.629l-5.787,11.383c-1.502,2.954-0.326,6.566,2.629,8.068
		c0.871,0.442,1.799,0.652,2.714,0.652c2.187,0,4.294-1.199,5.353-3.281l5.788-11.383
		C262.563,200.683,261.387,197.07,258.433,195.568z"/>
	<path class="st4" d="M229.108,253.24c-2.954-1.5-6.566-0.324-8.067,2.629l-3.399,6.686c-1.502,2.954-0.325,6.566,2.629,8.068
		c0.871,0.442,1.8,0.652,2.714,0.652c2.188,0,4.295-1.199,5.354-3.281l3.399-6.686C233.239,258.354,232.062,254.742,229.108,253.24z
		"/>
	<path class="st4" d="M168.294,163.281l-3.747,6.496c-1.656,2.87-0.671,6.54,2.199,8.195c0.945,0.545,1.975,0.804,2.993,0.804
		c2.074,0,4.092-1.077,5.203-3.003l3.747-6.496c1.656-2.87,0.671-6.54-2.199-8.195S169.95,160.411,168.294,163.281z"/>
	<path class="st4" d="M143.659,217.994c-2.87-1.654-6.539-0.671-8.196,2.199l-7.152,12.396c-1.656,2.87-0.671,6.539,2.199,8.195
		c0.945,0.545,1.976,0.804,2.993,0.804c2.074,0,4.091-1.077,5.203-3.003l7.152-12.396
		C147.514,223.319,146.529,219.65,143.659,217.994z"/>
	<path class="st4" d="M161.777,186.588c-2.869-1.655-6.539-0.671-8.195,2.199l-7.152,12.397c-1.656,2.87-0.671,6.539,2.199,8.195
		c0.944,0.545,1.975,0.804,2.993,0.804c2.074,0,4.092-1.077,5.203-3.003l7.152-12.397
		C165.632,191.913,164.647,188.244,161.777,186.588z"/>
	<path class="st4" d="M125.541,249.4c-2.871-1.655-6.54-0.672-8.195,2.199l-3.747,6.496c-1.656,2.87-0.671,6.54,2.199,8.195
		c0.945,0.545,1.975,0.804,2.993,0.804c2.074,0,4.092-1.077,5.203-3.003l3.747-6.496C129.396,254.726,128.411,251.056,125.541,249.4
		z"/>
	<path class="st2" d="M163.927,158.043l-39.916-10.994l-1.96-0.54c-0.53-0.146-0.773-0.673-0.54-1.172L146.436,92
		c0.233-0.498,0.128-0.566-0.233-0.15l-48.058,55.199L82.9,164.559c-0.361,0.414-0.22,0.863,0.313,0.998l48.155,12.117
		c0.533,0.135,0.822,0.669,0.643,1.188l-20.388,58.788c-0.181,0.52-0.077,0.57,0.228,0.112l52.484-78.622
		C164.64,158.683,164.457,158.189,163.927,158.043z"/>
	<path class="st2" d="M300.887,106.199l-25.096,30.932l-19.539,24.083c-0.348,0.428-0.195,0.895,0.336,1.037l33.65,9.086
		c0.531,0.145,0.826,0.689,0.658,1.213l-14.332,44.344c-0.168,0.523-0.07,0.568,0.221,0.102l37.01-59.493
		c0.291-0.467,0.098-0.977-0.43-1.132l-29.195-8.629c-0.527-0.156-0.779-0.696-0.559-1.201l4.097-9.409l13.409-30.791
		C301.336,105.835,301.232,105.771,300.887,106.199z"/>
	<path class="st4" d="M67.906,174.262c0.962,0.573,2.019,0.846,3.063,0.846c2.046,0,4.04-1.047,5.162-2.932l3.836-6.444
		c1.695-2.848,0.761-6.53-2.087-8.225c-2.847-1.697-6.53-0.762-8.225,2.086l-3.836,6.444
		C64.125,168.885,65.059,172.567,67.906,174.262z"/>
	<path class="st4" d="M62.798,182.843c-2.848-1.695-6.531-0.759-8.225,2.087l-7.334,12.321c-1.695,2.848-0.761,6.53,2.087,8.226
		c0.962,0.572,2.02,0.845,3.063,0.845c2.046,0,4.04-1.047,5.162-2.932l7.334-12.321C66.58,188.221,65.646,184.538,62.798,182.843z"
		/>
	<path class="st4" d="M44.218,214.059c-2.848-1.698-6.53-0.761-8.225,2.086l-3.836,6.444c-1.695,2.848-0.761,6.53,2.087,8.225
		c0.962,0.573,2.019,0.846,3.063,0.846c2.046,0,4.04-1.047,5.162-2.932l3.836-6.444C48,219.436,47.065,215.753,44.218,214.059z"/>
	<path class="st4" d="M360.712,180.435c-2.952-1.507-6.565-0.337-8.073,2.615l-3.41,6.68c-1.508,2.951-0.337,6.565,2.614,8.072
		c0.874,0.446,1.806,0.657,2.724,0.657c2.184,0,4.288-1.195,5.35-3.272l3.41-6.68C364.834,185.556,363.663,181.941,360.712,180.435z
		"/>
	<path class="st4" d="M346.418,208.425c-2.952-1.507-6.564-0.337-8.072,2.615l-7.097,13.898c-1.507,2.951-0.336,6.565,2.615,8.072
		c0.874,0.446,1.806,0.657,2.724,0.657c2.183,0,4.287-1.195,5.349-3.272l7.097-13.898
		C350.541,213.546,349.369,209.932,346.418,208.425z"/>
	<path class="st4" d="M328.439,243.634c-2.952-1.508-6.565-0.337-8.072,2.615l-3.412,6.68c-1.506,2.951-0.336,6.565,2.615,8.072
		c0.874,0.446,1.806,0.657,2.725,0.657c2.182,0,4.287-1.195,5.348-3.272l3.412-6.68
		C332.561,248.755,331.391,245.141,328.439,243.634z"/>
</g>
</svg>
