<?xml version="1.0" encoding="utf-8"?>
<!-- Generator: Adobe Illustrator 15.0.0, SVG Export Plug-In . SVG Version: 6.00 Build 0)  -->
<!DOCTYPE svg PUBLIC "-//W3C//DTD SVG 1.1//EN" "http://www.w3.org/Graphics/SVG/1.1/DTD/svg11.dtd">
<svg version="1.1" id="レイヤー_1" xmlns="http://www.w3.org/2000/svg" xmlns:xlink="http://www.w3.org/1999/xlink" x="0px"
	 y="0px" width="400px" height="300px" viewBox="0 0 400 300" style="enable-background:new 0 0 400 300;" xml:space="preserve">
<style type="text/css">
<![CDATA[
	.st0{fill:#53A9EA;}
	.st1{fill:#C6CCCC;}
	.st2{fill:#327CBF;}
]]>
</style>
<g>
	<path class="st1" d="M196.375,22.468c0.875-0.018,1.748-0.045,2.624-0.056V9.075c0-2.248-1.821-4.069-4.068-4.069
		c-2.247,0-4.069,1.821-4.069,4.069V22.67c0.76-0.044,1.521-0.088,2.284-0.121C194.22,22.503,195.301,22.491,196.375,22.468z"/>
	<path class="st1" d="M190.862,120.58v113.387h8.137V120.653c-1.681-0.077-3.374-0.128-5.085-0.128
		C192.889,120.524,191.875,120.552,190.862,120.58z"/>
	<path class="st2" d="M199.571,22.404c-0.191,0-0.381,0.006-0.572,0.008c-0.876,0.011-1.748,0.038-2.624,0.056
		c32.868,20.509,54.73,56.835,54.73,98.257c0,5.94-0.451,11.775-1.319,17.475c0.026,0.022,0.058,0.043,0.085,0.066
		c12.782-10.775,33.088-17.742,55.957-17.742c12.275,0,23.805,2.01,33.836,5.536C321.352,66.059,265.566,22.404,199.571,22.404z"/>
	<path class="st2" d="M193.146,22.549c-0.763,0.033-1.523,0.077-2.284,0.121C129.674,26.26,78.603,67.421,60.336,123.414
		c7.721-1.861,16.091-2.89,24.842-2.89c21.946,0,41.525,6.417,54.366,16.454c0.049-0.037,0.101-0.073,0.148-0.108
		c-0.737-5.28-1.149-10.663-1.149-16.145C138.543,79.356,160.354,43.072,193.146,22.549z"/>
	<path class="st0" d="M196.375,22.468c-1.075,0.022-2.156,0.035-3.23,0.081c-32.792,20.523-54.603,56.807-54.603,98.176
		c0,5.481,0.413,10.865,1.149,16.145c12.245-9.506,30.55-15.727,51.169-16.29c1.014-0.028,2.027-0.056,3.052-0.056
		c1.712,0,3.404,0.052,5.085,0.128c20.728,0.947,38.958,7.616,50.787,17.547c0.868-5.7,1.319-11.534,1.319-17.475
		C251.105,79.303,229.243,42.977,196.375,22.468z"/>
	<path class="st2" d="M190.003,233.967v34.281c0,8.764-7.133,15.896-15.897,15.896c-8.766,0-15.898-7.133-15.898-15.896
		c0-5.554,2.826-10.613,7.558-13.534c2.549-1.577,3.341-4.919,1.765-7.467c-1.577-2.549-4.917-3.339-7.467-1.765
		c-7.955,4.914-12.704,13.426-12.704,22.766c0,14.749,12,26.745,26.747,26.745c14.749,0,26.747-11.996,26.747-26.745v-34.281h-1.854
		h-8.137H190.003z"/>
</g>
</svg>
