<?xml version="1.0" encoding="utf-8"?>
<!-- Generator: Adobe Illustrator 15.0.0, SVG Export Plug-In . SVG Version: 6.00 Build 0)  -->
<!DOCTYPE svg PUBLIC "-//W3C//DTD SVG 1.1//EN" "http://www.w3.org/Graphics/SVG/1.1/DTD/svg11.dtd">
<svg version="1.1" id="レイヤー_1" xmlns="http://www.w3.org/2000/svg" xmlns:xlink="http://www.w3.org/1999/xlink" x="0px"
	 y="0px" width="400px" height="300px" viewBox="0 0 400 300" style="enable-background:new 0 0 400 300;" xml:space="preserve">
<style type="text/css">
<![CDATA[
	.st0{fill:#545453;}
	.st1{fill:#8E9FA5;}
	.st2{fill:#FCFCFC;}
	.st3{fill:#FF7C24;}
	.st4{fill:#3D3D3B;}
]]>
</style>
<g>
	<path class="st2" d="M245.905,124.396c-1.04-0.629-1.736-1.699-1.888-2.906c-0.151-1.206,0.257-2.416,1.11-3.283
		c11.729-11.921,18.189-27.689,18.189-44.398c0-34.912-28.404-63.315-63.316-63.315s-63.316,28.403-63.316,63.315
		c0,16.709,6.46,32.477,18.189,44.397c0.853,0.867,1.261,2.076,1.11,3.283c-0.151,1.207-0.848,2.277-1.889,2.906
		c-26.941,16.271-43.025,44.75-43.025,76.181c0,49.035,39.894,88.93,88.93,88.93s88.93-39.895,88.93-88.93
		C288.93,169.146,272.847,140.667,245.905,124.396z M228.421,50.543c5.145,0,9.314,4.169,9.314,9.314
		c0,5.144-4.17,9.314-9.314,9.314s-9.313-4.17-9.313-9.314C219.107,54.713,223.276,50.543,228.421,50.543z M199.445,74.346
		c5.144,0,9.312,4.169,9.312,9.314c0,5.144-4.169,9.313-9.312,9.313c-5.145,0-9.315-4.169-9.315-9.313
		C190.13,78.516,194.301,74.346,199.445,74.346z M180.67,97.671c0.235,0.499,5.877,12.151,19.708,12.158c0.005,0,0.01,0,0.014,0
		c13.822,0,19.479-11.665,19.712-12.161c0.699-1.484,2.472-2.132,3.958-1.435c1.488,0.694,2.137,2.455,1.448,3.945
		c-0.295,0.638-7.417,15.612-25.118,15.612c-0.007,0-0.011,0-0.018,0c-17.716-0.009-24.819-14.977-25.113-15.614
		c-0.689-1.495-0.036-3.266,1.459-3.954C178.211,95.534,179.979,96.183,180.67,97.671z M170.468,50.543
		c5.145,0,9.314,4.169,9.314,9.314c0,5.144-4.169,9.314-9.314,9.314c-5.144,0-9.313-4.17-9.313-9.314
		C161.155,54.713,165.324,50.543,170.468,50.543z M199.445,253.38c-5.145,0-9.315-4.17-9.315-9.314c0-5.144,4.171-9.312,9.315-9.312
		c5.144,0,9.312,4.169,9.312,9.312C208.758,249.21,204.589,253.38,199.445,253.38z M199.445,211.984
		c-5.145,0-9.315-4.17-9.315-9.314c0-5.144,4.171-9.313,9.315-9.313c5.144,0,9.312,4.17,9.312,9.313
		C208.758,207.814,204.589,211.984,199.445,211.984z M199.445,170.59c-5.145,0-9.315-4.17-9.315-9.314
		c0-5.144,4.171-9.313,9.315-9.313c5.144,0,9.312,4.17,9.312,9.313C208.758,166.42,204.589,170.59,199.445,170.59z"/>
	<path class="st1" d="M254.095,120.193c11.105-12.917,17.17-29.209,17.17-46.384c0-39.294-31.97-71.262-71.264-71.262
		c-39.294,0-71.263,31.968-71.263,71.262c0,17.175,6.064,33.467,17.17,46.383c-26.883,18.061-42.785,47.761-42.785,80.384
		c0,53.418,43.459,96.877,96.877,96.877s96.877-43.459,96.877-96.877C296.877,167.955,280.975,138.254,254.095,120.193z
		 M200,289.506c-49.036,0-88.93-39.895-88.93-88.93c0-31.432,16.084-59.911,43.025-76.181c1.041-0.629,1.738-1.699,1.889-2.906
		c0.151-1.207-0.257-2.416-1.11-3.283c-11.729-11.92-18.189-27.688-18.189-44.397c0-34.912,28.404-63.315,63.316-63.315
		s63.316,28.403,63.316,63.315c0,16.709-6.46,32.477-18.189,44.398c-0.854,0.867-1.262,2.077-1.11,3.283
		c0.151,1.207,0.848,2.277,1.888,2.906c26.941,16.271,43.024,44.75,43.024,76.18C288.93,249.611,249.036,289.506,200,289.506z"/>
	<circle class="st4" cx="170.468" cy="59.857" r="9.314"/>
	<circle class="st4" cx="228.421" cy="59.857" r="9.314"/>
	<circle class="st3" cx="199.445" cy="83.66" r="9.313"/>
	<circle class="st4" cx="199.445" cy="161.276" r="9.314"/>
	<circle class="st4" cx="199.445" cy="202.67" r="9.314"/>
	<circle class="st4" cx="199.445" cy="244.066" r="9.313"/>
	<path class="st0" d="M176.721,96.222c-1.495,0.688-2.148,2.459-1.459,3.954c0.294,0.637,7.397,15.605,25.113,15.614
		c0.007,0,0.011,0,0.018,0c17.701,0,24.823-14.974,25.118-15.612c0.688-1.49,0.04-3.251-1.448-3.945
		c-1.486-0.697-3.259-0.049-3.958,1.435c-0.233,0.497-5.891,12.161-19.712,12.161c-0.004,0-0.009,0-0.014,0
		c-13.831-0.007-19.473-11.66-19.708-12.158C179.979,96.183,178.211,95.534,176.721,96.222z"/>
</g>
</svg>
