<?xml version="1.0" encoding="utf-8"?>
<!-- Generator: Adobe Illustrator 15.0.0, SVG Export Plug-In . SVG Version: 6.00 Build 0)  -->
<!DOCTYPE svg PUBLIC "-//W3C//DTD SVG 1.1//EN" "http://www.w3.org/Graphics/SVG/1.1/DTD/svg11.dtd">
<svg version="1.1" id="レイヤー_1" xmlns="http://www.w3.org/2000/svg" xmlns:xlink="http://www.w3.org/1999/xlink" x="0px"
	 y="0px" width="400px" height="300px" viewBox="0 0 400 300" style="enable-background:new 0 0 400 300;" xml:space="preserve">
<style type="text/css">
<![CDATA[
	.st0{fill:#9CAFB7;}
	.st1{fill:#76BEFF;}
]]>
</style>
<g>
	<path class="st0" d="M297.33,65.172c-2.021-22.263-19.481-39.739-40.981-39.739c-8.528,0-16.456,2.753-23.042,7.452
		c-11.7-17.199-31.404-28.511-53.766-28.511c-35.91,0-65.01,29.109-65.01,65.018c0,0.314,0.089,0.613,0.098,0.943
		c-18.045,8.901-30.366,25.628-30.366,45.034c0,28.653,26.549,51.875,59.301,51.875h139.432c32.751,0,59.324-23.222,59.324-51.875
		C342.32,91.056,323.124,70.798,297.33,65.172z"/>
	<g>
		<path class="st1" d="M138.932,195.438c-1.55,0-3.118-0.411-4.539-1.277c-4.121-2.511-5.426-7.89-2.915-12.009l2.842-4.663
			c2.511-4.122,7.888-5.428,12.009-2.914c4.121,2.511,5.426,7.887,2.915,12.008l-2.842,4.664
			C144.756,193.946,141.879,195.438,138.932,195.438z"/>
		<path class="st1" d="M95.765,266.275c-1.549,0-3.119-0.412-4.539-1.278c-4.121-2.511-5.426-7.887-2.915-12.009l6.541-10.732
			c2.51-4.121,7.886-5.43,12.009-2.914c4.121,2.511,5.426,7.887,2.915,12.009l-6.54,10.732
			C101.589,264.784,98.713,266.275,95.765,266.275z M117.348,230.855c-1.549,0-3.118-0.412-4.539-1.278
			c-4.121-2.511-5.426-7.887-2.915-12.008l6.54-10.733c2.511-4.119,7.886-5.429,12.009-2.914c4.121,2.511,5.426,7.887,2.915,12.009
			l-6.54,10.732C123.173,229.364,120.296,230.855,117.348,230.855z"/>
		<path class="st1" d="M77.879,295.625c-1.55,0-3.118-0.411-4.539-1.277c-4.121-2.511-5.426-7.887-2.915-12.009l2.842-4.663
			c2.512-4.119,7.888-5.425,12.009-2.914s5.426,7.889,2.915,12.008l-2.842,4.664C83.704,294.135,80.827,295.625,77.879,295.625z"/>
	</g>
	<g>
		<path class="st1" d="M104.695,197.739c-1.569,0-3.158-0.422-4.591-1.31c-4.104-2.541-5.371-7.925-2.83-12.029l4.312-6.966
			c2.541-4.103,7.925-5.372,12.029-2.829c4.103,2.539,5.371,7.926,2.83,12.028l-4.312,6.965
			C110.48,196.27,107.621,197.739,104.695,197.739z"/>
		<path class="st1" d="M83.532,231.927c-1.569,0-3.158-0.423-4.591-1.311c-4.104-2.541-5.371-7.925-2.831-12.029l8.354-13.493
			c2.54-4.103,7.925-5.372,12.029-2.831c4.104,2.54,5.371,7.925,2.83,12.029l-8.354,13.493
			C89.317,230.456,86.458,231.927,83.532,231.927z"/>
		<path class="st1" d="M66.411,259.583c-1.569,0-3.158-0.423-4.591-1.31c-4.104-2.539-5.371-7.926-2.83-12.028l4.312-6.965
			c2.54-4.104,7.925-5.372,12.029-2.831c4.103,2.541,5.371,7.925,2.83,12.029l-4.312,6.966
			C72.196,258.115,69.337,259.583,66.411,259.583z"/>
	</g>
	<g>
		<path class="st1" d="M173.504,197.739c-1.569,0-3.158-0.422-4.591-1.31c-4.104-2.541-5.371-7.925-2.831-12.029l4.312-6.966
			c2.541-4.103,7.925-5.372,12.029-2.829c4.104,2.539,5.371,7.926,2.831,12.028l-4.312,6.965
			C179.289,196.27,176.43,197.739,173.504,197.739z"/>
		<path class="st1" d="M152.341,231.927c-1.569,0-3.158-0.423-4.591-1.311c-4.104-2.541-5.371-7.925-2.831-12.029l8.354-13.493
			c2.54-4.103,7.926-5.372,12.029-2.831c4.104,2.54,5.371,7.925,2.831,12.029l-8.354,13.493
			C158.126,230.456,155.267,231.927,152.341,231.927z"/>
		<path class="st1" d="M135.22,259.583c-1.569,0-3.158-0.423-4.591-1.31c-4.104-2.539-5.371-7.926-2.831-12.028l4.312-6.965
			c2.541-4.104,7.924-5.372,12.029-2.831c4.104,2.541,5.371,7.925,2.831,12.029l-4.312,6.966
			C141.005,258.115,138.146,259.583,135.22,259.583z"/>
	</g>
	<g>
		<path class="st1" d="M209.38,195.438c-1.55,0-3.118-0.411-4.538-1.277c-4.122-2.511-5.427-7.89-2.915-12.009l2.843-4.663
			c2.511-4.122,7.887-5.428,12.008-2.914c4.122,2.511,5.427,7.887,2.915,12.008l-2.842,4.664
			C215.204,193.946,212.327,195.438,209.38,195.438z"/>
		<path class="st1" d="M166.213,266.275c-1.549,0-3.119-0.412-4.539-1.278c-4.121-2.511-5.426-7.887-2.915-12.009l6.54-10.732
			c2.511-4.121,7.886-5.43,12.009-2.914c4.121,2.511,5.426,7.887,2.915,12.009l-6.541,10.732
			C172.038,264.784,169.161,266.275,166.213,266.275z M187.796,230.855c-1.549,0-3.119-0.412-4.539-1.278
			c-4.121-2.511-5.426-7.887-2.915-12.008l6.541-10.733c2.51-4.119,7.885-5.429,12.009-2.914c4.122,2.511,5.427,7.887,2.915,12.009
			l-6.54,10.732C193.621,229.364,190.744,230.855,187.796,230.855z"/>
		<path class="st1" d="M148.328,295.625c-1.55,0-3.119-0.411-4.539-1.277c-4.121-2.511-5.426-7.887-2.915-12.009l2.842-4.663
			c2.512-4.119,7.888-5.425,12.009-2.914c4.121,2.511,5.426,7.889,2.915,12.008l-2.842,4.664
			C154.152,294.135,151.275,295.625,148.328,295.625z"/>
	</g>
	<g>
		<path class="st1" d="M243.952,197.739c-1.569,0-3.157-0.422-4.591-1.31c-4.104-2.541-5.371-7.925-2.83-12.029l4.312-6.966
			c2.54-4.103,7.925-5.372,12.029-2.829c4.104,2.539,5.371,7.926,2.83,12.028l-4.312,6.965
			C249.737,196.27,246.878,197.739,243.952,197.739z"/>
		<path class="st1" d="M222.789,231.927c-1.568,0-3.157-0.423-4.591-1.311c-4.104-2.541-5.37-7.925-2.83-12.029l8.354-13.493
			c2.541-4.103,7.925-5.372,12.029-2.831c4.104,2.54,5.371,7.925,2.83,12.029l-8.353,13.493
			C228.575,230.456,225.715,231.927,222.789,231.927z"/>
		<path class="st1" d="M205.668,259.583c-1.568,0-3.157-0.423-4.591-1.31c-4.104-2.539-5.371-7.926-2.83-12.028l4.312-6.965
			c2.541-4.104,7.926-5.372,12.03-2.831c4.104,2.541,5.37,7.925,2.83,12.029l-4.312,6.966
			C211.454,258.115,208.594,259.583,205.668,259.583z"/>
	</g>
	<g>
		<path class="st1" d="M281.466,195.438c-1.55,0-3.118-0.411-4.539-1.277c-4.12-2.511-5.426-7.89-2.914-12.009l2.842-4.663
			c2.512-4.122,7.888-5.428,12.01-2.914c4.12,2.511,5.426,7.887,2.914,12.008l-2.842,4.664
			C287.291,193.946,284.413,195.438,281.466,195.438z"/>
		<path class="st1" d="M238.299,266.275c-1.549,0-3.118-0.412-4.539-1.278c-4.12-2.511-5.426-7.887-2.914-12.009l6.54-10.732
			c2.51-4.121,7.887-5.43,12.01-2.914c4.12,2.511,5.426,7.887,2.914,12.009l-6.54,10.732
			C244.124,264.784,241.247,266.275,238.299,266.275z M259.883,230.855c-1.55,0-3.119-0.412-4.539-1.278
			c-4.121-2.511-5.426-7.887-2.915-12.008l6.541-10.733c2.51-4.119,7.886-5.429,12.009-2.914c4.121,2.511,5.426,7.887,2.915,12.009
			l-6.541,10.732C265.707,229.364,262.83,230.855,259.883,230.855z"/>
		<path class="st1" d="M220.414,295.625c-1.55,0-3.119-0.411-4.539-1.277c-4.121-2.511-5.426-7.887-2.915-12.009l2.843-4.663
			c2.511-4.119,7.887-5.425,12.009-2.914c4.121,2.511,5.426,7.889,2.915,12.008l-2.843,4.664
			C226.238,294.135,223.361,295.625,220.414,295.625z"/>
	</g>
	<g>
		<path class="st1" d="M316.038,197.739c-1.57,0-3.158-0.422-4.591-1.31c-4.104-2.541-5.37-7.925-2.831-12.029l4.312-6.966
			c2.54-4.103,7.925-5.372,12.029-2.829c4.104,2.539,5.37,7.926,2.831,12.028l-4.312,6.965
			C321.823,196.27,318.964,197.739,316.038,197.739z"/>
		<path class="st1" d="M294.876,231.927c-1.57,0-3.159-0.423-4.591-1.311c-4.104-2.541-5.371-7.925-2.831-12.029l8.354-13.493
			c2.54-4.103,7.926-5.372,12.029-2.831c4.104,2.54,5.37,7.925,2.831,12.029l-8.354,13.493
			C300.66,230.456,297.802,231.927,294.876,231.927z"/>
		<path class="st1" d="M277.755,259.583c-1.57,0-3.158-0.423-4.591-1.31c-4.104-2.539-5.371-7.926-2.831-12.028l4.312-6.965
			c2.539-4.104,7.925-5.372,12.028-2.831s5.371,7.925,2.831,12.029l-4.312,6.966C283.539,258.115,280.681,259.583,277.755,259.583z"
			/>
	</g>
</g>
</svg>
