<?xml version="1.0" encoding="utf-8"?>
<!-- Generator: Adobe Illustrator 15.0.0, SVG Export Plug-In . SVG Version: 6.00 Build 0)  -->
<!DOCTYPE svg PUBLIC "-//W3C//DTD SVG 1.1//EN" "http://www.w3.org/Graphics/SVG/1.1/DTD/svg11.dtd">
<svg version="1.1" id="レイヤー_1" xmlns="http://www.w3.org/2000/svg" xmlns:xlink="http://www.w3.org/1999/xlink" x="0px"
	 y="0px" width="400px" height="300px" viewBox="0 0 400 300" style="enable-background:new 0 0 400 300;" xml:space="preserve">
<style type="text/css">
<![CDATA[
	.st0{fill:#B7D7E5;}
	.st1{fill:#9CAFB7;}
]]>
</style>
<g>
	<path class="st0" d="M341.979,71.981c-1.879-20.729-18.135-36.998-38.153-36.998c-7.938,0-15.321,2.562-21.45,6.937
		c-10.894-16.013-29.24-26.544-50.059-26.544c-33.433,0-60.526,27.101-60.526,60.534c0,0.292,0.085,0.571,0.09,0.877
		c-10.43,5.146-18.803,13.102-23.655,22.718c16.586,5.054,30.742,15.689,40.288,29.721c7.615-5.435,16.787-8.619,26.649-8.619
		c24.867,0,45.062,20.212,47.399,45.963c0.627,0.137,1.246,0.291,1.866,0.443h64.209c30.491,0,55.231-21.621,55.231-48.298
		C383.869,96.08,365.998,77.219,341.979,71.981z"/>
	<path class="st1" d="M215.163,120.607c-9.862,0-19.034,3.184-26.649,8.619c-9.546-14.032-23.702-24.667-40.288-29.721
		c-6.928-2.111-14.278-3.255-21.897-3.255c-41.532,0-75.189,33.669-75.189,75.199c0,0.363,0.104,0.709,0.112,1.092
		c-20.87,10.295-35.121,29.643-35.121,52.086c0,33.139,30.708,59.996,68.588,59.996h161.266c37.879,0,68.613-26.857,68.613-59.996
		c0-27.531-21.283-50.553-50.169-57.613c-0.62-0.152-1.239-0.307-1.866-0.443C260.226,140.819,240.03,120.607,215.163,120.607z"/>
</g>
</svg>
