<?xml version="1.0" encoding="utf-8"?>
<!-- Generator: Adobe Illustrator 15.0.0, SVG Export Plug-In . SVG Version: 6.00 Build 0)  -->
<!DOCTYPE svg PUBLIC "-//W3C//DTD SVG 1.1//EN" "http://www.w3.org/Graphics/SVG/1.1/DTD/svg11.dtd">
<svg version="1.1" id="レイヤー_1" xmlns="http://www.w3.org/2000/svg" xmlns:xlink="http://www.w3.org/1999/xlink" x="0px"
	 y="0px" width="400px" height="300px" viewBox="0 0 400 300" enable-background="new 0 0 400 300" xml:space="preserve">
<g>
	<path fill="#DDAC7A" d="M390.252,32.825l-9.704-12.944c-7.649-10.21-22.132-12.282-32.34-4.63L261.46,80.279
		c-6.764,5.065-100.025,91.469-138.667,128.993l-66.085,49.536l0.016,0.02l65.622-49.19l13.337,17.791l0.461-0.346
		c46.85-26.563,155.942-91.797,162.732-96.888l86.748-65.027C395.834,57.514,397.905,43.032,390.252,32.825z"/>
	<polygon fill="#303030" points="56.722,258.827 49.53,264.218 62.881,282.028 135.696,227.444 135.681,227.427 122.344,209.636 	
		"/>
	<path fill="#DDAC7A" d="M47.586,261.626c-1.938-2.583-5.612-3.104-8.206-1.156l-2.099,1.574c-2.595,1.943-3.125,5.617-1.191,8.2
		l17.235,22.992c1.937,2.581,5.609,3.102,8.205,1.157l2.101-1.575c2.593-1.944,3.125-5.616,1.189-8.201l-1.94-2.589l-13.352-17.811
		L47.586,261.626z"/>
</g>
<g>
	<path fill="#EAEAEA" d="M104.275,110.464c10.505-6.991,16.762-18.598,16.762-31.225c0-12.883-6.503-24.716-17.396-31.655
		c-0.103-0.065-0.187-0.147-0.28-0.221c-8.05,7.931-13.054,18.948-13.054,31.114C90.308,91.098,95.691,102.479,104.275,110.464z"/>
	<path fill="#EAEAEA" d="M162.906,47.584c-10.893,6.939-17.396,18.772-17.396,31.655c0,12.885,6.503,24.718,17.397,31.657
		c0.07,0.045,0.125,0.104,0.193,0.152c8.956-8.008,14.605-19.64,14.605-32.572c0-12.541-5.316-23.856-13.807-31.833
		C163.633,47.004,163.307,47.329,162.906,47.584z"/>
	<path fill="#EAEAEA" d="M128.574,79.239c0,14.324-6.701,27.555-18.069,36.051c6.793,4.352,14.855,6.888,23.503,6.888
		c8.314,0,16.092-2.336,22.717-6.382c-11.785-8.472-18.749-21.95-18.749-36.557c0-15.073,7.426-28.934,19.9-37.341
		c-6.866-4.496-15.064-7.122-23.868-7.122c-9.123,0-17.599,2.814-24.614,7.614C121.433,50.841,128.574,64.458,128.574,79.239z"/>
	<path fill="#ED5D5D" d="M121.038,79.239c0,12.627-6.257,24.234-16.762,31.225c1.923,1.789,4.009,3.403,6.229,4.826
		c11.367-8.496,18.069-21.727,18.069-36.051c0-14.781-7.14-28.398-19.179-36.849c-2.156,1.477-4.175,3.142-6.032,4.972
		c0.094,0.074,0.178,0.156,0.279,0.221C114.534,54.523,121.038,66.356,121.038,79.239z"/>
	<path fill="#ED5D5D" d="M137.976,79.239c0,14.608,6.965,28.084,18.749,36.555c2.27-1.388,4.402-2.981,6.377-4.747
		c-0.068-0.049-0.123-0.107-0.193-0.153c-10.895-6.939-17.397-18.772-17.397-31.657c0-12.882,6.503-24.716,17.396-31.655
		c0.4-0.254,0.727-0.58,0.994-0.939c-1.862-1.751-3.879-3.34-6.024-4.746C145.402,50.305,137.976,64.166,137.976,79.239z"/>
	<path fill="#BDC0C1" d="M134.008,129.711c28.252,0,51.234-22.983,51.234-51.234c0-28.251-22.982-51.234-51.234-51.234
		c-28.25,0-51.235,22.983-51.235,51.234C82.772,106.728,105.757,129.711,134.008,129.711z M103.362,47.363
		c1.856-1.829,3.875-3.495,6.032-4.972c7.015-4.8,15.491-7.614,24.614-7.614c8.804,0,17.002,2.625,23.868,7.122
		c2.147,1.407,4.163,2.995,6.024,4.746c8.49,7.977,13.807,19.292,13.807,31.833c0,12.931-5.649,24.563-14.605,32.572
		c-1.975,1.766-4.107,3.358-6.379,4.747c-6.623,4.046-14.401,6.381-22.715,6.381c-8.648,0-16.71-2.535-23.503-6.887
		c-2.22-1.423-4.306-3.037-6.229-4.826c-8.584-7.985-13.967-19.367-13.967-31.987C90.308,66.311,95.312,55.293,103.362,47.363z"/>
</g>
</svg>
