<?xml version="1.0" encoding="utf-8"?>
<!-- Generator: Adobe Illustrator 15.0.0, SVG Export Plug-In . SVG Version: 6.00 Build 0)  -->
<!DOCTYPE svg PUBLIC "-//W3C//DTD SVG 1.1//EN" "http://www.w3.org/Graphics/SVG/1.1/DTD/svg11.dtd">
<svg version="1.1" id="レイヤー_1" xmlns="http://www.w3.org/2000/svg" xmlns:xlink="http://www.w3.org/1999/xlink" x="0px"
	 y="0px" width="400px" height="300px" viewBox="0 0 400 300" style="enable-background:new 0 0 400 300;" xml:space="preserve">
<style type="text/css">
<![CDATA[
	.st0{fill:#4DAA4D;}
	.st1{fill:#FFE045;}
	.st2{fill:#3E6689;}
]]>
</style>
<g>
	<path class="st2" d="M118.484,134.118c68.002,0.001,97.525,99.262,97.525,99.262s31.832-38.2,82.764-38.2
		c50.898,0,82.721,82.652,82.763,82.761V22.058L18.463,22.057v255.887h0.188C18.65,277.943,50.482,134.118,118.484,134.118z
		 M359.814,129.396l-3.127,10.592l-3.128-10.592l-8.452-3.919l8.452-3.919l3.128-10.592l3.127,10.592l8.451,3.919L359.814,129.396z
		 M351.638,52.014l3.128-10.592l3.127,10.592l8.451,3.919l-8.451,3.919l-3.127,10.592l-3.128-10.592l-8.452-3.919L351.638,52.014z
		 M313.893,167.852l-3.127,10.592l-3.128-10.592l-8.452-3.919l8.452-3.919l3.128-10.592l3.127,10.592l8.451,3.919L313.893,167.852z
		 M287.466,38.439c23.871,3.682,42.148,24.313,42.148,49.214c0,27.504-22.296,49.801-49.8,49.801
		c-17.684,0-33.201-9.225-42.038-23.114c2.495,0.384,5.05,0.585,7.651,0.585c27.505,0,49.801-22.296,49.801-49.8
		C295.229,55.304,292.374,46.155,287.466,38.439z M241.186,55.933l3.128-10.592l3.128,10.592l8.451,3.919l-8.451,3.919
		l-3.128,10.592l-3.128-10.592l-8.451-3.919L241.186,55.933z M217.066,165.055l3.127-10.592l3.128,10.592l8.452,3.919l-8.452,3.919
		l-3.128,10.592l-3.127-10.592l-8.452-3.919L217.066,165.055z M145.638,90.014l3.128-10.592l3.127,10.592l8.452,3.919l-8.452,3.919
		l-3.127,10.592l-3.128-10.592l-8.452-3.919L145.638,90.014z M45.893,145.852l-3.127,10.592l-3.128-10.592l-8.452-3.919l8.452-3.919
		l3.128-10.592l3.127,10.592l8.452,3.919L45.893,145.852z M67.893,57.852l-3.127,10.592l-3.128-10.592l-8.452-3.919l8.452-3.919
		l3.128-10.592l3.127,10.592l8.452,3.919L67.893,57.852z"/>
	<path class="st0" d="M381.536,277.94c-0.042-0.108-31.864-82.761-82.763-82.761c-50.932,0-82.764,38.2-82.764,38.2
		s-29.523-99.261-97.525-99.262c-68.002,0-99.834,143.825-99.834,143.825h362.887C381.537,277.943,381.536,277.941,381.536,277.94z"
		/>
	<path class="st1" d="M245.428,114.925c-2.602,0-5.156-0.201-7.651-0.585c8.837,13.89,24.354,23.114,42.038,23.114
		c27.504,0,49.8-22.297,49.8-49.801c0-24.9-18.277-45.532-42.148-49.214c4.908,7.716,7.763,16.864,7.763,26.686
		C295.229,92.629,272.933,114.925,245.428,114.925z"/>
	<polygon class="st1" points="244.313,74.362 247.441,63.771 255.893,59.852 247.441,55.933 244.313,45.341 241.186,55.933 
		232.734,59.852 241.186,63.771 	"/>
	<polygon class="st1" points="356.688,110.966 353.56,121.558 345.107,125.477 353.56,129.396 356.688,139.987 359.814,129.396 
		368.266,125.477 359.814,121.558 	"/>
	<polygon class="st1" points="42.766,127.422 39.638,138.014 31.186,141.933 39.638,145.852 42.766,156.443 45.893,145.852 
		54.345,141.933 45.893,138.014 	"/>
	<polygon class="st1" points="220.193,183.484 223.321,172.893 231.773,168.974 223.321,165.055 220.193,154.463 217.066,165.055 
		208.614,168.974 217.066,172.893 	"/>
	<polygon class="st1" points="148.766,108.443 151.893,97.852 160.345,93.933 151.893,90.014 148.766,79.422 145.638,90.014 
		137.186,93.933 145.638,97.852 	"/>
	<polygon class="st1" points="310.766,149.422 307.638,160.014 299.186,163.933 307.638,167.852 310.766,178.443 313.893,167.852 
		322.344,163.933 313.893,160.014 	"/>
	<polygon class="st1" points="64.766,39.422 61.638,50.014 53.186,53.933 61.638,57.852 64.766,68.443 67.893,57.852 76.345,53.933 
		67.893,50.014 	"/>
	<polygon class="st1" points="354.766,70.443 357.893,59.852 366.344,55.933 357.893,52.014 354.766,41.422 351.638,52.014 
		343.186,55.933 351.638,59.852 	"/>
</g>
</svg>
