<?xml version="1.0" encoding="utf-8"?>
<!-- Generator: Adobe Illustrator 15.0.0, SVG Export Plug-In . SVG Version: 6.00 Build 0)  -->
<!DOCTYPE svg PUBLIC "-//W3C//DTD SVG 1.1//EN" "http://www.w3.org/Graphics/SVG/1.1/DTD/svg11.dtd">
<svg version="1.1" id="レイヤー_1" xmlns="http://www.w3.org/2000/svg" xmlns:xlink="http://www.w3.org/1999/xlink" x="0px"
	 y="0px" width="400px" height="300px" viewBox="0 0 400 300" style="enable-background:new 0 0 400 300;" xml:space="preserve">
<style type="text/css">
<![CDATA[
	.st0{fill:#E4E4E4;}
	.st1{fill:#53A9EA;}
	.st2{fill:#665046;}
	.st3{fill:#449FD8;}
]]>
</style>
<g>
	<path class="st3" d="M140.494,225.377l-0.013,1.18h5.811C144.234,226.557,142.275,226.137,140.494,225.377z"/>
	<path class="st3" d="M293.442,226.557h0.887l0.624,36.919h-154.87l-0.127,11.782h149.562c8.25,0,14.875-6.749,14.722-14.998
		l-0.701-37.729C300.907,225.02,297.365,226.557,293.442,226.557z"/>
	<path class="st3" d="M148.801,24.742h-6.145l-0.015,1.337C144.532,25.228,146.614,24.742,148.801,24.742z"/>
	<path class="st1" d="M140.494,225.377c1.781,0.76,3.74,1.18,5.798,1.18h147.15c3.923,0,7.465-1.537,10.097-4.025
		c2.903-2.743,4.696-6.645,4.611-10.972l-3.341-171.82c-0.161-8.249-7.042-14.997-15.292-14.997H148.801
		c-2.188,0-4.27,0.486-6.159,1.337L140.494,225.377z"/>
	<path class="st2" d="M119.905,263.476c-11.15,0-20.04-8.306-19.856-18.521c0.183-10.175,9.311-18.398,20.387-18.398h20.045
		l0.013-1.18l2.148-199.297l0.015-1.337h-23.495c-12.651,0-23.1,9.896-23.338,22.155l-3.973,204.286
		c-0.258,13.271,10.268,24.074,23.511,24.074h24.594l0.127-11.782H119.905z"/>
	<path class="st0" d="M120.436,226.557c-11.077,0-20.204,8.224-20.387,18.398c-0.184,10.215,8.706,18.521,19.856,18.521h175.048
		l-0.624-36.919H120.436z"/>
</g>
</svg>
