<?xml version="1.0" encoding="utf-8"?>
<!-- Generator: Adobe Illustrator 15.0.0, SVG Export Plug-In . SVG Version: 6.00 Build 0)  -->
<!DOCTYPE svg PUBLIC "-//W3C//DTD SVG 1.1//EN" "http://www.w3.org/Graphics/SVG/1.1/DTD/svg11.dtd">
<svg version="1.1" id="レイヤー_1" xmlns="http://www.w3.org/2000/svg" xmlns:xlink="http://www.w3.org/1999/xlink" x="0px"
	 y="0px" width="400px" height="300px" viewBox="0 0 400 300" style="enable-background:new 0 0 400 300;" xml:space="preserve">
<style type="text/css">
<![CDATA[
	.st0{fill:#AAAAAA;}
	.st1{fill:#7C7C7C;}
	.st2{fill:#4DAA4D;}
	.st3{fill:#E8EAEA;}
	.st4{fill:#53A9EA;}
	.st5{fill:#563F36;}
	.st6{fill:#F5C8A3;}
	.st7{fill:#606060;}
	.st8{fill:#FF7517;}
	.st9{fill:#FFFFFF;}
	.st10{fill:#034F93;}
	.st11{fill:#A9B8BF;}
]]>
</style>
<g>
	<path class="st3" d="M269.279,102.225c0-3.16,0.299-6.249,0.842-9.253l0,0c0-0.001,0-0.002,0.002-0.002
		c1.09-6.028,3.223-11.69,6.213-16.795c0-0.001,0-0.001,0-0.002c0.357-0.608,0.727-1.208,1.105-1.8
		c0.035-0.052,0.068-0.105,0.102-0.157c0.082-0.127,0.16-0.255,0.244-0.381l-0.07-60.377H16.904l0.367,194.138h222.831
		l-37.939-25.003H40.091V62.08h7v113.512h144.447l-2.581-1.701l0.782-1.187c-4.598-1.658-8.56-4.688-11.377-8.614h-5.758v-33.645
		l-10.688-10.772v44.417h-39.004v-48.006h35.443L126.28,83.759c-1.945-1.96-1.933-5.126,0.028-7.071
		c1.96-1.944,5.126-1.932,7.071,0.028l39.225,39.532V89.082h39.003v41.358c2.283,1.596,4.279,3.58,5.889,5.862l39.607,26.103
		c4.896-9.169,12.035-17.127,20.758-23.269l-0.01-8.418C272.439,122.549,269.279,112.758,269.279,102.225z M107.911,164.09H68.907
		V68.08h39.004V164.09z M247.611,47.015H56.716V31.432h190.895V47.015z"/>
	<path class="st0" d="M240.102,207.595H17.271L16.904,13.457h260.813l0.07,60.377c0.289-0.438,0.586-0.868,0.887-1.296
		c0.047-0.068,0.096-0.135,0.145-0.203c0.387-0.545,0.783-1.084,1.191-1.613c0.041-0.053,0.082-0.104,0.123-0.157
		c1.99-2.561,4.213-4.929,6.643-7.073l-0.062-54.056c0-2.75-2.949-4.979-6.875-4.979H15.389c-3.926,0-7.493,2.229-7.493,4.979
		l0.383,202.178c0,2.751,3.185,4.98,7.11,4.98h234.392v-2.622L240.102,207.595z"/>
	<path class="st0" d="M277.861,139.137c1.395-0.981,2.83-1.91,4.303-2.796c-1.561-1.772-3.004-3.648-4.312-5.623L277.861,139.137z"
		/>
	<rect x="56.716" y="31.432" class="st11" width="190.895" height="15.583"/>
	<path class="st10" d="M359.721,136.34c-3.045,3.458-6.541,6.507-10.404,9.051l-26.666,34.667l-26.625-32.574
		c-5.246-2.895-9.93-6.678-13.861-11.143c-1.473,0.886-2.908,1.814-4.303,2.796c-8.723,6.141-15.861,14.1-20.758,23.269
		l-39.607-26.103c2.539,3.598,4.123,7.932,4.352,12.655c0.643,13.24-9.57,24.494-22.811,25.136c-3.264,0.158-6.404-0.346-9.297-1.39
		l-0.782,1.187l2.581,1.701l10.624,7l37.939,25.003l9.68,6.378v81.57h142.322V191.459
		C392.104,168.366,379.209,148.069,359.721,136.34z"/>
	<path class="st9" d="M296.025,147.483l26.625,32.574l26.666-34.667c-8.145,5.365-17.893,8.496-28.375,8.496
		C311.906,153.887,303.416,151.561,296.025,147.483z"/>
	<path class="st6" d="M349.408,59.119c0.338,0.225,0.674,0.455,1.008,0.687C350.082,59.574,349.746,59.343,349.408,59.119z"/>
	<path class="st6" d="M347.336,57.817c0.348,0.206,0.689,0.419,1.031,0.634C348.025,58.237,347.684,58.023,347.336,57.817z"/>
	<path class="st6" d="M353.338,61.996c0.324,0.261,0.645,0.527,0.963,0.796C353.982,62.522,353.662,62.257,353.338,61.996z"/>
	<path class="st6" d="M351.408,60.513c0.332,0.243,0.66,0.491,0.986,0.741C352.068,61.003,351.74,60.755,351.408,60.513z"/>
	<path class="st6" d="M355.195,63.566c0.314,0.279,0.625,0.562,0.934,0.848C355.82,64.128,355.51,63.846,355.195,63.566z"/>
	<path class="st6" d="M356.975,65.22c0.305,0.297,0.605,0.596,0.904,0.901C357.58,65.816,357.279,65.517,356.975,65.22z"/>
	<path class="st6" d="M343.006,55.508c0.357,0.169,0.709,0.347,1.061,0.524C343.715,55.854,343.363,55.677,343.006,55.508z"/>
	<path class="st6" d="M338.434,53.607c0.367,0.132,0.73,0.275,1.094,0.416C339.164,53.883,338.801,53.74,338.434,53.607z"/>
	<path class="st6" d="M336.068,52.82c0.369,0.113,0.734,0.238,1.1,0.359C336.803,53.058,336.438,52.933,336.068,52.82z"/>
	<path class="st6" d="M345.201,56.613c0.354,0.188,0.701,0.383,1.049,0.58C345.902,56.996,345.555,56.801,345.201,56.613z"/>
	<path class="st6" d="M358.672,66.954c0.295,0.314,0.586,0.632,0.873,0.954C359.258,67.586,358.967,67.269,358.672,66.954z"/>
	<path class="st6" d="M340.746,54.504c0.363,0.151,0.721,0.312,1.08,0.47C341.467,54.816,341.109,54.655,340.746,54.504z"/>
	<path class="st6" d="M369.82,85.5c0.178,0.522,0.359,1.043,0.521,1.572C370.18,86.543,369.998,86.022,369.82,85.5z"/>
	<path class="st6" d="M368.988,83.242c0.191,0.486,0.387,0.972,0.564,1.465C369.375,84.214,369.18,83.729,368.988,83.242z"/>
	<path class="st6" d="M333.652,52.145c0.371,0.094,0.736,0.201,1.104,0.303C334.389,52.346,334.023,52.238,333.652,52.145z"/>
	<path class="st6" d="M370.537,87.762c0.166,0.572,0.332,1.144,0.48,1.724C370.869,88.906,370.703,88.334,370.537,87.762z"/>
	<path class="st6" d="M340.85,72.333c-0.73,1.34-1.51,2.656-2.391,3.928c-13.307,19.191-40.471,24.837-68.338,16.711
		c-0.543,3.004-0.842,6.093-0.842,9.253c0,10.533,3.16,20.325,8.572,28.494c1.309,1.975,2.752,3.851,4.312,5.623
		c3.932,4.464,8.615,8.248,13.861,11.143c7.391,4.077,15.881,6.403,24.916,6.403c10.482,0,20.23-3.131,28.375-8.496
		c3.863-2.544,7.359-5.592,10.404-9.051c8.014-9.102,12.883-21.037,12.883-34.115c0-4.227-0.52-8.331-1.477-12.263
		c0.746,3.062,1.227,6.228,1.4,9.476C361.066,93.284,350.078,84.119,340.85,72.333z"/>
	<path class="st6" d="M368.045,81.014c0.207,0.458,0.414,0.915,0.607,1.38C368.459,81.929,368.252,81.472,368.045,81.014z"/>
	<path class="st6" d="M363.25,72.595c0.262,0.372,0.521,0.745,0.773,1.124C363.771,73.34,363.512,72.967,363.25,72.595z"/>
	<path class="st6" d="M360.285,68.763c0.285,0.334,0.566,0.669,0.844,1.01C360.852,69.432,360.57,69.097,360.285,68.763z"/>
	<path class="st6" d="M366.996,78.826c0.221,0.434,0.443,0.868,0.652,1.309C367.439,79.693,367.217,79.26,366.996,78.826z"/>
	<path class="st6" d="M361.812,70.643c0.273,0.354,0.545,0.708,0.809,1.068C362.357,71.351,362.086,70.997,361.812,70.643z"/>
	<path class="st6" d="M364.596,74.613c0.248,0.392,0.496,0.783,0.734,1.181C365.092,75.396,364.844,75.004,364.596,74.613z"/>
	<path class="st6" d="M365.846,76.691c0.234,0.412,0.471,0.824,0.693,1.243C366.316,77.515,366.08,77.104,365.846,76.691z"/>
	<path class="st6" d="M305.299,52.982c0.332-0.105,0.668-0.201,1.002-0.299C305.967,52.781,305.631,52.877,305.299,52.982z"/>
	<path class="st6" d="M331.189,51.585c0.371,0.074,0.734,0.163,1.102,0.246C331.924,51.748,331.561,51.659,331.189,51.585z"/>
	<path class="st6" d="M307.631,52.305c0.34-0.09,0.684-0.174,1.025-0.258C308.314,52.13,307.971,52.214,307.631,52.305z"/>
	<path class="st6" d="M303.02,53.763c0.311-0.116,0.629-0.219,0.943-0.329C303.648,53.544,303.33,53.647,303.02,53.763z"/>
	<path class="st6" d="M295.494,57.273c0.375-0.214,0.752-0.428,1.133-0.632C296.244,56.845,295.869,57.06,295.494,57.273z"/>
	<path class="st6" d="M297.629,56.127c0.363-0.184,0.725-0.373,1.094-0.548C298.354,55.755,297.994,55.943,297.629,56.127z"/>
	<path class="st6" d="M289.566,61.193c0.391-0.3,0.789-0.591,1.188-0.879C290.355,60.603,289.959,60.894,289.566,61.193z"/>
	<path class="st6" d="M287.73,62.665c0.408-0.344,0.826-0.676,1.246-1.007C288.557,61.989,288.139,62.321,287.73,62.665z"/>
	<path class="st6" d="M293.447,58.496c0.381-0.24,0.764-0.478,1.15-0.708C294.211,58.019,293.828,58.256,293.447,58.496z"/>
	<path class="st6" d="M291.475,59.803c0.383-0.268,0.771-0.529,1.162-0.786C292.244,59.273,291.857,59.535,291.475,59.803z"/>
	<path class="st6" d="M300.041,54.982c0.49-0.217,0.984-0.428,1.482-0.63C301.025,54.555,300.531,54.765,300.041,54.982z"/>
	<path class="st6" d="M326.141,50.825c0.34,0.034,0.676,0.084,1.014,0.125C326.816,50.909,326.48,50.859,326.141,50.825z"/>
	<path class="st6" d="M314.955,50.921c0.324-0.038,0.648-0.079,0.975-0.11C315.604,50.842,315.279,50.883,314.955,50.921z"/>
	<path class="st6" d="M328.686,51.144c0.361,0.054,0.717,0.124,1.074,0.185C329.402,51.268,329.047,51.198,328.686,51.144z"/>
	<path class="st6" d="M323.557,50.63c0.293,0.015,0.582,0.045,0.873,0.064C324.139,50.675,323.85,50.645,323.557,50.63z"/>
	<path class="st6" d="M317.59,50.685c0.277-0.018,0.553-0.043,0.832-0.057C318.143,50.642,317.867,50.667,317.59,50.685z"/>
	<path class="st6" d="M312.449,51.271c0.34-0.056,0.68-0.112,1.021-0.162C313.129,51.159,312.789,51.215,312.449,51.271z"/>
	<path class="st6" d="M310.012,51.734c0.344-0.074,0.689-0.145,1.035-0.212C310.701,51.589,310.355,51.66,310.012,51.734z"/>
	<path class="st6" d="M276.336,76.174c-2.99,5.105-5.123,10.767-6.213,16.795C271.213,86.942,273.35,81.279,276.336,76.174z"/>
	<path class="st6" d="M278.674,72.538c-0.301,0.428-0.598,0.858-0.887,1.296c-0.084,0.126-0.162,0.254-0.244,0.381
		C277.908,73.648,278.287,73.089,278.674,72.538z"/>
	<path class="st6" d="M277.441,74.372c-0.379,0.592-0.748,1.192-1.105,1.8C276.691,75.563,277.062,74.964,277.441,74.372z"/>
	<path class="st6" d="M278.818,72.335c0.387-0.545,0.783-1.084,1.191-1.613C279.602,71.251,279.205,71.79,278.818,72.335z"/>
	<path class="st6" d="M280.133,70.565c2.148-2.768,4.576-5.308,7.234-7.586c-0.199,0.17-0.396,0.34-0.592,0.513
		C284.346,65.636,282.123,68.005,280.133,70.565z"/>
	<path class="st5" d="M280.133,70.565c-0.041,0.053-0.082,0.104-0.123,0.157c-0.408,0.529-0.805,1.068-1.191,1.613
		c-0.049,0.068-0.098,0.135-0.145,0.203c-0.387,0.551-0.766,1.11-1.131,1.677c-0.033,0.052-0.066,0.104-0.102,0.157
		c-0.379,0.592-0.75,1.192-1.105,1.8c0,0.001,0,0.001,0,0.002c-2.986,5.105-5.123,10.768-6.213,16.795
		c-0.002,0-0.002,0.001-0.002,0.002l0,0c27.867,8.126,55.031,2.48,68.338-16.711c0.881-1.271,1.66-2.588,2.391-3.928
		c9.229,11.786,20.217,20.951,31.678,27.104c-0.174-3.248-0.654-6.414-1.4-9.476c-0.039-0.158-0.07-0.318-0.109-0.476
		c-0.148-0.58-0.314-1.152-0.48-1.724c-0.066-0.229-0.127-0.461-0.195-0.689c-0.162-0.529-0.344-1.05-0.521-1.572
		c-0.09-0.264-0.174-0.531-0.268-0.793c-0.178-0.493-0.373-0.979-0.564-1.465c-0.111-0.283-0.219-0.568-0.336-0.849
		c-0.193-0.465-0.4-0.922-0.607-1.38c-0.131-0.293-0.26-0.589-0.396-0.879c-0.209-0.441-0.432-0.875-0.652-1.309
		c-0.152-0.298-0.299-0.598-0.457-0.892c-0.223-0.419-0.459-0.831-0.693-1.243c-0.17-0.3-0.34-0.601-0.516-0.897
		c-0.238-0.398-0.486-0.79-0.734-1.181c-0.189-0.299-0.377-0.599-0.572-0.894c-0.252-0.379-0.512-0.752-0.773-1.124
		c-0.207-0.296-0.414-0.592-0.629-0.884c-0.264-0.36-0.535-0.714-0.809-1.068c-0.227-0.292-0.453-0.583-0.684-0.87
		c-0.277-0.341-0.559-0.676-0.844-1.01c-0.244-0.287-0.488-0.573-0.74-0.855c-0.287-0.322-0.578-0.639-0.873-0.954
		c-0.262-0.28-0.525-0.559-0.793-0.833c-0.299-0.305-0.6-0.604-0.904-0.901c-0.279-0.272-0.561-0.541-0.846-0.806
		c-0.309-0.287-0.619-0.569-0.934-0.848c-0.295-0.262-0.594-0.52-0.895-0.775c-0.318-0.269-0.639-0.535-0.963-0.796
		c-0.311-0.251-0.625-0.498-0.943-0.742c-0.326-0.25-0.654-0.499-0.986-0.741c-0.326-0.24-0.66-0.475-0.992-0.707
		c-0.334-0.232-0.67-0.462-1.008-0.687c-0.344-0.228-0.693-0.448-1.041-0.667c-0.342-0.214-0.684-0.428-1.031-0.634
		c-0.357-0.214-0.723-0.42-1.086-0.625c-0.348-0.196-0.695-0.392-1.049-0.58c-0.375-0.2-0.754-0.391-1.135-0.581
		c-0.352-0.177-0.703-0.355-1.061-0.524c-0.391-0.185-0.785-0.358-1.18-0.533c-0.359-0.159-0.717-0.319-1.08-0.47
		c-0.402-0.167-0.811-0.324-1.219-0.481c-0.363-0.141-0.727-0.284-1.094-0.416c-0.418-0.15-0.842-0.288-1.266-0.428
		c-0.365-0.121-0.73-0.246-1.1-0.359c-0.434-0.133-0.873-0.251-1.312-0.373c-0.367-0.102-0.732-0.209-1.104-0.303
		c-0.449-0.114-0.906-0.212-1.361-0.314c-0.367-0.083-0.73-0.171-1.102-0.246c-0.473-0.095-0.953-0.173-1.43-0.256
		c-0.357-0.062-0.713-0.131-1.074-0.185c-0.506-0.076-1.02-0.133-1.531-0.195c-0.338-0.041-0.674-0.09-1.014-0.125
		c-0.566-0.057-1.139-0.092-1.711-0.13c-0.291-0.02-0.58-0.05-0.873-0.064c-0.865-0.043-1.738-0.066-2.615-0.066
		c-0.846,0-1.686,0.023-2.52,0.063c-0.279,0.014-0.555,0.039-0.832,0.057c-0.555,0.036-1.109,0.073-1.66,0.126
		c-0.326,0.032-0.65,0.073-0.975,0.11c-0.496,0.057-0.992,0.117-1.484,0.188c-0.342,0.05-0.682,0.106-1.021,0.162
		c-0.469,0.078-0.938,0.16-1.402,0.25c-0.346,0.067-0.691,0.138-1.035,0.212c-0.453,0.098-0.906,0.203-1.355,0.312
		c-0.342,0.084-0.686,0.168-1.025,0.258c-0.447,0.119-0.889,0.247-1.33,0.378c-0.334,0.099-0.67,0.194-1.002,0.299
		c-0.449,0.143-0.893,0.298-1.336,0.452c-0.314,0.11-0.633,0.213-0.943,0.329c-0.504,0.187-1,0.388-1.496,0.59
		c-0.498,0.202-0.992,0.413-1.482,0.63c-0.441,0.196-0.885,0.389-1.318,0.597c-0.369,0.176-0.73,0.364-1.094,0.548
		c-0.334,0.17-0.672,0.336-1.002,0.514c-0.381,0.204-0.758,0.418-1.133,0.632c-0.301,0.17-0.6,0.339-0.896,0.515
		c-0.387,0.23-0.77,0.468-1.15,0.708c-0.271,0.172-0.543,0.344-0.811,0.521c-0.391,0.257-0.779,0.519-1.162,0.786
		c-0.242,0.168-0.482,0.339-0.721,0.512c-0.398,0.288-0.797,0.579-1.188,0.879c-0.199,0.152-0.395,0.309-0.59,0.464
		c-0.42,0.331-0.838,0.664-1.246,1.007c-0.123,0.103-0.242,0.21-0.363,0.314C284.709,65.257,282.281,67.798,280.133,70.565z"/>
	<rect x="68.907" y="68.08" class="st2" width="39.004" height="96.01"/>
	<polygon class="st4" points="122.912,116.084 122.912,164.09 161.916,164.09 161.916,119.673 158.354,116.084 	"/>
	<path class="st8" d="M178.322,136.208l-5.718-5.763v33.645h5.758c-2.602-3.627-4.229-8.018-4.461-12.81
		C173.63,145.682,175.305,140.443,178.322,136.208z"/>
	<path class="st8" d="M196.714,126.146c5.52-0.267,10.69,1.357,14.893,4.295V89.082h-39.003v27.166l13.089,13.191
		C188.94,127.522,192.685,126.34,196.714,126.146z"/>
	<polygon class="st1" points="47.091,62.08 40.091,62.08 40.091,182.592 202.162,182.592 191.539,175.592 47.091,175.592 	"/>
	<path class="st7" d="M185.693,129.439l-13.089-13.191l-39.225-39.532c-1.944-1.96-5.111-1.972-7.071-0.028
		c-1.96,1.945-1.973,5.111-0.028,7.071l32.074,32.325l3.561,3.589l10.688,10.772l5.718,5.763
		C180.271,133.473,182.779,131.159,185.693,129.439z"/>
	<path class="st6" d="M211.607,130.44c-4.203-2.938-9.373-4.562-14.893-4.295c-4.029,0.195-7.774,1.377-11.021,3.294
		c-2.914,1.72-5.422,4.034-7.371,6.769c-3.018,4.235-4.692,9.474-4.421,15.072c0.232,4.792,1.859,9.183,4.461,12.81
		c2.817,3.927,6.78,6.956,11.377,8.614c2.893,1.044,6.033,1.548,9.297,1.39c13.241-0.642,23.454-11.896,22.811-25.136
		c-0.229-4.724-1.812-9.058-4.352-12.655C215.887,134.02,213.891,132.036,211.607,130.44z"/>
</g>
</svg>
