<?xml version="1.0" encoding="utf-8"?>
<!-- Generator: Adobe Illustrator 15.0.0, SVG Export Plug-In . SVG Version: 6.00 Build 0)  -->
<!DOCTYPE svg PUBLIC "-//W3C//DTD SVG 1.1//EN" "http://www.w3.org/Graphics/SVG/1.1/DTD/svg11.dtd">
<svg version="1.1" id="レイヤー_1" xmlns="http://www.w3.org/2000/svg" xmlns:xlink="http://www.w3.org/1999/xlink" x="0px"
	 y="0px" width="400px" height="300px" viewBox="0 0 400 300" style="enable-background:new 0 0 400 300;" xml:space="preserve">
<style type="text/css">
<![CDATA[
	.st0{fill:#BBE4F9;}
	.st1{fill:#F4A60B;}
	.st2{fill:#F9D9AA;}
	.st3{fill:#FCD4E6;}
	.st4{fill:#FF97BF;}
	.st5{fill:#62B6F4;}
	.st6{fill:#CCCCCC;}
]]>
</style>
<g>
	<path class="st6" d="M198.787,182.894l0.42,1.138c6.122,16.572,14.506,39.268-4.825,71.693c-0.707,1.186-0.318,2.721,0.867,3.428
		c0.401,0.239,0.843,0.354,1.278,0.354c0.852,0,1.682-0.436,2.149-1.221c20.554-34.479,11.692-58.469,5.221-75.986l-0.419-1.134
		c-4.689-12.728-6.937-21.503-7.084-35.124h-5.036C191.482,159.45,193.651,168.95,198.787,182.894z"/>
	<path class="st5" d="M194.741,7.645c-28.821,0-52.185,21.881-52.185,48.87c0,25.786,21.323,74.78,48.357,79.106l-2.604,10.42
		h13.379l-2.854-10.461c26.908-4.603,48.092-53.364,48.092-79.065C246.927,29.524,223.562,7.645,194.741,7.645z M158.863,59.828
		c0,2.981,0.333,6.359,0.947,9.973l-10.728,1.74c-0.709-4.201-1.091-8.163-1.091-11.713c0-14.826,6.948-28.054,17.749-36.625
		l8.104,7.489C164.782,37.212,158.863,47.838,158.863,59.828z"/>
	<path class="st0" d="M147.991,59.828c0,3.55,0.382,7.512,1.091,11.713l10.728-1.74c-0.615-3.613-0.947-6.991-0.947-9.973
		c0-11.99,5.918-22.616,14.981-29.136l-8.104-7.489C154.939,31.774,147.991,45.002,147.991,59.828z"/>
	<path class="st6" d="M289.296,215.167c-1.931,8.405-3.096,13.479-0.754,23.638c2.707,11.735,6.011,17.875,8.665,22.809
		c3.836,7.127,6.15,11.43,3.881,27.901c-0.188,1.367,0.768,2.629,2.136,2.817c0.115,0.016,0.23,0.023,0.344,0.023
		c1.229,0,2.301-0.906,2.474-2.159c2.492-18.087-0.411-23.483-4.431-30.952c-2.513-4.67-5.641-10.482-8.195-21.563
		c-2.084-9.037-1.076-13.427,0.754-21.395c1.1-4.789,2.452-10.679,3.581-19.292l-4.924-0.924
		C291.717,204.625,290.381,210.443,289.296,215.167z"/>
	<path class="st1" d="M319.84,60.324c-28.327-5.313-55.324,11.886-60.299,38.414c-4.753,25.345,7.175,77.43,32.947,86.665
		l-4.479,9.763l4.817,0.904l4.924,0.924l3.408,0.639l-0.877-10.811c27.296,0.436,57.104-43.583,61.842-68.844
		C367.098,91.451,348.167,65.638,319.84,60.324z M274.959,105c-0.55,2.932-0.847,6.312-0.907,9.979l-10.865-0.267
		c0.076-4.261,0.433-8.225,1.086-11.713c2.733-14.576,12-26.294,24.195-32.728l6.586,8.855
		C284.944,83.863,277.169,93.217,274.959,105z"/>
	<path class="st2" d="M288.468,70.271c-12.195,6.434-21.462,18.151-24.195,32.728c-0.653,3.488-1.01,7.452-1.086,11.713
		l10.865,0.267c0.061-3.666,0.357-7.047,0.907-9.979c2.21-11.783,9.985-21.137,20.095-25.873L288.468,70.271z"/>
	<path class="st6" d="M107.092,225.889c2.078,3.739,4.693,7.139,7.463,10.738c8.289,10.771,17.683,22.979,13.99,48.625
		c-0.197,1.367,0.752,2.634,2.118,2.831c0.121,0.018,0.241,0.025,0.359,0.025c1.223,0,2.292-0.898,2.472-2.144
		c3.993-27.736-6.525-41.404-14.977-52.388c-2.652-3.447-5.158-6.703-7.054-10.116c-3.944-7.1-6.273-18.286-7.824-30.969
		l-4.96,0.633C100.388,207.199,102.876,218.301,107.092,225.889z"/>
	<path class="st4" d="M140.989,97.48c-3.413-26.773-29.356-45.524-57.946-41.882c-28.589,3.646-49,28.304-45.587,55.079
		c3.262,25.578,30.608,71.482,57.972,72.355l-1.266,10.668l4.516-0.576l4.96-0.633l3.795-0.483l-4.154-10.019
		C129.39,174.023,144.239,122.975,140.989,97.48z M54.052,111.902c0.377,2.957,1.134,6.266,2.202,9.772l-10.422,3.084
		c-1.236-4.078-2.115-7.961-2.564-11.482c-1.874-14.709,3.345-28.707,12.976-38.574l8.985,6.403
		C57.063,88.719,52.537,100.009,54.052,111.902z"/>
	<path class="st3" d="M43.268,113.276c0.449,3.521,1.328,7.404,2.564,11.482l10.422-3.084c-1.068-3.507-1.824-6.815-2.202-9.772
		c-1.516-11.894,3.011-23.184,11.176-30.797l-8.985-6.403C46.612,84.569,41.394,98.567,43.268,113.276z"/>
</g>
</svg>
