<?xml version="1.0" encoding="utf-8"?>
<!-- Generator: Adobe Illustrator 15.0.0, SVG Export Plug-In . SVG Version: 6.00 Build 0)  -->
<!DOCTYPE svg PUBLIC "-//W3C//DTD SVG 1.1//EN" "http://www.w3.org/Graphics/SVG/1.1/DTD/svg11.dtd">
<svg version="1.1" id="レイヤー_1" xmlns="http://www.w3.org/2000/svg" xmlns:xlink="http://www.w3.org/1999/xlink" x="0px"
	 y="0px" width="400px" height="300px" viewBox="0 0 400 300" style="enable-background:new 0 0 400 300;" xml:space="preserve">
<style type="text/css">
<![CDATA[
	.st0{fill:#E4E4E4;}
	.st1{fill:#F22319;}
	.st2{fill:#A9B8BF;}
]]>
</style>
<g>
	<path class="st0" d="M136.637,191.673c1.642,0.409,3.301,0.615,4.934,0.615c9.339,0,18.176-7.026,24.796-16.108h-45.601
		C122.396,183.664,128.399,189.622,136.637,191.673z"/>
	<path class="st0" d="M271.309,243.542h-46.975v-12.079c-5.347,6.859-7.977,15.449-7.098,24.752
		c0.806,8.541,7.182,15.517,16.241,17.771c1.641,0.409,3.301,0.615,4.934,0.615c6.432,0,12.624-3.336,18.021-8.377h-32.098v-13.526
		h42.65c1.256-2.166,2.385-4.383,3.366-6.598C270.724,245.259,271.041,244.405,271.309,243.542z"/>
	<path class="st0" d="M172.673,226.426c-3.615-5.558-9.45-8.745-16.01-8.745c-1.746,0-3.552,0.225-5.37,0.666
		c-8.564,2.083-15.694,6.189-20.9,11.669h44.15C174.04,228.771,173.417,227.568,172.673,226.426z"/>
	<path class="st0" d="M268.905,225.216c-3.614-5.556-9.449-8.743-16.008-8.743c-1.745,0-3.552,0.225-5.369,0.665
		c-9.184,2.234-16.718,6.793-21.998,12.878h45.689C270.659,228.339,269.888,226.726,268.905,225.216z"/>
	<path class="st0" d="M174.116,247.311c0.547-1.234,0.974-2.495,1.294-3.769h-53.008c-0.907,2.913-1.433,5.979-1.54,9.156h50.57
		C172.418,250.921,173.316,249.114,174.116,247.311z"/>
	<path class="st0" d="M137.243,275.195c1.64,0.409,3.3,0.615,4.933,0.615c6.934,0,13.59-3.875,19.269-9.586H124.12
		C126.982,270.542,131.589,273.787,137.243,275.195z"/>
	<path class="st0" d="M253.685,68.688c4.524-0.419,10.982-9.454,13.621-15.747l0.489-1.161c2.733-6.472,5.56-13.163,2.349-18.809
		c-1.718-3.019-4.393-4.55-7.951-4.55c-1.582,0-3.244,0.304-4.941,0.904c-1.457,0.516-2.855,1.218-4.154,2.086
		c-6.227,4.154-9.121,14.618-9.177,22.583c-0.025,3.535,1.945,9.364,5.174,12.616C250.609,68.138,252.134,68.836,253.685,68.688z"/>
	<path class="st0" d="M175.456,153.497h-50.853c-1.601,2.851-2.786,5.921-3.515,9.156h52.884
		C175.116,159.666,175.603,156.55,175.456,153.497z"/>
	<path class="st0" d="M205.278,69.265c1.382,1.391,2.788,2.097,4.183,2.097c0.135,0,0.271-0.007,0.408-0.02
		c1.76-0.163,3.81-1.634,5.813-3.732h-11.773C204.339,68.205,204.789,68.771,205.278,69.265z"/>
	<path class="st0" d="M221.979,48.583V58.72c0.58-1.077,1.095-2.135,1.508-3.122l0.491-1.164c2.733-6.472,5.561-13.163,2.349-18.81
		c-1.717-3.018-4.391-4.548-7.948-4.548c-1.582,0-3.244,0.304-4.941,0.904c-1.456,0.514-2.854,1.216-4.159,2.087
		c-4.245,2.833-6.938,8.604-8.242,14.516H221.979z"/>
	<path class="st0" d="M156.056,134.159c-1.746,0-3.552,0.224-5.368,0.666c-4.694,1.142-8.952,2.896-12.705,5.145h31.762
		C166.18,136.24,161.355,134.159,156.056,134.159z"/>
	<path class="st0" d="M317.224,3.47c-78.148,0-156.298,0-234.447,0c23.445,97.687-23.445,195.374,0,293.061
		c78.149,0,156.299,0,234.447,0C293.779,198.844,340.669,101.156,317.224,3.47z M248.866,25.077c1.82-1.218,3.789-2.206,5.844-2.934
		c2.518-0.89,5.033-1.34,7.482-1.34c6.316,0,11.492,2.983,14.573,8.401c5.068,8.912,1.175,18.131-1.953,25.537l-0.481,1.143
		c-2.249,5.365-10.218,19.487-19.943,20.388c-0.376,0.035-0.746,0.052-1.113,0.052c-3.448,0-6.765-1.503-9.587-4.347
		c-4.899-4.936-7.423-12.81-7.385-18.038C236.369,44.447,239.699,31.192,248.866,25.077z M117.09,48.583h49.352
		c5.436-11.641,11.961-22.688,17.875-32.154c1.115-1.785,3.463-2.327,5.248-1.213s2.328,3.464,1.213,5.248
		c-5.229,8.373-10.954,18.003-15.903,28.119h18.384c1.439-7.917,5.019-16.333,11.79-20.852c1.83-1.222,3.798-2.209,5.849-2.934
		c2.514-0.89,5.031-1.34,7.48-1.34c6.315,0,11.489,2.983,14.57,8.4c5.069,8.913,1.175,18.132-1.953,25.539l-0.481,1.144
		c-2.245,5.363-10.206,19.483-19.942,20.387c-0.376,0.035-0.745,0.051-1.11,0.051h-0.001c-3.449,0-6.765-1.503-9.587-4.347
		c-1.971-1.985-3.55-4.448-4.741-7.022h-28.186c-1.492,4.442-2.717,8.888-3.541,13.278c-0.343,1.83-1.943,3.106-3.739,3.106
		c-0.233,0-0.469-0.021-0.707-0.065c-2.067-0.388-3.429-2.379-3.041-4.446c0.74-3.943,1.774-7.912,3.017-11.873H117.09V48.583z
		 M107.481,162.653h5.803c0.57-3.188,1.501-6.25,2.758-9.156h-8.561V139.97h17.958c6.05-5.863,14.017-10.254,23.449-12.547
		c2.405-0.585,4.817-0.882,7.168-0.882c9.187,0,17.35,4.45,22.396,12.209c5.396,8.297,6.152,18.812,2.021,28.127
		c-1.006,2.268-2.182,4.593-3.507,6.907v2.396h-1.432c-7.679,12.35-19.649,23.726-33.965,23.726c-2.253,0-4.532-0.282-6.774-0.84
		c-11.694-2.911-20.076-11.806-21.774-22.886h-5.542V162.653z M181.08,250.398c-1.156,2.608-2.537,5.289-4.112,7.945v7.881h-5.38
		c-7.512,9.559-17.674,17.204-29.411,17.204c-2.252,0-4.531-0.282-6.774-0.841c-9.291-2.314-16.492-8.404-19.914-16.363h-8.007
		v-13.526h5.757c0.079-3.15,0.489-6.214,1.214-9.156h-6.972v-13.526h13.038c6.277-9.139,16.311-15.991,28.975-19.071
		c2.406-0.585,4.818-0.881,7.17-0.881c9.186,0,17.349,4.449,22.395,12.208C184.455,230.568,185.21,241.083,181.08,250.398z
		 M293.82,243.542h-14.634c-0.437,1.912-1.056,3.804-1.873,5.647c-0.513,1.157-1.075,2.33-1.673,3.509h18.18v13.526h-26.975
		c-7.406,8.986-17.198,15.995-28.435,15.995c-2.253,0-4.531-0.283-6.774-0.841c-12.241-3.047-20.87-12.644-21.983-24.447
		c-2.123-22.466,12.374-41.432,36.074-47.195c2.406-0.585,4.819-0.882,7.17-0.882c9.186,0,17.347,4.45,22.394,12.208
		c1.807,2.777,3.081,5.806,3.838,8.953h14.691V243.542z M293.82,153.497h-14.603c-0.269,3.093-1.021,6.181-2.27,9.156h16.872v13.526
		h-24.453c-7.666,10.861-18.663,20.096-31.561,20.096c-2.253,0-4.533-0.284-6.775-0.842c-12.242-3.047-20.872-12.644-21.985-24.446
		c-2.121-22.467,12.376-41.433,36.075-47.196c2.406-0.585,4.818-0.882,7.17-0.882c9.185,0,17.347,4.449,22.394,12.208
		c1.007,1.548,1.852,3.173,2.533,4.853h16.603V153.497z M301.732,93.953c-0.008,0-0.015,0-0.022,0
		c-24.123-0.141-48.295,3.361-71.675,6.747c-9.205,1.333-18.724,2.712-28.16,3.86c-3.525,0.429-7.041,0.939-10.764,1.479
		c-10.768,1.563-21.901,3.182-35.433,3.182c-2.104,0-3.809-1.705-3.809-3.81c0-2.104,1.705-3.809,3.809-3.809
		c12.98,0,23.838-1.577,34.338-3.102c3.767-0.548,7.326-1.064,10.938-1.504c9.352-1.138,18.827-2.51,27.989-3.837
		c23.192-3.358,47.161-6.83,71.358-6.83c0.485,0,0.968,0.002,1.453,0.004c2.104,0.013,3.798,1.728,3.786,3.831
		C305.529,92.262,303.826,93.953,301.732,93.953z M301.732,81.401c-0.008,0-0.015,0-0.022,0
		c-24.123-0.117-48.295,3.361-71.675,6.747c-9.205,1.333-18.724,2.712-28.16,3.859c-3.525,0.429-7.041,0.939-10.764,1.48
		c-10.768,1.563-21.901,3.181-35.433,3.181c-2.104,0-3.809-1.705-3.809-3.809s1.705-3.809,3.809-3.809
		c12.98,0,23.838-1.577,34.338-3.103c3.767-0.547,7.326-1.063,10.938-1.504c9.352-1.138,18.827-2.51,27.989-3.836
		c23.192-3.359,47.161-6.83,71.358-6.83c0.485,0,0.968,0.001,1.453,0.004c2.104,0.012,3.798,1.728,3.786,3.831
		C305.529,79.71,303.826,81.401,301.732,81.401z"/>
	<path class="st0" d="M268.299,139.271c-3.614-5.557-9.449-8.744-16.008-8.744c-1.746,0-3.553,0.225-5.369,0.667
		c-6.982,1.697-13.009,4.742-17.819,8.776h39.619C268.582,139.736,268.447,139.5,268.299,139.271z"/>
	<path class="st0" d="M271.573,153.497h-47.239v-8.726c-5.75,6.979-8.615,15.853-7.704,25.499
		c0.806,8.541,7.181,15.516,16.241,17.771c1.642,0.409,3.302,0.616,4.936,0.616c8.049,0,15.724-5.221,21.93-12.478h-35.402v-13.526
		h44.238c0.411-0.831,0.802-1.664,1.172-2.497C270.702,157.994,271.31,155.749,271.573,153.497z"/>
	<path class="st2" d="M195.132,67.609c-1.769-3.822-2.668-7.891-2.646-11.016c0.018-2.478,0.265-5.214,0.773-8.011h-18.384
		c-3.041,6.218-5.775,12.617-7.929,19.026H195.132z"/>
	<path class="st2" d="M166.442,48.583H117.09v19.026h41.844C160.948,61.193,163.537,54.806,166.442,48.583z"/>
	<path class="st2" d="M201.035,48.583c-0.606,2.753-0.914,5.535-0.932,8.065c-0.022,2.999,1.404,7.634,3.806,10.961h11.773
		c2.345-2.454,4.618-5.765,6.296-8.89V48.583H201.035z"/>
	<path class="st2" d="M172.067,142.904c-0.695-1.068-1.473-2.047-2.321-2.935h-31.762c-5.767,3.456-10.327,8.09-13.38,13.527h50.853
		C175.276,149.749,174.144,146.098,172.067,142.904z"/>
	<path class="st2" d="M125.439,139.97h-17.958v13.527h8.561C118.225,148.449,121.404,143.882,125.439,139.97z"/>
	<path class="st2" d="M176.967,176.18v-2.396c-0.458,0.802-0.936,1.6-1.432,2.396H176.967z"/>
	<path class="st2" d="M112.812,174.617c-0.39-4.126-0.213-8.134,0.472-11.964h-5.803v13.526h5.542
		C112.944,175.662,112.862,175.145,112.812,174.617z"/>
	<path class="st2" d="M120.396,173.901c0.073,0.774,0.208,1.531,0.37,2.278h45.601c2.831-3.884,5.259-8.142,7.143-12.392
		c0.167-0.375,0.318-0.754,0.463-1.135h-52.884C120.282,166.229,120.027,170.001,120.396,173.901z"/>
	<path class="st2" d="M271.573,153.497c0.549-4.716-0.422-9.456-2.852-13.527h-39.619c-1.758,1.473-3.35,3.08-4.769,4.802v8.726
		H271.573z"/>
	<path class="st2" d="M279.218,153.497h14.603V139.97h-16.603C278.954,144.244,279.621,148.875,279.218,153.497z"/>
	<path class="st2" d="M269.367,176.18h24.453v-13.526h-16.872c-0.083,0.196-0.154,0.396-0.241,0.591
		C274.818,167.505,272.344,171.965,269.367,176.18z"/>
	<path class="st2" d="M224.334,176.18h35.402c3.47-4.058,6.48-8.749,8.836-13.526h-44.238V176.18z"/>
	<path class="st2" d="M107.481,230.016v13.526h6.972c1.201-4.879,3.254-9.433,6.066-13.526H107.481z"/>
	<path class="st2" d="M174.543,230.016h-44.15c-3.697,3.892-6.418,8.478-7.991,13.526h53.008
		C176.556,238.979,176.255,234.254,174.543,230.016z"/>
	<path class="st2" d="M113.238,252.698h-5.757v13.526h8.007c-1.087-2.526-1.801-5.239-2.07-8.084
		C113.245,256.3,113.193,254.487,113.238,252.698z"/>
	<path class="st2" d="M176.967,266.225v-7.881c-1.596,2.689-3.393,5.354-5.38,7.881H176.967z"/>
	<path class="st2" d="M171.433,252.698h-50.57c-0.052,1.552-0.012,3.128,0.14,4.727c0.303,3.21,1.394,6.2,3.118,8.8h37.325
		C165.298,262.351,168.702,257.633,171.433,252.698z"/>
	<path class="st2" d="M271.309,243.542c1.396-4.503,1.352-9.226-0.089-13.526H225.53c-0.411,0.474-0.812,0.955-1.196,1.447v12.079
		H271.309z"/>
	<path class="st2" d="M279.187,243.542h14.634v-13.526h-14.691C280.187,234.406,280.217,239.029,279.187,243.542z"/>
	<path class="st2" d="M224.334,266.225h32.098c4.044-3.777,7.643-8.51,10.553-13.526h-42.65V266.225z"/>
	<path class="st2" d="M293.82,266.225v-13.526h-18.18c-2.333,4.598-5.295,9.282-8.795,13.526H293.82z"/>
	<path class="st1" d="M277.218,139.97c-0.682-1.68-1.526-3.305-2.533-4.853c-5.047-7.759-13.209-12.208-22.394-12.208
		c-2.352,0-4.764,0.297-7.17,0.882c-23.699,5.764-38.196,24.729-36.075,47.196c1.113,11.803,9.743,21.399,21.985,24.446
		c2.242,0.558,4.522,0.842,6.775,0.842c12.897,0,23.895-9.234,31.561-20.096c2.977-4.215,5.451-8.675,7.34-12.936
		c0.087-0.195,0.158-0.395,0.241-0.591c1.248-2.976,2.001-6.063,2.27-9.156C279.621,148.875,278.954,144.244,277.218,139.97z
		 M259.736,176.18c-6.206,7.257-13.881,12.478-21.93,12.478c-1.634,0-3.294-0.207-4.936-0.616
		c-9.061-2.255-15.436-9.229-16.241-17.771c-0.911-9.646,1.954-18.52,7.704-25.499c1.419-1.722,3.011-3.329,4.769-4.802
		c4.811-4.034,10.837-7.079,17.819-8.776c1.816-0.442,3.623-0.667,5.369-0.667c6.559,0,12.394,3.188,16.008,8.744
		c0.148,0.229,0.283,0.466,0.423,0.699c2.43,4.071,3.4,8.812,2.852,13.527c-0.264,2.252-0.871,4.497-1.829,6.659
		c-0.37,0.833-0.761,1.666-1.172,2.497C266.217,167.431,263.206,172.122,259.736,176.18z"/>
	<path class="st1" d="M112.812,174.617c0.05,0.527,0.132,1.045,0.211,1.562c1.698,11.08,10.08,19.975,21.774,22.886
		c2.242,0.558,4.521,0.84,6.774,0.84c14.316,0,26.286-11.376,33.965-23.726c0.496-0.796,0.973-1.594,1.432-2.396
		c1.325-2.314,2.501-4.64,3.507-6.907c4.131-9.315,3.375-19.83-2.021-28.127c-5.047-7.759-13.21-12.209-22.396-12.209
		c-2.351,0-4.763,0.297-7.168,0.882c-9.432,2.293-17.399,6.684-23.449,12.547c-4.035,3.912-7.214,8.479-9.397,13.527
		c-1.257,2.906-2.188,5.968-2.758,9.156C112.598,166.483,112.421,170.491,112.812,174.617z M124.604,153.497
		c3.053-5.438,7.613-10.071,13.38-13.527c3.752-2.249,8.01-4.003,12.705-5.145c1.816-0.442,3.623-0.666,5.368-0.666
		c5.299,0,10.124,2.081,13.689,5.811c0.848,0.888,1.626,1.866,2.321,2.935c2.077,3.193,3.209,6.845,3.389,10.593
		c0.147,3.053-0.34,6.169-1.483,9.156c-0.145,0.381-0.296,0.76-0.463,1.135c-1.884,4.25-4.312,8.508-7.143,12.392
		c-6.62,9.082-15.457,16.108-24.796,16.108c-1.633,0-3.292-0.206-4.934-0.615c-8.238-2.051-14.24-8.009-15.871-15.493
		c-0.163-0.747-0.297-1.504-0.37-2.278c-0.368-3.9-0.113-7.673,0.693-11.248C121.818,159.418,123.002,156.348,124.604,153.497z"/>
	<path class="st1" d="M279.129,230.016c-0.757-3.147-2.031-6.176-3.838-8.953c-5.047-7.758-13.208-12.208-22.394-12.208
		c-2.351,0-4.764,0.297-7.17,0.882c-23.7,5.764-38.197,24.729-36.074,47.195c1.113,11.804,9.742,21.4,21.983,24.447
		c2.243,0.558,4.521,0.841,6.774,0.841c11.236,0,21.028-7.009,28.435-15.995c3.5-4.244,6.462-8.929,8.795-13.526
		c0.598-1.179,1.16-2.352,1.673-3.509c0.817-1.844,1.437-3.735,1.873-5.647C280.217,239.029,280.187,234.406,279.129,230.016z
		 M256.432,266.225c-5.396,5.041-11.589,8.377-18.021,8.377c-1.633,0-3.293-0.206-4.934-0.615
		c-9.06-2.255-15.436-9.23-16.241-17.771c-0.879-9.303,1.751-17.893,7.098-24.752c0.384-0.492,0.785-0.974,1.196-1.447
		c5.28-6.085,12.814-10.644,21.998-12.878c1.817-0.44,3.624-0.665,5.369-0.665c6.559,0,12.394,3.188,16.008,8.743
		c0.982,1.51,1.754,3.123,2.314,4.8c1.44,4.301,1.484,9.023,0.089,13.526c-0.268,0.863-0.585,1.717-0.958,2.559
		c-0.981,2.215-2.11,4.432-3.366,6.598C264.074,257.715,260.476,262.447,256.432,266.225z"/>
	<path class="st1" d="M156.663,210.063c-2.352,0-4.764,0.296-7.17,0.881c-12.664,3.08-22.697,9.933-28.975,19.071
		c-2.812,4.094-4.865,8.647-6.066,13.526c-0.725,2.942-1.135,6.006-1.214,9.156c-0.045,1.789,0.006,3.602,0.18,5.442
		c0.269,2.845,0.983,5.558,2.07,8.084c3.422,7.959,10.623,14.049,19.914,16.363c2.243,0.559,4.521,0.841,6.774,0.841
		c11.736,0,21.898-7.646,29.411-17.204c1.987-2.527,3.784-5.191,5.38-7.881c1.576-2.656,2.956-5.337,4.112-7.945
		c4.131-9.315,3.375-19.83-2.021-28.127C174.012,214.513,165.849,210.063,156.663,210.063z M142.176,275.811
		c-1.633,0-3.293-0.206-4.933-0.615c-5.654-1.408-10.261-4.653-13.123-8.971c-1.724-2.6-2.815-5.59-3.118-8.8
		c-0.151-1.599-0.191-3.175-0.14-4.727c0.106-3.178,0.632-6.243,1.54-9.156c1.573-5.049,4.293-9.635,7.991-13.526
		c5.206-5.479,12.336-9.586,20.9-11.669c1.817-0.441,3.624-0.666,5.37-0.666c6.56,0,12.395,3.188,16.01,8.745
		c0.744,1.143,1.367,2.345,1.87,3.59c1.712,4.238,2.013,8.964,0.867,13.526c-0.32,1.273-0.748,2.534-1.294,3.769
		c-0.8,1.804-1.698,3.61-2.683,5.388c-2.731,4.935-6.135,9.652-9.988,13.526C155.766,271.936,149.11,275.811,142.176,275.811z"/>
	<path class="st1" d="M155.918,79.482c-0.388,2.067,0.974,4.059,3.041,4.446c0.238,0.045,0.474,0.065,0.707,0.065
		c1.796,0,3.396-1.276,3.739-3.106c0.824-4.391,2.049-8.836,3.541-13.278c2.154-6.409,4.888-12.809,7.929-19.026
		c4.949-10.116,10.673-19.746,15.903-28.119c1.114-1.784,0.571-4.134-1.213-5.248s-4.133-0.572-5.248,1.213
		c-5.913,9.467-12.439,20.514-17.875,32.154c-2.905,6.223-5.494,12.61-7.507,19.026C157.692,71.57,156.658,75.539,155.918,79.482z"
		/>
	<path class="st1" d="M253.274,76.324c0.367,0,0.737-0.017,1.113-0.052c9.726-0.9,17.694-15.022,19.943-20.388l0.481-1.143
		c3.128-7.406,7.021-16.625,1.953-25.537c-3.081-5.418-8.257-8.401-14.573-8.401c-2.449,0-4.965,0.45-7.482,1.34
		c-2.055,0.728-4.023,1.716-5.844,2.934c-9.167,6.115-12.497,19.37-12.563,28.862c-0.038,5.229,2.485,13.103,7.385,18.038
		C246.51,74.821,249.826,76.324,253.274,76.324z M253.097,31.411c1.299-0.868,2.697-1.57,4.154-2.086
		c1.697-0.601,3.359-0.904,4.941-0.904c3.559,0,6.233,1.531,7.951,4.55c3.211,5.646,0.385,12.337-2.349,18.809l-0.489,1.161
		c-2.639,6.293-9.097,15.328-13.621,15.747c-1.551,0.148-3.075-0.55-4.591-2.077c-3.229-3.252-5.199-9.081-5.174-12.616
		C243.976,46.029,246.87,35.565,253.097,31.411z"/>
	<path class="st1" d="M195.132,67.609c1.19,2.574,2.77,5.037,4.741,7.022c2.823,2.844,6.138,4.347,9.587,4.347h0.001
		c0.365,0,0.734-0.016,1.11-0.051c9.736-0.903,17.697-15.023,19.942-20.387l0.481-1.144c3.128-7.407,7.022-16.626,1.953-25.539
		c-3.081-5.417-8.255-8.4-14.57-8.4c-2.449,0-4.967,0.45-7.48,1.34c-2.051,0.725-4.019,1.712-5.849,2.934
		c-6.771,4.519-10.351,12.935-11.79,20.852c-0.508,2.797-0.755,5.533-0.773,8.011C192.463,59.719,193.363,63.787,195.132,67.609z
		 M209.277,34.067c1.305-0.871,2.703-1.573,4.159-2.087c1.697-0.601,3.359-0.904,4.941-0.904c3.558,0,6.231,1.53,7.948,4.548
		c3.212,5.646,0.385,12.338-2.349,18.81l-0.491,1.164c-0.413,0.987-0.928,2.045-1.508,3.122c-1.678,3.125-3.951,6.436-6.296,8.89
		c-2.004,2.099-4.054,3.569-5.813,3.732c-0.138,0.013-0.273,0.02-0.408,0.02c-1.395,0-2.801-0.706-4.183-2.097
		c-0.489-0.493-0.939-1.06-1.369-1.655c-2.401-3.327-3.828-7.962-3.806-10.961c0.018-2.53,0.325-5.312,0.932-8.065
		C202.339,42.672,205.032,36.9,209.277,34.067z"/>
	<path class="st1" d="M301.755,86.335c-0.485-0.002-0.968-0.004-1.453-0.004c-24.197,0-48.166,3.472-71.358,6.83
		c-9.162,1.327-18.638,2.699-27.989,3.837c-3.612,0.439-7.17,0.956-10.938,1.504c-10.5,1.524-21.357,3.102-34.338,3.102
		c-2.104,0-3.809,1.705-3.809,3.809c0,2.104,1.705,3.81,3.809,3.81c13.531,0,24.665-1.618,35.433-3.182
		c3.723-0.54,7.238-1.051,10.764-1.479c9.437-1.148,18.955-2.527,28.16-3.86c23.38-3.386,47.552-6.888,71.675-6.747
		c0.008,0,0.015,0,0.022,0c2.094,0,3.797-1.691,3.809-3.787C305.553,88.062,303.858,86.348,301.755,86.335z"/>
	<path class="st1" d="M301.755,73.783c-0.485-0.003-0.968-0.004-1.453-0.004c-24.197,0-48.166,3.471-71.358,6.83
		c-9.162,1.326-18.638,2.698-27.989,3.836c-3.612,0.44-7.17,0.957-10.938,1.504c-10.5,1.525-21.357,3.103-34.338,3.103
		c-2.104,0-3.809,1.705-3.809,3.809s1.705,3.809,3.809,3.809c13.531,0,24.665-1.617,35.433-3.181
		c3.723-0.541,7.238-1.052,10.764-1.48c9.437-1.147,18.955-2.526,28.16-3.859c23.38-3.386,47.552-6.864,71.675-6.747
		c0.008,0,0.015,0,0.022,0c2.094,0,3.797-1.691,3.809-3.787C305.553,75.511,303.858,73.795,301.755,73.783z"/>
</g>
</svg>
