<?xml version="1.0" encoding="utf-8"?>
<!-- Generator: Adobe Illustrator 15.0.0, SVG Export Plug-In . SVG Version: 6.00 Build 0)  -->
<!DOCTYPE svg PUBLIC "-//W3C//DTD SVG 1.1//EN" "http://www.w3.org/Graphics/SVG/1.1/DTD/svg11.dtd">
<svg version="1.1" id="レイヤー_1" xmlns="http://www.w3.org/2000/svg" xmlns:xlink="http://www.w3.org/1999/xlink" x="0px"
	 y="0px" width="400px" height="300px" viewBox="0 0 400 300" style="enable-background:new 0 0 400 300;" xml:space="preserve">
<style type="text/css">
<![CDATA[
	.st0{fill:#82969E;}
	.st1{fill:#BCBCBC;}
	.st2{fill:#C18110;}
	.st3{fill:#FFB32C;}
	.st4{fill:none;}
	.st5{fill:#9E9E9E;}
	.st6{fill:#303030;}
	.st7{fill:#6B6B6B;}
	.st8{fill:#034F93;}
	.st9{fill:#A9B8BF;}
]]>
</style>
<g>
	<path class="st4" d="M231.857,62.756v-1.463c-6.057-2.745-14.715-4.652-24.951-4.652c-10.409,0-19.184,1.972-25.251,4.791v0.742
		h1.067c1.258,0,2.277,1.02,2.277,2.277c0,0.169-0.021,0.332-0.057,0.49h46.202c-0.035-0.158-0.057-0.321-0.057-0.49
		C231.088,63.774,231.389,63.173,231.857,62.756z"/>
	<path class="st4" d="M181.655,54.971c6.862-2.719,15.607-4.33,25.251-4.33c9.504,0,18.135,1.566,24.951,4.214V47.4l-0.514-28.691
		h-49.159l-0.53,28.664V54.971z"/>
	<path class="st4" d="M118.711,147.239v-0.3c-3.212,6.074-5.534,15.456-5.534,26.758s2.322,20.684,5.534,26.758v-2.575
		c0-1.257,1.019-2.276,2.276-2.276c0.251,0,0.488,0.051,0.715,0.126v-13.503h-3.115v-23.396h3.115v-9.441
		c-0.227,0.075-0.464,0.126-0.715,0.126C119.73,149.516,118.711,148.496,118.711,147.239z"/>
	<path class="st9" d="M236.322,20.95v35.931c2.922,1.546,5.344,3.328,7.152,5.293h2.574V18.709h-10.178
		C236.135,19.42,236.297,20.17,236.322,20.95z"/>
	<polygon class="st9" points="231.857,18.709 231.344,18.709 231.857,47.4 	"/>
	<path class="st9" d="M236.426,5.393h-59.313c-0.139,0-0.277,0.013-0.416,0.019h60.145C236.703,5.406,236.564,5.393,236.426,5.393z"
		/>
	<path class="st9" d="M175.76,57.851V20.941c0.026-0.776,0.188-1.523,0.452-2.232h-8.746v43.465h2.869
		C171.776,60.609,173.599,59.157,175.76,57.851z"/>
	<polygon class="st9" points="182.185,18.709 181.655,18.709 181.655,47.373 	"/>
	<path class="st0" d="M231.857,61.293v1.463c0.402-0.357,0.926-0.582,1.506-0.582h0.297
		C233.09,61.872,232.486,61.578,231.857,61.293z"/>
	<path class="st0" d="M231.857,54.854c1.592,0.618,3.084,1.296,4.465,2.026V20.95c-0.025-0.779-0.188-1.529-0.451-2.241h-4.014V47.4
		V54.854z"/>
	<path class="st0" d="M181.655,54.971v-7.598V18.709h-5.442c-0.264,0.709-0.426,1.456-0.452,2.232v36.909
		C177.515,56.79,179.494,55.827,181.655,54.971z"/>
	<path class="st0" d="M180.149,62.174h1.506v-0.742C181.134,61.674,180.629,61.92,180.149,62.174z"/>
	<path class="st6" d="M181.655,18.709h0.53h49.159h0.514h4.014h10.178h0.311c1.932,0,3.498-0.631,3.498-1.41V6.821
		c0-0.778-1.566-1.41-3.498-1.41h-9.518h-60.145h-9.893c-1.932,0-3.498,0.631-3.498,1.41v10.478c0,0.778,1.566,1.41,3.498,1.41
		h0.662h8.746H181.655z"/>
	<path class="st7" d="M260.391,289.607c0,2.762,2.238,5,5,5h4.793c2.762,0,5-2.238,5-5v-14.908h-14.793V289.607z"/>
	<path class="st7" d="M136.35,289.607c0,2.762,2.239,5,5,5h4.794c2.762,0,5-2.238,5-5v-14.908H136.35V289.607z"/>
	<path class="st6" d="M113.177,173.697c0-11.302,2.322-20.684,5.534-26.758v-9.812c-6.87,6.326-11.534,20.151-11.534,36.57
		s4.664,30.244,11.534,36.57v-9.812C115.5,194.381,113.177,184.999,113.177,173.697z"/>
	<path class="st7" d="M118.711,147.239c0,1.257,1.019,2.276,2.276,2.276c0.251,0,0.488-0.051,0.715-0.126v-29.336
		c-0.227-0.075-0.464-0.126-0.715-0.126c-1.258,0-2.276,1.02-2.276,2.276v14.923v9.812V147.239z"/>
	<path class="st7" d="M121.703,195.729c-0.227-0.075-0.464-0.126-0.715-0.126c-1.258,0-2.276,1.02-2.276,2.276v2.575v9.812v12.647
		c0,1.257,1.019,2.276,2.276,2.276c0.251,0,0.488-0.051,0.715-0.126V195.729z"/>
	<path class="st6" d="M181.655,61.432c6.067-2.819,14.843-4.791,25.251-4.791c10.236,0,18.895,1.907,24.951,4.652
		c0.629,0.285,1.232,0.579,1.803,0.881h9.814c-1.809-1.965-4.23-3.747-7.152-5.293c-1.381-0.73-2.873-1.408-4.465-2.026
		c-6.816-2.647-15.447-4.214-24.951-4.214c-9.644,0-18.389,1.611-25.251,4.33c-2.161,0.856-4.14,1.819-5.895,2.88
		c-2.161,1.307-3.984,2.759-5.425,4.323h9.813C180.629,61.92,181.134,61.674,181.655,61.432z"/>
	<path class="st7" d="M233.66,62.174h-0.297c-0.58,0-1.104,0.225-1.506,0.582c-0.469,0.417-0.77,1.019-0.77,1.695
		c0,0.169,0.021,0.332,0.057,0.49h29.475c0.035-0.158,0.057-0.321,0.057-0.49c0-1.258-1.02-2.277-2.277-2.277h-12.35h-2.574H233.66z
		"/>
	<path class="st7" d="M184.943,64.941c0.035-0.158,0.057-0.321,0.057-0.49c0-1.258-1.02-2.277-2.277-2.277h-1.067h-1.506h-9.813
		h-2.869h-9.779c-1.256,0-2.275,1.02-2.275,2.277c0,0.169,0.021,0.332,0.057,0.49H184.943z"/>
	<path class="st7" d="M288.271,146.67c2.514,0,4.551-2.037,4.551-4.552v-33.001c0-2.514-2.037-4.553-4.551-4.553
		c-0.271,0-0.535,0.034-0.793,0.08v41.945C287.736,146.636,288,146.67,288.271,146.67z"/>
	<path class="st7" d="M288.271,241.123c2.514,0,4.551-2.039,4.551-4.553v-33.001c0-2.515-2.037-4.552-4.551-4.552
		c-0.271,0-0.535,0.034-0.793,0.08v41.945C287.736,241.089,288,241.123,288.271,241.123z"/>
	<path class="st3" d="M257.242,250.171c0,2.335-2.604,4.229-5.814,4.229h-2.326c-3.213,0-5.814-1.895-5.814-4.229v-67.944h-7.725
		v6.265c0,1.849-1.248,3.349-2.787,3.349h-21.207v58.331c0,2.335-2.604,4.229-5.814,4.229h-2.326c-3.211,0-5.815-1.895-5.815-4.229
		V191.84h-20.602c-1.54,0-2.788-1.5-2.788-3.349v-6.265h-8.327v67.944c0,2.335-2.604,4.229-5.814,4.229h-2.326
		c-3.212,0-5.815-1.895-5.815-4.229v-67.944h-30.237v13.503v29.336v45.405c0,2.335,1.894,4.229,4.229,4.229h10.419h14.794h109.247
		h14.793h8.066c2.336,0,4.229-1.894,4.229-4.229v-29.428v-41.945v-16.871h-30.236V250.171z"/>
	<path class="st3" d="M287.479,104.645V69.17c0-2.334-1.893-4.229-4.229-4.229h-22.631h-29.475h-46.202h-29.475h-29.537
		c-2.335,0-4.229,1.895-4.229,4.229v50.884v29.336v9.441h30.237V96.236c0-2.336,2.604-4.229,5.815-4.229h2.326
		c3.211,0,5.814,1.893,5.814,4.229v62.595h8.327v-7.175c0-1.85,1.248-3.349,2.788-3.349h20.602V96.236
		c0-2.336,2.604-4.229,5.815-4.229h2.326c3.211,0,5.814,1.893,5.814,4.229v52.071h21.207c1.539,0,2.787,1.499,2.787,3.349v7.175
		h7.725V96.236c0-2.336,2.602-4.229,5.814-4.229h2.326c3.211,0,5.814,1.893,5.814,4.229v62.595h30.236V146.59V104.645z"/>
	<path class="st2" d="M151.94,250.171c0,2.335,2.604,4.229,5.815,4.229h2.326c3.211,0,5.814-1.895,5.814-4.229v-67.944H151.94
		V250.171z"/>
	<path class="st2" d="M165.896,96.236c0-2.336-2.604-4.229-5.814-4.229h-2.326c-3.212,0-5.815,1.893-5.815,4.229v62.595h13.956
		V96.236z"/>
	<path class="st2" d="M211.568,96.236c0-2.336-2.604-4.229-5.814-4.229h-2.326c-3.211,0-5.815,1.893-5.815,4.229v52.071h13.956
		V96.236z"/>
	<path class="st2" d="M197.613,250.171c0,2.335,2.604,4.229,5.815,4.229h2.326c3.211,0,5.814-1.895,5.814-4.229V191.84h-13.956
		V250.171z"/>
	<path class="st2" d="M249.102,254.4h2.326c3.211,0,5.814-1.895,5.814-4.229v-67.944h-13.955v67.944
		C243.287,252.506,245.889,254.4,249.102,254.4z"/>
	<path class="st2" d="M257.242,96.236c0-2.336-2.604-4.229-5.814-4.229h-2.326c-3.213,0-5.814,1.893-5.814,4.229v62.595h13.955
		V96.236z"/>
	<polygon class="st8" points="118.587,182.227 121.703,182.227 151.94,182.227 165.896,182.227 174.223,182.227 174.223,158.831 
		165.896,158.831 151.94,158.831 121.703,158.831 118.587,158.831 	"/>
	<polygon class="st8" points="243.287,158.831 235.562,158.831 235.562,182.227 243.287,182.227 257.242,182.227 287.479,182.227 
		292.59,182.227 292.59,158.831 287.479,158.831 257.242,158.831 	"/>
	<path class="st7" d="M174.223,188.491c0,1.849,1.248,3.349,2.788,3.349h20.602h13.956h21.207c1.539,0,2.787-1.5,2.787-3.349v-6.265
		v-23.396v-7.175c0-1.85-1.248-3.349-2.787-3.349h-21.207h-13.956h-20.602c-1.54,0-2.788,1.499-2.788,3.349v7.175v23.396V188.491z
		 M179.799,155.005h50.187v15.403v14.734h-50.187v-14.734V155.005z"/>
	<rect x="179.799" y="155.005" class="st1" width="50.187" height="15.403"/>
	<rect x="179.799" y="170.408" class="st5" width="50.187" height="14.734"/>
</g>
</svg>
