<?xml version="1.0" encoding="utf-8"?>
<!-- Generator: Adobe Illustrator 15.0.0, SVG Export Plug-In . SVG Version: 6.00 Build 0)  -->
<!DOCTYPE svg PUBLIC "-//W3C//DTD SVG 1.1//EN" "http://www.w3.org/Graphics/SVG/1.1/DTD/svg11.dtd">
<svg version="1.1" id="レイヤー_1" xmlns="http://www.w3.org/2000/svg" xmlns:xlink="http://www.w3.org/1999/xlink" x="0px"
	 y="0px" width="400px" height="300px" viewBox="0 0 400 300" style="enable-background:new 0 0 400 300;" xml:space="preserve">
<style type="text/css">
<![CDATA[
	.st0{fill:#4DAA4D;}
	.st1{fill:#53A9EA;}
	.st2{fill:#FF7517;}
	.st3{fill:#FFB32C;}
	.st4{fill:#FFE045;}
	.st5{fill:#9DA6AA;}
	.st6{fill:#303030;}
	.st7{fill:#6FBEEF;}
	.st8{fill:#A07C47;}
	.st9{fill:#DD992C;}
]]>
</style>
<g>
	<path class="st8" d="M342.46,159.908v55.149h21.026v-55.149c-3.35,0.917-6.872,1.417-10.513,1.417
		C349.332,161.325,345.81,160.825,342.46,159.908z"/>
	<path class="st0" d="M392.688,121.611c0-21.934-9.344-86.438-39.714-86.438c-21.287,0-32.243,31.688-36.894,58.197
		c6.088,2.681,10.342,8.758,10.342,15.836v41.933c4.526,4.072,9.995,7.113,16.038,8.769c3.35,0.917,6.872,1.417,10.514,1.417
		c3.641,0,7.163-0.5,10.513-1.417C380.315,155.298,392.688,139.904,392.688,121.611z"/>
	<path class="st0" d="M147.335,33.677c-21.295,0-32.251,31.711-36.898,58.225h73.796C179.585,65.388,168.629,33.677,147.335,33.677z
		"/>
	<path class="st5" d="M123.504,244.158c0,1.708,0.83,3.092,1.855,3.092h98.324c1.024,0,1.855-1.384,1.855-3.092v-4.693H123.504
		V244.158z"/>
	<path class="st4" d="M13.378,195.018h-2.974c-1.708,0-3.092,1.385-3.092,3.092v12.626c0,1.708,1.384,3.092,3.092,3.092h2.974
		v-16.281V195.018z"/>
	<path class="st3" d="M316.08,93.371c-2.132-0.939-4.484-1.47-6.964-1.47H184.232h-73.796H42.872
		c-9.558,0-17.306,7.749-17.306,17.306l-12.188,56.722l11.365-52.465h17.498c1.708,0,3.092,1.384,3.092,3.092v47.459
		c0,1.708-1.384,3.092-3.092,3.092H13.378v10.501h313.044V151.14v-41.933C326.422,102.129,322.168,96.052,316.08,93.371z
		 M108.078,164.015c0,1.708-1.384,3.092-3.092,3.092H64.145c-1.707,0-3.092-1.384-3.092-3.092v-24.688v-22.771
		c0-1.708,1.385-3.092,3.092-3.092h40.842c1.708,0,3.092,1.384,3.092,3.092v22.771V164.015z M155.541,167.106h-40.842
		c-1.708,0-3.093-1.384-3.093-3.092v-24.688v-22.771c0-1.708,1.385-3.092,3.093-3.092h40.842c1.707,0,3.092,1.384,3.092,3.092
		v22.771v24.688C158.633,165.723,157.248,167.106,155.541,167.106z M209.187,139.327v24.688c0,1.708-1.384,3.092-3.092,3.092
		h-40.842c-1.708,0-3.092-1.384-3.092-3.092v-24.688v-22.771c0-1.708,1.384-3.092,3.092-3.092h40.842
		c1.708,0,3.092,1.384,3.092,3.092V139.327z M259.741,139.327v24.688c0,1.708-1.385,3.092-3.093,3.092h-40.842
		c-1.707,0-3.092-1.384-3.092-3.092v-24.688v-22.771c0-1.708,1.385-3.092,3.092-3.092h40.842c1.708,0,3.093,1.384,3.093,3.092
		V139.327z M310.295,139.327v24.688c0,1.708-1.385,3.092-3.092,3.092h-40.842c-1.708,0-3.092-1.384-3.092-3.092v-24.688v-22.771
		c0-1.708,1.384-3.092,3.092-3.092h40.842c1.707,0,3.092,1.384,3.092,3.092V139.327z"/>
	<path class="st3" d="M13.378,197.546v16.281v3.802h19.377v21.836h19.357c0-0.069-0.005-0.138-0.005-0.207
		c0-18.529,15.022-33.55,33.548-33.55c18.531,0,33.547,15.022,33.547,33.55c0,0.069-0.004,0.138-0.004,0.207h4.306h102.035h1.745
		c0-0.069-0.005-0.138-0.005-0.207c0-18.529,15.022-33.55,33.549-33.55c18.53,0,33.547,15.022,33.547,33.55
		c0,0.069-0.005,0.138-0.005,0.207h12.546v-21.836h19.506v-20.083H13.378z"/>
	<path class="st1" d="M61.053,164.015c0,1.708,1.385,3.092,3.092,3.092h40.842c1.708,0,3.092-1.384,3.092-3.092v-24.688H61.053
		V164.015z"/>
	<path class="st1" d="M45.333,164.015v-47.459c0-1.708-1.384-3.092-3.092-3.092H24.743l-11.365,52.465v1.178h28.863
		C43.949,167.106,45.333,165.723,45.333,164.015z"/>
	<path class="st1" d="M158.633,139.327h-47.026v24.688c0,1.708,1.385,3.092,3.093,3.092h40.842c1.707,0,3.092-1.384,3.092-3.092
		V139.327z"/>
	<path class="st1" d="M162.161,139.327v24.688c0,1.708,1.384,3.092,3.092,3.092h40.842c1.708,0,3.092-1.384,3.092-3.092v-24.688
		H162.161z"/>
	<path class="st1" d="M212.715,164.015c0,1.708,1.385,3.092,3.092,3.092h40.842c1.708,0,3.093-1.384,3.093-3.092v-24.688h-47.026
		V164.015z"/>
	<path class="st1" d="M263.27,164.015c0,1.708,1.384,3.092,3.092,3.092h40.842c1.707,0,3.092-1.384,3.092-3.092v-24.688H263.27
		V164.015z"/>
	<path class="st5" d="M13.378,217.629h-0.269c-3.202,0-5.797,2.597-5.797,5.798v11.595c0,3.2,2.595,5.798,5.797,5.798h19.646v-1.354
		v-21.836H13.378z"/>
	<path class="st5" d="M306.916,239.465v1.354h19.645c3.201,0,5.798-2.598,5.798-5.798v-11.595c0-3.201-2.597-5.798-5.798-5.798
		h-0.139h-19.506V239.465z"/>
	<path class="st9" d="M85.655,205.708c-18.525,0-33.548,15.021-33.548,33.55c0,0.069,0.005,0.138,0.005,0.207h6.482
		c-0.001-0.069-0.006-0.138-0.006-0.207c0-14.949,12.12-27.068,27.066-27.068c14.95,0,27.065,12.12,27.065,27.068
		c0,0.069-0.005,0.138-0.005,0.207h6.482c0-0.069,0.004-0.138,0.004-0.207C119.202,220.73,104.187,205.708,85.655,205.708z"/>
	<path class="st6" d="M85.655,212.189c-14.946,0-27.066,12.119-27.066,27.068c0,0.069,0.005,0.138,0.006,0.207
		c0.111,14.851,12.184,26.858,27.061,26.858c14.881,0,26.948-12.005,27.061-26.858c0-0.069,0.005-0.138,0.005-0.207
		C112.721,224.31,100.605,212.189,85.655,212.189z M85.655,252.957c-7.553,0-13.699-6.146-13.699-13.699
		c0-7.555,6.146-13.702,13.699-13.701c7.556,0,13.7,6.146,13.7,13.701S93.211,252.957,85.655,252.957z"/>
	<path class="st5" d="M99.355,239.258c0-7.555-6.145-13.701-13.7-13.701c-7.553-0.001-13.699,6.146-13.699,13.701
		c0,7.554,6.146,13.699,13.699,13.699C93.211,252.957,99.355,246.812,99.355,239.258z"/>
	<path class="st9" d="M260.828,205.708c-18.526,0-33.549,15.021-33.549,33.55c0,0.069,0.005,0.138,0.005,0.207h6.482
		c-0.001-0.069-0.006-0.138-0.006-0.207c0-14.949,12.12-27.068,27.067-27.068c14.949,0,27.065,12.12,27.065,27.068
		c0,0.069-0.005,0.138-0.006,0.207h6.482c0-0.069,0.005-0.138,0.005-0.207C294.375,220.73,279.358,205.708,260.828,205.708z"/>
	<path class="st6" d="M260.828,212.189c-14.947,0-27.067,12.119-27.067,27.068c0,0.069,0.005,0.138,0.006,0.207
		c0.111,14.851,12.184,26.858,27.062,26.858c14.88,0,26.948-12.005,27.06-26.858c0.001-0.069,0.006-0.138,0.006-0.207
		C287.894,224.31,275.777,212.189,260.828,212.189z M260.828,252.957c-7.554,0-13.7-6.146-13.7-13.699
		c0-7.555,6.146-13.702,13.7-13.701c7.555,0,13.699,6.146,13.699,13.701S268.383,252.957,260.828,252.957z"/>
	<path class="st5" d="M274.527,239.258c0-7.555-6.145-13.701-13.699-13.701c-7.554-0.001-13.7,6.146-13.7,13.701
		c0,7.554,6.146,13.699,13.7,13.699C268.383,252.957,274.527,246.812,274.527,239.258z"/>
	<path class="st7" d="M108.078,116.556c0-1.708-1.384-3.092-3.092-3.092H64.145c-1.707,0-3.092,1.384-3.092,3.092v22.771h47.025
		V116.556z"/>
	<path class="st7" d="M158.633,139.327v-22.771c0-1.708-1.385-3.092-3.092-3.092h-40.842c-1.708,0-3.093,1.384-3.093,3.092v22.771
		H158.633z"/>
	<path class="st7" d="M206.095,113.464h-40.842c-1.708,0-3.092,1.384-3.092,3.092v22.771h47.025v-22.771
		C209.187,114.848,207.803,113.464,206.095,113.464z"/>
	<path class="st7" d="M256.648,113.464h-40.842c-1.707,0-3.092,1.384-3.092,3.092v22.771h47.026v-22.771
		C259.741,114.848,258.356,113.464,256.648,113.464z"/>
	<path class="st7" d="M307.203,113.464h-40.842c-1.708,0-3.092,1.384-3.092,3.092v22.771h47.025v-22.771
		C310.295,114.848,308.91,113.464,307.203,113.464z"/>
	<polygon class="st2" points="13.378,177.607 13.378,195.018 13.378,197.546 326.422,197.546 326.422,177.607 	"/>
</g>
</svg>
