<?xml version="1.0" encoding="utf-8"?>
<!-- Generator: Adobe Illustrator 15.0.0, SVG Export Plug-In . SVG Version: 6.00 Build 0)  -->
<!DOCTYPE svg PUBLIC "-//W3C//DTD SVG 1.1//EN" "http://www.w3.org/Graphics/SVG/1.1/DTD/svg11.dtd">
<svg version="1.1" id="レイヤー_1" xmlns="http://www.w3.org/2000/svg" xmlns:xlink="http://www.w3.org/1999/xlink" x="0px"
	 y="0px" width="400px" height="300px" viewBox="0 0 400 300" style="enable-background:new 0 0 400 300;" xml:space="preserve">
<style type="text/css">
<![CDATA[
	.st0{fill:none;}
	.st1{fill:#303030;}
]]>
</style>
<g>
	<polygon class="st0" points="149.12,113.046 149.12,121.58 227.358,142.744 227.358,134.77 	"/>
	<path class="st1" d="M236.978,230.495V104.413l-97.477-25.871v118.544c-8.148-3.072-19.696-1.409-30.096,5.153
		c-14.798,9.342-21.655,25.053-15.319,35.094c6.335,10.04,23.469,10.609,38.266,1.271c13.399-8.457,20.289-22.137,16.769-32.103
		v-74.969l78.238,21.165v68.263c-8.162-3.219-19.858-1.593-30.377,5.047c-14.799,9.339-21.657,25.05-15.321,35.092
		c6.337,10.041,23.471,10.61,38.269,1.271c13.297-8.394,20.177-21.931,16.837-31.875H236.978z M149.12,121.58v-8.534l78.238,21.723
		v7.975L149.12,121.58z"/>
	<path class="st1" d="M369.901,86.148c-1.013-10.981-9.776-21.182-16.293-27.289c-5.804-5.44-23.87-19.594-27.758-22.629
		l-2.195-2.879v94.758c-6.9-2.699-16.756-1.334-25.634,4.27c-12.515,7.899-18.314,21.186-12.957,29.676
		c5.359,8.491,19.848,8.973,32.362,1.076c11.078-6.993,16.889-18.205,14.362-26.577V70.842c3.854,0.711,8.533,1.84,11.636,3.495
		c4.604,2.456,12.351,8.135,15.478,18.736c2.331,7.901,0.815,19.144,0.815,19.144S371.157,99.775,369.901,86.148z"/>
	<path class="st1" d="M80.296,30.981h-8.396v92.308c-7.124-2.786-17.296-1.377-26.461,4.408
		c-12.918,8.154-18.906,21.869-13.375,30.634c5.532,8.765,20.488,9.262,33.406,1.11c11.435-7.218,17.434-18.79,14.826-27.434V30.981
		z"/>
</g>
</svg>
