<?xml version="1.0" encoding="utf-8"?>
<!-- Generator: Adobe Illustrator 15.0.0, SVG Export Plug-In . SVG Version: 6.00 Build 0)  -->
<!DOCTYPE svg PUBLIC "-//W3C//DTD SVG 1.1//EN" "http://www.w3.org/Graphics/SVG/1.1/DTD/svg11.dtd">
<svg version="1.1" id="レイヤー_1" xmlns="http://www.w3.org/2000/svg" xmlns:xlink="http://www.w3.org/1999/xlink" x="0px"
	 y="0px" width="400px" height="300px" viewBox="0 0 400 300" style="enable-background:new 0 0 400 300;" xml:space="preserve">
<style type="text/css">
<![CDATA[
	.st0{fill:#BCDDE8;}
	.st1{fill:#9494EA;}
	.st2{fill:#FFFFFF;}
	.st3{fill:#CCCCFF;}
]]>
</style>
<g>
	<path class="st0" d="M316.285,281.104l-50.642-87.715c-2.75-4.762-7.25-12.557-10-17.32l-26.348-45.635V33.022h1.47
		c5.408,0,9.79-5.101,9.79-11.394c0-6.291-4.382-11.393-9.79-11.393h-61.531c-5.406,0-9.789,5.102-9.789,11.393
		c0,6.293,4.383,11.394,9.789,11.394h1.471v97.411l-26.349,45.635c-2.75,4.764-7.25,12.559-10,17.32l-50.642,87.715
		c-2.75,4.764-0.5,8.66,5,8.66h101.286c5.5,0,14.5,0,20,0h101.284C316.785,289.764,319.035,285.867,316.285,281.104z
		 M101.264,276.746l67.447-116.307h40.55v-15.321h-22.754v-5h22.754v-17.517h-22.754v-5h22.754v-17.517h-22.754v-5h22.754V77.569
		h-22.754v-5h22.754V55.053h-22.754v-5h22.754v-5.361h5v115.748h17.623l66.853,116.307H101.264z"/>
	<path class="st1" d="M214.261,160.439v103.27h-5v-6.01h-22.754v-5h22.754v-17.516h-22.754v-5h22.754v-17.516h-22.754v-5h22.754
		V190.15h-22.754v-5h22.754v-17.516h-22.754v-5h22.754v-2.195h-40.55l-67.447,116.307h197.473l-66.853-116.307H214.261z
		 M160.174,205.342c2.959,0,5.357,2.4,5.357,5.355c0,2.959-2.398,5.359-5.357,5.359c-2.957,0-5.357-2.4-5.357-5.359
		C154.816,207.742,157.217,205.342,160.174,205.342z M151.41,271.076c-5.379,0-9.738-4.359-9.738-9.74
		c0-5.377,4.359-9.736,9.738-9.736c5.378,0,9.738,4.359,9.738,9.736C161.148,266.717,156.788,271.076,151.41,271.076z
		 M162.607,238.453c-2.957,0-5.355-2.398-5.355-5.357s2.398-5.355,5.355-5.355c2.959,0,5.357,2.396,5.357,5.355
		S165.566,238.453,162.607,238.453z M231.748,230.662c-2.957,0-5.355-2.398-5.355-5.355c0-2.959,2.398-5.357,5.355-5.357
		c2.959,0,5.357,2.398,5.357,5.357C237.105,228.264,234.707,230.662,231.748,230.662z M250.252,246.242
		c2.957,0,5.356,2.398,5.356,5.357c0,2.957-2.399,5.357-5.356,5.357c-2.959,0-5.356-2.4-5.356-5.357
		C244.896,248.641,247.293,246.242,250.252,246.242z M246.356,195.605c0,5.377-4.359,9.736-9.737,9.736
		c-5.379,0-9.738-4.359-9.738-9.736c0-5.379,4.359-9.738,9.738-9.738C241.997,185.867,246.356,190.227,246.356,195.605z"/>
	<polygon class="st2" points="186.507,162.635 186.507,167.635 209.261,167.635 209.261,185.15 186.507,185.15 186.507,190.15 
		209.261,190.15 209.261,207.668 186.507,207.668 186.507,212.668 209.261,212.668 209.261,230.184 186.507,230.184 
		186.507,235.184 209.261,235.184 209.261,252.699 186.507,252.699 186.507,257.699 209.261,257.699 209.261,263.709 
		214.261,263.709 214.261,160.439 214.261,44.692 209.261,44.692 209.261,50.053 186.507,50.053 186.507,55.053 209.261,55.053 
		209.261,72.569 186.507,72.569 186.507,77.569 209.261,77.569 209.261,95.085 186.507,95.085 186.507,100.085 209.261,100.085 
		209.261,117.602 186.507,117.602 186.507,122.602 209.261,122.602 209.261,140.119 186.507,140.119 186.507,145.119 
		209.261,145.119 209.261,160.439 209.261,162.635 	"/>
	<circle class="st3" cx="151.41" cy="261.338" r="9.738"/>
	<circle class="st3" cx="236.619" cy="195.605" r="9.738"/>
	<circle class="st3" cx="162.607" cy="233.097" r="5.356"/>
	<path class="st3" d="M160.174,216.057c2.959,0,5.357-2.4,5.357-5.359c0-2.955-2.398-5.355-5.357-5.355
		c-2.957,0-5.357,2.4-5.357,5.355C154.816,213.656,157.217,216.057,160.174,216.057z"/>
	<circle class="st3" cx="231.748" cy="225.306" r="5.356"/>
	<circle class="st3" cx="250.252" cy="251.6" r="5.357"/>
</g>
</svg>
