<?xml version="1.0" encoding="utf-8"?>
<!-- Generator: Adobe Illustrator 15.0.0, SVG Export Plug-In . SVG Version: 6.00 Build 0)  -->
<!DOCTYPE svg PUBLIC "-//W3C//DTD SVG 1.1//EN" "http://www.w3.org/Graphics/SVG/1.1/DTD/svg11.dtd">
<svg version="1.1" id="レイヤー_1" xmlns="http://www.w3.org/2000/svg" xmlns:xlink="http://www.w3.org/1999/xlink" x="0px"
	 y="0px" width="400px" height="300px" viewBox="0 0 400 300" style="enable-background:new 0 0 400 300;" xml:space="preserve">
<style type="text/css">
<![CDATA[
	.st0{fill:#EDE0A9;}
	.st1{fill:#FFFFFF;}
	.st2{fill:#6D6D6D;}
	.st3{fill:#6FBEEF;}
]]>
</style>
<g>
	<path class="st0" d="M360.462,97.652h-92.493c-1.1,0-2-0.9-2-2V19.215c0-1.1-0.9-2-2-2H136.032c-1.1,0-2,0.9-2,2v76.438
		c0,1.1-0.9,2-2,2H39.538c-1.1,0-2,0.9-2,2v181.133c0,1.1,0.9,2,2,2h320.924c1.1,0,2-0.9,2-2V99.652
		C362.462,98.552,361.562,97.652,360.462,97.652z M152.851,253.706H81.086v-28h71.765V253.706z M152.851,211.706H81.086v-28h71.765
		V211.706z M152.851,169.706H81.086v-28h71.765V169.706z M238.969,253.706h-71.766v-28h71.766V253.706z M238.969,211.706h-71.766
		v-28h71.766V211.706z M238.969,169.706h-71.766v-28h71.766V169.706z M198.196,117.899c-23.75,0-43-19.251-43-43s19.25-43,43-43
		c23.748,0,43,19.251,43,43S221.944,117.899,198.196,117.899z M325.086,253.706h-71.765v-28h71.765V253.706z M325.086,211.706
		h-71.765v-28h71.765V211.706z M325.086,169.706h-71.765v-28h71.765V169.706z"/>
	<rect x="81.086" y="141.706" class="st3" width="71.765" height="28"/>
	<rect x="167.203" y="141.706" class="st3" width="71.766" height="28"/>
	<rect x="253.321" y="141.706" class="st3" width="71.765" height="28"/>
	<rect x="81.086" y="183.706" class="st3" width="71.765" height="28"/>
	<rect x="167.203" y="183.706" class="st3" width="71.766" height="28"/>
	<rect x="253.321" y="183.706" class="st3" width="71.765" height="28"/>
	<rect x="81.086" y="225.706" class="st3" width="71.765" height="28"/>
	<rect x="167.203" y="225.706" class="st3" width="71.766" height="28"/>
	<rect x="253.321" y="225.706" class="st3" width="71.765" height="28"/>
	<path class="st1" d="M198.196,31.899c-23.75,0-43,19.251-43,43s19.25,43,43,43c23.748,0,43-19.251,43-43
		S221.944,31.899,198.196,31.899z M239.452,78.558c0,3.637-2.948,6.585-6.585,6.585h-41.999v-36.85c0-3.637,2.948-6.585,6.585-6.585
		s6.585,2.948,6.585,6.585v23.68h28.829C236.504,71.973,239.452,74.921,239.452,78.558z"/>
	<path class="st2" d="M204.038,48.293c0-3.637-2.948-6.585-6.585-6.585s-6.585,2.948-6.585,6.585v36.85h41.999
		c3.637,0,6.585-2.948,6.585-6.585s-2.948-6.585-6.585-6.585h-28.829V48.293z"/>
</g>
</svg>
