<?xml version="1.0" encoding="utf-8"?>
<!-- Generator: Adobe Illustrator 15.0.0, SVG Export Plug-In . SVG Version: 6.00 Build 0)  -->
<!DOCTYPE svg PUBLIC "-//W3C//DTD SVG 1.1//EN" "http://www.w3.org/Graphics/SVG/1.1/DTD/svg11.dtd">
<svg version="1.1" id="レイヤー_1" xmlns="http://www.w3.org/2000/svg" xmlns:xlink="http://www.w3.org/1999/xlink" x="0px"
	 y="0px" width="400px" height="300px" viewBox="0 0 400 300" style="enable-background:new 0 0 400 300;" xml:space="preserve">
<style type="text/css">
<![CDATA[
	.st0{fill:#84533D;}
	.st1{fill:#563F36;}
	.st2{fill:#BCBCBC;}
	.st3{fill:none;}
	.st4{fill:#9B5C3D;}
	.st5{fill:#9E9E9E;}
	.st6{fill:#6B6B6B;}
]]>
</style>
<g>
	<polygon class="st3" points="148.111,61.79 146.347,89.971 253.67,89.971 251.965,61.79 	"/>
	<path class="st0" d="M135.51,66.507c0.318-9.438,8.68-17.024,18.911-17.024h88.208c10.238,0,18.604,7.596,18.912,17.041
		l1.42,23.447h21.031l-2.377-39.271c-0.309-9.446-8.676-17.043-18.912-17.043h-125.31c-10.232,0-18.594,7.587-18.912,17.025
		l-2.458,39.289h18.02L135.51,66.507z"/>
	<path class="st1" d="M242.629,49.482h-88.208c-10.231,0-18.593,7.586-18.911,17.024l-1.468,23.464h12.305l1.764-28.181h103.854
		l1.705,28.181h9.291l-1.42-23.447C261.232,57.078,252.867,49.482,242.629,49.482z"/>
	<path class="st0" d="M233.449,209.174v8.207c0,1.68-1.361,3.041-3.041,3.041H169.59c-1.68,0-3.04-1.361-3.04-3.041v-8.207h-36.022
		l-69.472-41.355v98.525h277.887v-98.525l-69.471,41.355H233.449z"/>
	<polygon class="st1" points="166.55,209.174 166.55,200.66 130.528,200.66 61.056,166.602 61.056,167.818 130.528,209.174 	"/>
	<polygon class="st1" points="233.449,200.66 233.449,209.174 269.473,209.174 338.943,167.818 338.943,166.602 269.473,200.66 	"/>
	<path class="st4" d="M283.992,89.971h-21.031h-9.291H146.347h-12.305h-18.02H61.056v8.515v68.116l69.472,34.059h36.022v-16.729
		c0-1.68,1.36-3.041,3.04-3.041h60.818c1.68,0,3.041,1.361,3.041,3.041v16.729h36.023l69.471-34.059V98.485v-8.515H283.992z"/>
	<path class="st6" d="M166.55,217.381c0,1.68,1.36,3.041,3.04,3.041h60.818c1.68,0,3.041-1.361,3.041-3.041v-8.207v-8.514v-16.729
		c0-1.68-1.361-3.041-3.041-3.041H169.59c-1.68,0-3.04,1.361-3.04,3.041v16.729v8.514V217.381z M172.631,186.973h54.736v13.987
		v13.38h-54.736v-13.38V186.973z"/>
	<rect x="172.631" y="186.973" class="st2" width="54.736" height="13.987"/>
	<rect x="172.631" y="200.96" class="st5" width="54.736" height="13.38"/>
</g>
</svg>
