<?xml version="1.0" encoding="utf-8"?>
<!-- Generator: Adobe Illustrator 15.0.0, SVG Export Plug-In . SVG Version: 6.00 Build 0)  -->
<!DOCTYPE svg PUBLIC "-//W3C//DTD SVG 1.1//EN" "http://www.w3.org/Graphics/SVG/1.1/DTD/svg11.dtd">
<svg version="1.1" id="レイヤー_1" xmlns="http://www.w3.org/2000/svg" xmlns:xlink="http://www.w3.org/1999/xlink" x="0px"
	 y="0px" width="400px" height="300px" viewBox="0 0 400 300" style="enable-background:new 0 0 400 300;" xml:space="preserve">
<style type="text/css">
<![CDATA[
	.st0{fill:#E4E4E4;}
	.st1{fill:#6FBEEF;}
	.st2{fill:#D31111;}
]]>
</style>
<g>
	<path class="st0" d="M360.462,97.652h-92.493c-1.1,0-2-0.9-2-2V19.215c0-1.1-0.9-2-2-2H136.032c-1.1,0-2,0.9-2,2v76.438
		c0,1.1-0.9,2-2,2H39.538c-1.1,0-2,0.9-2,2v181.133c0,1.1,0.9,2,2,2h320.924c1.1,0,2-0.9,2-2V99.652
		C362.462,98.552,361.562,97.652,360.462,97.652z M152.851,253.706H81.086v-28h71.765V253.706z M152.851,211.706H81.086v-28h71.765
		V211.706z M152.851,169.706H81.086v-28h71.765V169.706z M164.359,62.797h22.824V39.975h26.335v22.822h22.823v26.336h-22.823v22.822
		h-26.335V89.133h-22.824V62.797z M238.969,253.706h-71.766v-28h71.766V253.706z M238.969,211.706h-71.766v-28h71.766V211.706z
		 M238.969,169.706h-71.766v-28h71.766V169.706z M325.086,253.706h-71.765v-28h71.765V253.706z M325.086,211.706h-71.765v-28h71.765
		V211.706z M325.086,169.706h-71.765v-28h71.765V169.706z"/>
	<rect x="81.086" y="141.706" class="st1" width="71.765" height="28"/>
	<rect x="167.203" y="141.706" class="st1" width="71.766" height="28"/>
	<rect x="253.321" y="141.706" class="st1" width="71.765" height="28"/>
	<rect x="81.086" y="183.706" class="st1" width="71.765" height="28"/>
	<rect x="167.203" y="183.706" class="st1" width="71.766" height="28"/>
	<rect x="253.321" y="183.706" class="st1" width="71.765" height="28"/>
	<rect x="81.086" y="225.706" class="st1" width="71.765" height="28"/>
	<rect x="167.203" y="225.706" class="st1" width="71.766" height="28"/>
	<rect x="253.321" y="225.706" class="st1" width="71.765" height="28"/>
	<polygon class="st2" points="187.184,111.955 213.519,111.955 213.519,89.133 236.342,89.133 236.342,62.797 213.519,62.797 
		213.519,39.975 187.184,39.975 187.184,62.797 164.359,62.797 164.359,89.133 187.184,89.133 	"/>
</g>
</svg>
