<?xml version="1.0" encoding="utf-8"?>
<!-- Generator: Adobe Illustrator 15.0.0, SVG Export Plug-In . SVG Version: 6.00 Build 0)  -->
<!DOCTYPE svg PUBLIC "-//W3C//DTD SVG 1.1//EN" "http://www.w3.org/Graphics/SVG/1.1/DTD/svg11.dtd">
<svg version="1.1" id="レイヤー_1" xmlns="http://www.w3.org/2000/svg" xmlns:xlink="http://www.w3.org/1999/xlink" x="0px"
	 y="0px" width="400px" height="300px" viewBox="0 0 400 300" style="enable-background:new 0 0 400 300;" xml:space="preserve">
<style type="text/css">
<![CDATA[
	.st0{fill:#F4A60B;}
	.st1{fill:#93A6AD;}
	.st2{fill:#FFB32C;}
	.st3{fill:#FFE045;}
	.st4{fill:#A9B8BF;}
]]>
</style>
<g>
	<polygon class="st2" points="208.819,2.711 190.528,2.778 199.849,54.355 	"/>
	<polygon class="st2" points="255.89,17.3 233.686,65.318 271.007,28.398 	"/>
	<polygon class="st2" points="141.21,17.3 126.094,28.398 163.416,65.318 	"/>
	<path class="st3" d="M238.635,234.551c0,0,12.762-41.189,17.24-48.805c4.483-7.616,19.112-30.027,19.112-47.787
		c0-38.339-34.32-69.418-74.987-69.418c-40.666-0.001-74.987,31.079-74.987,69.418c0,17.76,14.63,40.171,19.112,47.787
		c4.481,7.615,17.242,48.805,17.242,48.805c0.435,1.232,1.63,2.328,3.218,3.121v-0.25h15.312l-12.304-73.567
		c-0.099-0.556-2.523-14.789,4.75-24.098c3.607-4.617,8.792-7.188,15.407-7.641c5.732-0.396,11.271,1.788,15.861,5.058
		c4.72-3.184,9.896-5.254,14.44-5.065c8.914,0.381,13.432,4.408,15.65,7.719c6.023,8.982,2.025,21.978,1.144,24.543l-16.179,73.051
		h17.214C237.235,236.656,238.242,235.659,238.635,234.551z"/>
	<path class="st3" d="M225.887,161.479c1.061-2.979,3.136-11.755-0.01-16.423c-1.491-2.211-4.182-3.37-8.228-3.543
		c-1.867-0.078-4.385,0.816-7.019,2.354c0.601,0.767,1.152,1.542,1.646,2.314c3.645,5.693,4.416,11.367,2.118,15.566
		c-1.507,2.754-4.937,6.036-12.71,6.036c-5.783,0-9.712-1.785-11.678-5.306c-1.398-2.504-2.236-6.834,1.712-13.243
		c1.179-1.915,2.685-3.846,4.414-5.688c-2.484-1.393-5.16-2.219-7.739-2.042c-3.891,0.267-6.715,1.59-8.634,4.046
		c-4.644,5.941-2.911,16.598-2.892,16.703l12.572,75.167h19.589l16.689-75.361C225.763,161.863,225.817,161.669,225.887,161.479z"/>
	<path class="st3" d="M206.138,157.229c0.363-0.662,0.198-2.87-1.789-5.975c-0.327-0.513-0.692-1.027-1.089-1.536
		c-0.498,0.52-0.98,1.053-1.438,1.598c-3.003,3.57-3.555,5.833-3.562,6.525c0.316,0.164,1.267,0.531,3.425,0.531
		C204.708,158.372,205.907,157.653,206.138,157.229z"/>
	<path class="st0" d="M176.868,162.255c-0.019-0.105-1.751-10.762,2.892-16.703c1.919-2.456,4.743-3.779,8.634-4.046
		c2.579-0.178,5.254,0.648,7.739,2.042c-1.729,1.842-3.234,3.773-4.414,5.688c-3.948,6.409-3.11,10.739-1.712,13.243
		c1.966,3.521,5.895,5.306,11.678,5.306c7.773,0,11.203-3.282,12.71-6.036c2.298-4.199,1.526-9.873-2.118-15.566
		c-0.494-0.772-1.046-1.547-1.646-2.314c2.634-1.538,5.151-2.433,7.019-2.354c4.046,0.173,6.736,1.333,8.228,3.543
		c3.146,4.668,1.07,13.445,0.01,16.423c-0.069,0.189-0.124,0.384-0.169,0.581l-16.689,75.361h9.639l16.179-73.051
		c0.882-2.565,4.88-15.562-1.144-24.543c-2.219-3.311-6.736-7.337-15.65-7.719c-4.545-0.188-9.721,1.882-14.44,5.065
		c-4.589-3.27-10.128-5.454-15.861-5.058c-6.616,0.453-11.8,3.024-15.407,7.641c-7.274,9.309-4.849,23.542-4.75,24.098
		l12.304,73.567h9.542L176.868,162.255z M201.822,151.315c0.457-0.545,0.939-1.078,1.438-1.598c0.396,0.509,0.762,1.023,1.089,1.536
		c1.987,3.104,2.152,5.312,1.789,5.975c-0.23,0.425-1.43,1.144-4.452,1.144c-2.159,0-3.109-0.367-3.425-0.531
		C198.268,157.148,198.819,154.886,201.822,151.315z"/>
	<path class="st4" d="M179,290.347c0,3.833,3.295,6.942,7.362,6.942h27.98c4.068,0,7.363-3.109,7.363-6.942v-2.776H179V290.347z"/>
	<rect x="164.585" y="261.191" class="st1" width="71.535" height="5.554"/>
	<path class="st1" d="M164.585,278.661c0,4.92,3.297,8.909,7.363,8.909h56.809c4.066,0,7.363-3.989,7.363-8.909v-2.198h-71.535
		V278.661z"/>
	<rect x="164.585" y="237.422" class="st1" width="71.535" height="14.049"/>
	<path class="st4" d="M162.8,251.471c-2.846,0-5.154,2.176-5.154,4.859s2.308,4.861,5.154,4.861h75.105
		c2.845,0,5.155-2.176,5.155-4.859s-2.311-4.861-5.155-4.861H162.8z"/>
	<path class="st4" d="M162.8,266.745c-2.846,0-5.154,2.175-5.154,4.859c0,2.684,2.308,4.858,5.154,4.858h75.105
		c2.845,0,5.155-2.175,5.155-4.858c0-2.685-2.311-4.859-5.155-4.859H162.8z"/>
</g>
</svg>
