<?xml version="1.0" encoding="utf-8"?>
<!-- Generator: Adobe Illustrator 15.0.0, SVG Export Plug-In . SVG Version: 6.00 Build 0)  -->
<!DOCTYPE svg PUBLIC "-//W3C//DTD SVG 1.1//EN" "http://www.w3.org/Graphics/SVG/1.1/DTD/svg11.dtd">
<svg version="1.1" id="レイヤー_1" xmlns="http://www.w3.org/2000/svg" xmlns:xlink="http://www.w3.org/1999/xlink" x="0px"
	 y="0px" width="400px" height="300px" viewBox="0 0 400 300" enable-background="new 0 0 400 300" xml:space="preserve">
<path fill="#B2E4F9" d="M381.538,277.941C381.537,277.942,381.537,277.941,381.538,277.941l-0.001-255.883L18.463,22.057v255.886
	h0.188l0-0.002H381.538z"/>
<g>
	<path fill="#D7F7FF" d="M102.854,89.287h53.299c12.52,0.001,22.677-8.876,22.677-19.83c0-9.294-7.338-17.039-17.2-19.188
		c-0.771-8.511-7.445-15.19-15.664-15.19c-3.26,0-6.292,1.051-8.808,2.849c-4.472-6.576-12.004-10.9-20.552-10.9
		c-13.728,0-24.851,11.128-24.851,24.853c0,0.12,0.035,0.234,0.037,0.36c-6.896,3.403-11.607,9.797-11.607,17.215
		C80.186,80.411,90.334,89.287,102.854,89.287z"/>
	<path fill="#D7F7FF" d="M356.581,188.156c-0.557-6.132-5.366-10.946-11.289-10.946c-2.35,0-4.534,0.758-6.347,2.053
		c-3.225-4.737-8.652-7.855-14.812-7.855c-9.893,0-17.909,8.02-17.909,17.912c0,0.088,0.024,0.171,0.025,0.259
		c-4.97,2.453-8.365,7.062-8.365,12.408c0,7.893,7.314,14.29,16.336,14.29h38.413c9.022,0,16.343-6.397,16.343-14.29
		C368.976,195.288,363.688,189.705,356.581,188.156z"/>
	<path fill="#D7F7FF" d="M99.882,240.431c-0.644-7.097-6.209-12.669-13.063-12.669c-2.718,0-5.247,0.878-7.346,2.376
		c-3.729-5.483-10.012-9.089-17.142-9.089c-11.447,0-20.724,9.279-20.724,20.728c0,0.1,0.028,0.194,0.03,0.301
		c-5.751,2.838-9.68,8.17-9.68,14.356c0,9.135,8.464,16.538,18.905,16.538h44.451c10.441-0.002,18.912-7.403,18.912-16.538
		C114.226,248.684,108.106,242.224,99.882,240.431z"/>
	<g>
		<path fill="#FFFFFF" d="M334.484,114.865c1.894,0,4.619,0,6.055,0s2.667,0.033,2.736,0.075c0.068,0.041,0.699-1.192,0.894-3.076
			l3.803-37.196c0.192-1.883-1.199-3.424-3.092-3.424h-13.771c-1.894,0-4.239,1.329-5.215,2.953l-22.63,37.718
			c-0.976,1.623-0.223,2.952,1.669,2.952h20.833c1.892,0,4.991,0,6.886,0L334.484,114.865L334.484,114.865z"/>
	</g>
	<path fill="#BACED6" d="M246.491,99.639c0,0,3.973-13.888-8.843-16.175C224.834,81.179,214,89.475,214,89.475l-51.341,25.39h67.775
		L246.491,99.639z"/>
	<path fill="#E4E4E4" d="M83.968,195.492c-0.574-0.005-1.167-0.021-1.775-0.049C82.8,195.471,83.394,195.487,83.968,195.492z"/>
	<path fill="#FFFFFF" d="M65.36,192.762c-17.351-4.499-35.999-14.486-36.489-29.475c6.467,4.998,20.078,13.692,38.735,15.845
		c6.146,0.708,17.001,1.034,30.262,1.081c-1.327-0.134-2.381-0.236-3.12-0.295c18.882-2.388,36.09-6.453,98.946-15.772
		c9.672-1.433,19.357-3.242,28.599-5.241c-0.171-0.384-0.269-0.803-0.269-1.248v-9.205c0-1.694,1.374-3.068,3.067-3.068h4.091
		c1.695,0,3.068,1.375,3.068,3.068v8.185c2.793-0.669,5.525-1.348,8.181-2.037v-6.149c0-1.694,1.373-3.068,3.069-3.068h4.091
		c1.694,0,3.068,1.375,3.068,3.068v3.359c2.494-0.715,4.883-1.432,7.158-2.142v-1.216c0-1.694,1.375-3.068,3.068-3.068h4.091
		c0.949,0,1.787,0.44,2.35,1.118c2.577-0.925,4.901-1.821,6.913-2.67c27.723-11.711,42.062-18.644,54.969-28.965h-27.717h-71.059
		h-67.776h-59.094c-31.154,0-74.726,31.764-74.726,47.824c0,0.429,0.02,0.85,0.048,1.269c0.008,0.112,0.018,0.224,0.028,0.334
		c0.031,0.36,0.072,0.716,0.125,1.069c0.009,0.059,0.016,0.123,0.024,0.186c0.064,0.404,0.144,0.806,0.235,1.202
		c0.023,0.1,0.049,0.199,0.074,0.299c0.08,0.326,0.168,0.65,0.265,0.972c0.026,0.084,0.05,0.17,0.076,0.253
		c0.124,0.389,0.26,0.77,0.409,1.149c0.031,0.081,0.065,0.159,0.098,0.238c0.127,0.316,0.264,0.628,0.407,0.936
		c0.043,0.094,0.086,0.187,0.13,0.278c0.179,0.37,0.369,0.738,0.571,1.102c0.025,0.045,0.053,0.089,0.079,0.134
		c0.184,0.324,0.376,0.644,0.578,0.959c0.057,0.093,0.114,0.18,0.173,0.272c0.466,0.712,0.974,1.407,1.522,2.084
		c0.066,0.084,0.133,0.165,0.2,0.245c0.247,0.299,0.501,0.595,0.765,0.889c0.037,0.042,0.072,0.084,0.109,0.125
		c0.301,0.331,0.611,0.657,0.931,0.979c0.065,0.068,0.134,0.133,0.202,0.2c0.276,0.276,0.56,0.549,0.851,0.816
		c0.058,0.057,0.115,0.11,0.174,0.164c0.344,0.314,0.696,0.626,1.057,0.933c0.051,0.042,0.104,0.087,0.155,0.13
		c0.32,0.27,0.649,0.535,0.982,0.798c0.071,0.057,0.141,0.112,0.212,0.169c0.386,0.3,0.779,0.598,1.18,0.888
		c0.008,0.008,0.016,0.014,0.024,0.019c0.389,0.283,0.787,0.56,1.189,0.833c0.076,0.052,0.152,0.104,0.229,0.155
		c0.838,0.562,1.702,1.107,2.59,1.633c0.068,0.041,0.135,0.081,0.204,0.12c0.433,0.255,0.872,0.507,1.316,0.752
		c0.011,0.007,0.022,0.013,0.034,0.02c0.471,0.259,0.949,0.514,1.433,0.766c0.05,0.025,0.101,0.053,0.152,0.079
		c0.449,0.232,0.902,0.46,1.359,0.684c0.035,0.02,0.069,0.035,0.104,0.053c0.499,0.244,1.004,0.482,1.511,0.716
		c0.011,0.005,0.021,0.01,0.031,0.015c0.49,0.224,0.984,0.443,1.48,0.659c0.045,0.019,0.091,0.039,0.137,0.06
		c1.021,0.438,2.055,0.859,3.099,1.26c0.044,0.018,0.091,0.035,0.135,0.054c1.049,0.399,2.105,0.778,3.167,1.139
		c0.039,0.015,0.076,0.026,0.114,0.04c1.071,0.36,2.146,0.701,3.222,1.021c0.023,0.007,0.046,0.015,0.068,0.02
		c0.525,0.157,1.051,0.308,1.575,0.451c0.019,0.007,0.038,0.012,0.057,0.018c1.293,0.36,2.583,0.688,3.861,0.988
		c-0.731-0.173-1.467-0.354-2.204-0.545C65.376,192.766,65.369,192.764,65.36,192.762z M147.372,160.723h-4.091
		c-1.694,0-3.068-1.373-3.068-3.066v-9.206c0-1.694,1.374-3.068,3.068-3.068h4.091c1.694,0,3.068,1.375,3.068,3.068v9.206
		C150.44,159.35,149.066,160.723,147.372,160.723z M202.595,157.656c0,1.694-1.374,3.067-3.068,3.067h-4.091
		c-1.695,0-3.068-1.373-3.068-3.067v-9.205c0-1.694,1.374-3.068,3.068-3.068h4.091c1.694,0,3.068,1.375,3.068,3.068V157.656z
		 M178.051,145.383h4.091c1.694,0,3.068,1.375,3.068,3.068v9.205c0,1.694-1.374,3.067-3.068,3.067h-4.091
		c-1.694,0-3.069-1.373-3.069-3.067v-9.205C174.982,146.758,176.357,145.383,178.051,145.383z M167.825,148.452v9.205
		c0,1.694-1.375,3.067-3.068,3.067h-4.091c-1.694,0-3.068-1.373-3.068-3.067v-9.205c0-1.694,1.374-3.068,3.068-3.068h4.091
		C166.451,145.383,167.825,146.758,167.825,148.452z M121.805,148.452c0-1.694,1.374-3.068,3.068-3.068h4.091
		c1.694,0,3.068,1.375,3.068,3.068v9.205c0,1.694-1.374,3.067-3.068,3.067h-4.091c-1.694,0-3.068-1.373-3.068-3.067V148.452z
		 M64.78,126.552c2.19,1.77,5.123,3.857,8.962,6.05c10.737,6.135,21.954,7.113,21.954,7.113l-3.547,16.409
		c0,0-15.851-2.047-24.033-5.625c-9.362-4.094-16.073-9.016-20.383-12.812C52.818,133.709,58.625,129.894,64.78,126.552z"/>
	<path fill="#E4E4E4" d="M67.634,193.322c0.725,0.168,1.446,0.33,2.162,0.478c-0.675-0.142-1.357-0.293-2.043-0.452
		C67.713,193.339,67.673,193.331,67.634,193.322z"/>
	<path fill="#E4E4E4" d="M80.279,195.329c-0.354-0.026-0.723-0.064-1.083-0.099c-0.295-0.027-0.584-0.048-0.884-0.08
		c-0.446-0.045-0.904-0.104-1.361-0.159c-0.222-0.027-0.439-0.05-0.663-0.079c2.065,0.272,4.037,0.449,5.872,0.529
		c-0.247-0.012-0.504-0.029-0.754-0.042C81.033,195.375,80.663,195.358,80.279,195.329z"/>
	<path fill="#E4E4E4" d="M74.178,194.605c0.706,0.112,1.403,0.214,2.089,0.303c-0.492-0.066-0.994-0.141-1.497-0.217
		C74.572,194.662,74.377,194.637,74.178,194.605z"/>
	<path fill="#E4E4E4" d="M72.019,194.237c-0.621-0.114-1.25-0.24-1.88-0.369c-0.085-0.018-0.171-0.034-0.256-0.05
		c1.454,0.303,2.886,0.565,4.282,0.785c-0.548-0.087-1.104-0.184-1.662-0.282C72.34,194.291,72.182,194.266,72.019,194.237z"/>
	<path fill="#BACED6" d="M137.147,185.266c0-0.482,0.209-1.055,0.568-1.678c-18.176-1.054-32.867-2.669-39.846-3.375
		c-13.261-0.047-24.116-0.372-30.262-1.081c-18.657-2.152-32.268-10.847-38.735-15.845c0.49,14.988,19.138,24.976,36.489,29.475
		c0.008,0.002,0.016,0.004,0.024,0.006c0.737,0.191,1.472,0.372,2.204,0.544c0.006,0.001,0.012,0.003,0.019,0.005
		c0.009,0.002,0.017,0.004,0.026,0.006c0.04,0.009,0.079,0.017,0.119,0.025c0.686,0.159,1.368,0.311,2.043,0.452
		c0.011,0.002,0.022,0.006,0.033,0.008c0.018,0.004,0.037,0.007,0.055,0.011c0.085,0.016,0.17,0.032,0.255,0.05
		c0.631,0.13,1.26,0.255,1.88,0.369c0.163,0.028,0.323,0.054,0.485,0.084c0.558,0.099,1.115,0.195,1.663,0.283
		c0.001,0,0.002,0,0.004,0c0.002,0.002,0.006,0.002,0.008,0.002c0.2,0.03,0.394,0.057,0.592,0.086
		c0.502,0.076,1.005,0.15,1.497,0.216c0.002,0,0.003,0.003,0.005,0.003c0.005,0,0.011,0,0.016,0.002
		c0.224,0.028,0.44,0.052,0.663,0.079c0.457,0.056,0.915,0.114,1.361,0.158c0.3,0.033,0.589,0.055,0.884,0.081
		c0.362,0.034,0.729,0.072,1.084,0.098c0.384,0.029,0.752,0.047,1.126,0.07c0.25,0.014,0.508,0.03,0.753,0.042
		c0.003,0.002,0.006,0.002,0.009,0.002c0.009,0,0.016,0,0.023,0c0.607,0.027,1.201,0.045,1.775,0.049
		c14.537,0.142,25.269,0.12,63.634,0.103l-2.275-1.125C145.327,194.47,137.147,188.334,137.147,185.266z"/>
	<path fill="#BACED6" d="M242.478,176.064c-5.399,1.687-11.186,3.067-17.221,4.191l7.909,7.498
		c35.224-10.538,73.024-29.252,95.817-40.465c-9.154-2.175-17.624-4.295-21.246-5.208
		C289.115,154.886,265.436,168.895,242.478,176.064z"/>
	<path fill="#BACED6" d="M321.07,132.527l18.832-1.948l9.462,5.288c9.718-9.55-2.481-18.557-5.548-20.578
		c-0.416-0.276-0.667-0.423-0.667-0.423S334.55,122.475,321.07,132.527z"/>
	<path fill="#53A9EA" d="M92.15,156.124l3.547-16.409c0,0-11.217-0.977-21.954-7.113c-3.839-2.193-6.772-4.28-8.962-6.05
		c-6.155,3.342-11.961,7.158-17.046,11.134c4.311,3.795,11.021,8.718,20.384,12.812C76.299,154.076,92.15,156.124,92.15,156.124z"/>
	<path fill="#156CAD" d="M343.15,114.865h-5.223h-8.72c-12.906,10.322-27.245,17.253-54.969,28.965
		c-2.012,0.85-4.336,1.745-6.913,2.67c0.442,0.532,0.719,1.205,0.719,1.951v9.205c0,1.694-1.374,3.066-3.069,3.066h-4.091
		c-1.693,0-3.067-1.372-3.067-3.066v-7.987c-2.275,0.709-4.666,1.426-7.16,2.141v5.847c0,1.694-1.373,3.066-3.066,3.066h-4.092
		c-1.694,0-3.068-1.372-3.068-3.066V154.6c-2.655,0.689-5.388,1.369-8.181,2.038v1.019c0,1.694-1.375,3.066-3.069,3.066h-4.091
		c-1.247,0-2.319-0.748-2.798-1.817c-9.243,2-18.928,3.808-28.6,5.242c-62.857,9.319-80.064,13.384-98.946,15.772
		c0.739,0.058,1.793,0.161,3.12,0.294c6.978,0.707,21.67,2.32,39.846,3.376c1.917-3.331,8.633-8.256,16.816-10.595
		c14.317-4.091,26.072-2.285,36.815-1.021c17.385,2.045,32.725,7.158,32.725,7.158l1.186,1.126
		c6.035-1.124,11.822-2.505,17.221-4.191c22.959-7.17,46.638-21.179,65.26-33.984c-1.184-0.298-1.855-0.47-1.855-0.47
		s0.919-6.434,7.356-8.273l7.832-0.811C334.55,122.475,343.15,114.865,343.15,114.865z"/>
	<ellipse fill="#494949" cx="172.002" cy="225.011" rx="7.648" ry="12.747"/>
	<path fill="#BACED6" d="M183.235,225.011c0,10.341-5.03,18.723-11.233,18.723c0,0,35.516-1.922,44.255-14.181l-36.488-18.047
		C181.901,214.912,183.235,219.699,183.235,225.011z"/>
	<path fill="#53A9EA" d="M124.873,160.723h4.091c1.694,0,3.068-1.373,3.068-3.066v-9.206c0-1.694-1.374-3.068-3.068-3.068h-4.091
		c-1.694,0-3.068,1.375-3.068,3.068v9.206C121.805,159.35,123.179,160.723,124.873,160.723z"/>
	<path fill="#53A9EA" d="M150.44,148.452c0-1.694-1.374-3.068-3.068-3.068h-4.091c-1.694,0-3.068,1.375-3.068,3.068v9.205
		c0,1.694,1.374,3.067,3.068,3.067h4.091c1.694,0,3.068-1.373,3.068-3.067V148.452z"/>
	<path fill="#53A9EA" d="M157.599,148.452v9.205c0,1.694,1.374,3.067,3.068,3.067h4.091c1.693,0,3.068-1.373,3.068-3.067v-9.205
		c0-1.694-1.375-3.068-3.068-3.068h-4.091C158.972,145.383,157.599,146.758,157.599,148.452z"/>
	<path fill="#53A9EA" d="M174.982,157.656c0,1.694,1.375,3.067,3.069,3.067h4.091c1.694,0,3.068-1.373,3.068-3.067v-9.205
		c0-1.694-1.374-3.068-3.068-3.068h-4.091c-1.694,0-3.069,1.375-3.069,3.068V157.656z"/>
	<path fill="#53A9EA" d="M199.527,145.383h-4.091c-1.695,0-3.068,1.375-3.068,3.068v9.205c0,1.694,1.374,3.067,3.068,3.067h4.091
		c1.694,0,3.068-1.373,3.068-3.067v-9.205C202.595,146.758,201.221,145.383,199.527,145.383z"/>
	<path fill="#53A9EA" d="M225.093,160.723h4.091c1.695,0,3.068-1.373,3.068-3.066v-1.02v-8.185c0-1.694-1.373-3.068-3.068-3.068
		h-4.091c-1.693,0-3.067,1.375-3.067,3.068v9.205c0,0.445,0.098,0.864,0.269,1.248C222.773,159.975,223.845,160.723,225.093,160.723
		z"/>
	<path fill="#53A9EA" d="M243.501,160.723h4.092c1.693,0,3.066-1.373,3.066-3.066v-5.847v-3.359c0-1.694-1.373-3.068-3.066-3.068
		h-4.092c-1.695,0-3.068,1.375-3.068,3.068v6.149v3.057C240.433,159.35,241.806,160.723,243.501,160.723z"/>
	<path fill="#53A9EA" d="M260.886,160.723h4.091c1.694,0,3.068-1.373,3.068-3.066v-9.206c0-0.745-0.276-1.419-0.719-1.951
		c-0.562-0.677-1.399-1.118-2.349-1.118h-4.091c-1.693,0-3.067,1.375-3.067,3.068v1.217v7.987
		C257.818,159.35,259.192,160.723,260.886,160.723z"/>
	<path fill="#FFFFFF" d="M349.364,135.867l-9.462-5.288l-18.832,1.948l-7.832,0.811c-6.438,1.839-7.356,8.272-7.356,8.272
		s0.672,0.172,1.855,0.471c3.622,0.913,12.091,3.033,21.246,5.208c12.989,3.083,27.344,6.275,31.145,6.275
		c7.355,0,11.033-5.517,11.033-5.517L349.364,135.867z"/>
	<path fill="#FFFFFF" d="M224.071,179.13c0,0-15.34-5.112-32.725-7.159c-10.743-1.263-22.498-3.068-36.815,1.022
		c-8.185,2.338-14.899,7.264-16.816,10.595c-0.358,0.623-0.568,1.195-0.568,1.678c0,3.068,8.18,9.204,8.18,9.204l2.275,1.125
		l22.304,11.031c-5.202,1.64-9.138,9.239-9.138,18.385c0,10.341,5.03,18.723,11.233,18.723c6.204,0,11.233-8.382,11.233-18.723
		c0-5.312-1.334-10.099-3.466-13.505l36.488,18.048l24.176,11.96c0,0,12.396,9.49,27.053,6.879
		c14.658-2.613,10.116-18.499,10.116-18.499l-44.436-42.14l-7.91-7.498L224.071,179.13z M172.002,237.758
		c-4.224,0-7.648-5.706-7.648-12.747c0-7.04,3.424-12.746,7.648-12.746c4.223,0,7.648,5.706,7.648,12.746
		C179.65,232.052,176.225,237.758,172.002,237.758z"/>
</g>
</svg>
