<?xml version="1.0" encoding="utf-8"?>
<!-- Generator: Adobe Illustrator 15.0.0, SVG Export Plug-In . SVG Version: 6.00 Build 0)  -->
<!DOCTYPE svg PUBLIC "-//W3C//DTD SVG 1.1//EN" "http://www.w3.org/Graphics/SVG/1.1/DTD/svg11.dtd">
<svg version="1.1" id="レイヤー_1" xmlns="http://www.w3.org/2000/svg" xmlns:xlink="http://www.w3.org/1999/xlink" x="0px"
	 y="0px" width="400px" height="300px" viewBox="0 0 400 300" style="enable-background:new 0 0 400 300;" xml:space="preserve">
<style type="text/css">
<![CDATA[
	.st0{fill:#4DAA4D;}
	.st1{fill:#53A9EA;}
	.st2{fill:#BACED6;}
	.st3{fill:#F2CA25;}
	.st4{fill:#FFFFFF;}
	.st5{fill:none;}
	.st6{fill:#303030;}
	.st7{fill:#6FBEEF;}
	.st8{fill:#3C4142;}
	.st9{fill:#767B7C;}
	.st10{fill:#DAE2E5;}
	.st11{fill:#A9B8BF;}
]]>
</style>
<g>
	<polygon class="st5" points="198.801,11.057 165.675,26.61 198.734,42.13 198.867,42.13 231.927,26.61 	"/>
	<polygon class="st4" points="258.979,274.383 141.021,274.383 134.115,277.918 265.886,277.918 	"/>
	<polygon class="st4" points="156.651,266.383 243.349,266.383 241.68,265.529 158.321,265.529 	"/>
	<polygon class="st4" points="118.485,285.918 105.501,292.564 294.499,292.564 281.515,285.918 	"/>
	<path class="st6" d="M304.208,288.438c-0.136-0.035-0.289-0.068-0.426-0.109l-44.545-22.799H241.68l1.669,0.854h-86.697l1.67-0.854
		h-17.559l-44.545,22.799c-0.137,0.041-0.29,0.074-0.426,0.109c-3.76,0.93-3.72,3.727-3.618,4.561
		c0.073,0.596,0.633,3.566,4.549,3.566c0.87,0,1.676-0.277,2.332-0.75c0.217-0.08,0.428-0.17,0.635-0.275l5.812-2.975l12.984-6.646
		h163.029l12.984,6.646l5.81,2.973c0.208,0.107,0.419,0.197,0.637,0.277c0.656,0.473,1.462,0.75,2.332,0.75
		c3.916,0,4.476-2.971,4.549-3.566C307.928,292.164,307.968,289.367,304.208,288.438z M141.021,274.383h117.957l6.907,3.535H134.115
		L141.021,274.383z"/>
	<path class="st9" d="M165.675,26.61l33.126-15.553l33.126,15.553l-33.06,15.521h17.272L239.846,31l0.453-0.453
		c1.053-1.051,1.633-2.45,1.633-3.938c0-1.488-0.58-2.888-1.633-3.938l-0.453-0.453L202.132,4.512c-1.913-1.434-4.749-1.437-6.663,0
		l-37.714,17.707l-0.453,0.453c-1.053,1.051-1.632,2.449-1.632,3.938c0,1.487,0.579,2.885,1.63,3.936L157.754,31l23.708,11.131
		h17.272L165.675,26.61z"/>
	<path class="st11" d="M249.091,44.027c0-1.048-0.849-1.896-1.897-1.896H216.14h-17.272h-0.133h-17.272h-28.655
		c-1.048,0-1.897,0.849-1.897,1.896v8.391h98.182V44.027z"/>
	<path class="st8" d="M158.321,265.529h83.358h17.558h9.844c1.534,0,2.777-0.85,2.777-1.896v-9.15H128.143v9.15
		c0,1.047,1.243,1.896,2.776,1.896h9.844H158.321z"/>
	<path class="st2" d="M292.939,194.383v19.965v35.393c0,2.619-1.966,4.742-4.586,4.742c2.62,0,4.743-2.123,4.743-4.742
		l-0.157-192.58c0-2.62-1.966-4.743-4.586-4.743h-39.263h-98.182h-39.007c-2.62,0-4.999,2.123-4.999,4.743l0.171,128.941h185.865
		V194.383z M285.184,178.176c0,1.158-0.939,2.098-2.098,2.098H116.914c-1.158,0-2.097-0.939-2.097-2.098V60.071
		c0-1.158,0.938-2.097,2.097-2.097h166.172c1.158,0,2.098,0.938,2.098,2.097V178.176z"/>
	<path class="st10" d="M271.858,254.482h16.495c2.62,0,4.586-2.123,4.586-4.742v-35.393H106.995l0.163,35.393
		c0,2.619,2.124,4.742,4.744,4.742h16.24H271.858z M265.724,218.564c7.858,0,14.229,6.371,14.229,14.229
		c0,7.859-6.371,14.23-14.229,14.23s-14.229-6.371-14.229-14.23C251.494,224.936,257.865,218.564,265.724,218.564z M134.814,247.023
		c-7.857,0-14.229-6.371-14.229-14.23c0-7.857,6.372-14.229,14.229-14.229c7.858,0,14.229,6.371,14.229,14.229
		C149.043,240.652,142.673,247.023,134.814,247.023z"/>
	<circle class="st3" cx="134.814" cy="232.793" r="14.229"/>
	<circle class="st3" cx="265.724" cy="232.794" r="14.229"/>
	<polygon class="st0" points="292.939,214.348 292.939,194.383 292.939,186.102 107.074,186.102 106.903,186.102 106.903,214.348 
		106.995,214.348 	"/>
	<path class="st8" d="M283.086,57.974H116.914c-1.158,0-2.097,0.938-2.097,2.097v118.105c0,1.158,0.938,2.098,2.097,2.098h166.172
		c1.158,0,2.098-0.939,2.098-2.098V60.071C285.184,58.913,284.244,57.974,283.086,57.974z M140.948,67.72
		c0-1.08,0.851-1.957,1.898-1.957h114.308c1.048,0,1.897,0.877,1.897,1.957v9.293c0,1.081-0.85,1.957-1.897,1.957H142.847
		c-1.048,0-1.898-0.876-1.898-1.957V67.72z M276.979,130.041v41.463v0.883c0,0.486-0.932,0.881-2.08,0.881H125.101
		c-1.148,0-2.079-0.395-2.079-0.881v-0.883v-41.463V86.811c0-0.975,0.931-1.765,2.079-1.765h149.799c1.148,0,2.08,0.79,2.08,1.766
		V130.041z"/>
	<path class="st7" d="M274.899,85.046H125.101c-1.148,0-2.079,0.79-2.079,1.765v43.229c0-0.488,0.931-0.883,2.079-0.883h149.799
		c1.148,0,2.08,0.395,2.08,0.883V86.812C276.979,85.836,276.048,85.046,274.899,85.046z"/>
	<path class="st1" d="M274.899,129.158H125.101c-1.148,0-2.079,0.395-2.079,0.883v41.463v0.883c0,0.486,0.931,0.881,2.079,0.881
		h149.799c1.148,0,2.08-0.395,2.08-0.881v-0.883v-41.463C276.979,129.552,276.048,129.158,274.899,129.158z"/>
	<path class="st2" d="M142.847,78.97h114.308c1.048,0,1.897-0.876,1.897-1.957V67.72c0-1.08-0.85-1.957-1.897-1.957H142.847
		c-1.048,0-1.898,0.877-1.898,1.957v9.293C140.948,78.094,141.799,78.97,142.847,78.97z"/>
</g>
</svg>
