<?xml version="1.0" encoding="utf-8"?>
<!-- Generator: Adobe Illustrator 15.0.0, SVG Export Plug-In . SVG Version: 6.00 Build 0)  -->
<!DOCTYPE svg PUBLIC "-//W3C//DTD SVG 1.1//EN" "http://www.w3.org/Graphics/SVG/1.1/DTD/svg11.dtd">
<svg version="1.1" id="レイヤー_1" xmlns="http://www.w3.org/2000/svg" xmlns:xlink="http://www.w3.org/1999/xlink" x="0px"
	 y="0px" width="400px" height="300px" viewBox="0 0 400 300" style="enable-background:new 0 0 400 300;" xml:space="preserve">
<style type="text/css">
<![CDATA[
	.st0{fill:#303030;}
	.st1{fill:#D31111;}
	.st2{fill:#DBDBDB;}
]]>
</style>
<g>
	<polygon class="st2" points="90.366,106.239 79.901,106.239 68.158,108.678 84.896,70.182 60.48,75.253 58.908,78.871 
		64.939,107.908 64.939,140.527 	"/>
	<polygon class="st2" points="91.087,140.527 116.023,140.527 140.238,106.239 115.303,106.239 	"/>
	<polygon class="st2" points="140.959,140.527 165.896,140.527 190.112,106.239 165.175,106.239 	"/>
	<polygon class="st2" points="190.833,140.527 215.769,140.527 239.984,106.239 215.048,106.239 	"/>
	<polygon class="st2" points="240.705,140.527 265.641,140.527 289.856,106.239 264.921,106.239 	"/>
	<polygon class="st2" points="290.577,140.527 315.514,140.527 341.092,106.239 314.793,106.239 	"/>
	<path class="st0" d="M315.514,140.527h-24.937l24.216-34.288h-24.937l-24.216,34.288h-24.936l24.216-34.288h-24.937l-24.216,34.288
		h-24.936l24.215-34.288h-24.936l-24.216,34.288h-24.937l24.216-34.288h-24.937l-24.215,34.288H91.087l24.216-34.288H90.366
		l-25.427,34.288h0.198v132.697c0,4.305,7.355,7.793,11.655,7.793h253.275c4.3,0,11.023-3.488,11.023-7.793V106.239L315.514,140.527
		z M196.421,265.441c-29.136,0-52.756-23.62-52.756-52.757s23.62-52.756,52.756-52.756c29.136,0,52.756,23.619,52.756,52.757
		C249.177,241.821,225.557,265.441,196.421,265.441z"/>
	<polygon class="st0" points="68.158,108.678 79.901,106.239 92.575,103.606 109.311,65.11 84.896,70.182 	"/>
	<polygon class="st2" points="116.989,98.536 133.727,60.04 109.311,65.11 92.575,103.606 	"/>
	<polygon class="st0" points="141.405,93.465 158.141,54.969 133.727,60.04 116.989,98.536 	"/>
	<polygon class="st2" points="165.821,88.394 182.557,49.897 158.141,54.969 141.405,93.465 	"/>
	<polygon class="st0" points="190.235,83.322 206.972,44.827 182.557,49.897 165.821,88.394 	"/>
	<polygon class="st2" points="214.65,78.25 231.387,39.755 206.972,44.827 190.235,83.322 	"/>
	<polygon class="st0" points="239.065,73.18 255.803,34.684 231.387,39.755 214.65,78.25 	"/>
	<polygon class="st2" points="263.481,68.108 280.218,29.614 255.803,34.684 239.065,73.18 	"/>
	<polygon class="st0" points="287.896,63.038 304.632,24.542 280.218,29.614 263.481,68.108 	"/>
	<polygon class="st2" points="312.311,57.967 329.049,19.471 304.632,24.542 287.896,63.038 	"/>
	<polygon class="st0" points="336.728,52.896 337.888,50.225 331.398,18.983 329.049,19.471 312.311,57.967 	"/>
	<path class="st2" d="M196.421,159.929c-29.136,0-52.756,23.619-52.756,52.756s23.62,52.757,52.756,52.757
		c29.136,0,52.756-23.62,52.756-52.756C249.177,183.548,225.557,159.929,196.421,159.929z M173.102,249.594v-74.065l63.314,36.56
		L173.102,249.594z"/>
	<polygon class="st1" points="173.102,249.594 236.416,212.088 173.102,175.528 	"/>
</g>
</svg>
