<?xml version="1.0" encoding="utf-8"?>
<!-- Generator: Adobe Illustrator 15.0.0, SVG Export Plug-In . SVG Version: 6.00 Build 0)  -->
<!DOCTYPE svg PUBLIC "-//W3C//DTD SVG 1.1//EN" "http://www.w3.org/Graphics/SVG/1.1/DTD/svg11.dtd">
<svg version="1.1" id="レイヤー_1" xmlns="http://www.w3.org/2000/svg" xmlns:xlink="http://www.w3.org/1999/xlink" x="0px"
	 y="0px" width="400px" height="300px" viewBox="0 0 400 300" style="enable-background:new 0 0 400 300;" xml:space="preserve">
<style type="text/css">
<![CDATA[
	.st0{fill:#AFEEF9;}
	.st1{fill:#4DAA4D;}
	.st2{fill:#F4A60B;}
	.st3{fill:#FF7C24;}
	.st4{fill:#FFFFFF;}
]]>
</style>
<g>
	<path class="st0" d="M18.463,22.057v255.887h0.188c0,0,31.832-143.825,99.834-143.825c30.594,0,53.396,20.094,69.229,42.198
		c0.983-4.218,4.066-7.754,8.232-9.81c-0.002-0.093-0.027-0.178-0.027-0.267c0-10.132,8.21-18.346,18.343-18.346
		c6.309,0,11.869,3.192,15.17,8.045c1.859-1.325,4.096-2.102,6.502-2.102c6.066,0,10.992,4.93,11.562,11.211
		c7.279,1.588,12.695,7.304,12.695,14.165c0,8.084-7.498,14.638-16.738,14.638h-39.342c-2.064,0-4.033-0.343-5.859-0.94
		c12.088,21.413,17.757,40.469,17.757,40.469s31.832-38.2,82.764-38.2s82.764,82.764,82.764,82.764V22.058L18.463,22.057z
		 M136.014,124.382H75.357c-14.25,0-25.799-10.102-25.799-22.567c0-8.441,5.36-15.718,13.211-19.592
		c-0.004-0.144-0.043-0.273-0.043-0.41c0-15.621,12.66-28.285,28.282-28.284c9.728,0,18.299,4.919,23.39,12.403
		c2.865-2.044,6.314-3.241,10.024-3.241c9.354,0,16.949,7.602,17.829,17.286c11.221,2.448,19.572,11.261,19.572,21.838
		C161.822,114.279,150.262,124.382,136.014,124.382z M357.453,159.852h-39.342c-7.926,0-14.55-4.825-16.279-11.297l-6.932,8.512
		l-12.57-15.425l-18.592,7.082l-3.15-19.649l-19.645-3.156l7.078-18.581l-15.416-12.573l15.416-12.569l-7.076-18.591l19.643-3.154
		l3.154-19.646l18.588,7.079l12.57-15.42l12.572,15.42l18.59-7.079l3.148,19.647l19.643,3.154l-7.076,18.589l15.414,12.569
		l-15.414,12.573l4.943,12.985c1.021-0.311,2.098-0.484,3.213-0.484c6.066,0,10.992,4.93,11.562,11.211
		c7.279,1.588,12.695,7.304,12.695,14.165C374.191,153.298,366.693,159.852,357.453,159.852z"/>
	<path class="st4" d="M142.25,79.977c-0.879-9.685-8.475-17.286-17.829-17.286c-3.71,0-7.159,1.197-10.024,3.241
		c-5.09-7.484-13.662-12.403-23.39-12.403c-15.622-0.001-28.282,12.663-28.282,28.284c0,0.137,0.039,0.267,0.043,0.41
		c-7.851,3.874-13.211,11.15-13.211,19.592c0,12.466,11.549,22.567,25.799,22.567h60.657c14.248,0,25.808-10.103,25.808-22.567
		C161.822,91.237,153.471,82.425,142.25,79.977z"/>
	<path class="st4" d="M204.111,193.852h39.342c9.24,0,16.738-6.554,16.738-14.638c0-6.861-5.416-12.577-12.695-14.165
		c-0.57-6.281-5.496-11.211-11.562-11.211c-2.406,0-4.643,0.776-6.502,2.102c-3.301-4.853-8.861-8.045-15.17-8.045
		c-10.133,0-18.343,8.214-18.343,18.346c0,0.089,0.025,0.174,0.027,0.267c-4.167,2.056-7.25,5.592-8.232,9.81
		c3.939,5.5,7.45,11.124,10.539,16.595C200.078,193.509,202.047,193.852,204.111,193.852z"/>
	<path class="st4" d="M361.496,131.049c-0.57-6.281-5.496-11.211-11.562-11.211c-1.115,0-2.191,0.173-3.213,0.484l2.133,5.603
		l-19.643,3.149l-3.156,19.649l-18.594-7.082l-5.629,6.913c1.729,6.472,8.354,11.297,16.279,11.297h39.342
		c9.24,0,16.738-6.554,16.738-14.638C374.191,138.353,368.775,132.637,361.496,131.049z"/>
	<path class="st1" d="M298.773,195.18c-50.932,0-82.764,38.2-82.764,38.2s-5.669-19.056-17.757-40.469
		c-3.089-5.471-6.6-11.095-10.539-16.595c-15.833-22.104-38.634-42.198-69.229-42.198c-68.002,0-99.834,143.825-99.834,143.825
		h362.886C381.537,277.943,349.705,195.18,298.773,195.18z"/>
	<path class="st4" d="M294.9,142.809c26.484-0.006,48.039-21.56,48.039-48.045c0-26.492-21.555-48.044-48.039-48.043
		c-26.488,0-48.039,21.551-48.039,48.043S268.412,142.809,294.9,142.809z M294.9,52.82c23.127,0,41.941,18.816,41.941,41.943
		c0,23.126-18.814,41.94-41.941,41.946c-23.127,0-41.941-18.82-41.941-41.946C252.959,71.637,271.773,52.82,294.9,52.82z"/>
	<path class="st2" d="M326.055,148.724l3.156-19.649l19.643-3.149l-2.133-5.603l-4.943-12.985l15.414-12.573l-15.414-12.569
		l7.076-18.589l-19.643-3.154l-3.148-19.647l-18.59,7.079L294.9,32.463l-12.57,15.42l-18.588-7.079l-3.154,19.646l-19.643,3.154
		l7.076,18.591l-15.416,12.569l15.416,12.573l-7.078,18.581l19.645,3.156l3.15,19.649l18.592-7.082l12.57,15.425l6.932-8.512
		l5.629-6.913L326.055,148.724z M294.9,46.721c26.484-0.001,48.039,21.551,48.039,48.043c0,26.485-21.555,48.039-48.039,48.045
		c-26.488,0-48.039-21.553-48.039-48.045S268.412,46.721,294.9,46.721z"/>
	<path class="st3" d="M294.9,136.71c23.127-0.006,41.941-18.82,41.941-41.946c0-23.127-18.814-41.943-41.941-41.943
		s-41.941,18.816-41.941,41.943C252.959,117.89,271.773,136.71,294.9,136.71z"/>
</g>
</svg>
