<?xml version="1.0" encoding="utf-8"?>
<!-- Generator: Adobe Illustrator 15.0.0, SVG Export Plug-In . SVG Version: 6.00 Build 0)  -->
<!DOCTYPE svg PUBLIC "-//W3C//DTD SVG 1.1//EN" "http://www.w3.org/Graphics/SVG/1.1/DTD/svg11.dtd">
<svg version="1.1" id="レイヤー_1" xmlns="http://www.w3.org/2000/svg" xmlns:xlink="http://www.w3.org/1999/xlink" x="0px"
	 y="0px" width="400px" height="300px" viewBox="0 0 400 300" style="enable-background:new 0 0 400 300;" xml:space="preserve">
<style type="text/css">
<![CDATA[
	.st0{fill:#4DAA4D;}
	.st1{fill:#FC9F9F;}
	.st2{fill:#FF7C24;}
	.st3{fill:#FFD5C7;}
	.st4{fill:#FFFFFF;}
]]>
</style>
<g>
	<path class="st3" d="M118.484,134.118c14.791,0,27.76,4.699,39.002,12.049l-2.907-7.64l27.007-4.335l4.336-27.013l25.559,9.733
		l17.283-21.202l17.287,21.202l25.559-9.733l4.331,27.016l27.008,4.336l-9.729,25.559l21.193,17.282l-16.965,13.839
		c0.444-0.006,0.879-0.031,1.326-0.031c50.898,0,82.721,82.652,82.763,82.761V22.058L18.463,22.057v255.887h0.188
		C18.65,277.943,50.482,134.118,118.484,134.118z M297.061,84.655c-0.002-0.106-0.031-0.205-0.031-0.306
		c0-11.655,9.445-21.104,21.102-21.104c7.258,0,13.652,3.672,17.451,9.255c2.138-1.524,4.711-2.418,7.479-2.418
		c6.979,0,12.646,5.671,13.302,12.896c8.373,1.827,14.604,8.402,14.604,16.295c0,9.3-8.625,16.838-19.255,16.838h-45.258
		c-10.632,0-19.249-7.538-19.249-16.838C287.204,92.975,291.204,87.545,297.061,84.655z M37.261,83.156
		c0-9.148,5.809-17.034,14.317-21.232c-0.004-0.155-0.047-0.297-0.047-0.444c0-16.93,13.72-30.653,30.65-30.652
		c10.542,0,19.831,5.331,25.348,13.441c3.105-2.215,6.843-3.513,10.863-3.513c10.137,0,18.368,8.238,19.321,18.733
		c12.161,2.653,21.211,12.204,21.211,23.667c0,13.509-12.527,24.457-27.969,24.457H65.22
		C49.777,107.613,37.261,96.665,37.261,83.156z"/>
	<path class="st4" d="M228.764,115.315c-26.88,0-50.045,16.148-60.346,39.247c2.245,1.99,4.407,4.075,6.485,6.236
		c8.304-21.666,29.308-37.098,53.86-37.098c31.797,0,57.667,25.874,57.667,57.671c0,5.126-0.681,10.094-1.941,14.827
		c2.867-0.407,5.812-0.696,8.826-0.859c0.975-4.505,1.501-9.176,1.501-13.968C294.816,144.947,265.18,115.315,228.764,115.315z"/>
	<path class="st2" d="M293.219,164.09l9.729-25.559l-27.008-4.336l-4.331-27.016l-25.559,9.733l-17.287-21.202l-17.283,21.202
		l-25.559-9.733l-4.336,27.013l-27.007,4.335l2.907,7.64c3.847,2.514,7.486,5.343,10.932,8.396
		c10.301-23.099,33.466-39.247,60.346-39.247c36.416,0,66.053,29.632,66.053,66.057c0,4.792-0.526,9.463-1.501,13.968
		c1.361-0.072,2.741-0.111,4.132-0.129l16.965-13.839L293.219,164.09z"/>
	<path class="st2" d="M228.764,123.701c-24.553,0-45.557,15.432-53.86,37.098c28.258,29.402,41.106,72.581,41.106,72.581
		s25.954-31.13,68.479-37.181c1.261-4.733,1.941-9.701,1.941-14.827C286.431,149.575,260.561,123.701,228.764,123.701z"/>
	<path class="st1" d="M158.925,83.156c0-11.463-9.05-21.014-21.211-23.667c-0.953-10.495-9.185-18.733-19.321-18.733
		c-4.021,0-7.758,1.298-10.863,3.513c-5.517-8.11-14.806-13.441-25.348-13.441c-16.931-0.001-30.65,13.723-30.65,30.652
		c0,0.147,0.043,0.289,0.047,0.444c-8.509,4.198-14.317,12.084-14.317,21.232c0,13.509,12.517,24.457,27.959,24.457h65.736
		C146.397,107.613,158.925,96.665,158.925,83.156z"/>
	<path class="st1" d="M306.453,116.111h45.258c10.63,0,19.255-7.538,19.255-16.838c0-7.893-6.23-14.468-14.604-16.295
		c-0.655-7.226-6.323-12.896-13.302-12.896c-2.768,0-5.341,0.894-7.479,2.418c-3.799-5.583-10.193-9.255-17.451-9.255
		c-11.656,0-21.102,9.449-21.102,21.104c0,0.101,0.029,0.199,0.031,0.306c-5.856,2.89-9.856,8.319-9.856,14.618
		C287.204,108.573,295.821,116.111,306.453,116.111z"/>
	<path class="st0" d="M381.536,277.94c-0.042-0.108-31.864-82.761-82.763-82.761c-0.447,0-0.882,0.025-1.326,0.031
		c-1.391,0.018-2.771,0.057-4.132,0.129c-3.015,0.163-5.959,0.452-8.826,0.859c-42.525,6.051-68.479,37.181-68.479,37.181
		s-12.849-43.179-41.106-72.581c-2.078-2.161-4.24-4.246-6.485-6.236c-3.445-3.053-7.085-5.881-10.932-8.396
		c-11.242-7.35-24.211-12.049-39.002-12.049c-68.002,0-99.834,143.825-99.834,143.825h362.887
		C381.537,277.943,381.536,277.941,381.536,277.94z"/>
</g>
</svg>
