<?xml version="1.0" encoding="utf-8"?>
<!-- Generator: Adobe Illustrator 15.0.0, SVG Export Plug-In . SVG Version: 6.00 Build 0)  -->
<!DOCTYPE svg PUBLIC "-//W3C//DTD SVG 1.1//EN" "http://www.w3.org/Graphics/SVG/1.1/DTD/svg11.dtd">
<svg version="1.1" id="レイヤー_1" xmlns="http://www.w3.org/2000/svg" xmlns:xlink="http://www.w3.org/1999/xlink" x="0px"
	 y="0px" width="400px" height="300px" viewBox="0 0 400 300" style="enable-background:new 0 0 400 300;" xml:space="preserve">
<style type="text/css">
<![CDATA[
	.st0{fill:#E4E4E4;}
	.st1{fill:#A9B8BF;}
]]>
</style>
<g>
	<g>
		<path class="st0" d="M351.908,231.65c0,5.5-4.5,10-10,10H58.092c-5.5,0-10-4.5-10-10V68.35c0-5.5,4.5-10,10-10h283.816
			c5.5,0,10,4.5,10,10V231.65z"/>
	</g>
	<g>
		<path class="st1" d="M343.946,79.988c4.379-3.327,8.108-9.426,8.286-13.552s-4.176-7.502-9.676-7.502L57.444,58.933
			c-5.5,0-9.854,3.376-9.676,7.503c0.178,4.126,3.89,10.246,8.249,13.602l135.086,103.968c4.359,3.355,11.508,3.377,15.887,0.051
			L343.946,79.988z"/>
	</g>
	<g>
		<path class="st0" d="M343.946,64.4c4.379-3.327,3.462-6.05-2.038-6.05H58.092c-5.5,0-6.434,2.744-2.075,6.1l135.086,103.968
			c4.359,3.355,11.508,3.377,15.887,0.051L343.946,64.4z"/>
	</g>
</g>
</svg>
