<?xml version="1.0" encoding="utf-8"?>
<!-- Generator: Adobe Illustrator 15.0.0, SVG Export Plug-In . SVG Version: 6.00 Build 0)  -->
<!DOCTYPE svg PUBLIC "-//W3C//DTD SVG 1.1//EN" "http://www.w3.org/Graphics/SVG/1.1/DTD/svg11.dtd">
<svg version="1.1" id="レイヤー_1" xmlns="http://www.w3.org/2000/svg" xmlns:xlink="http://www.w3.org/1999/xlink" x="0px"
	 y="0px" width="400px" height="300px" viewBox="0 0 400 300" style="enable-background:new 0 0 400 300;" xml:space="preserve">
<style type="text/css">
<![CDATA[
	.st0{fill:#4DAA4D;}
	.st1{fill:#53A9EA;}
	.st2{fill:#563F36;}
	.st3{fill:#FF7517;}
	.st4{fill:#FFE045;}
	.st5{fill:none;}
	.st6{fill:#9B5C3D;}
	.st7{fill:#D31111;}
	.st8{fill:#A9B8BF;}
	.st9{fill:#DDAC7A;}
]]>
</style>
<g>
	
		<ellipse transform="matrix(0.2853 -0.9584 0.9584 0.2853 -25.0279 274.1424)" class="st5" cx="171.308" cy="153.853" rx="20.885" ry="27.847"/>
	<path class="st9" d="M252.237,136.272c19.606,11.191,39.348,19.359,51.91-15.13c12.563-34.492-49.669-87.426-120.173-102.299
		C113.467,3.972,17.895,16.808,6.549,96.011c-11.346,79.202,75.61,108.146,108.624,117.975
		c33.015,9.828,105.908,26.941,120.577-6.923s-29.264-30.12-14.669-66.301C221.081,140.761,232.632,125.082,252.237,136.272z
		 M221.696,74.841c2.159-11.575,16.278-13.529,26.716-11.98c12.931,1.92,21.037,11.406,18.813,21.034
		c-2.221,9.626-20.682,17.635-31.439,10.574C225.026,87.409,219.537,86.416,221.696,74.841z M65.941,128.432
		c-2.223,9.627-20.683,17.634-31.441,10.574c-10.759-7.06-16.249-8.052-14.09-19.627c2.16-11.575,16.28-13.53,26.715-11.98
		C60.056,109.318,68.163,118.805,65.941,128.432z M86.711,74.259c-2.222,9.628-20.684,17.635-31.44,10.576
		c-10.759-7.06-16.25-8.054-14.09-19.628c2.159-11.574,16.279-13.53,26.714-11.981C80.827,55.147,88.933,64.634,86.711,74.259z
		 M141.647,53.474c-2.223,9.626-20.683,17.635-31.442,10.574c-10.756-7.06-16.249-8.053-14.089-19.627
		c2.16-11.575,16.279-13.529,26.714-11.981C135.763,34.36,143.869,43.846,141.647,53.474z M197.997,161.8
		c-3.291,11.053-17.91,16.458-32.648,12.07c-14.74-4.388-24.022-16.907-20.731-27.961c3.291-11.056,17.908-16.46,32.649-12.072
		C192.006,138.224,201.288,150.745,197.997,161.8z M205.161,58.453c-2.222,9.627-20.683,17.635-31.441,10.575
		c-10.758-7.06-16.248-8.054-14.09-19.627c2.159-11.575,16.279-13.53,26.716-11.979C199.277,39.341,207.384,48.828,205.161,58.453z"
		/>
	<path class="st7" d="M67.895,53.226C57.46,51.677,43.34,53.632,41.181,65.207c-2.16,11.574,3.331,12.568,14.09,19.628
		c10.757,7.06,29.219-0.948,31.44-10.576C88.933,64.634,80.827,55.147,67.895,53.226z"/>
	<path class="st1" d="M122.83,32.439c-10.435-1.548-24.554,0.406-26.714,11.981c-2.16,11.574,3.333,12.567,14.089,19.627
		c10.76,7.062,29.219-0.948,31.442-10.574C143.869,43.846,135.763,34.36,122.83,32.439z"/>
	<path class="st4" d="M186.346,37.421c-10.437-1.55-24.558,0.404-26.716,11.979c-2.157,11.573,3.333,12.567,14.09,19.627
		c10.758,7.06,29.219-0.948,31.441-10.575C207.384,48.828,199.277,39.341,186.346,37.421z"/>
	<path class="st0" d="M47.125,107.398c-10.435-1.549-24.556,0.406-26.715,11.98c-2.159,11.575,3.332,12.567,14.09,19.627
		c10.758,7.06,29.218-0.947,31.441-10.574C68.163,118.805,60.056,109.318,47.125,107.398z"/>
	<path class="st3" d="M235.786,94.468c10.758,7.061,29.219-0.947,31.439-10.574c2.224-9.628-5.883-19.114-18.813-21.034
		c-10.438-1.549-24.557,0.405-26.716,11.98C219.537,86.416,225.026,87.409,235.786,94.468z"/>
	<path class="st6" d="M385.517,18.027c-7.839-3.754-17.238-0.443-20.992,7.398L308.302,142.86l28.396,13.593l56.22-117.434
		C396.672,31.178,393.359,21.783,385.517,18.027z"/>
	<path class="st8" d="M292.426,176.027c0.39,0.062,0.762,0.169,1.108,0.335l25.656,12.283c0.574,0.275,1.081,0.675,1.534,1.167
		l15.973-33.359l-28.396-13.593L292.426,176.027z"/>
	<path class="st2" d="M293.534,176.362c-0.347-0.166-0.719-0.272-1.108-0.335c-10.482-1.676-35.896,32.714-35.896,32.714
		c8.762-5.107,18.689-9.012,21.496-2.648c5.326,12.069,0.332,19.192,14.527,25.993c13.236,6.333,13.309-8.796,27.947-1.267
		c0,0,7.382-33.208,0.224-41.007c-0.453-0.492-0.96-0.892-1.534-1.167L293.534,176.362z"/>
	<path class="st1" d="M292.554,232.086c-14.195-6.801-9.201-13.924-14.527-25.993c-2.807-6.363-12.734-2.459-21.496,2.648
		l-0.588,1.228c-9.489,19.824-6.265,72.971,0.731,76.321c6.998,3.348,49.86-26.297,59.909-47.287l3.918-8.184
		C305.862,223.29,305.79,238.419,292.554,232.086z"/>
</g>
</svg>
