<?xml version="1.0" encoding="utf-8"?>
<!-- Generator: Adobe Illustrator 15.0.0, SVG Export Plug-In . SVG Version: 6.00 Build 0)  -->
<!DOCTYPE svg PUBLIC "-//W3C//DTD SVG 1.1//EN" "http://www.w3.org/Graphics/SVG/1.1/DTD/svg11.dtd">
<svg version="1.1" id="レイヤー_1" xmlns="http://www.w3.org/2000/svg" xmlns:xlink="http://www.w3.org/1999/xlink" x="0px"
	 y="0px" width="400px" height="300px" viewBox="0 0 400 300" style="enable-background:new 0 0 400 300;" xml:space="preserve">
<style type="text/css">
<![CDATA[
	.st0{fill:none;}
	.st1{fill:#9B5C3D;}
	.st2{fill:#DAEDF2;}
	.st3{fill:#DBDBDB;}
	.st4{fill:#A9B8BF;}
]]>
</style>
<g>
	<path class="st0" d="M99.978,143.368c-0.107-0.029-0.215-0.059-0.321-0.088C99.763,143.31,99.87,143.339,99.978,143.368z"/>
	<path class="st0" d="M98.159,142.857c-0.106-0.031-0.213-0.061-0.319-0.092C97.946,142.796,98.053,142.827,98.159,142.857z"/>
	<path class="st0" d="M96.376,142.332c-0.097-0.029-0.193-0.058-0.289-0.087C96.183,142.274,96.279,142.303,96.376,142.332z"/>
	<path class="st0" d="M92.971,141.253c-0.077-0.025-0.154-0.051-0.231-0.077C92.816,141.202,92.894,141.228,92.971,141.253z"/>
	<path class="st0" d="M91.35,140.7c-0.067-0.023-0.135-0.047-0.202-0.071C91.215,140.652,91.282,140.676,91.35,140.7z"/>
	<path class="st0" d="M88.266,139.563c-0.038-0.015-0.075-0.029-0.112-0.044C88.19,139.534,88.228,139.548,88.266,139.563z"/>
	<path class="st0" d="M105.722,144.838c-0.107-0.026-0.217-0.051-0.324-0.077C105.505,144.787,105.614,144.812,105.722,144.838z"/>
	<path class="st0" d="M129.938,149.328c-0.256-0.036-0.507-0.073-0.761-0.11C129.432,149.254,129.683,149.292,129.938,149.328z"/>
	<path class="st0" d="M103.78,144.364c-0.117-0.029-0.235-0.058-0.353-0.087C103.545,144.306,103.663,144.334,103.78,144.364z"/>
	<path class="st0" d="M132.443,149.673c-0.297-0.04-0.59-0.081-0.885-0.121C131.854,149.592,132.146,149.633,132.443,149.673z"/>
	<path class="st0" d="M127.462,148.968c-0.16-0.024-0.319-0.049-0.479-0.073C127.143,148.919,127.302,148.944,127.462,148.968z"/>
	<path class="st0" d="M86.809,138.981c-0.021-0.008-0.04-0.017-0.061-0.025C86.769,138.964,86.788,138.973,86.809,138.981z"/>
	<path class="st0" d="M111.663,146.167c-0.022-0.005-0.046-0.009-0.068-0.014C111.617,146.157,111.641,146.162,111.663,146.167z"/>
	<path class="st0" d="M163.797,152.627c0.114,0.007,0.228,0.014,0.342,0.021c-0.083-0.006-0.165-0.011-0.248-0.016
		C163.86,152.631,163.828,152.629,163.797,152.627z"/>
	<path class="st0" d="M137.233,150.284c0.114,0.014,0.229,0.027,0.344,0.041c-0.046-0.005-0.092-0.011-0.138-0.017
		C137.371,150.299,137.302,150.292,137.233,150.284z"/>
	<path class="st0" d="M152.629,151.84c0.4,0.033,0.802,0.066,1.204,0.099c-0.338-0.027-0.675-0.056-1.012-0.083
		C152.757,151.851,152.692,151.846,152.629,151.84z"/>
	<path class="st0" d="M146.993,151.337c0.386,0.037,0.771,0.074,1.158,0.11c-0.064-0.006-0.129-0.013-0.193-0.02
		C147.636,151.398,147.313,151.367,146.993,151.337z"/>
	<path class="st0" d="M144.804,151.122c0.25,0.025,0.502,0.05,0.753,0.075c-0.157-0.016-0.313-0.031-0.471-0.048
		C144.992,151.141,144.897,151.132,144.804,151.122z"/>
	<path class="st0" d="M140.195,150.629c-0.373-0.042-0.744-0.086-1.115-0.129C139.451,150.543,139.822,150.587,140.195,150.629z"/>
	<path class="st0" d="M155.254,152.05c0.282,0.021,0.563,0.044,0.847,0.065c-0.14-0.011-0.277-0.022-0.417-0.033
		C155.541,152.071,155.396,152.061,155.254,152.05z"/>
	<polygon class="st0" points="156.652,152.154 156.652,152.154 156.652,152.154 	"/>
	<path class="st0" d="M85.412,138.392c-0.003-0.001-0.005-0.002-0.008-0.003C85.407,138.39,85.409,138.391,85.412,138.392z"/>
	<path class="st0" d="M136.511,150.194c0.142,0.018,0.281,0.036,0.422,0.053c-0.069-0.009-0.137-0.018-0.206-0.026
		C136.654,150.211,136.582,150.203,136.511,150.194z"/>
	<path class="st0" d="M94.44,141.732c0.07,0.022,0.142,0.044,0.212,0.066c-0.053-0.016-0.104-0.033-0.156-0.049
		C94.478,141.744,94.459,141.738,94.44,141.732z"/>
	<path class="st0" d="M89.619,140.076c0.028,0.011,0.056,0.021,0.085,0.032c-0.021-0.007-0.039-0.015-0.06-0.022
		C89.636,140.083,89.628,140.08,89.619,140.076z"/>
	<path class="st0" d="M101.518,143.783c0.101,0.026,0.201,0.053,0.302,0.079c-0.006-0.001-0.011-0.003-0.016-0.004
		C101.708,143.833,101.612,143.809,101.518,143.783z"/>
	<path class="st0" d="M134.012,149.879c0.327,0.042,0.653,0.085,0.983,0.127c-0.328-0.042-0.652-0.084-0.979-0.126
		C134.015,149.879,134.013,149.879,134.012,149.879z"/>
	<path class="st0" d="M107.419,145.237c0.035,0.008,0.071,0.016,0.106,0.024c-0.012-0.002-0.022-0.005-0.033-0.007
		C107.468,145.248,107.443,145.242,107.419,145.237z"/>
	<path class="st0" d="M109.689,145.745c-0.068-0.015-0.139-0.03-0.208-0.045C109.551,145.715,109.621,145.729,109.689,145.745z"/>
	<path class="st0" d="M278.505,145.702c-0.044,0.01-0.089,0.019-0.133,0.029C278.416,145.721,278.461,145.712,278.505,145.702z"/>
	<path class="st0" d="M282.589,144.765c-0.09,0.021-0.182,0.043-0.272,0.064C282.407,144.808,282.499,144.786,282.589,144.765z"/>
	<path class="st0" d="M260.948,148.905c-0.135,0.02-0.269,0.041-0.403,0.062C260.68,148.946,260.813,148.925,260.948,148.905z"/>
	<path class="st0" d="M248.903,150.502c-0.364,0.043-0.728,0.085-1.094,0.126C248.176,150.587,248.539,150.545,248.903,150.502z"/>
	<path class="st0" d="M256.406,149.557c-0.281,0.038-0.562,0.078-0.844,0.115C255.845,149.634,256.125,149.595,256.406,149.557z"/>
	<path class="st0" d="M246.311,150.793c-0.388,0.043-0.774,0.086-1.165,0.127C245.536,150.879,245.923,150.836,246.311,150.793z"/>
	<path class="st0" d="M142.857,150.92c-0.396-0.041-0.787-0.084-1.181-0.127C142.07,150.836,142.462,150.879,142.857,150.92z"/>
	<path class="st0" d="M238.268,151.591c-0.431,0.038-0.862,0.077-1.296,0.114C237.405,151.668,237.837,151.629,238.268,151.591z"/>
	<path class="st0" d="M296.831,140.636c-0.055,0.02-0.11,0.039-0.165,0.059C296.721,140.675,296.776,140.655,296.831,140.636z"/>
	<path class="st0" d="M295.242,141.182c-0.065,0.022-0.131,0.044-0.196,0.066C295.111,141.226,295.177,141.204,295.242,141.182z"/>
	<path class="st0" d="M291.894,142.25c-0.082,0.025-0.164,0.049-0.245,0.074C291.729,142.3,291.812,142.275,291.894,142.25z"/>
	<path class="st0" d="M290.142,142.771c-0.091,0.026-0.184,0.053-0.275,0.079C289.958,142.823,290.051,142.797,290.142,142.771z"/>
	<path class="st0" d="M288.325,143.285c-0.09,0.025-0.182,0.049-0.271,0.074C288.144,143.334,288.235,143.31,288.325,143.285z"/>
	<path class="st0" d="M284.557,144.28c-0.1,0.025-0.201,0.05-0.302,0.075C284.355,144.33,284.457,144.305,284.557,144.28z"/>
	<path class="st0" d="M171.209,153.004c-0.521-0.022-1.041-0.045-1.56-0.069C170.168,152.959,170.688,152.981,171.209,153.004z"/>
	<path class="st0" d="M180.273,153.316c-0.552-0.014-1.104-0.027-1.654-0.044C179.169,153.289,179.722,153.303,180.273,153.316z"/>
	<path class="st0" d="M162.394,152.543c-0.49-0.03-0.979-0.061-1.466-0.092C161.415,152.482,161.903,152.513,162.394,152.543z"/>
	<path class="st0" d="M183.4,153.388c-0.585-0.012-1.171-0.022-1.754-0.036C182.229,153.365,182.815,153.376,183.4,153.388z"/>
	<path class="st0" d="M151.03,151.705c-0.437-0.037-0.871-0.076-1.305-0.115C150.159,151.629,150.594,151.668,151.03,151.705z"/>
	<path class="st0" d="M159.502,152.356c-0.477-0.032-0.953-0.065-1.428-0.099C158.549,152.291,159.025,152.324,159.502,152.356z"/>
	<path class="st0" d="M193.999,153.494c-1.042,0-2.082-0.003-3.118-0.01C191.917,153.491,192.957,153.494,193.999,153.494z"/>
	<path class="st0" d="M218.349,152.935c-0.518,0.024-1.038,0.047-1.559,0.069C217.311,152.981,217.831,152.959,218.349,152.935z"/>
	<path class="st0" d="M227.069,152.451c-0.486,0.031-0.974,0.062-1.462,0.092C226.096,152.513,226.583,152.482,227.069,152.451z"/>
	<path class="st0" d="M209.38,153.272c-0.55,0.017-1.103,0.03-1.654,0.044C208.277,153.303,208.83,153.289,209.38,153.272z"/>
	<path class="st0" d="M206.352,153.352c-0.582,0.014-1.168,0.024-1.754,0.036C205.184,153.376,205.769,153.365,206.352,153.352z"/>
	<path class="st0" d="M229.922,152.258c-0.473,0.033-0.947,0.066-1.422,0.098C228.975,152.324,229.449,152.291,229.922,152.258z"/>
	<path class="st0" d="M197.117,153.484c-1.036,0.007-2.076,0.01-3.118,0.01C195.041,153.494,196.081,153.491,197.117,153.484z"/>
	<path class="st0" d="M175.604,153.177c0.273,0.009,0.548,0.019,0.822,0.027c-0.074-0.003-0.148-0.005-0.223-0.008
		C176.004,153.189,175.804,153.184,175.604,153.177z"/>
	<path class="st0" d="M253.01,150.005c0.318-0.041,0.635-0.083,0.952-0.124c-0.002,0-0.004,0-0.007,0.001
		C253.64,149.924,253.326,149.965,253.01,150.005z"/>
	<path class="st0" d="M223.884,152.646c0.105-0.006,0.211-0.014,0.316-0.02c-0.028,0.002-0.058,0.004-0.087,0.006
		C224.036,152.637,223.961,152.643,223.884,152.646z"/>
	<path class="st0" d="M220.054,152.852c0.412-0.02,0.823-0.041,1.233-0.062c-0.345,0.018-0.69,0.035-1.035,0.053
		C220.186,152.845,220.12,152.849,220.054,152.852z"/>
	<path class="st0" d="M222.688,152.713c0.334-0.019,0.67-0.035,1.003-0.055c-0.194,0.011-0.394,0.02-0.589,0.031
		C222.965,152.697,222.827,152.705,222.688,152.713z"/>
	<path class="st0" d="M213.797,153.125c0.493-0.019,0.988-0.037,1.479-0.057c-0.092,0.004-0.185,0.007-0.276,0.01
		C214.6,153.095,214.198,153.109,213.797,153.125z"/>
	<path class="st0" d="M202.871,153.42c0.142-0.002,0.283-0.004,0.425-0.006c-0.095,0.001-0.19,0.002-0.285,0.004
		C202.964,153.418,202.918,153.42,202.871,153.42z"/>
	<path class="st0" d="M201.428,153.441c0.262-0.004,0.524-0.008,0.785-0.012c-0.056,0.001-0.111,0.002-0.167,0.002
		C201.84,153.436,201.634,153.438,201.428,153.441z"/>
	<path class="st0" d="M258.069,149.327c0.237-0.034,0.472-0.068,0.707-0.103c-0.233,0.034-0.466,0.068-0.701,0.102
		C258.073,149.326,258.071,149.326,258.069,149.327z"/>
	<path class="st0" d="M211.574,153.204c0.273-0.009,0.547-0.019,0.82-0.027c-0.198,0.007-0.398,0.013-0.597,0.02
		C211.723,153.199,211.648,153.201,211.574,153.204z"/>
	<path class="st0" d="M242.446,151.197c0.245-0.025,0.49-0.049,0.735-0.074c-0.095,0.01-0.19,0.019-0.285,0.028
		C242.746,151.166,242.597,151.182,242.446,151.197z"/>
	<path class="st0" d="M332.553,181.908c3.629-4.316,11.625-15.348,7.505-24.533c-1.797-4.01-5.844-11.104-12.77-13.596
		c-3.956-1.423-8.525-1.115-13.606,0.873c-3.213,15.982-9.005,39.061-18.446,58.962
		C307.659,202.068,322.659,193.677,332.553,181.908z"/>
	<path class="st0" d="M239.859,151.446c0.382-0.036,0.761-0.072,1.14-0.108c-0.311,0.029-0.621,0.059-0.933,0.088
		C239.997,151.433,239.929,151.439,239.859,151.446z"/>
	<path class="st0" d="M234.169,151.938c0.397-0.031,0.794-0.063,1.189-0.096c-0.066,0.005-0.134,0.01-0.2,0.016
		C234.829,151.885,234.5,151.912,234.169,151.938z"/>
	<path class="st0" d="M251.133,150.238c0.113-0.014,0.225-0.028,0.338-0.042c-0.058,0.007-0.115,0.014-0.172,0.021
		C251.243,150.224,251.188,150.231,251.133,150.238z"/>
	<path class="st0" d="M250.428,150.324c0.107-0.013,0.216-0.025,0.323-0.038c-0.068,0.008-0.138,0.016-0.205,0.023
		C250.507,150.314,250.468,150.319,250.428,150.324z"/>
	<path class="st0" d="M231.906,152.114c0.28-0.021,0.558-0.043,0.836-0.064c-0.138,0.011-0.276,0.021-0.415,0.031
		C232.187,152.092,232.048,152.104,231.906,152.114z"/>
	<path class="st0" d="M198.949,153.469c0.423-0.004,0.848-0.006,1.27-0.011c-0.396,0.005-0.794,0.007-1.189,0.011
		C199.002,153.469,198.976,153.469,198.949,153.469z"/>
	<polygon class="st0" points="316.778,126.728 316.782,126.717 316.782,126.714 	"/>
	<path class="st0" d="M187.779,153.458c0.423,0.005,0.847,0.008,1.271,0.011c-0.027,0-0.054,0-0.08,0
		C188.573,153.465,188.175,153.463,187.779,153.458z"/>
	<path class="st0" d="M293.369,141.792c0.056-0.018,0.112-0.035,0.167-0.053c-0.019,0.006-0.039,0.012-0.059,0.018
		C293.441,141.769,293.405,141.781,293.369,141.792z"/>
	<path class="st0" d="M185.784,153.43c0.262,0.004,0.523,0.008,0.786,0.012c-0.207-0.004-0.413-0.006-0.619-0.01
		C185.896,153.432,185.84,153.431,185.784,153.43z"/>
	<path class="st0" d="M286.205,143.855c0.087-0.022,0.174-0.045,0.261-0.068c-0.082,0.021-0.166,0.043-0.249,0.065
		C286.213,143.854,286.209,143.854,286.205,143.855z"/>
	<path class="st0" d="M184.702,153.414c0.142,0.002,0.283,0.004,0.426,0.006c-0.047,0-0.093-0.002-0.14-0.002
		C184.894,153.416,184.797,153.415,184.702,153.414z"/>
	<path class="st0" d="M172.72,153.068c0.492,0.02,0.987,0.038,1.482,0.057c-0.404-0.016-0.809-0.031-1.212-0.047
		C172.9,153.074,172.81,153.072,172.72,153.068z"/>
	<path class="st0" d="M164.303,152.658c0.334,0.019,0.672,0.036,1.008,0.055c-0.142-0.008-0.282-0.016-0.423-0.023
		C164.693,152.678,164.496,152.669,164.303,152.658z"/>
	<path class="st0" d="M166.712,152.789c0.411,0.021,0.824,0.043,1.238,0.062c-0.065-0.003-0.13-0.006-0.195-0.01
		C167.407,152.824,167.059,152.807,166.712,152.789z"/>
	<path class="st0" d="M280.497,145.256c0.023-0.005,0.046-0.011,0.069-0.016c-0.014,0.003-0.028,0.006-0.042,0.01
		C280.515,145.251,280.507,145.253,280.497,145.256z"/>
	<path class="st3" d="M285.368,220.902c0.303-0.436,0.604-0.873,0.901-1.316c1.655,0.2,3.331,0.299,5.021,0.299
		c19.717,0,41.275-13.13,53.509-27.681c11.776-14.007,15.369-29.089,9.857-41.375c-4.895-10.922-12.69-18.773-21.952-22.105
		c-5.087-1.831-10.439-2.304-16.004-1.436c0.029-0.203,0.057-0.394,0.081-0.571c-0.001,0.004-0.003,0.007-0.004,0.011
		c-1.1,4.237-6.197,8.224-14.425,11.762c-0.139,0.06-0.281,0.119-0.422,0.178c-0.234,0.099-0.465,0.199-0.704,0.297
		c-0.009,0.003-0.017,0.007-0.024,0.01c-0.154,0.063-0.316,0.126-0.473,0.189c-0.223,0.09-0.446,0.18-0.673,0.27
		c-0.079,0.031-0.155,0.062-0.234,0.093c-0.025,0.01-0.05,0.02-0.075,0.03c-0.433,0.168-0.874,0.335-1.321,0.501
		c-0.186,0.069-0.375,0.137-0.562,0.205c-0.342,0.125-0.684,0.249-1.033,0.372c-0.055,0.02-0.11,0.039-0.165,0.059
		c-0.105,0.037-0.215,0.073-0.321,0.11c-0.243,0.084-0.488,0.168-0.735,0.252c-0.123,0.042-0.243,0.084-0.367,0.125
		c-0.065,0.022-0.131,0.044-0.196,0.066c-0.316,0.105-0.64,0.209-0.961,0.313c-0.184,0.06-0.363,0.12-0.549,0.179
		c-0.055,0.018-0.111,0.035-0.167,0.053c-0.485,0.154-0.978,0.307-1.476,0.458c-0.082,0.025-0.164,0.049-0.245,0.074
		c-0.05,0.016-0.103,0.03-0.152,0.045c-0.249,0.075-0.501,0.149-0.753,0.223c-0.201,0.059-0.398,0.119-0.602,0.178
		c-0.091,0.026-0.184,0.053-0.275,0.079c-0.239,0.069-0.483,0.137-0.726,0.205c-0.237,0.067-0.471,0.134-0.71,0.201
		c-0.035,0.01-0.07,0.02-0.105,0.03c-0.09,0.025-0.182,0.049-0.271,0.074c-0.523,0.144-1.053,0.287-1.588,0.428
		c-0.087,0.023-0.174,0.045-0.261,0.068c-0.231,0.061-0.467,0.12-0.7,0.181c-0.316,0.081-0.629,0.163-0.948,0.244
		c-0.1,0.025-0.201,0.05-0.302,0.075c-0.177,0.044-0.357,0.087-0.535,0.131c-0.266,0.066-0.531,0.132-0.8,0.197
		c-0.111,0.027-0.22,0.054-0.331,0.082c-0.09,0.021-0.182,0.043-0.272,0.064c-0.578,0.138-1.16,0.275-1.75,0.411
		c-0.023,0.005-0.046,0.011-0.069,0.016c-0.162,0.037-0.328,0.073-0.491,0.11c-0.498,0.113-0.995,0.226-1.501,0.336
		c-0.044,0.01-0.089,0.019-0.133,0.029c-0.162,0.036-0.328,0.07-0.491,0.105c-0.286,0.062-0.574,0.124-0.863,0.185
		c-0.718,0.152-1.443,0.303-2.177,0.451c-0.176,0.035-0.349,0.072-0.525,0.107c-0.879,0.176-1.771,0.348-2.672,0.518
		c-0.288,0.055-0.58,0.108-0.871,0.162c-0.711,0.132-1.429,0.262-2.152,0.39c-0.254,0.045-0.506,0.091-0.761,0.135
		c-0.932,0.162-1.873,0.321-2.824,0.478c-0.266,0.043-0.534,0.086-0.801,0.129c-0.754,0.122-1.515,0.242-2.281,0.36
		c-0.296,0.045-0.591,0.091-0.889,0.136c-0.039,0.006-0.077,0.012-0.116,0.018c-0.135,0.02-0.269,0.041-0.403,0.062
		c-0.585,0.087-1.177,0.172-1.769,0.257c-0.235,0.034-0.47,0.069-0.707,0.103c-0.175,0.024-0.353,0.048-0.528,0.073
		c-0.376,0.053-0.755,0.105-1.135,0.157c-0.281,0.038-0.562,0.078-0.844,0.115c-0.215,0.029-0.433,0.057-0.647,0.085
		c-0.316,0.042-0.635,0.084-0.953,0.125c-0.317,0.041-0.634,0.083-0.952,0.124c-0.51,0.065-1.024,0.127-1.539,0.191
		c-0.113,0.014-0.225,0.028-0.338,0.042c-0.128,0.016-0.254,0.032-0.382,0.047c-0.107,0.013-0.216,0.025-0.323,0.038
		c-0.506,0.061-1.015,0.12-1.524,0.178c-0.364,0.043-0.728,0.085-1.094,0.126c-0.088,0.011-0.177,0.02-0.264,0.029
		c-0.321,0.036-0.644,0.071-0.966,0.106c-0.09,0.01-0.18,0.02-0.27,0.029c-0.388,0.043-0.774,0.086-1.165,0.127
		c-0.396,0.041-0.793,0.082-1.191,0.123c-0.258,0.027-0.514,0.055-0.772,0.08c-0.245,0.025-0.49,0.049-0.735,0.074
		c-0.48,0.047-0.964,0.094-1.447,0.141c-0.379,0.036-0.758,0.072-1.14,0.108c-0.283,0.026-0.569,0.052-0.854,0.077
		c-0.246,0.022-0.491,0.045-0.738,0.067c-0.431,0.038-0.862,0.077-1.296,0.114c-0.226,0.02-0.452,0.038-0.679,0.057
		c-0.312,0.027-0.622,0.054-0.935,0.08c-0.396,0.032-0.792,0.064-1.189,0.096c-0.474,0.039-0.95,0.076-1.427,0.112
		c-0.278,0.021-0.556,0.044-0.836,0.064c-0.194,0.015-0.392,0.028-0.586,0.042c-0.465,0.035-0.931,0.068-1.398,0.102
		c-0.473,0.033-0.947,0.066-1.422,0.098c-0.066,0.005-0.134,0.01-0.2,0.014c-0.329,0.022-0.659,0.045-0.99,0.066
		c-0.08,0.004-0.16,0.01-0.24,0.016c-0.486,0.031-0.974,0.062-1.462,0.092c-0.469,0.028-0.937,0.057-1.407,0.084
		c-0.105,0.006-0.211,0.014-0.316,0.02c-0.064,0.004-0.128,0.008-0.192,0.012c-0.333,0.02-0.669,0.036-1.003,0.055
		c-0.467,0.025-0.934,0.052-1.401,0.076c-0.41,0.021-0.821,0.043-1.233,0.062c-0.333,0.018-0.667,0.033-1.001,0.049
		c-0.234,0.012-0.469,0.023-0.704,0.034c-0.518,0.024-1.038,0.047-1.559,0.069c-0.27,0.012-0.54,0.023-0.811,0.035
		c-0.234,0.01-0.468,0.02-0.703,0.029c-0.491,0.02-0.986,0.038-1.479,0.057c-0.467,0.018-0.934,0.035-1.402,0.052
		c-0.273,0.009-0.547,0.019-0.82,0.027c-0.312,0.011-0.624,0.02-0.936,0.029c-0.42,0.013-0.838,0.027-1.259,0.039
		c-0.55,0.017-1.103,0.03-1.654,0.044c-0.036,0.001-0.072,0.002-0.108,0.003c-0.317,0.009-0.634,0.017-0.951,0.024
		c-0.105,0.002-0.209,0.006-0.314,0.008c-0.583,0.014-1.168,0.024-1.754,0.036c-0.434,0.009-0.866,0.019-1.302,0.026
		c-0.142,0.002-0.283,0.004-0.425,0.006c-0.219,0.004-0.438,0.006-0.658,0.01c-0.261,0.004-0.523,0.008-0.785,0.012
		c-0.403,0.005-0.805,0.012-1.209,0.017c-0.422,0.005-0.847,0.007-1.27,0.011c-0.352,0.004-0.702,0.007-1.054,0.01
		c-0.26,0.002-0.519,0.005-0.778,0.006c-1.036,0.007-2.076,0.01-3.118,0.01s-2.082-0.003-3.118-0.01
		c-0.26-0.001-0.519-0.004-0.778-0.006c-0.352-0.003-0.702-0.006-1.053-0.01c-0.424-0.003-0.848-0.006-1.271-0.011
		c-0.404-0.005-0.806-0.012-1.209-0.017c-0.263-0.004-0.524-0.008-0.786-0.012c-0.219-0.004-0.438-0.006-0.656-0.01
		c-0.143-0.002-0.284-0.004-0.426-0.006c-0.436-0.008-0.867-0.018-1.302-0.026c-0.585-0.012-1.171-0.022-1.754-0.036
		c-0.105-0.002-0.21-0.006-0.314-0.008c-0.317-0.008-0.632-0.016-0.948-0.024c-0.036-0.001-0.073-0.002-0.11-0.003
		c-0.552-0.014-1.104-0.027-1.654-0.044c-0.423-0.012-0.842-0.026-1.263-0.039c-0.31-0.01-0.62-0.019-0.93-0.029
		c-0.274-0.009-0.549-0.019-0.822-0.027c-0.469-0.017-0.936-0.034-1.402-0.052c-0.495-0.019-0.99-0.037-1.482-0.057
		c-0.231-0.01-0.461-0.02-0.692-0.029c-0.272-0.012-0.546-0.023-0.818-0.035c-0.521-0.022-1.041-0.045-1.56-0.069
		c-0.237-0.011-0.473-0.022-0.71-0.034c-0.33-0.016-0.66-0.031-0.989-0.049c-0.414-0.02-0.827-0.041-1.238-0.062
		c-0.469-0.024-0.935-0.051-1.401-0.076c-0.336-0.019-0.674-0.036-1.008-0.055c-0.055-0.004-0.109-0.008-0.164-0.01
		c-0.114-0.008-0.228-0.015-0.342-0.021c-0.469-0.027-0.937-0.056-1.403-0.084c-0.49-0.03-0.979-0.061-1.466-0.092
		c-0.083-0.006-0.166-0.012-0.249-0.018c-0.323-0.021-0.646-0.042-0.968-0.063c-0.069-0.005-0.14-0.009-0.209-0.014
		c-0.477-0.032-0.953-0.065-1.428-0.099s-0.949-0.068-1.422-0.104l0,0c-0.184-0.013-0.369-0.025-0.552-0.039
		c-0.283-0.021-0.564-0.044-0.847-0.065c-0.475-0.036-0.948-0.073-1.421-0.111c-0.402-0.032-0.804-0.065-1.204-0.099
		c-0.303-0.024-0.603-0.051-0.903-0.076c-0.231-0.02-0.464-0.039-0.695-0.059c-0.437-0.037-0.871-0.076-1.305-0.115
		c-0.253-0.021-0.505-0.045-0.757-0.068c-0.272-0.025-0.546-0.049-0.817-0.074c-0.388-0.036-0.772-0.073-1.158-0.11
		c-0.48-0.046-0.959-0.093-1.437-0.14c-0.251-0.025-0.503-0.05-0.753-0.075c-0.242-0.024-0.481-0.05-0.722-0.075
		c-0.409-0.042-0.818-0.084-1.225-0.127c-0.396-0.041-0.787-0.084-1.181-0.127c-0.095-0.011-0.189-0.021-0.284-0.032
		c-0.307-0.033-0.614-0.067-0.919-0.101c-0.093-0.011-0.187-0.021-0.278-0.031c-0.373-0.042-0.744-0.086-1.115-0.129
		c-0.502-0.058-1.005-0.116-1.503-0.176c-0.114-0.014-0.229-0.027-0.344-0.041c-0.101-0.012-0.199-0.025-0.301-0.037
		c-0.141-0.017-0.28-0.035-0.422-0.053c-0.507-0.062-1.014-0.124-1.516-0.188c-0.33-0.042-0.656-0.085-0.983-0.127
		c-0.301-0.039-0.601-0.079-0.899-0.118c-0.223-0.029-0.447-0.058-0.669-0.088c-0.297-0.04-0.59-0.081-0.885-0.121
		c-0.39-0.053-0.779-0.107-1.167-0.161c-0.147-0.021-0.297-0.041-0.444-0.062c-0.003,0-0.006-0.001-0.009-0.001
		c-0.256-0.036-0.507-0.073-0.761-0.11c-0.574-0.083-1.148-0.165-1.716-0.25c-0.16-0.024-0.319-0.049-0.479-0.073
		c-0.023-0.003-0.047-0.007-0.071-0.011c-0.277-0.042-0.552-0.084-0.828-0.127c-0.795-0.123-1.584-0.247-2.366-0.373
		c-0.244-0.04-0.489-0.078-0.731-0.118c-0.966-0.158-1.922-0.32-2.868-0.485c-0.229-0.04-0.455-0.081-0.683-0.122
		c-0.758-0.134-1.508-0.27-2.251-0.408c-0.267-0.049-0.534-0.099-0.8-0.149c-0.917-0.173-1.826-0.349-2.722-0.527
		c-0.141-0.028-0.277-0.058-0.418-0.085c-0.53-0.107-1.06-0.214-1.581-0.323c-0.022-0.005-0.046-0.009-0.068-0.014
		c-0.218-0.045-0.431-0.093-0.646-0.139c-0.267-0.056-0.532-0.113-0.796-0.17c-0.153-0.033-0.31-0.065-0.463-0.099
		c-0.068-0.015-0.139-0.03-0.208-0.045c-0.533-0.117-1.058-0.236-1.581-0.354c-0.124-0.028-0.252-0.056-0.375-0.084
		c-0.035-0.008-0.071-0.016-0.106-0.024c-0.571-0.131-1.137-0.265-1.697-0.398c-0.107-0.026-0.217-0.051-0.324-0.077
		c-0.117-0.028-0.231-0.058-0.349-0.086c-0.243-0.059-0.483-0.119-0.725-0.178c-0.181-0.044-0.364-0.089-0.544-0.134
		c-0.117-0.029-0.235-0.058-0.353-0.087c-0.335-0.084-0.663-0.17-0.994-0.256c-0.204-0.053-0.412-0.105-0.614-0.158
		c-0.101-0.026-0.201-0.053-0.302-0.079c-0.52-0.137-1.032-0.275-1.54-0.415c-0.107-0.029-0.215-0.059-0.321-0.088
		c-0.038-0.011-0.075-0.021-0.114-0.032c-0.211-0.059-0.417-0.118-0.626-0.177c-0.253-0.071-0.508-0.142-0.757-0.213
		c-0.106-0.031-0.213-0.061-0.319-0.092c-0.212-0.062-0.419-0.125-0.63-0.187c-0.226-0.067-0.453-0.133-0.678-0.201
		c-0.052-0.016-0.104-0.031-0.156-0.046c-0.097-0.029-0.193-0.058-0.289-0.087c-0.484-0.147-0.963-0.296-1.435-0.446
		c-0.07-0.022-0.142-0.044-0.212-0.066c-0.151-0.048-0.297-0.098-0.447-0.146c-0.343-0.111-0.686-0.221-1.022-0.333
		c-0.077-0.025-0.154-0.051-0.231-0.077c-0.129-0.043-0.255-0.088-0.383-0.131c-0.226-0.076-0.449-0.153-0.671-0.229
		c-0.11-0.039-0.226-0.077-0.336-0.115c-0.067-0.023-0.135-0.047-0.202-0.071c-0.374-0.132-0.741-0.265-1.106-0.399
		c-0.111-0.041-0.227-0.081-0.337-0.122c-0.029-0.011-0.057-0.021-0.085-0.032c-0.459-0.17-0.91-0.341-1.354-0.513
		c-0.038-0.015-0.075-0.029-0.112-0.044c-0.081-0.032-0.157-0.063-0.237-0.095c-0.206-0.081-0.409-0.163-0.611-0.245
		c-0.165-0.066-0.334-0.131-0.496-0.198c-0.021-0.008-0.04-0.017-0.061-0.025c-0.249-0.103-0.489-0.207-0.733-0.31
		c-0.123-0.052-0.247-0.104-0.369-0.156c-0.076-0.033-0.157-0.066-0.233-0.099c-0.003-0.001-0.005-0.002-0.008-0.003
		c-8.095-3.516-13.104-7.472-14.187-11.672v0c1.44,10.309,9.906,64.521,32.37,95.527c-45.041,5.944-74.604,15.936-74.604,27.261
		c0,18.228,76.567,33.003,171.018,33.003c94.449,0,171.016-14.775,171.016-33.003C371.017,237.277,336.562,226.604,285.368,220.902z
		 M327.288,143.779c6.926,2.492,10.973,9.586,12.77,13.596c4.12,9.186-3.876,20.217-7.505,24.533
		c-9.894,11.769-24.894,20.16-37.317,21.705c9.441-19.901,15.233-42.979,18.446-58.962
		C318.763,142.664,323.332,142.355,327.288,143.779z M196.999,267.507c-54.681,0-99.009-8.06-99.009-18.002
		c0-4.258,8.134-8.169,21.723-11.251c14.096,9.943,38.271,20.251,74.286,20.251c37.202,0,61.766-10.996,75.642-21.23
		c16.361,3.211,26.368,7.508,26.368,12.23C296.009,259.447,251.681,267.507,196.999,267.507z"/>
	<path class="st4" d="M269.641,237.274c-13.876,10.234-38.439,21.23-75.642,21.23c-36.016,0-60.19-10.308-74.286-20.251
		c-13.589,3.082-21.723,6.993-21.723,11.251c0,9.942,44.328,18.002,99.009,18.002c54.682,0,99.01-8.06,99.01-18.002
		C296.009,244.782,286.002,240.485,269.641,237.274z"/>
	<path class="st4" d="M160.679,152.434c0.083,0.006,0.166,0.012,0.249,0.018c0.487,0.031,0.976,0.062,1.466,0.092
		c0.467,0.028,0.935,0.057,1.403,0.084c0.031,0.002,0.063,0.004,0.094,0.006C162.814,152.57,161.744,152.504,160.679,152.434z"/>
	<path class="st4" d="M92.739,141.176c0.077,0.026,0.154,0.052,0.231,0.077c0.337,0.112,0.68,0.223,1.022,0.333
		c-0.555-0.179-1.1-0.36-1.637-0.542C92.484,141.088,92.61,141.132,92.739,141.176z"/>
	<path class="st4" d="M91.147,140.629c0.067,0.023,0.135,0.047,0.202,0.071c0.11,0.039,0.226,0.077,0.336,0.115
		c-0.558-0.193-1.106-0.388-1.645-0.585C90.406,140.364,90.773,140.497,91.147,140.629z"/>
	<path class="st4" d="M86.748,138.956c0.021,0.008,0.04,0.017,0.061,0.025c0.162,0.067,0.331,0.132,0.496,0.198
		c-0.438-0.176-0.868-0.354-1.29-0.533C86.259,138.75,86.499,138.854,86.748,138.956z"/>
	<path class="st4" d="M103.428,144.276c0.117,0.029,0.235,0.058,0.353,0.087c0.18,0.045,0.363,0.089,0.544,0.134
		c-0.638-0.157-1.268-0.316-1.891-0.477C102.765,144.106,103.093,144.192,103.428,144.276z"/>
	<path class="st4" d="M97.84,142.766c0.106,0.031,0.213,0.061,0.319,0.092c0.249,0.072,0.504,0.143,0.757,0.213
		c-0.576-0.163-1.145-0.326-1.706-0.492C97.421,142.641,97.628,142.704,97.84,142.766z"/>
	<path class="st4" d="M105.049,144.676c0.117,0.028,0.231,0.058,0.349,0.086c0.107,0.025,0.217,0.051,0.324,0.077
		c0.561,0.134,1.126,0.267,1.697,0.398c0.024,0.005,0.049,0.011,0.073,0.017C106.665,145.063,105.853,144.871,105.049,144.676z"/>
	<path class="st4" d="M134.017,149.879c0.326,0.042,0.65,0.085,0.979,0.126c0.502,0.064,1.009,0.126,1.516,0.188
		c0.071,0.009,0.144,0.018,0.216,0.026C135.816,150.109,134.913,149.996,134.017,149.879z"/>
	<path class="st4" d="M109.481,145.7c0.069,0.015,0.14,0.03,0.208,0.045c0.153,0.033,0.31,0.066,0.463,0.099
		c-0.76-0.164-1.511-0.33-2.252-0.498C108.424,145.464,108.948,145.583,109.481,145.7z"/>
	<path class="st4" d="M99.542,143.248c0.039,0.011,0.076,0.021,0.114,0.032c0.106,0.029,0.214,0.059,0.321,0.088
		c0.508,0.14,1.021,0.278,1.54,0.415c0.095,0.025,0.19,0.05,0.286,0.075C101.037,143.657,100.284,143.454,99.542,143.248z"/>
	<path class="st4" d="M87.916,139.424c0.08,0.032,0.156,0.063,0.237,0.095c0.037,0.015,0.074,0.029,0.112,0.044
		c0.443,0.172,0.895,0.343,1.354,0.513c0.009,0.003,0.017,0.006,0.025,0.01C89.055,139.867,88.48,139.646,87.916,139.424z"/>
	<path class="st4" d="M94.652,141.799c0.472,0.15,0.95,0.298,1.435,0.446c0.096,0.029,0.192,0.058,0.289,0.087
		c0.052,0.016,0.104,0.031,0.156,0.046c-0.69-0.208-1.37-0.417-2.036-0.629C94.548,141.766,94.6,141.783,94.652,141.799z"/>
	<path class="st4" d="M119.435,147.659c-0.758-0.134-1.508-0.27-2.251-0.408C117.927,147.39,118.677,147.525,119.435,147.659z"/>
	<path class="st4" d="M131.559,149.552c0.295,0.041,0.588,0.082,0.885,0.121c0.222,0.03,0.446,0.059,0.669,0.088
		c-0.914-0.121-1.821-0.244-2.721-0.37C130.779,149.445,131.169,149.499,131.559,149.552z"/>
	<path class="st4" d="M141.677,150.793c0.394,0.043,0.785,0.086,1.181,0.127c0.406,0.043,0.815,0.085,1.225,0.127
		c-0.902-0.093-1.799-0.188-2.689-0.286C141.487,150.771,141.582,150.782,141.677,150.793z"/>
	<path class="st4" d="M169.649,152.935c0.519,0.024,1.039,0.047,1.56,0.069c0.272,0.012,0.546,0.023,0.818,0.035
		c-1.033-0.043-2.062-0.09-3.088-0.139C169.177,152.912,169.412,152.924,169.649,152.935z"/>
	<path class="st4" d="M149.726,151.59c0.434,0.039,0.868,0.078,1.305,0.115c0.231,0.02,0.464,0.039,0.695,0.059
		c-0.924-0.078-1.843-0.158-2.757-0.242C149.221,151.545,149.473,151.568,149.726,151.59z"/>
	<path class="st4" d="M126.982,148.895c0.16,0.024,0.319,0.049,0.479,0.073c0.567,0.085,1.142,0.167,1.716,0.25
		c0.254,0.037,0.505,0.074,0.761,0.11c0.003,0,0.006,0.001,0.009,0.001c-1.022-0.145-2.033-0.294-3.036-0.445
		C126.936,148.887,126.959,148.891,126.982,148.895z"/>
	<path class="st4" d="M122.985,148.266c-0.966-0.158-1.923-0.32-2.868-0.485C121.063,147.945,122.02,148.107,122.985,148.266z"/>
	<path class="st4" d="M137.577,150.324c0.498,0.06,1.001,0.118,1.503,0.176c0.371,0.043,0.742,0.087,1.115,0.129
		c0.092,0.01,0.186,0.021,0.278,0.031c-1.02-0.115-2.031-0.232-3.034-0.353C137.485,150.313,137.531,150.319,137.577,150.324z"/>
	<path class="st4" d="M116.384,147.103c-0.917-0.173-1.826-0.349-2.722-0.527C114.558,146.754,115.467,146.93,116.384,147.103z"/>
	<path class="st4" d="M111.595,146.152c0.022,0.005,0.046,0.009,0.068,0.014c0.521,0.109,1.051,0.216,1.581,0.323
		c-0.774-0.157-1.539-0.315-2.296-0.476C111.164,146.06,111.377,146.107,111.595,146.152z"/>
	<path class="st4" d="M126.083,148.757c-0.795-0.123-1.584-0.247-2.366-0.373C124.499,148.51,125.288,148.634,126.083,148.757z"/>
	<path class="st4" d="M145.086,151.149c0.157,0.017,0.313,0.032,0.471,0.048c0.478,0.047,0.956,0.094,1.437,0.14
		c0.32,0.03,0.643,0.062,0.965,0.091C146.994,151.338,146.037,151.245,145.086,151.149z"/>
	<path class="st4" d="M224.2,152.627c0.471-0.027,0.938-0.056,1.407-0.084c0.488-0.03,0.976-0.061,1.462-0.092
		c0.08-0.006,0.16-0.012,0.24-0.016c-1.06,0.068-2.125,0.135-3.196,0.197C224.143,152.631,224.172,152.629,224.2,152.627z"/>
	<path class="st4" d="M251.299,150.217c0.057-0.007,0.114-0.014,0.172-0.021c0.515-0.063,1.029-0.126,1.539-0.191
		c0.316-0.041,0.63-0.082,0.945-0.123C253.076,149.997,252.19,150.108,251.299,150.217z"/>
	<path class="st4" d="M232.327,152.081c0.139-0.011,0.277-0.021,0.415-0.031c0.477-0.036,0.953-0.073,1.427-0.112
		c0.331-0.025,0.66-0.053,0.989-0.08C234.22,151.935,233.276,152.01,232.327,152.081z"/>
	<path class="st4" d="M258.776,149.224c0.592-0.085,1.184-0.17,1.769-0.257c0.135-0.021,0.269-0.042,0.403-0.062
		c0.039-0.006,0.077-0.012,0.116-0.018c-0.987,0.149-1.982,0.296-2.989,0.438C258.311,149.292,258.543,149.258,258.776,149.224z"/>
	<path class="st4" d="M240.066,151.426c0.312-0.029,0.622-0.059,0.933-0.088c0.483-0.047,0.967-0.094,1.447-0.141
		c0.15-0.016,0.3-0.031,0.45-0.046C241.959,151.246,241.016,151.337,240.066,151.426z"/>
	<path class="st4" d="M247.546,150.657c0.087-0.01,0.176-0.019,0.264-0.029c0.366-0.041,0.729-0.083,1.094-0.126
		c0.51-0.059,1.019-0.118,1.524-0.178c0.04-0.005,0.079-0.01,0.118-0.015C249.554,150.429,248.553,150.544,247.546,150.657z"/>
	<path class="st4" d="M85.404,138.389c0.003,0.001,0.005,0.002,0.008,0.003c0.076,0.033,0.157,0.066,0.233,0.099
		c20.772-8.93,61.503-15,108.354-15c46.853,0,87.582,6.069,108.354,14.999c8.228-3.538,13.325-7.525,14.425-11.762
		c0.002-0.005,0.003-0.009,0.004-0.014c0.154-1.115,0.23-1.723,0.23-1.723c0-10.931-26.564-20.424-65.547-25.206
		c0.53,1.492,0.766,3.196,0.537,5.251c-1.192,10.724-21.443,13.104-21.443,13.104s4.768-3.575,5.957-9.53
		c0.796-3.986-1.61-5.31-4.717-10.75c-5.367-0.401-10.893-0.72-16.553-0.948c-2.009,17.368-34.829,21.229-34.829,21.229
		s7.743-5.807,9.677-15.484c0.496-2.478,0.227-4.322-0.573-6.148c-8.095,0.067-15.991,0.314-23.613,0.727
		c1.352,2.072,2.187,4.479,1.818,7.801c-1.192,10.724-21.443,13.104-21.443,13.104s4.767-3.575,5.956-9.53
		c0.762-3.811-1.404-5.188-4.311-10.055c-45.11,4.226-76.941,14.468-76.941,26.435c0,0,0.074,0.608,0.23,1.726
		C72.301,130.917,77.31,134.873,85.404,138.389z"/>
	<path class="st4" d="M71.055,125.897c0.037,0.274,0.093,0.548,0.163,0.82v0C71.147,126.445,71.094,126.171,71.055,125.897z"/>
	<path class="st4" d="M298.427,140.059c0.447-0.166,0.889-0.333,1.321-0.501c0.025-0.01,0.05-0.02,0.075-0.03
		c0.079-0.031,0.155-0.062,0.234-0.093C299.524,139.644,298.981,139.853,298.427,140.059z"/>
	<path class="st4" d="M286.466,143.788c0.535-0.142,1.064-0.284,1.588-0.428c0.09-0.025,0.182-0.049,0.271-0.074
		c0.035-0.01,0.07-0.02,0.105-0.03c-0.727,0.201-1.464,0.4-2.214,0.597C286.3,143.831,286.384,143.809,286.466,143.788z"/>
	<path class="st4" d="M291.496,142.37c0.05-0.015,0.103-0.03,0.152-0.045c0.081-0.024,0.163-0.049,0.245-0.074
		c0.498-0.151,0.99-0.304,1.476-0.458c0.036-0.011,0.072-0.023,0.108-0.035C292.829,141.964,292.168,142.167,291.496,142.37z"/>
	<path class="st4" d="M203.296,153.414c0.436-0.008,0.868-0.018,1.302-0.026c0.586-0.012,1.172-0.022,1.754-0.036
		c0.105-0.002,0.209-0.006,0.314-0.008c-1.214,0.029-2.432,0.053-3.655,0.074C203.105,153.416,203.201,153.415,203.296,153.414z"/>
	<path class="st4" d="M164.888,152.689c0.141,0.008,0.281,0.016,0.423,0.023c0.467,0.025,0.933,0.052,1.401,0.076
		c0.347,0.018,0.695,0.035,1.043,0.053C166.795,152.793,165.839,152.742,164.888,152.689z"/>
	<path class="st4" d="M181.332,153.344c0.104,0.002,0.209,0.006,0.314,0.008c0.583,0.014,1.169,0.024,1.754,0.036
		c0.435,0.009,0.866,0.019,1.302,0.026c0.095,0.001,0.191,0.002,0.286,0.004C183.765,153.396,182.546,153.373,181.332,153.344z"/>
	<path class="st4" d="M172.99,153.078c0.403,0.016,0.808,0.031,1.212,0.047c0.467,0.018,0.934,0.035,1.402,0.052
		c0.199,0.007,0.399,0.013,0.6,0.02C175.129,153.16,174.057,153.121,172.99,153.078z"/>
	<path class="st4" d="M152.821,151.855c0.337,0.027,0.674,0.056,1.012,0.083c0.473,0.038,0.946,0.075,1.421,0.111
		c0.143,0.011,0.287,0.021,0.43,0.032C154.725,152.01,153.771,151.934,152.821,151.855z"/>
	<path class="st4" d="M156.652,152.154c0.473,0.035,0.947,0.07,1.422,0.104s0.951,0.066,1.428,0.099
		c0.069,0.005,0.14,0.009,0.209,0.014C158.687,152.301,157.666,152.229,156.652,152.154L156.652,152.154z"/>
	<path class="st4" d="M185.951,153.432c0.206,0.004,0.412,0.006,0.619,0.01c0.403,0.005,0.805,0.012,1.209,0.017
		c0.396,0.005,0.794,0.007,1.19,0.011C187.96,153.459,186.954,153.447,185.951,153.432z"/>
	<path class="st4" d="M211.798,153.196c0.198-0.007,0.398-0.013,0.597-0.02c0.469-0.017,0.936-0.034,1.402-0.052
		c0.401-0.016,0.803-0.03,1.203-0.047C213.938,153.121,212.869,153.16,211.798,153.196z"/>
	<path class="st4" d="M178.619,153.272c0.55,0.017,1.103,0.03,1.654,0.044c0.037,0.001,0.074,0.002,0.11,0.003
		c-1.013-0.026-2.021-0.055-3.027-0.086C177.777,153.246,178.196,153.261,178.619,153.272z"/>
	<path class="st4" d="M220.252,152.842c0.345-0.018,0.69-0.035,1.035-0.053c0.468-0.024,0.935-0.051,1.401-0.076
		c0.139-0.008,0.276-0.016,0.414-0.023C222.156,152.742,221.206,152.793,220.252,152.842z"/>
	<path class="st4" d="M199.029,153.469c0.396-0.004,0.794-0.006,1.189-0.011c0.404-0.005,0.806-0.012,1.209-0.017
		c0.206-0.004,0.412-0.006,0.618-0.01C201.044,153.447,200.038,153.459,199.029,153.469z"/>
	<path class="st4" d="M280.566,145.24c0.59-0.135,1.172-0.272,1.75-0.411c0.091-0.021,0.183-0.043,0.272-0.064
		c0.111-0.027,0.22-0.055,0.331-0.082c-0.789,0.191-1.585,0.38-2.396,0.566C280.538,145.246,280.553,145.243,280.566,145.24z"/>
	<path class="st4" d="M284.255,144.355c0.101-0.025,0.202-0.05,0.302-0.075c0.319-0.081,0.632-0.163,0.948-0.244
		c-0.588,0.151-1.183,0.302-1.785,0.45C283.897,144.442,284.078,144.399,284.255,144.355z"/>
	<path class="st4" d="M278.372,145.731c0.044-0.01,0.089-0.019,0.133-0.029c0.506-0.111,1.003-0.224,1.501-0.336
		c-0.7,0.159-1.409,0.316-2.125,0.47C278.044,145.801,278.21,145.767,278.372,145.731z"/>
	<path class="st4" d="M277.018,146.021c-0.718,0.152-1.443,0.303-2.177,0.451C275.574,146.324,276.3,146.173,277.018,146.021z"/>
	<path class="st4" d="M274.315,146.579c-0.879,0.176-1.771,0.348-2.672,0.518C272.544,146.927,273.437,146.755,274.315,146.579z"/>
	<path class="st4" d="M289.866,142.85c0.092-0.026,0.185-0.053,0.275-0.079c0.203-0.059,0.4-0.119,0.602-0.178
		c-0.527,0.155-1.062,0.309-1.603,0.462C289.383,142.986,289.627,142.918,289.866,142.85z"/>
	<path class="st4" d="M316.945,125.895c-0.039,0.273-0.093,0.545-0.162,0.817C316.854,126.44,316.908,126.167,316.945,125.895z"/>
	<path class="st4" d="M71.046,125.843c-0.038-0.283-0.059-0.567-0.059-0.852C70.987,125.276,71.011,125.56,71.046,125.843z"/>
	<path class="st4" d="M190.881,153.484c1.036,0.007,2.076,0.01,3.118,0.01c-1.305,0-2.602-0.006-3.896-0.016
		C190.362,153.48,190.621,153.483,190.881,153.484z"/>
	<path class="st4" d="M270.772,147.259c-0.711,0.132-1.429,0.262-2.152,0.39C269.344,147.521,270.062,147.391,270.772,147.259z"/>
	<path class="st4" d="M295.046,141.248c0.065-0.022,0.131-0.044,0.196-0.066c0.124-0.042,0.244-0.084,0.367-0.125
		c-0.501,0.169-1.009,0.337-1.524,0.504C294.406,141.457,294.729,141.353,295.046,141.248z"/>
	<path class="st4" d="M296.666,140.694c0.055-0.02,0.11-0.039,0.165-0.059c0.35-0.123,0.691-0.248,1.033-0.372
		c-0.498,0.182-1.004,0.362-1.52,0.541C296.451,140.767,296.561,140.731,296.666,140.694z"/>
	<path class="st4" d="M317.013,124.991c0,0.285-0.021,0.569-0.06,0.853C316.989,125.561,317.013,125.276,317.013,124.991z"/>
	<path class="st4" d="M216.79,153.004c0.521-0.022,1.041-0.045,1.559-0.069c0.235-0.011,0.47-0.022,0.704-0.034
		c-1.02,0.049-2.044,0.096-3.073,0.139C216.25,153.027,216.521,153.016,216.79,153.004z"/>
	<path class="st4" d="M228.5,152.355c0.475-0.031,0.949-0.064,1.422-0.098c0.468-0.033,0.934-0.066,1.398-0.102
		c-1.001,0.074-2.009,0.145-3.021,0.213C228.366,152.365,228.434,152.36,228.5,152.355z"/>
	<path class="st4" d="M255.562,149.672c0.282-0.038,0.562-0.077,0.844-0.115c0.38-0.052,0.759-0.104,1.135-0.157
		c-0.868,0.122-1.743,0.241-2.626,0.357C255.13,149.729,255.348,149.701,255.562,149.672z"/>
	<path class="st4" d="M236.972,151.705c0.434-0.037,0.865-0.076,1.296-0.114c0.247-0.022,0.492-0.045,0.738-0.067
		c-0.899,0.082-1.804,0.162-2.713,0.238C236.52,151.743,236.746,151.725,236.972,151.705z"/>
	<path class="st4" d="M245.146,150.92c0.391-0.041,0.777-0.084,1.165-0.127c0.09-0.01,0.18-0.02,0.27-0.029
		c-0.869,0.096-1.745,0.189-2.626,0.279C244.353,151.002,244.75,150.961,245.146,150.92z"/>
	<path class="st4" d="M207.726,153.316c0.552-0.014,1.104-0.027,1.654-0.044c0.421-0.012,0.839-0.026,1.259-0.039
		c-1.004,0.032-2.011,0.06-3.021,0.086C207.653,153.318,207.689,153.317,207.726,153.316z"/>
	<path class="st4" d="M267.859,147.785c-0.932,0.162-1.873,0.321-2.824,0.478C265.986,148.106,266.928,147.947,267.859,147.785z"/>
	<path class="st4" d="M197.117,153.484c0.26-0.001,0.519-0.004,0.778-0.006c-1.295,0.01-2.592,0.016-3.896,0.016
		C195.041,153.494,196.081,153.491,197.117,153.484z"/>
	<path class="st4" d="M264.234,148.391c-0.754,0.122-1.515,0.242-2.281,0.36C262.72,148.633,263.48,148.513,264.234,148.391z"/>
	<path class="st4" d="M301.203,138.976c0.008-0.003,0.016-0.007,0.024-0.01c0.239-0.098,0.47-0.198,0.704-0.297
		c-0.394,0.167-0.794,0.332-1.201,0.497C300.887,139.102,301.049,139.04,301.203,138.976z"/>
	<path class="st1" d="M193.999,123.491c-46.851,0-87.581,6.069-108.354,15c0.122,0.052,0.246,0.104,0.369,0.156
		c0.422,0.179,0.852,0.356,1.29,0.533c0.202,0.082,0.405,0.164,0.611,0.245c0.564,0.223,1.139,0.443,1.729,0.662
		c0.021,0.007,0.039,0.015,0.06,0.022c0.11,0.041,0.226,0.081,0.337,0.122c0.538,0.197,1.087,0.392,1.645,0.585
		c0.222,0.077,0.445,0.153,0.671,0.229c0.537,0.182,1.082,0.363,1.637,0.542c0.15,0.048,0.296,0.098,0.447,0.146
		c0.019,0.006,0.037,0.011,0.056,0.017c0.666,0.212,1.346,0.421,2.036,0.629c0.225,0.067,0.452,0.134,0.678,0.201
		c0.562,0.166,1.13,0.329,1.706,0.492c0.209,0.059,0.415,0.119,0.626,0.177c0.742,0.206,1.495,0.409,2.262,0.61
		c0.005,0.001,0.01,0.003,0.016,0.004c0.202,0.053,0.41,0.105,0.614,0.158c0.623,0.161,1.253,0.32,1.891,0.477
		c0.241,0.06,0.481,0.119,0.725,0.178c0.804,0.195,1.616,0.388,2.443,0.578c0.011,0.002,0.021,0.005,0.033,0.007
		c0.123,0.028,0.251,0.056,0.375,0.084c0.741,0.168,1.492,0.334,2.252,0.498c0.264,0.057,0.529,0.114,0.796,0.17
		c0.757,0.161,1.521,0.319,2.296,0.476c0.141,0.028,0.277,0.057,0.418,0.085c0.896,0.179,1.805,0.354,2.722,0.527
		c0.266,0.05,0.533,0.1,0.8,0.149c0.743,0.138,1.493,0.274,2.251,0.408c0.228,0.041,0.453,0.082,0.683,0.122
		c0.945,0.165,1.902,0.327,2.868,0.485c0.242,0.04,0.487,0.079,0.731,0.118c0.782,0.126,1.571,0.25,2.366,0.373
		c0.276,0.042,0.551,0.085,0.828,0.127c1.003,0.151,2.014,0.3,3.036,0.445c0.147,0.021,0.297,0.041,0.444,0.062
		c0.899,0.126,1.807,0.249,2.721,0.37c0.299,0.04,0.599,0.079,0.899,0.118c0.001,0,0.003,0,0.005,0c0.896,0.116,1.8,0.23,2.71,0.341
		c0.069,0.009,0.137,0.018,0.206,0.026c0.102,0.012,0.2,0.025,0.301,0.037c0.068,0.008,0.138,0.016,0.206,0.024
		c1.003,0.121,2.015,0.237,3.034,0.353c0.305,0.033,0.612,0.067,0.919,0.101c0.891,0.099,1.787,0.193,2.689,0.286
		c0.24,0.025,0.479,0.051,0.722,0.075c0.094,0.01,0.188,0.019,0.282,0.027c0.951,0.096,1.908,0.188,2.872,0.278
		c0.064,0.007,0.129,0.014,0.193,0.02c0.271,0.025,0.545,0.049,0.817,0.074c0.914,0.084,1.833,0.164,2.757,0.242
		c0.301,0.025,0.601,0.052,0.903,0.076c0.063,0.006,0.128,0.011,0.192,0.016c0.949,0.078,1.903,0.154,2.862,0.227
		c0.14,0.011,0.277,0.022,0.417,0.033c0.183,0.014,0.368,0.026,0.552,0.039l0,0c1.014,0.075,2.034,0.146,3.059,0.216
		c0.322,0.021,0.645,0.043,0.968,0.063c1.065,0.07,2.136,0.137,3.212,0.199c0.083,0.005,0.165,0.01,0.248,0.016
		c0.055,0.002,0.109,0.006,0.164,0.01c0.193,0.011,0.391,0.02,0.585,0.031c0.951,0.053,1.907,0.104,2.867,0.152
		c0.065,0.004,0.13,0.007,0.195,0.01c0.329,0.018,0.659,0.033,0.989,0.049c1.025,0.049,2.055,0.096,3.088,0.139
		c0.231,0.01,0.461,0.02,0.692,0.029c0.09,0.004,0.181,0.006,0.271,0.01c1.066,0.043,2.139,0.082,3.214,0.118
		c0.074,0.003,0.148,0.005,0.223,0.008c0.31,0.011,0.62,0.02,0.93,0.029c1.006,0.031,2.015,0.06,3.027,0.086
		c0.316,0.009,0.631,0.017,0.948,0.024c1.214,0.029,2.433,0.053,3.656,0.074c0.047,0,0.093,0.002,0.14,0.002
		c0.218,0.004,0.438,0.006,0.656,0.01c0.056,0.001,0.111,0.002,0.167,0.002c1.003,0.016,2.009,0.027,3.019,0.037
		c0.026,0,0.053,0,0.08,0c0.351,0.004,0.701,0.007,1.053,0.01c1.295,0.01,2.592,0.016,3.896,0.016s2.602-0.006,3.896-0.016
		c0.352-0.003,0.702-0.006,1.054-0.01c0.026,0,0.053,0,0.08,0c1.009-0.01,2.015-0.021,3.017-0.037c0.056,0,0.111-0.001,0.167-0.002
		c0.22-0.004,0.439-0.006,0.658-0.01c0.047,0,0.093-0.002,0.14-0.002c1.224-0.021,2.441-0.045,3.655-0.074
		c0.317-0.008,0.634-0.016,0.951-0.024c1.011-0.026,2.018-0.054,3.021-0.086c0.312-0.01,0.624-0.019,0.936-0.029
		c0.074-0.003,0.148-0.005,0.224-0.008c1.071-0.036,2.14-0.075,3.202-0.118c0.092-0.003,0.185-0.006,0.276-0.01
		c0.235-0.01,0.469-0.02,0.703-0.029c1.029-0.043,2.054-0.09,3.073-0.139c0.334-0.016,0.668-0.031,1.001-0.049
		c0.066-0.003,0.132-0.007,0.198-0.01c0.954-0.049,1.904-0.1,2.851-0.152c0.195-0.012,0.395-0.021,0.589-0.031
		c0.064-0.004,0.128-0.008,0.192-0.012c0.077-0.004,0.152-0.01,0.229-0.014c1.071-0.062,2.137-0.129,3.196-0.197
		c0.331-0.021,0.661-0.044,0.99-0.066c1.012-0.068,2.02-0.139,3.021-0.213c0.194-0.014,0.392-0.027,0.586-0.042
		c0.142-0.011,0.28-0.022,0.421-0.033c0.949-0.071,1.893-0.146,2.831-0.224c0.066-0.006,0.134-0.011,0.2-0.016
		c0.312-0.026,0.623-0.053,0.935-0.08c0.909-0.076,1.813-0.156,2.713-0.238c0.284-0.025,0.57-0.051,0.854-0.077
		c0.069-0.007,0.138-0.014,0.207-0.021c0.949-0.089,1.893-0.18,2.83-0.274c0.095-0.01,0.19-0.019,0.285-0.028
		c0.259-0.025,0.515-0.053,0.772-0.08c0.881-0.09,1.757-0.184,2.626-0.279c0.322-0.035,0.645-0.07,0.966-0.106
		c1.007-0.113,2.008-0.229,3-0.348c0.067-0.008,0.137-0.016,0.205-0.023c0.128-0.016,0.254-0.032,0.382-0.047
		c0.056-0.007,0.11-0.014,0.166-0.021c0.892-0.109,1.777-0.221,2.656-0.334c0.003,0,0.005,0,0.007-0.001
		c0.318-0.041,0.637-0.083,0.953-0.125c0.883-0.117,1.758-0.236,2.626-0.357c0.176-0.024,0.354-0.048,0.528-0.073
		c0.002,0,0.004,0,0.006-0.001c1.007-0.143,2.002-0.29,2.989-0.438c0.298-0.045,0.593-0.091,0.889-0.136
		c0.767-0.118,1.527-0.238,2.281-0.36c0.267-0.043,0.535-0.085,0.801-0.129c0.951-0.156,1.893-0.315,2.824-0.478
		c0.255-0.044,0.507-0.09,0.761-0.135c0.724-0.128,1.441-0.258,2.152-0.39c0.291-0.054,0.583-0.107,0.871-0.162
		c0.9-0.17,1.793-0.342,2.672-0.518c0.177-0.035,0.35-0.072,0.525-0.107c0.733-0.148,1.459-0.299,2.177-0.451
		c0.289-0.062,0.577-0.123,0.863-0.185c0.716-0.154,1.425-0.312,2.125-0.47c0.163-0.037,0.329-0.073,0.491-0.11
		c0.01-0.002,0.018-0.004,0.027-0.006c0.811-0.186,1.606-0.375,2.396-0.566c0.269-0.065,0.534-0.131,0.8-0.197
		c0.603-0.148,1.197-0.299,1.785-0.45c0.233-0.061,0.469-0.12,0.7-0.181c0.004-0.001,0.008-0.002,0.012-0.003
		c0.75-0.197,1.487-0.396,2.214-0.597c0.239-0.066,0.473-0.134,0.71-0.201c0.541-0.153,1.075-0.307,1.603-0.462
		c0.252-0.074,0.504-0.148,0.753-0.223c0.672-0.202,1.333-0.406,1.981-0.612c0.02-0.006,0.04-0.012,0.059-0.018
		c0.186-0.059,0.365-0.119,0.549-0.179c0.516-0.167,1.023-0.335,1.524-0.504c0.247-0.084,0.492-0.168,0.735-0.252
		c0.516-0.179,1.021-0.359,1.52-0.541c0.188-0.068,0.377-0.136,0.562-0.205c0.555-0.206,1.098-0.415,1.631-0.624
		c0.227-0.09,0.45-0.18,0.673-0.27c0.407-0.165,0.808-0.33,1.201-0.497c0.141-0.06,0.283-0.119,0.422-0.178
		C281.581,129.561,240.852,123.491,193.999,123.491z"/>
	<path class="st3" d="M316.782,126.717c0-0.002,0.001-0.004,0.001-0.005c0.069-0.271,0.123-0.543,0.162-0.817
		c0.002-0.017,0.006-0.034,0.008-0.051c0.038-0.283,0.06-0.567,0.06-0.853c0,0-0.076,0.607-0.23,1.723
		C316.782,126.715,316.782,126.716,316.782,126.717z"/>
	<path class="st3" d="M70.987,124.991c0,0.285,0.021,0.568,0.059,0.852c0.003,0.018,0.007,0.036,0.009,0.054
		c0.039,0.274,0.093,0.548,0.163,0.82C71.062,125.6,70.987,124.991,70.987,124.991z"/>
	<path class="st2" d="M190.095,102.657c-1.934,9.678-9.677,15.484-9.677,15.484s32.82-3.86,34.829-21.229
		c0.003-0.021,0.009-0.041,0.011-0.062c1.936-17.421-16.469-19.359-17.86-37.45c-1.787-23.235,7.42-28.29,12.055-41.908
		c0,0-42.583,21.294-34.841,48.391c5.76,20.158,12.587,25.319,14.91,30.626C190.321,98.335,190.591,100.179,190.095,102.657z"/>
	<path class="st2" d="M152.239,108.611c-1.189,5.955-5.956,9.53-5.956,9.53s20.251-2.381,21.443-13.104
		c0.368-3.323-0.467-5.729-1.818-7.801c-3.01-4.612-8.584-7.563-9.175-15.246c-1.1-14.303,4.567-17.41,7.418-25.794
		c0,0-26.205,13.104-21.441,29.782c1.716,6.004,3.584,9.841,5.219,12.578C150.835,103.423,153.001,104.801,152.239,108.611z"/>
	<path class="st2" d="M236.517,108.611c-1.189,5.955-5.957,9.53-5.957,9.53s20.251-2.381,21.443-13.104
		c0.229-2.056-0.007-3.759-0.537-5.251c-2.235-6.289-9.764-8.797-10.456-17.795c-1.1-14.303,4.567-17.41,7.419-25.794
		c0,0-26.206,13.104-21.441,29.782c1.574,5.513,3.278,9.197,4.812,11.883C234.906,103.301,237.312,104.625,236.517,108.611z"/>
</g>
</svg>
