<?xml version="1.0" encoding="utf-8"?>
<!-- Generator: Adobe Illustrator 15.0.0, SVG Export Plug-In . SVG Version: 6.00 Build 0)  -->
<!DOCTYPE svg PUBLIC "-//W3C//DTD SVG 1.1//EN" "http://www.w3.org/Graphics/SVG/1.1/DTD/svg11.dtd">
<svg version="1.1" id="レイヤー_1" xmlns="http://www.w3.org/2000/svg" xmlns:xlink="http://www.w3.org/1999/xlink" x="0px"
	 y="0px" width="400px" height="300px" viewBox="0 0 400 300" style="enable-background:new 0 0 400 300;" xml:space="preserve">
<style type="text/css">
<![CDATA[
	.st0{fill:#E4E4E4;}
	.st1{fill:#F2F2F2;}
	.st2{fill:#C9C9C9;}
	.st3{fill:#A9B8BF;}
]]>
</style>
<g>
	<polygon class="st3" points="111.191,36.146 96.189,36.146 96.189,275.854 288.158,275.854 288.158,263.854 111.191,263.854 	"/>
	<path class="st0" d="M303.811,87.459l-62.873,7.004l3.254-18.341H138.503V60.539h108.454l6.457-36.394H111.191v239.708H303.16
		L303.811,87.459z M278.002,231.818H138.503v-15.584h139.499V231.818z M278.002,192.894H138.503v-15.583h139.499V192.894z
		 M278.002,153.971H138.503v-15.584h139.499V153.971z M278.002,115.047H138.503V99.463h139.499V115.047z"/>
	<polygon class="st2" points="246.957,60.539 252.539,60.539 253.414,24.146 	"/>
	<polygon class="st2" points="251.92,86.235 252.164,76.122 244.191,76.122 240.938,94.463 303.811,87.459 	"/>
	<polygon class="st3" points="252.539,60.539 138.503,60.539 138.503,76.122 252.164,76.122 	"/>
	<rect x="138.503" y="99.463" class="st3" width="139.499" height="15.584"/>
	<rect x="138.503" y="138.387" class="st3" width="139.499" height="15.584"/>
	<rect x="138.503" y="177.311" class="st3" width="139.499" height="15.583"/>
	<rect x="138.503" y="216.234" class="st3" width="139.499" height="15.584"/>
	<polygon class="st1" points="252.539,60.539 252.164,76.122 251.92,86.235 303.811,87.459 253.414,24.146 	"/>
</g>
</svg>
