<?xml version="1.0" encoding="utf-8"?>
<!-- Generator: Adobe Illustrator 15.0.0, SVG Export Plug-In . SVG Version: 6.00 Build 0)  -->
<!DOCTYPE svg PUBLIC "-//W3C//DTD SVG 1.1//EN" "http://www.w3.org/Graphics/SVG/1.1/DTD/svg11.dtd">
<svg version="1.1" id="レイヤー_1" xmlns="http://www.w3.org/2000/svg" xmlns:xlink="http://www.w3.org/1999/xlink" x="0px"
	 y="0px" width="400px" height="300px" viewBox="0 0 400 300" style="enable-background:new 0 0 400 300;" xml:space="preserve">
<style type="text/css">
<![CDATA[
	.st0{fill:#4DAA4D;}
	.st1{fill:#53A9EA;}
	.st2{fill:#FF7517;}
	.st3{fill:#FFFFFF;}
	.st4{fill:#303030;}
	.st5{fill:#6FBEEF;}
	.st6{fill:#DBDBDB;}
	.st7{fill:#A9B8BF;}
]]>
</style>
<g>
	<path class="st7" d="M190.816,231.418h-28.855c-9.178,0-16.618,7.442-16.618,16.618h113.561c0-9.178-7.44-16.618-16.618-16.618
		h-28.855v-19.727h-22.614V231.418z"/>
	<path class="st4" d="M338.643,7.065H65.601c-1.311,0-2.372,1.046-2.372,2.342v199.948c0,1.29,1.062,2.334,2.372,2.334
		l125.215,0.002h22.614h125.212c1.31,0,2.376-1.046,2.376-2.336V9.407C341.019,8.111,339.952,7.065,338.643,7.065z M199.585,10.709
		c4.024,0,7.287,3.262,7.287,7.287c0,4.023-3.263,7.285-7.287,7.285c-4.025,0-7.286-3.262-7.286-7.285
		C192.3,13.972,195.56,10.709,199.585,10.709z M293.093,208.047c-2.514,0-4.553-2.037-4.553-4.553c0-2.515,2.039-4.554,4.553-4.554
		c2.517,0,4.556,2.039,4.556,4.554C297.648,206.01,295.609,208.047,293.093,208.047z M311.006,208.047
		c-2.515,0-4.554-2.037-4.554-4.553c0-2.515,2.039-4.554,4.554-4.554c2.516,0,4.556,2.039,4.556,4.554
		C315.562,206.01,313.521,208.047,311.006,208.047z M327.168,193.771L77.08,193.769V29.651h250.088V193.771z"/>
	<polygon class="st1" points="292.446,170.484 106.868,170.484 106.868,112.316 77.08,112.316 77.08,193.769 327.168,193.771 
		327.168,112.316 292.446,112.316 	"/>
	<polygon class="st5" points="77.08,112.316 106.868,112.316 106.868,48.611 292.446,48.611 292.446,112.316 327.168,112.316 
		327.168,29.651 77.08,29.651 	"/>
	<path class="st3" d="M292.446,170.484V48.611H106.868v121.873H292.446z M275.665,153.355H113.662v-10.79h162.003V153.355z
		 M275.665,133.966H113.662v-10.79l162.003-0.001V133.966z M216.463,66.272h55.396v41.547h-55.396V66.272z M117.817,78.86h84.447
		v14.245h-84.447V78.86z"/>
	<rect x="117.817" y="78.86" class="st7" width="84.447" height="14.245"/>
	<rect x="113.662" y="123.176" class="st7" width="162.003" height="10.791"/>
	<rect x="113.662" y="142.565" class="st7" width="162.003" height="10.79"/>
	<rect x="216.463" y="66.272" class="st7" width="55.396" height="41.547"/>
	<path class="st6" d="M325.908,262.702c-2.526-4.208-7.714-7.498-11.674-7.498l-229.48,0.002c-3.961,0-9.147,3.288-11.675,7.496
		L60.78,283.178c-3.176,5.288-2.054,9.758,2.644,9.758h272.144c4.697,0,5.821-4.47,2.643-9.758L325.908,262.702z M301.916,262.7
		h6.29c2.315,0,4.192,1.877,4.192,4.192c0,2.316-1.877,4.193-4.192,4.193h-6.29c-2.315,0-4.192-1.877-4.192-4.193
		C297.724,264.577,299.601,262.7,301.916,262.7z M277.327,262.7h12.295c2.315,0,4.192,1.877,4.192,4.192
		c0,2.316-1.877,4.193-4.192,4.193h-12.295c-2.315,0-4.192-1.877-4.192-4.193C273.135,264.577,275.012,262.7,277.327,262.7z
		 M252.738,262.7h12.295c2.315,0,4.192,1.877,4.192,4.192c0,2.316-1.877,4.193-4.192,4.193h-12.295
		c-2.315,0-4.193-1.877-4.193-4.193C248.545,264.577,250.423,262.7,252.738,262.7z M228.149,262.7h12.295
		c2.315,0,4.192,1.877,4.192,4.192c0,2.316-1.877,4.193-4.192,4.193h-12.295c-2.315,0-4.193-1.877-4.193-4.193
		C223.956,264.577,225.834,262.7,228.149,262.7z M203.562,262.7h12.293c2.316,0,4.193,1.877,4.193,4.192
		c0,2.316-1.877,4.193-4.193,4.193h-12.293c-2.315,0-4.193-1.877-4.193-4.193C199.368,264.577,201.246,262.7,203.562,262.7z
		 M178.972,262.7h12.295c2.315,0,4.193,1.877,4.193,4.192c0,2.316-1.877,4.193-4.193,4.193h-12.295
		c-2.315,0-4.193-1.877-4.193-4.193C174.779,264.577,176.656,262.7,178.972,262.7z M154.383,262.7h12.294
		c2.316,0,4.193,1.877,4.193,4.192c0,2.316-1.877,4.193-4.193,4.193h-12.294c-2.315,0-4.193-1.877-4.193-4.193
		C150.19,264.577,152.068,262.7,154.383,262.7z M129.794,262.7h12.294c2.315,0,4.193,1.877,4.193,4.192
		c0,2.316-1.877,4.193-4.193,4.193h-12.294c-2.315,0-4.193-1.877-4.193-4.193C125.602,264.577,127.479,262.7,129.794,262.7z
		 M105.206,262.7H117.5c2.315,0,4.193,1.877,4.193,4.192c0,2.316-1.877,4.193-4.193,4.193h-12.294c-2.316,0-4.193-1.877-4.193-4.193
		C101.012,264.577,102.89,262.7,105.206,262.7z M86.622,262.7h6.29c2.315,0,4.193,1.877,4.193,4.192
		c0,2.316-1.877,4.193-4.193,4.193h-6.29c-2.316,0-4.193-1.877-4.193-4.193C82.428,264.577,84.306,262.7,86.622,262.7z
		 M82.548,283.837h-6.29c-2.316,0-4.193-1.877-4.193-4.193c0-2.315,1.877-4.192,4.193-4.192h6.29c2.315,0,4.193,1.877,4.193,4.192
		C86.741,281.96,84.864,283.837,82.548,283.837z M106.731,283.837H94.64c-2.316,0-4.193-1.877-4.193-4.193
		c0-2.315,1.877-4.192,4.193-4.192h12.091c2.315,0,4.193,1.877,4.193,4.192C110.924,281.96,109.046,283.837,106.731,283.837z
		 M130.913,283.837h-12.091c-2.315,0-4.193-1.877-4.193-4.193c0-2.315,1.877-4.192,4.193-4.192h12.091
		c2.316,0,4.193,1.877,4.193,4.192C135.106,281.96,133.229,283.837,130.913,283.837z M155.095,283.837h-12.091
		c-2.315,0-4.193-1.877-4.193-4.193c0-2.315,1.877-4.192,4.193-4.192h12.091c2.316,0,4.193,1.877,4.193,4.192
		C159.289,281.96,157.411,283.837,155.095,283.837z M179.278,283.837h-12.091c-2.315,0-4.193-1.877-4.193-4.193
		c0-2.315,1.877-4.192,4.193-4.192h12.091c2.316,0,4.193,1.877,4.193,4.192C183.471,281.96,181.594,283.837,179.278,283.837z
		 M203.46,283.837h-12.091c-2.315,0-4.193-1.877-4.193-4.193c0-2.315,1.877-4.192,4.193-4.192h12.091
		c2.315,0,4.193,1.877,4.193,4.192C207.653,281.96,205.775,283.837,203.46,283.837z M227.643,283.837h-12.091
		c-2.315,0-4.193-1.877-4.193-4.193c0-2.315,1.878-4.192,4.193-4.192h12.091c2.315,0,4.193,1.877,4.193,4.192
		C231.836,281.96,229.958,283.837,227.643,283.837z M251.825,283.837h-12.091c-2.315,0-4.193-1.877-4.193-4.193
		c0-2.315,1.878-4.192,4.193-4.192h12.091c2.315,0,4.193,1.877,4.193,4.192C256.019,281.96,254.141,283.837,251.825,283.837z
		 M276.008,283.837h-12.092c-2.315,0-4.193-1.877-4.193-4.193c0-2.315,1.878-4.192,4.193-4.192h12.092
		c2.315,0,4.193,1.877,4.193,4.192C280.201,281.96,278.323,283.837,276.008,283.837z M300.19,283.837h-12.092
		c-2.315,0-4.193-1.877-4.193-4.193c0-2.315,1.878-4.192,4.193-4.192h12.092c2.315,0,4.193,1.877,4.193,4.192
		C304.384,281.96,302.506,283.837,300.19,283.837z M318.57,283.837h-6.289c-2.315,0-4.193-1.877-4.193-4.193
		c0-2.315,1.878-4.192,4.193-4.192h6.289c2.316,0,4.193,1.877,4.193,4.192C322.764,281.96,320.887,283.837,318.57,283.837z"/>
	<path class="st7" d="M82.548,275.451h-6.29c-2.316,0-4.193,1.877-4.193,4.192c0,2.316,1.877,4.193,4.193,4.193h6.29
		c2.315,0,4.193-1.877,4.193-4.193C86.741,277.328,84.864,275.451,82.548,275.451z"/>
	<path class="st7" d="M276.008,275.451h-12.092c-2.315,0-4.193,1.877-4.193,4.192c0,2.316,1.878,4.193,4.193,4.193h12.092
		c2.315,0,4.193-1.877,4.193-4.193C280.201,277.328,278.323,275.451,276.008,275.451z"/>
	<path class="st7" d="M227.643,275.451h-12.091c-2.315,0-4.193,1.877-4.193,4.192c0,2.316,1.878,4.193,4.193,4.193h12.091
		c2.315,0,4.193-1.877,4.193-4.193C231.836,277.328,229.958,275.451,227.643,275.451z"/>
	<path class="st7" d="M203.46,275.451h-12.091c-2.315,0-4.193,1.877-4.193,4.192c0,2.316,1.877,4.193,4.193,4.193h12.091
		c2.315,0,4.193-1.877,4.193-4.193C207.653,277.328,205.775,275.451,203.46,275.451z"/>
	<path class="st7" d="M155.095,275.451h-12.091c-2.315,0-4.193,1.877-4.193,4.192c0,2.316,1.877,4.193,4.193,4.193h12.091
		c2.316,0,4.193-1.877,4.193-4.193C159.289,277.328,157.411,275.451,155.095,275.451z"/>
	<path class="st7" d="M251.825,275.451h-12.091c-2.315,0-4.193,1.877-4.193,4.192c0,2.316,1.878,4.193,4.193,4.193h12.091
		c2.315,0,4.193-1.877,4.193-4.193C256.019,277.328,254.141,275.451,251.825,275.451z"/>
	<path class="st7" d="M179.278,275.451h-12.091c-2.315,0-4.193,1.877-4.193,4.192c0,2.316,1.877,4.193,4.193,4.193h12.091
		c2.316,0,4.193-1.877,4.193-4.193C183.471,277.328,181.594,275.451,179.278,275.451z"/>
	<path class="st7" d="M106.731,275.451H94.64c-2.316,0-4.193,1.877-4.193,4.192c0,2.316,1.877,4.193,4.193,4.193h12.091
		c2.315,0,4.193-1.877,4.193-4.193C110.924,277.328,109.046,275.451,106.731,275.451z"/>
	<path class="st7" d="M130.913,275.451h-12.091c-2.315,0-4.193,1.877-4.193,4.192c0,2.316,1.877,4.193,4.193,4.193h12.091
		c2.316,0,4.193-1.877,4.193-4.193C135.106,277.328,133.229,275.451,130.913,275.451z"/>
	<path class="st7" d="M300.19,275.451h-12.092c-2.315,0-4.193,1.877-4.193,4.192c0,2.316,1.878,4.193,4.193,4.193h12.092
		c2.315,0,4.193-1.877,4.193-4.193C304.384,277.328,302.506,275.451,300.19,275.451z"/>
	<path class="st7" d="M318.57,275.451h-6.289c-2.315,0-4.193,1.877-4.193,4.192c0,2.316,1.878,4.193,4.193,4.193h6.289
		c2.316,0,4.193-1.877,4.193-4.193C322.764,277.328,320.887,275.451,318.57,275.451z"/>
	<path class="st7" d="M86.622,271.086h6.29c2.315,0,4.193-1.877,4.193-4.193c0-2.315-1.877-4.192-4.193-4.192h-6.29
		c-2.316,0-4.193,1.877-4.193,4.192C82.428,269.209,84.306,271.086,86.622,271.086z"/>
	<path class="st7" d="M105.206,271.086H117.5c2.315,0,4.193-1.877,4.193-4.193c0-2.315-1.877-4.192-4.193-4.192h-12.294
		c-2.316,0-4.193,1.877-4.193,4.192C101.012,269.209,102.89,271.086,105.206,271.086z"/>
	<path class="st7" d="M203.562,271.086h12.293c2.316,0,4.193-1.877,4.193-4.193c0-2.315-1.877-4.192-4.193-4.192h-12.293
		c-2.315,0-4.193,1.877-4.193,4.192C199.368,269.209,201.246,271.086,203.562,271.086z"/>
	<path class="st7" d="M228.149,271.086h12.295c2.315,0,4.192-1.877,4.192-4.193c0-2.315-1.877-4.192-4.192-4.192h-12.295
		c-2.315,0-4.193,1.877-4.193,4.192C223.956,269.209,225.834,271.086,228.149,271.086z"/>
	<path class="st7" d="M277.327,271.086h12.295c2.315,0,4.192-1.877,4.192-4.193c0-2.315-1.877-4.192-4.192-4.192h-12.295
		c-2.315,0-4.192,1.877-4.192,4.192C273.135,269.209,275.012,271.086,277.327,271.086z"/>
	<path class="st7" d="M252.738,271.086h12.295c2.315,0,4.192-1.877,4.192-4.193c0-2.315-1.877-4.192-4.192-4.192h-12.295
		c-2.315,0-4.193,1.877-4.193,4.192C248.545,269.209,250.423,271.086,252.738,271.086z"/>
	<path class="st7" d="M178.972,271.086h12.295c2.315,0,4.193-1.877,4.193-4.193c0-2.315-1.877-4.192-4.193-4.192h-12.295
		c-2.315,0-4.193,1.877-4.193,4.192C174.779,269.209,176.656,271.086,178.972,271.086z"/>
	<path class="st7" d="M154.383,271.086h12.294c2.316,0,4.193-1.877,4.193-4.193c0-2.315-1.877-4.192-4.193-4.192h-12.294
		c-2.315,0-4.193,1.877-4.193,4.192C150.19,269.209,152.068,271.086,154.383,271.086z"/>
	<path class="st7" d="M129.794,271.086h12.294c2.315,0,4.193-1.877,4.193-4.193c0-2.315-1.877-4.192-4.193-4.192h-12.294
		c-2.315,0-4.193,1.877-4.193,4.192C125.602,269.209,127.479,271.086,129.794,271.086z"/>
	<path class="st7" d="M301.916,271.086h6.29c2.315,0,4.192-1.877,4.192-4.193c0-2.315-1.877-4.192-4.192-4.192h-6.29
		c-2.315,0-4.192,1.877-4.192,4.192C297.724,269.209,299.601,271.086,301.916,271.086z"/>
	<circle class="st6" cx="199.585" cy="17.995" r="7.286"/>
	<circle class="st2" cx="311.006" cy="203.494" r="4.553"/>
	<circle class="st0" cx="293.093" cy="203.494" r="4.553"/>
</g>
</svg>
