<?xml version="1.0" encoding="utf-8"?>
<!-- Generator: Adobe Illustrator 15.0.0, SVG Export Plug-In . SVG Version: 6.00 Build 0)  -->
<!DOCTYPE svg PUBLIC "-//W3C//DTD SVG 1.1//EN" "http://www.w3.org/Graphics/SVG/1.1/DTD/svg11.dtd">
<svg version="1.1" id="レイヤー_1" xmlns="http://www.w3.org/2000/svg" xmlns:xlink="http://www.w3.org/1999/xlink" x="0px"
	 y="0px" width="400px" height="300px" viewBox="0 0 400 300" style="enable-background:new 0 0 400 300;" xml:space="preserve">
<style type="text/css">
<![CDATA[
	.st0{fill:#53A9EA;}
	.st1{fill:#303030;}
	.st2{fill:#6FBEEF;}
	.st3{fill:#DAE2E5;}
	.st4{fill:#A9B8BF;}
]]>
</style>
<g>
	<path class="st4" d="M244.295,177.758c-2.377,3.151-4.962,6.196-7.806,9.086c-2.842,2.887-5.843,5.517-8.954,7.94l7.172,7.066
		l16.758-17.025L244.295,177.758z"/>
	<path class="st3" d="M244.295,177.758c26.928-35.702,23.915-86.664-8.799-118.901c-35.611-35.064-92.904-34.61-127.958,1.001
		c-35.062,35.632-34.62,92.904,0.991,127.968c32.727,32.222,83.738,34.442,119.006,6.959c3.111-2.424,6.112-5.054,8.954-7.94
		C239.333,183.954,241.918,180.909,244.295,177.758z M123.696,172.41c-12.771-12.571-19.593-28.903-20.449-45.497
		c-0.001-0.017,0-0.033-0.001-0.05c-0.055-1.076-0.086-2.152-0.09-3.229c0-0.053,0.002-0.104,0.002-0.157
		c-0.002-1.042,0.016-2.083,0.061-3.124c0.004-0.087,0.013-0.173,0.017-0.26c0.047-1.006,0.111-2.012,0.203-3.016
		c0.012-0.129,0.031-0.258,0.043-0.387c0.093-0.961,0.198-1.922,0.332-2.879c0.024-0.171,0.057-0.341,0.083-0.513
		c0.134-0.913,0.277-1.826,0.448-2.735c0.041-0.217,0.094-0.433,0.137-0.65c0.17-0.861,0.346-1.723,0.55-2.578
		c0.06-0.251,0.133-0.499,0.196-0.749c0.205-0.818,0.412-1.637,0.647-2.449c0.085-0.295,0.187-0.586,0.276-0.88
		c0.232-0.765,0.463-1.528,0.723-2.285c0.113-0.331,0.245-0.656,0.363-0.985c0.257-0.715,0.511-1.431,0.792-2.139
		c0.148-0.372,0.316-0.737,0.471-1.106c0.276-0.659,0.545-1.32,0.843-1.973c0.184-0.402,0.389-0.798,0.581-1.197
		c0.293-0.611,0.578-1.225,0.89-1.828c0.225-0.435,0.472-0.86,0.707-1.291c0.305-0.561,0.599-1.124,0.921-1.678
		c0.263-0.452,0.55-0.895,0.825-1.342c0.319-0.521,0.626-1.047,0.961-1.562c0.311-0.478,0.646-0.943,0.97-1.415
		c0.324-0.472,0.636-0.95,0.973-1.416c0.376-0.52,0.779-1.025,1.172-1.537c0.311-0.405,0.607-0.817,0.929-1.217
		c0.473-0.59,0.975-1.163,1.47-1.74c0.266-0.309,0.516-0.626,0.788-0.932c0.779-0.875,1.584-1.736,2.417-2.581
		c26.684-27.097,70.28-27.436,97.378-0.763c27.097,26.693,27.436,70.279,0.754,97.397C194.4,198.765,150.804,199.103,123.696,172.41
		z"/>
	<path class="st1" d="M313.734,236.361l-57.744-56.134l-4.525,4.598l-16.758,17.025l-4.516,4.588l57.735,56.133
		c5.215,5.14,12.59,6.086,16.466,2.152l11.742-11.925C320.021,248.844,318.952,241.482,313.734,236.361z"/>
	<path class="st0" d="M111.518,90.452c0.305-0.561,0.599-1.124,0.921-1.678C112.117,89.328,111.823,89.892,111.518,90.452z"/>
	<path class="st0" d="M109.921,93.571c0.293-0.611,0.578-1.225,0.89-1.828C110.499,92.347,110.214,92.96,109.921,93.571z"/>
	<path class="st0" d="M113.264,87.433c0.319-0.521,0.626-1.047,0.961-1.562C113.89,86.386,113.583,86.911,113.264,87.433z"/>
	<path class="st0" d="M117.339,81.503c0.311-0.405,0.607-0.817,0.929-1.217C117.946,80.686,117.649,81.098,117.339,81.503z"/>
	<path class="st0" d="M220.32,74.271c0.125,0.123,0.239,0.253,0.363,0.377l-97.368,97.368
		c-12.519-12.517-19.218-28.683-20.068-45.103c0.856,16.594,7.677,32.926,20.449,45.497c27.107,26.692,70.704,26.354,97.378-0.742
		C247.756,144.55,247.417,100.964,220.32,74.271z"/>
	<path class="st0" d="M119.738,78.546c0.266-0.309,0.516-0.626,0.788-0.932C120.254,77.92,120.003,78.237,119.738,78.546z"/>
	<path class="st0" d="M115.194,84.456c0.324-0.472,0.636-0.95,0.973-1.416C115.83,83.506,115.519,83.984,115.194,84.456z"/>
	<path class="st0" d="M107.235,99.986c0.257-0.715,0.511-1.431,0.792-2.139C107.746,98.556,107.492,99.271,107.235,99.986z"/>
	<path class="st0" d="M108.498,96.741c0.276-0.659,0.546-1.32,0.843-1.973C109.043,95.421,108.774,96.082,108.498,96.741z"/>
	<path class="st0" d="M103.158,123.477c-0.002-1.041,0.016-2.083,0.061-3.124C103.174,121.394,103.156,122.435,103.158,123.477z"/>
	<path class="st0" d="M103.236,120.093c0.047-1.006,0.111-2.012,0.203-3.016C103.347,118.081,103.283,119.087,103.236,120.093z"/>
	<path class="st0" d="M103.246,126.863c-0.055-1.076-0.086-2.152-0.09-3.229C103.16,124.711,103.191,125.787,103.246,126.863z"/>
	<path class="st0" d="M103.481,116.69c0.093-0.961,0.199-1.922,0.332-2.879C103.68,114.769,103.574,115.729,103.481,116.69z"/>
	<path class="st0" d="M103.896,113.299c0.134-0.913,0.277-1.826,0.448-2.735C104.172,111.473,104.029,112.386,103.896,113.299z"/>
	<path class="st0" d="M104.48,109.913c0.17-0.861,0.346-1.723,0.55-2.578C104.826,108.19,104.65,109.052,104.48,109.913z"/>
	<path class="st0" d="M105.226,106.586c0.205-0.818,0.412-1.637,0.647-2.449C105.637,104.949,105.43,105.768,105.226,106.586z"/>
	<path class="st0" d="M106.149,103.257c0.232-0.765,0.464-1.528,0.723-2.285C106.612,101.729,106.381,102.492,106.149,103.257z"/>
	<path class="st2" d="M220.684,74.647c-0.124-0.124-0.238-0.254-0.363-0.377c-27.098-26.673-70.694-26.334-97.378,0.763
		c-0.832,0.845-1.637,1.706-2.417,2.581c-0.272,0.306-0.522,0.623-0.788,0.932c-0.495,0.577-0.997,1.15-1.47,1.74
		c-0.321,0.399-0.618,0.812-0.929,1.217c-0.393,0.512-0.796,1.018-1.172,1.537c-0.337,0.466-0.648,0.944-0.973,1.416
		c-0.323,0.472-0.659,0.938-0.97,1.415c-0.334,0.515-0.642,1.04-0.961,1.562c-0.274,0.447-0.562,0.89-0.825,1.342
		c-0.322,0.554-0.616,1.117-0.921,1.678c-0.235,0.431-0.482,0.856-0.707,1.291c-0.312,0.604-0.597,1.217-0.89,1.828
		c-0.192,0.399-0.397,0.795-0.581,1.197c-0.297,0.652-0.567,1.313-0.843,1.973c-0.154,0.369-0.322,0.734-0.471,1.106
		c-0.281,0.708-0.535,1.424-0.792,2.139c-0.118,0.329-0.25,0.654-0.363,0.985c-0.259,0.757-0.491,1.521-0.723,2.285
		c-0.089,0.294-0.191,0.585-0.276,0.88c-0.235,0.812-0.442,1.631-0.647,2.449c-0.062,0.25-0.136,0.498-0.196,0.749
		c-0.204,0.855-0.379,1.717-0.55,2.578c-0.043,0.218-0.096,0.434-0.137,0.65c-0.171,0.909-0.314,1.822-0.448,2.735
		c-0.025,0.172-0.059,0.342-0.083,0.513c-0.133,0.957-0.239,1.918-0.332,2.879c-0.012,0.129-0.031,0.258-0.043,0.387
		c-0.091,1.004-0.155,2.01-0.203,3.016c-0.004,0.087-0.013,0.173-0.017,0.26c-0.045,1.041-0.063,2.083-0.061,3.124
		c0,0.053-0.003,0.104-0.002,0.157c0.004,1.077,0.035,2.153,0.09,3.229c0.001,0.017,0,0.033,0.001,0.05
		c0.85,16.42,7.549,32.586,20.068,45.103L220.684,74.647z"/>
</g>
</svg>
