<?xml version="1.0" encoding="utf-8"?>
<!-- Generator: Adobe Illustrator 15.0.0, SVG Export Plug-In . SVG Version: 6.00 Build 0)  -->
<!DOCTYPE svg PUBLIC "-//W3C//DTD SVG 1.1//EN" "http://www.w3.org/Graphics/SVG/1.1/DTD/svg11.dtd">
<svg version="1.1" id="レイヤー_1" xmlns="http://www.w3.org/2000/svg" xmlns:xlink="http://www.w3.org/1999/xlink" x="0px"
	 y="0px" width="400px" height="300px" viewBox="0 0 400 300" style="enable-background:new 0 0 400 300;" xml:space="preserve">
<style type="text/css">
<![CDATA[
	.st0{fill:#868E91;}
	.st1{fill:#53A9EA;}
	.st2{fill:#303030;}
	.st3{fill:#6FBEEF;}
	.st4{fill:#A9B8BF;}
]]>
</style>
<g>
	<path class="st2" d="M262.965,10.952h-125.93c-10.867,0-19.677,8.81-19.677,19.677v238.742c0,10.867,8.81,19.677,19.677,19.677
		h125.93c10.867,0,19.677-8.81,19.677-19.677V30.629C282.642,19.762,273.832,10.952,262.965,10.952z M158.679,26.694h76.083
		c2.174,0,3.935,1.761,3.935,3.935s-1.761,3.935-3.935,3.935h-76.083c-2.173,0-3.936-1.761-3.936-3.935
		S156.506,26.694,158.679,26.694z M198.374,283.474c-10.143,0-18.365-8.223-18.365-18.364c0-10.143,8.223-18.365,18.365-18.365
		s18.364,8.223,18.364,18.365C216.738,275.251,208.517,283.474,198.374,283.474z M272.804,233.953H127.197V50.306h145.607V233.953z"
		/>
	<circle class="st4" cx="198.374" cy="265.109" r="18.365"/>
	<path class="st0" d="M158.679,34.563h76.083c2.174,0,3.935-1.761,3.935-3.935s-1.761-3.935-3.935-3.935h-76.083
		c-2.173,0-3.936,1.761-3.936,3.935S156.506,34.563,158.679,34.563z"/>
	<polygon class="st3" points="127.197,230.602 272.804,52.638 272.804,50.306 127.197,50.306 	"/>
	<polygon class="st1" points="127.197,233.953 272.804,233.953 272.804,52.638 127.197,230.602 	"/>
</g>
</svg>
