<?xml version="1.0" encoding="utf-8"?>
<!-- Generator: Adobe Illustrator 15.0.0, SVG Export Plug-In . SVG Version: 6.00 Build 0)  -->
<!DOCTYPE svg PUBLIC "-//W3C//DTD SVG 1.1//EN" "http://www.w3.org/Graphics/SVG/1.1/DTD/svg11.dtd">
<svg version="1.1" id="レイヤー_1" xmlns="http://www.w3.org/2000/svg" xmlns:xlink="http://www.w3.org/1999/xlink" x="0px"
	 y="0px" width="400px" height="300px" viewBox="0 0 400 300" style="enable-background:new 0 0 400 300;" xml:space="preserve">
<style type="text/css">
<![CDATA[
	.st0{fill:#4DAA4D;}
	.st1{fill:#53A9EA;}
	.st2{fill:#563F36;}
	.st3{fill:#F5C8A3;}
	.st4{fill:#FF7517;}
	.st5{fill:#FFFFFF;}
]]>
</style>
<g>
	<path class="st0" d="M268.356,178.035c-8.812-10.008-14.169-23.133-14.169-37.516c0-3.476,0.329-6.872,0.927-10.175l0,0v-0.001
		c0.872-4.817,2.347-9.422,4.352-13.735c-4.636-4.813-9.957-9.044-15.822-12.574c-3.349,3.803-7.194,7.155-11.44,9.952
		l-29.326,38.123l-29.279-35.822c-5.769-3.183-10.919-7.343-15.242-12.252c-6.443,3.878-12.23,8.604-17.173,14.015
		c0.095,0.22,0.189,0.44,0.282,0.662c0.128,0.309,0.245,0.622,0.368,0.933c0.212,0.535,0.425,1.069,0.621,1.612
		c0.104,0.288,0.196,0.582,0.295,0.873c0.196,0.573,0.394,1.146,0.572,1.727c0.077,0.251,0.143,0.508,0.216,0.761
		c0.183,0.629,0.366,1.257,0.528,1.895c0.042,0.166,0.076,0.336,0.116,0.502c1.056,4.33,1.628,8.849,1.628,13.504
		c0,14.382-5.355,27.507-14.167,37.515c14.843,8.934,26.198,22.386,31.778,38.255h73.158
		C242.159,200.421,253.514,186.969,268.356,178.035z"/>
	<path class="st5" d="M173.598,116.288l29.279,35.822l29.326-38.123c-8.957,5.9-19.676,9.343-31.204,9.343
		C191.062,123.33,181.725,120.771,173.598,116.288z"/>
	<path class="st3" d="M188.98,10.997c0.377-0.081,0.756-0.159,1.136-0.232C189.736,10.838,189.358,10.916,188.98,10.997z"/>
	<path class="st3" d="M197.314,9.843c0.304-0.02,0.606-0.047,0.913-0.062C197.921,9.796,197.619,9.823,197.314,9.843z"/>
	<path class="st3" d="M194.414,10.103c0.358-0.042,0.714-0.087,1.074-0.122C195.128,10.016,194.772,10.062,194.414,10.103z"/>
	<path class="st3" d="M191.662,10.488c0.373-0.062,0.746-0.124,1.121-0.178C192.408,10.365,192.035,10.426,191.662,10.488z"/>
	<path class="st3" d="M183.797,12.37c0.365-0.116,0.735-0.222,1.104-0.33C184.532,12.148,184.163,12.253,183.797,12.37z"/>
	<path class="st3" d="M186.36,11.625c0.375-0.1,0.753-0.192,1.131-0.285C187.113,11.433,186.735,11.525,186.36,11.625z"/>
	<path class="st3" d="M206.715,9.997c0.378,0.038,0.75,0.093,1.126,0.139C207.465,10.09,207.093,10.035,206.715,9.997z"/>
	<path class="st3" d="M214.975,11.448c0.411,0.104,0.816,0.223,1.225,0.336C215.791,11.671,215.386,11.552,214.975,11.448z"/>
	<path class="st3" d="M212.269,10.833c0.408,0.082,0.811,0.18,1.216,0.271C213.079,11.013,212.677,10.915,212.269,10.833z"/>
	<path class="st3" d="M209.515,10.348c0.397,0.06,0.789,0.136,1.183,0.205C210.303,10.484,209.912,10.408,209.515,10.348z"/>
	<path class="st3" d="M217.631,12.19c0.41,0.125,0.814,0.265,1.221,0.399C218.445,12.455,218.041,12.316,217.631,12.19z"/>
	<path class="st3" d="M203.876,9.784c0.319,0.016,0.634,0.049,0.952,0.07C204.51,9.833,204.195,9.8,203.876,9.784z"/>
	<path class="st3" d="M181.29,13.228c0.344-0.127,0.694-0.241,1.041-0.362C181.983,12.987,181.633,13.101,181.29,13.228z"/>
	<path class="st3" d="M153.276,35.717c0.403-0.623,0.817-1.237,1.243-1.842C154.093,34.48,153.679,35.094,153.276,35.717z"/>
	<path class="st3" d="M164.477,23.018c0.45-0.379,0.911-0.745,1.373-1.11C165.388,22.272,164.928,22.639,164.477,23.018z"/>
	<path class="st3" d="M154.677,33.653c0.426-0.6,0.862-1.192,1.311-1.775C155.539,32.46,155.103,33.053,154.677,33.653z"/>
	<path class="st3" d="M151.948,37.871c0.391-0.668,0.797-1.327,1.214-1.977C152.745,36.544,152.34,37.202,151.948,37.871z"/>
	<path class="st3" d="M145.115,56.341c1.2-6.627,3.548-12.854,6.831-18.467C148.661,43.487,146.315,49.713,145.115,56.341z"/>
	<path class="st3" d="M164.078,23.363c-2.925,2.504-5.59,5.299-7.955,8.342C158.486,28.662,161.155,25.868,164.078,23.363z"/>
	<path class="st3" d="M166.495,21.4c0.432-0.331,0.871-0.652,1.312-0.971C167.365,20.748,166.927,21.07,166.495,21.4z"/>
	<path class="st3" d="M178.013,14.57c0.542-0.24,1.089-0.473,1.64-0.697C179.102,14.097,178.555,14.33,178.013,14.57z"/>
	<path class="st3" d="M175.362,15.829c0.4-0.203,0.797-0.41,1.202-0.604C176.159,15.419,175.762,15.626,175.362,15.829z"/>
	<path class="st3" d="M173.013,17.089c0.415-0.235,0.829-0.472,1.25-0.697C173.841,16.618,173.427,16.854,173.013,17.089z"/>
	<path class="st3" d="M168.592,19.872c0.423-0.295,0.851-0.584,1.283-0.868C169.443,19.288,169.016,19.577,168.592,19.872z"/>
	<path class="st3" d="M170.763,18.435c0.419-0.265,0.841-0.526,1.268-0.78C171.604,17.908,171.183,18.17,170.763,18.435z"/>
	<path class="st3" d="M247.52,33.931c0.289,0.412,0.577,0.825,0.855,1.245C248.097,34.756,247.809,34.343,247.52,33.931z"/>
	<path class="st3" d="M250.375,38.437c0.26,0.455,0.52,0.91,0.767,1.374C250.895,39.347,250.635,38.892,250.375,38.437z"/>
	<path class="st3" d="M251.641,40.784c0.244,0.48,0.489,0.959,0.721,1.447C252.13,41.743,251.885,41.264,251.641,40.784z"/>
	<path class="st3" d="M249,36.15c0.274,0.433,0.549,0.867,0.812,1.308C249.549,37.017,249.274,36.583,249,36.15z"/>
	<path class="st3" d="M244.258,29.716c0.315,0.371,0.63,0.743,0.936,1.122C244.887,30.459,244.573,30.087,244.258,29.716z"/>
	<path class="st3" d="M245.938,31.785c0.303,0.392,0.604,0.784,0.897,1.184C246.542,32.569,246.24,32.176,245.938,31.785z"/>
	<path class="st3" d="M252.793,43.187c0.229,0.506,0.459,1.012,0.673,1.526C253.252,44.199,253.021,43.693,252.793,43.187z"/>
	<path class="st3" d="M220.231,13.056c0.408,0.147,0.811,0.306,1.214,0.462C221.042,13.362,220.64,13.203,220.231,13.056z"/>
	<path class="st3" d="M255.536,50.616c0.184,0.63,0.367,1.259,0.529,1.898C255.903,51.875,255.72,51.246,255.536,50.616z"/>
	<path class="st3" d="M254.748,48.127c0.196,0.574,0.395,1.148,0.573,1.73C255.143,49.275,254.944,48.702,254.748,48.127z"/>
	<path class="st3" d="M253.832,45.643c0.212,0.536,0.426,1.071,0.622,1.615C254.258,46.713,254.044,46.179,253.832,45.643z"/>
	<path class="st3" d="M227.672,16.359c0.393,0.209,0.779,0.427,1.168,0.646C228.451,16.787,228.064,16.568,227.672,16.359z"/>
	<path class="st3" d="M230.019,17.683c0.387,0.23,0.769,0.468,1.148,0.708C230.787,18.151,230.405,17.914,230.019,17.683z"/>
	<path class="st3" d="M232.294,19.113c0.379,0.25,0.753,0.508,1.125,0.767C233.047,19.621,232.673,19.363,232.294,19.113z"/>
	<path class="st3" d="M225.256,15.144c0.398,0.188,0.791,0.387,1.186,0.585C226.047,15.531,225.654,15.333,225.256,15.144z"/>
	<path class="st3" d="M234.496,20.646c0.37,0.271,0.735,0.547,1.098,0.826C235.231,21.192,234.866,20.916,234.496,20.646z"/>
	<path class="st3" d="M222.773,14.042c0.404,0.168,0.804,0.348,1.203,0.525C223.577,14.389,223.178,14.21,222.773,14.042z"/>
	<path class="st3" d="M242.483,27.727c0.327,0.35,0.652,0.703,0.971,1.061C243.136,28.43,242.811,28.077,242.483,27.727z"/>
	<path class="st3" d="M240.615,25.821c0.339,0.33,0.675,0.664,1.006,1.002C241.29,26.484,240.954,26.151,240.615,25.821z"/>
	<path class="st3" d="M236.619,22.277c0.359,0.291,0.716,0.585,1.068,0.884C237.335,22.862,236.979,22.567,236.619,22.277z"/>
	<path class="st3" d="M238.659,24.003c0.351,0.311,0.697,0.625,1.04,0.944C239.356,24.628,239.01,24.314,238.659,24.003z"/>
	<path class="st3" d="M173.598,116.288c8.126,4.484,17.464,7.042,27.401,7.042c11.528,0,22.247-3.443,31.204-9.343
		c4.246-2.797,8.092-6.149,11.44-9.952c8.811-10.008,14.166-23.132,14.166-37.514c0-4.656-0.572-9.176-1.629-13.507
		c0.823,3.374,1.354,6.862,1.544,10.442c-12.603-6.767-24.687-16.846-34.835-29.806c-0.802,1.473-1.66,2.921-2.629,4.318
		c-14.631,21.105-44.504,27.312-75.146,18.377c-0.598,3.303-0.927,6.7-0.927,10.175c0,14.382,5.356,27.507,14.169,37.515
		C162.679,108.944,167.829,113.104,173.598,116.288z"/>
	<path class="st2" d="M220.261,37.968c0.969-1.397,1.827-2.846,2.629-4.318c10.148,12.96,22.232,23.039,34.835,29.806
		c-0.19-3.58-0.721-7.068-1.544-10.442c-0.041-0.166-0.073-0.334-0.115-0.5c-0.162-0.639-0.346-1.268-0.529-1.898
		c-0.073-0.252-0.139-0.508-0.215-0.758c-0.179-0.582-0.377-1.156-0.573-1.73c-0.099-0.29-0.19-0.583-0.294-0.87
		c-0.196-0.544-0.41-1.079-0.622-1.615c-0.122-0.31-0.238-0.623-0.366-0.93c-0.214-0.514-0.444-1.02-0.673-1.526
		c-0.144-0.319-0.282-0.64-0.432-0.956c-0.231-0.488-0.477-0.967-0.721-1.447c-0.166-0.325-0.327-0.652-0.499-0.974
		c-0.247-0.463-0.507-0.918-0.767-1.374c-0.187-0.327-0.37-0.656-0.562-0.979c-0.264-0.441-0.538-0.875-0.812-1.308
		c-0.207-0.326-0.411-0.653-0.625-0.974c-0.278-0.42-0.566-0.833-0.855-1.245c-0.227-0.322-0.452-0.645-0.685-0.963
		c-0.293-0.399-0.595-0.792-0.897-1.184c-0.246-0.318-0.492-0.635-0.744-0.947c-0.306-0.379-0.62-0.751-0.936-1.122
		c-0.266-0.312-0.532-0.622-0.804-0.928c-0.318-0.358-0.644-0.711-0.971-1.061c-0.285-0.304-0.571-0.606-0.862-0.904
		c-0.331-0.339-0.667-0.672-1.006-1.002c-0.303-0.294-0.607-0.586-0.916-0.874c-0.343-0.319-0.689-0.633-1.04-0.944
		c-0.32-0.285-0.645-0.565-0.972-0.842c-0.353-0.299-0.709-0.594-1.068-0.884c-0.339-0.272-0.681-0.54-1.025-0.805
		c-0.362-0.279-0.728-0.556-1.098-0.826c-0.355-0.26-0.715-0.514-1.077-0.766c-0.372-0.259-0.746-0.517-1.125-0.767
		c-0.372-0.246-0.749-0.485-1.127-0.722c-0.38-0.239-0.762-0.477-1.148-0.708c-0.39-0.232-0.784-0.456-1.179-0.678
		c-0.389-0.218-0.775-0.437-1.168-0.646c-0.406-0.217-0.818-0.424-1.23-0.63c-0.395-0.198-0.787-0.396-1.186-0.585
		c-0.423-0.2-0.852-0.388-1.279-0.578c-0.399-0.177-0.799-0.356-1.203-0.525c-0.438-0.182-0.883-0.352-1.328-0.523
		c-0.403-0.156-0.806-0.315-1.214-0.462c-0.456-0.164-0.919-0.314-1.38-0.467c-0.406-0.134-0.811-0.273-1.221-0.399
		c-0.474-0.145-0.953-0.274-1.432-0.406c-0.408-0.113-0.813-0.232-1.225-0.336c-0.493-0.125-0.992-0.232-1.49-0.344
		c-0.405-0.091-0.808-0.189-1.216-0.271c-0.52-0.104-1.046-0.19-1.571-0.28c-0.394-0.068-0.785-0.145-1.183-0.205
		c-0.554-0.083-1.114-0.146-1.674-0.212c-0.376-0.045-0.748-0.101-1.126-0.139c-0.625-0.062-1.257-0.102-1.887-0.144
		c-0.318-0.021-0.633-0.054-0.952-0.07c-0.953-0.047-1.912-0.073-2.877-0.073c-0.93,0-1.854,0.026-2.772,0.07
		c-0.306,0.015-0.608,0.042-0.913,0.062c-0.611,0.039-1.221,0.081-1.826,0.139c-0.36,0.035-0.716,0.08-1.074,0.122
		c-0.545,0.063-1.09,0.129-1.631,0.207c-0.375,0.055-0.749,0.116-1.121,0.178c-0.518,0.085-1.033,0.176-1.546,0.276
		c-0.38,0.074-0.759,0.151-1.136,0.232c-0.499,0.108-0.995,0.223-1.489,0.344c-0.378,0.092-0.756,0.185-1.131,0.285
		c-0.49,0.13-0.975,0.271-1.459,0.415c-0.369,0.108-0.738,0.214-1.104,0.33c-0.493,0.157-0.98,0.327-1.467,0.497
		c-0.347,0.121-0.697,0.234-1.041,0.362c-0.551,0.204-1.094,0.425-1.637,0.645c-0.551,0.224-1.098,0.457-1.64,0.697
		c-0.485,0.215-0.971,0.427-1.449,0.655c-0.405,0.193-0.802,0.401-1.202,0.604c-0.368,0.187-0.737,0.369-1.1,0.563
		c-0.421,0.225-0.835,0.461-1.25,0.697c-0.329,0.187-0.658,0.372-0.982,0.565c-0.427,0.254-0.849,0.516-1.268,0.78
		c-0.298,0.188-0.594,0.376-0.888,0.569c-0.432,0.284-0.86,0.573-1.283,0.868c-0.264,0.184-0.525,0.37-0.785,0.558
		c-0.441,0.318-0.88,0.64-1.312,0.971c-0.217,0.167-0.43,0.338-0.645,0.507c-0.462,0.365-0.923,0.731-1.373,1.11
		c-0.135,0.113-0.265,0.231-0.399,0.346c-2.923,2.505-5.592,5.298-7.955,8.342c-0.045,0.058-0.091,0.115-0.136,0.173
		c-0.448,0.583-0.884,1.175-1.311,1.775c-0.053,0.074-0.105,0.147-0.158,0.222c-0.426,0.605-0.84,1.219-1.243,1.842
		c-0.038,0.059-0.075,0.118-0.113,0.177c-0.417,0.65-0.823,1.309-1.214,1.977c0,0.001-0.001,0.002-0.002,0.003
		c-3.283,5.613-5.631,11.84-6.831,18.467c0,0.001-0.001,0.002-0.001,0.004l0,0C175.757,65.28,205.63,59.073,220.261,37.968z"/>
	<path class="st1" d="M353.643,178.034c-3.349,3.804-7.194,7.155-11.441,9.953l-29.324,38.122l-29.278-35.821
		c-5.769-3.183-10.92-7.343-15.242-12.253c-14.843,8.934-26.197,22.386-31.777,38.254c-2.478,7.042-3.832,14.552-3.832,22.357
		v51.643h156.506v-51.643C389.253,213.253,375.073,190.933,353.643,178.034z"/>
	<path class="st5" d="M283.599,190.288l29.278,35.821l29.324-38.122c-8.956,5.899-19.675,9.343-31.202,9.343
		C301.062,197.33,291.726,194.771,283.599,190.288z"/>
	<path class="st3" d="M316.715,83.997c0.378,0.038,0.75,0.093,1.126,0.139C317.465,84.09,317.093,84.035,316.715,83.997z"/>
	<path class="st3" d="M361.641,114.784c0.244,0.479,0.489,0.958,0.721,1.446C362.13,115.743,361.885,115.264,361.641,114.784z"/>
	<path class="st3" d="M357.52,107.931c0.289,0.412,0.577,0.825,0.855,1.245C358.097,108.755,357.809,108.343,357.52,107.931z"/>
	<path class="st3" d="M278.592,93.872c0.424-0.295,0.852-0.584,1.283-0.868C279.442,93.288,279.016,93.577,278.592,93.872z"/>
	<path class="st3" d="M322.269,84.833c0.408,0.082,0.811,0.18,1.215,0.271C323.079,85.013,322.677,84.915,322.269,84.833z"/>
	<path class="st3" d="M319.515,84.348c0.397,0.06,0.789,0.136,1.184,0.205C320.304,84.484,319.912,84.408,319.515,84.348z"/>
	<path class="st3" d="M296.359,85.625c0.375-0.1,0.754-0.192,1.132-0.285C297.113,85.433,296.735,85.525,296.359,85.625z"/>
	<path class="st3" d="M355.938,105.786c0.303,0.391,0.604,0.784,0.896,1.183C356.542,106.569,356.241,106.177,355.938,105.786z"/>
	<path class="st3" d="M298.98,84.997c0.377-0.081,0.756-0.159,1.136-0.232C299.736,84.838,299.357,84.916,298.98,84.997z"/>
	<path class="st3" d="M360.376,112.438c0.259,0.455,0.519,0.91,0.766,1.372C360.895,113.347,360.635,112.893,360.376,112.438z"/>
	<path class="st3" d="M301.662,84.488c0.373-0.062,0.745-0.124,1.121-0.178C302.407,84.365,302.035,84.426,301.662,84.488z"/>
	<path class="st3" d="M362.794,117.189c0.229,0.505,0.458,1.01,0.672,1.523C363.252,118.199,363.022,117.694,362.794,117.189z"/>
	<path class="st3" d="M359,110.15c0.274,0.433,0.549,0.866,0.812,1.307C359.549,111.016,359.274,110.583,359,110.15z"/>
	<path class="st3" d="M363.833,119.645c0.212,0.535,0.425,1.069,0.62,1.612C364.258,120.714,364.045,120.18,363.833,119.645z"/>
	<path class="st3" d="M307.314,83.843c0.305-0.02,0.606-0.047,0.912-0.062C307.921,83.796,307.619,83.823,307.314,83.843z"/>
	<path class="st3" d="M304.414,84.103c0.358-0.042,0.715-0.087,1.074-0.122C305.129,84.016,304.772,84.062,304.414,84.103z"/>
	<path class="st3" d="M352.483,101.727c0.327,0.35,0.652,0.703,0.971,1.061C353.136,102.43,352.811,102.077,352.483,101.727z"/>
	<path class="st3" d="M342.296,93.114c0.378,0.25,0.751,0.507,1.123,0.766C343.047,93.621,342.674,93.364,342.296,93.114z"/>
	<path class="st3" d="M332.89,107.649c-0.802,1.473-1.66,2.921-2.629,4.318c-14.631,21.105-44.504,27.312-75.146,18.377
		c-0.598,3.303-0.927,6.699-0.927,10.175c0,14.383,5.356,27.508,14.169,37.516c4.322,4.91,9.474,9.07,15.242,12.253
		c8.127,4.483,17.464,7.042,27.4,7.042c11.527,0,22.246-3.443,31.202-9.343c4.247-2.798,8.093-6.149,11.441-9.953
		c8.812-10.008,14.167-23.133,14.167-37.515c0-4.655-0.572-9.174-1.629-13.504c0.823,3.373,1.354,6.861,1.544,10.439
		C355.122,130.688,343.038,120.61,332.89,107.649z"/>
	<path class="st3" d="M340.019,91.683c0.386,0.23,0.767,0.467,1.147,0.706C340.785,92.15,340.405,91.913,340.019,91.683z"/>
	<path class="st3" d="M350.615,99.821c0.339,0.33,0.675,0.664,1.006,1.002C351.29,100.484,350.954,100.151,350.615,99.821z"/>
	<path class="st3" d="M348.659,98.003c0.351,0.311,0.697,0.625,1.04,0.944C349.356,98.628,349.01,98.314,348.659,98.003z"/>
	<path class="st3" d="M337.67,90.358c0.395,0.21,0.782,0.429,1.171,0.647C338.452,90.787,338.064,90.568,337.67,90.358z"/>
	<path class="st3" d="M344.496,94.646c0.369,0.271,0.734,0.547,1.098,0.826C345.23,95.192,344.866,94.916,344.496,94.646z"/>
	<path class="st3" d="M365.537,124.618c0.183,0.629,0.366,1.257,0.528,1.895C365.903,125.875,365.72,125.247,365.537,124.618z"/>
	<path class="st3" d="M335.255,89.144c0.399,0.189,0.793,0.388,1.188,0.585C336.048,89.532,335.654,89.333,335.255,89.144z"/>
	<path class="st3" d="M330.231,87.056c0.408,0.147,0.811,0.306,1.215,0.462C331.042,87.362,330.64,87.203,330.231,87.056z"/>
	<path class="st3" d="M364.749,122.13c0.196,0.573,0.394,1.146,0.572,1.727C365.143,123.275,364.945,122.703,364.749,122.13z"/>
	<path class="st3" d="M327.63,86.19c0.411,0.125,0.817,0.265,1.225,0.4C328.447,86.456,328.041,86.316,327.63,86.19z"/>
	<path class="st3" d="M274.082,97.36c-2.927,2.506-5.595,5.302-7.961,8.348C268.486,102.662,271.156,99.866,274.082,97.36z"/>
	<path class="st3" d="M354.259,103.716c0.314,0.371,0.628,0.742,0.934,1.121C354.887,104.458,354.574,104.087,354.259,103.716z"/>
	<path class="st3" d="M324.975,85.448c0.412,0.104,0.818,0.223,1.227,0.336C325.793,85.671,325.387,85.552,324.975,85.448z"/>
	<path class="st3" d="M346.619,96.277c0.36,0.29,0.716,0.585,1.068,0.884C347.335,96.862,346.979,96.567,346.619,96.277z"/>
	<path class="st3" d="M332.773,88.042c0.405,0.168,0.804,0.348,1.204,0.525C333.577,88.389,333.179,88.21,332.773,88.042z"/>
	<path class="st3" d="M313.876,83.784c0.319,0.016,0.634,0.049,0.951,0.07C314.51,83.833,314.195,83.8,313.876,83.784z"/>
	<path class="st3" d="M291.289,87.228c0.345-0.127,0.695-0.242,1.043-0.363C291.984,86.986,291.634,87.101,291.289,87.228z"/>
	<path class="st3" d="M285.359,89.831c0.401-0.203,0.799-0.412,1.205-0.605C286.158,89.419,285.761,89.627,285.359,89.831z"/>
	<path class="st3" d="M288.013,88.57c0.542-0.24,1.089-0.473,1.64-0.697C289.102,88.097,288.556,88.33,288.013,88.57z"/>
	<path class="st3" d="M280.763,92.435c0.42-0.265,0.841-0.527,1.269-0.781C281.604,91.908,281.183,92.17,280.763,92.435z"/>
	<path class="st3" d="M283.011,91.091c0.415-0.236,0.83-0.473,1.252-0.699C283.841,90.618,283.427,90.855,283.011,91.091z"/>
	<path class="st3" d="M274.476,97.019c0.451-0.379,0.913-0.747,1.376-1.112C275.389,96.272,274.928,96.639,274.476,97.019z"/>
	<path class="st3" d="M264.675,107.655c0.427-0.602,0.864-1.195,1.313-1.778C265.538,106.46,265.103,107.054,264.675,107.655z"/>
	<path class="st3" d="M263.274,109.719c0.403-0.624,0.819-1.239,1.246-1.846C264.093,108.479,263.678,109.095,263.274,109.719z"/>
	<path class="st3" d="M276.495,95.401c0.432-0.331,0.87-0.652,1.312-0.971C277.365,94.748,276.927,95.07,276.495,95.401z"/>
	<path class="st3" d="M293.796,86.37c0.366-0.117,0.738-0.223,1.107-0.332C294.533,86.147,294.163,86.253,293.796,86.37z"/>
	<path class="st3" d="M263.164,109.891c-1.377,2.146-2.615,4.388-3.698,6.718c-2.005,4.312-3.479,8.917-4.352,13.735
		C256.458,122.924,259.242,116.007,263.164,109.891z"/>
	<path class="st2" d="M255.114,130.343v0.001l0,0c30.643,8.936,60.516,2.728,75.146-18.377c0.969-1.397,1.827-2.846,2.629-4.318
		c10.148,12.96,22.232,23.039,34.835,29.806c-0.19-3.579-0.721-7.066-1.544-10.439c-0.04-0.167-0.073-0.336-0.115-0.502
		c-0.162-0.638-0.346-1.266-0.528-1.895c-0.073-0.253-0.139-0.51-0.216-0.761c-0.179-0.582-0.376-1.154-0.572-1.727
		c-0.1-0.291-0.191-0.585-0.296-0.873c-0.195-0.543-0.408-1.077-0.62-1.612c-0.123-0.311-0.239-0.625-0.367-0.933
		c-0.214-0.513-0.443-1.018-0.672-1.523c-0.144-0.32-0.283-0.642-0.433-0.958c-0.231-0.488-0.477-0.967-0.721-1.446
		c-0.166-0.325-0.327-0.653-0.499-0.975c-0.247-0.462-0.507-0.917-0.766-1.372c-0.188-0.328-0.371-0.657-0.564-0.98
		c-0.263-0.441-0.537-0.874-0.812-1.307c-0.206-0.326-0.411-0.653-0.625-0.975c-0.278-0.42-0.566-0.833-0.855-1.245
		c-0.227-0.322-0.452-0.645-0.685-0.962c-0.293-0.399-0.594-0.792-0.896-1.183c-0.246-0.318-0.493-0.636-0.746-0.949
		c-0.306-0.378-0.619-0.75-0.934-1.121c-0.266-0.312-0.532-0.623-0.805-0.929c-0.318-0.358-0.644-0.71-0.971-1.061
		c-0.285-0.304-0.571-0.606-0.862-0.904c-0.331-0.339-0.667-0.672-1.006-1.002c-0.303-0.294-0.607-0.586-0.916-0.874
		c-0.343-0.319-0.689-0.633-1.04-0.944c-0.32-0.285-0.645-0.565-0.972-0.842c-0.353-0.299-0.708-0.594-1.068-0.884
		c-0.339-0.273-0.681-0.541-1.025-0.806c-0.363-0.279-0.729-0.555-1.098-0.826c-0.355-0.26-0.716-0.514-1.077-0.766
		c-0.372-0.259-0.745-0.516-1.123-0.766c-0.373-0.247-0.751-0.486-1.13-0.725c-0.381-0.239-0.762-0.476-1.147-0.706
		c-0.389-0.231-0.783-0.455-1.178-0.677c-0.389-0.219-0.776-0.438-1.171-0.647c-0.405-0.216-0.816-0.422-1.228-0.629
		c-0.395-0.198-0.788-0.396-1.188-0.585c-0.422-0.2-0.85-0.388-1.277-0.578c-0.4-0.177-0.799-0.356-1.204-0.525
		c-0.438-0.182-0.884-0.352-1.327-0.523c-0.404-0.156-0.807-0.315-1.215-0.462c-0.455-0.164-0.916-0.313-1.377-0.466
		c-0.407-0.135-0.813-0.274-1.225-0.4c-0.473-0.145-0.951-0.273-1.429-0.406c-0.408-0.113-0.814-0.232-1.227-0.336
		c-0.493-0.125-0.993-0.232-1.491-0.344c-0.404-0.091-0.807-0.189-1.215-0.271c-0.52-0.104-1.046-0.19-1.57-0.28
		c-0.395-0.068-0.786-0.145-1.184-0.205c-0.554-0.083-1.114-0.146-1.674-0.212c-0.376-0.045-0.748-0.101-1.126-0.139
		c-0.625-0.062-1.257-0.102-1.888-0.144c-0.317-0.021-0.632-0.054-0.951-0.07c-0.953-0.047-1.912-0.073-2.877-0.073
		c-0.93,0-1.854,0.026-2.772,0.07c-0.306,0.015-0.607,0.042-0.912,0.062c-0.611,0.039-1.221,0.081-1.826,0.139
		c-0.359,0.035-0.716,0.08-1.074,0.122c-0.546,0.063-1.09,0.129-1.631,0.207c-0.376,0.055-0.748,0.116-1.121,0.178
		c-0.518,0.085-1.033,0.176-1.546,0.276c-0.38,0.074-0.759,0.151-1.136,0.232c-0.499,0.108-0.995,0.223-1.489,0.344
		c-0.378,0.092-0.757,0.185-1.132,0.285c-0.488,0.13-0.973,0.271-1.456,0.414c-0.369,0.109-0.741,0.215-1.107,0.332
		c-0.492,0.156-0.978,0.326-1.464,0.495c-0.348,0.121-0.698,0.235-1.043,0.363c-0.551,0.204-1.094,0.425-1.637,0.645
		c-0.551,0.224-1.098,0.457-1.64,0.697c-0.484,0.215-0.971,0.427-1.448,0.655c-0.406,0.193-0.804,0.402-1.205,0.605
		c-0.366,0.186-0.734,0.368-1.097,0.562c-0.422,0.226-0.837,0.462-1.252,0.699c-0.328,0.186-0.656,0.371-0.979,0.563
		c-0.428,0.254-0.849,0.516-1.269,0.781c-0.298,0.188-0.594,0.376-0.888,0.569c-0.432,0.284-0.859,0.573-1.283,0.868
		c-0.264,0.184-0.524,0.37-0.785,0.558c-0.441,0.319-0.88,0.641-1.312,0.971c-0.217,0.166-0.43,0.336-0.644,0.505
		c-0.463,0.366-0.925,0.733-1.376,1.112c-0.133,0.112-0.262,0.228-0.394,0.341c-2.926,2.506-5.596,5.302-7.961,8.348
		c-0.044,0.057-0.089,0.112-0.133,0.169c-0.449,0.583-0.887,1.177-1.313,1.778c-0.052,0.072-0.104,0.145-0.154,0.217
		c-0.427,0.607-0.843,1.222-1.246,1.846c-0.037,0.057-0.073,0.114-0.11,0.172C259.242,116.007,256.458,122.924,255.114,130.343z"/>
	<path class="st4" d="M131.643,178.034c-3.349,3.804-7.194,7.155-11.442,9.953l-29.324,38.122l-29.278-35.821
		c-5.77-3.183-10.92-7.343-15.243-12.253c-21.43,12.898-35.609,35.219-35.609,60.611v51.643h156.506v-51.643
		c0-7.806-1.355-15.315-3.832-22.357C157.841,200.42,146.486,186.968,131.643,178.034z"/>
	<path class="st5" d="M61.599,190.288l29.278,35.821l29.324-38.122c-8.957,5.899-19.675,9.343-31.202,9.343
		C79.062,197.33,69.726,194.771,61.599,190.288z"/>
	<path class="st3" d="M56.592,93.872c0.423-0.295,0.851-0.584,1.283-0.868C57.443,93.288,57.016,93.577,56.592,93.872z"/>
	<path class="st3" d="M42.675,107.655c0.427-0.602,0.864-1.195,1.313-1.778C43.539,106.46,43.102,107.054,42.675,107.655z"/>
	<path class="st3" d="M128.615,99.821c0.339,0.33,0.675,0.664,1.006,1.002C129.291,100.484,128.955,100.151,128.615,99.821z"/>
	<path class="st3" d="M126.66,98.003c0.35,0.311,0.697,0.625,1.039,0.944C127.356,98.628,127.01,98.314,126.66,98.003z"/>
	<path class="st3" d="M115.67,90.358c0.394,0.21,0.782,0.429,1.17,0.647C116.453,90.787,116.064,90.568,115.67,90.358z"/>
	<path class="st3" d="M54.495,95.401c0.432-0.331,0.87-0.652,1.312-0.971C55.365,94.748,54.927,95.07,54.495,95.401z"/>
	<path class="st3" d="M108.231,87.056c0.408,0.147,0.811,0.306,1.214,0.462C109.042,87.362,108.64,87.203,108.231,87.056z"/>
	<path class="st3" d="M110.773,88.042c0.405,0.168,0.804,0.348,1.204,0.525C111.577,88.389,111.178,88.21,110.773,88.042z"/>
	<path class="st3" d="M58.763,92.435c0.419-0.265,0.841-0.527,1.269-0.781C59.604,91.908,59.183,92.17,58.763,92.435z"/>
	<path class="st3" d="M113.255,89.144c0.399,0.189,0.792,0.388,1.187,0.585C114.048,89.532,113.655,89.333,113.255,89.144z"/>
	<path class="st3" d="M52.476,97.019c0.451-0.379,0.913-0.747,1.375-1.112C53.389,96.272,52.927,96.639,52.476,97.019z"/>
	<path class="st3" d="M94.715,83.997c0.378,0.038,0.75,0.093,1.126,0.139C95.465,84.09,95.093,84.035,94.715,83.997z"/>
	<path class="st3" d="M122.496,94.646c0.37,0.271,0.734,0.547,1.097,0.826C123.23,95.192,122.866,94.916,122.496,94.646z"/>
	<path class="st3" d="M79.662,84.488c0.373-0.062,0.746-0.124,1.121-0.178C80.408,84.365,80.035,84.426,79.662,84.488z"/>
	<path class="st3" d="M61.011,91.091c0.416-0.236,0.831-0.473,1.252-0.699C61.841,90.618,61.426,90.855,61.011,91.091z"/>
	<path class="st3" d="M76.98,84.997c0.377-0.081,0.756-0.159,1.136-0.232C77.736,84.838,77.358,84.916,76.98,84.997z"/>
	<path class="st3" d="M82.414,84.103c0.358-0.042,0.714-0.087,1.074-0.122C83.128,84.016,82.772,84.062,82.414,84.103z"/>
	<path class="st3" d="M120.295,93.114c0.378,0.25,0.751,0.507,1.123,0.766C121.047,93.621,120.674,93.364,120.295,93.114z"/>
	<path class="st3" d="M91.876,83.784c0.319,0.016,0.634,0.049,0.952,0.07C92.51,83.833,92.195,83.8,91.876,83.784z"/>
	<path class="st3" d="M85.314,83.843c0.304-0.02,0.606-0.047,0.913-0.062C85.921,83.796,85.619,83.823,85.314,83.843z"/>
	<path class="st3" d="M97.515,84.348c0.397,0.06,0.789,0.136,1.183,0.205C98.303,84.484,97.912,84.408,97.515,84.348z"/>
	<path class="st3" d="M74.359,85.625c0.375-0.1,0.754-0.192,1.132-0.285C75.113,85.433,74.735,85.525,74.359,85.625z"/>
	<path class="st3" d="M105.63,86.19c0.412,0.125,0.817,0.265,1.225,0.4C106.447,86.456,106.042,86.316,105.63,86.19z"/>
	<path class="st3" d="M69.29,87.228c0.344-0.127,0.695-0.242,1.042-0.363C69.984,86.986,69.634,87.101,69.29,87.228z"/>
	<path class="st3" d="M100.269,84.833c0.408,0.082,0.811,0.18,1.215,0.271C101.079,85.013,100.677,84.915,100.269,84.833z"/>
	<path class="st3" d="M63.36,89.831c0.4-0.203,0.798-0.412,1.204-0.605C64.158,89.419,63.761,89.627,63.36,89.831z"/>
	<path class="st3" d="M118.019,91.683c0.386,0.23,0.767,0.467,1.147,0.706C118.786,92.15,118.405,91.913,118.019,91.683z"/>
	<path class="st3" d="M124.619,96.277c0.36,0.29,0.716,0.585,1.068,0.884C125.335,96.862,124.979,96.567,124.619,96.277z"/>
	<path class="st3" d="M102.975,85.448c0.412,0.104,0.818,0.223,1.227,0.336C103.792,85.671,103.387,85.552,102.975,85.448z"/>
	<path class="st3" d="M71.796,86.37c0.367-0.117,0.738-0.223,1.107-0.332C72.534,86.147,72.163,86.253,71.796,86.37z"/>
	<path class="st3" d="M66.013,88.57c0.542-0.24,1.089-0.473,1.64-0.697C67.102,88.097,66.555,88.33,66.013,88.57z"/>
	<path class="st3" d="M139.641,114.784c0.244,0.479,0.489,0.958,0.72,1.446C140.13,115.743,139.885,115.264,139.641,114.784z"/>
	<path class="st3" d="M52.082,97.36c-2.927,2.506-5.595,5.302-7.96,8.348C46.486,102.662,49.157,99.866,52.082,97.36z"/>
	<path class="st3" d="M41.274,109.719c0.403-0.624,0.819-1.239,1.246-1.846C42.093,108.479,41.678,109.095,41.274,109.719z"/>
	<path class="st3" d="M132.258,103.716c0.315,0.371,0.628,0.742,0.935,1.121C132.887,104.458,132.574,104.087,132.258,103.716z"/>
	<path class="st3" d="M133.938,105.786c0.303,0.391,0.604,0.784,0.896,1.183C134.542,106.569,134.241,106.177,133.938,105.786z"/>
	<path class="st3" d="M130.483,101.727c0.328,0.35,0.652,0.703,0.971,1.061C131.135,102.43,130.811,102.077,130.483,101.727z"/>
	<path class="st3" d="M138.375,112.438c0.259,0.455,0.519,0.91,0.766,1.372C138.895,113.347,138.635,112.893,138.375,112.438z"/>
	<path class="st3" d="M33.115,130.343c1.343-7.419,4.127-14.336,8.05-20.453C37.239,116.007,34.458,122.923,33.115,130.343z"/>
	<path class="st3" d="M137,110.15c0.274,0.433,0.549,0.866,0.812,1.307C137.549,111.016,137.275,110.583,137,110.15z"/>
	<path class="st3" d="M135.519,107.931c0.29,0.412,0.578,0.825,0.856,1.245C136.097,108.755,135.809,108.343,135.519,107.931z"/>
	<path class="st3" d="M141.833,119.645c0.212,0.535,0.425,1.069,0.621,1.612C142.258,120.714,142.045,120.18,141.833,119.645z"/>
	<path class="st3" d="M142.749,122.13c0.196,0.573,0.394,1.146,0.572,1.727C143.143,123.275,142.945,122.703,142.749,122.13z"/>
	<path class="st3" d="M141.465,118.712c-0.092-0.222-0.187-0.442-0.282-0.662c-0.125-0.29-0.26-0.574-0.389-0.861
		C141.022,117.694,141.252,118.199,141.465,118.712z"/>
	<path class="st3" d="M143.537,124.618c0.183,0.629,0.366,1.257,0.528,1.895C143.903,125.875,143.72,125.247,143.537,124.618z"/>
	<path class="st3" d="M61.599,190.288c8.126,4.483,17.463,7.042,27.4,7.042c11.527,0,22.246-3.443,31.202-9.343
		c4.248-2.798,8.093-6.149,11.442-9.953c8.811-10.008,14.167-23.133,14.167-37.515c0-4.655-0.572-9.174-1.628-13.504
		c0.823,3.373,1.353,6.861,1.543,10.439c-12.603-6.767-24.687-16.845-34.835-29.806c-0.802,1.473-1.66,2.921-2.629,4.318
		c-14.631,21.105-44.504,27.312-75.146,18.377c-0.598,3.303-0.927,6.699-0.927,10.175c0,14.383,5.356,27.508,14.169,37.516
		C50.679,182.945,55.83,187.105,61.599,190.288z"/>
	<path class="st2" d="M108.261,111.968c0.969-1.397,1.827-2.846,2.629-4.318c10.148,12.96,22.232,23.039,34.835,29.806
		c-0.19-3.579-0.721-7.066-1.543-10.439c-0.041-0.167-0.074-0.336-0.116-0.502c-0.162-0.638-0.345-1.266-0.528-1.895
		c-0.074-0.253-0.139-0.51-0.216-0.761c-0.178-0.582-0.375-1.154-0.572-1.727c-0.1-0.291-0.191-0.585-0.295-0.873
		c-0.196-0.543-0.409-1.077-0.621-1.612c-0.123-0.311-0.239-0.625-0.368-0.933c-0.213-0.513-0.443-1.018-0.671-1.523
		c-0.144-0.32-0.284-0.642-0.434-0.958c-0.231-0.488-0.476-0.967-0.72-1.446c-0.166-0.325-0.327-0.653-0.499-0.975
		c-0.247-0.462-0.507-0.917-0.766-1.372c-0.187-0.328-0.371-0.657-0.563-0.98c-0.263-0.441-0.538-0.874-0.812-1.307
		c-0.207-0.326-0.412-0.653-0.625-0.975c-0.279-0.42-0.567-0.833-0.856-1.245c-0.226-0.322-0.451-0.645-0.684-0.962
		c-0.292-0.399-0.594-0.792-0.896-1.183c-0.247-0.318-0.493-0.636-0.746-0.949c-0.306-0.378-0.619-0.75-0.935-1.121
		c-0.266-0.312-0.532-0.623-0.804-0.929c-0.319-0.358-0.644-0.71-0.971-1.061c-0.284-0.304-0.57-0.606-0.861-0.904
		c-0.331-0.339-0.667-0.672-1.006-1.002c-0.303-0.294-0.607-0.586-0.917-0.874c-0.342-0.319-0.689-0.633-1.039-0.944
		c-0.321-0.285-0.645-0.565-0.972-0.842c-0.353-0.299-0.708-0.594-1.068-0.884c-0.339-0.273-0.681-0.541-1.026-0.806
		c-0.363-0.279-0.728-0.555-1.097-0.826c-0.355-0.26-0.716-0.514-1.078-0.766c-0.372-0.259-0.745-0.516-1.123-0.766
		c-0.373-0.247-0.75-0.486-1.13-0.725c-0.38-0.239-0.761-0.476-1.147-0.706c-0.389-0.231-0.783-0.455-1.178-0.677
		c-0.388-0.219-0.776-0.438-1.17-0.647c-0.406-0.216-0.817-0.422-1.229-0.629c-0.394-0.198-0.788-0.396-1.187-0.585
		c-0.422-0.2-0.851-0.388-1.278-0.578c-0.4-0.177-0.799-0.356-1.204-0.525c-0.438-0.182-0.883-0.352-1.328-0.523
		c-0.404-0.156-0.806-0.315-1.214-0.462c-0.455-0.164-0.917-0.313-1.377-0.466c-0.408-0.135-0.813-0.274-1.225-0.4
		c-0.473-0.145-0.951-0.273-1.429-0.406c-0.409-0.113-0.814-0.232-1.227-0.336c-0.493-0.125-0.993-0.232-1.491-0.344
		c-0.405-0.091-0.807-0.189-1.215-0.271c-0.52-0.104-1.046-0.19-1.571-0.28c-0.394-0.068-0.786-0.145-1.183-0.205
		c-0.554-0.083-1.115-0.146-1.674-0.212c-0.375-0.045-0.748-0.101-1.126-0.139c-0.625-0.062-1.257-0.102-1.887-0.144
		c-0.318-0.021-0.632-0.054-0.952-0.07c-0.953-0.047-1.912-0.073-2.877-0.073c-0.93,0-1.854,0.026-2.772,0.07
		c-0.306,0.015-0.608,0.042-0.913,0.062c-0.611,0.039-1.221,0.081-1.826,0.139c-0.36,0.035-0.716,0.08-1.074,0.122
		c-0.545,0.063-1.09,0.129-1.631,0.207c-0.375,0.055-0.749,0.116-1.121,0.178c-0.518,0.085-1.033,0.176-1.546,0.276
		c-0.38,0.074-0.759,0.151-1.136,0.232c-0.499,0.108-0.995,0.223-1.489,0.344c-0.378,0.092-0.756,0.185-1.132,0.285
		c-0.488,0.13-0.973,0.271-1.456,0.414c-0.37,0.109-0.741,0.215-1.107,0.332c-0.492,0.156-0.978,0.326-1.464,0.495
		c-0.348,0.121-0.698,0.235-1.042,0.363c-0.551,0.204-1.094,0.425-1.637,0.645c-0.551,0.224-1.098,0.457-1.64,0.697
		c-0.485,0.215-0.971,0.427-1.449,0.655c-0.406,0.193-0.804,0.402-1.204,0.605c-0.367,0.186-0.735,0.368-1.097,0.562
		c-0.422,0.226-0.837,0.462-1.252,0.699c-0.328,0.186-0.656,0.371-0.979,0.563c-0.427,0.254-0.849,0.516-1.269,0.781
		c-0.298,0.188-0.594,0.376-0.888,0.569c-0.432,0.284-0.86,0.573-1.283,0.868c-0.264,0.184-0.525,0.37-0.785,0.558
		c-0.441,0.319-0.88,0.641-1.312,0.971c-0.217,0.166-0.429,0.336-0.644,0.505c-0.463,0.366-0.924,0.733-1.375,1.112
		c-0.133,0.112-0.262,0.228-0.394,0.341c-2.925,2.506-5.596,5.302-7.96,8.348c-0.044,0.057-0.089,0.112-0.133,0.169
		c-0.449,0.583-0.886,1.177-1.313,1.778c-0.051,0.072-0.104,0.145-0.154,0.217c-0.427,0.607-0.843,1.222-1.246,1.846
		c-0.037,0.057-0.073,0.114-0.11,0.172c-3.922,6.117-6.707,13.033-8.05,20.453l0,0.001l0,0
		C63.757,139.28,93.63,133.073,108.261,111.968z"/>
</g>
</svg>
