<?xml version="1.0" encoding="utf-8"?>
<!-- Generator: Adobe Illustrator 15.0.0, SVG Export Plug-In . SVG Version: 6.00 Build 0)  -->
<!DOCTYPE svg PUBLIC "-//W3C//DTD SVG 1.1//EN" "http://www.w3.org/Graphics/SVG/1.1/DTD/svg11.dtd">
<svg version="1.1" id="レイヤー_1" xmlns="http://www.w3.org/2000/svg" xmlns:xlink="http://www.w3.org/1999/xlink" x="0px"
	 y="0px" width="400px" height="300px" viewBox="0 0 400 300" style="enable-background:new 0 0 400 300;" xml:space="preserve">
<style type="text/css">
<![CDATA[
	.st0{fill:#BCDDE8;}
	.st1{fill:#C3DDE8;}
	.st2{fill:#FFB32C;}
	.st3{fill:#FFD85A;}
	.st4{fill:#FFFFFF;}
	.st5{fill:none;}
]]>
</style>
<g>
	<path class="st5" d="M329.941,147.143l-18.263-5.522l-28.678,94.849l18.33,5.538c0.001,0,0.158-0.005,0.205-0.158l28.551-94.436
		C330.122,147.3,330.057,147.178,329.941,147.143z"/>
	<path class="st0" d="M335.308,129.397l-18.264-5.522l5.387-17.817c-4.147,1.805-8.736,2.574-13.543,2.184l-10.174,33.65l-0.001,0
		L259.706,270.9l-118.063-35.7l23.669-78.278c-3.737-1.754-6.689-4.701-8.426-8.528c-0.424-0.936-0.744-1.902-1.01-2.88
		l-30.34,100.351c-1.516,5.017,1.321,10.311,6.335,11.825l123.511,37.348c5.015,1.517,10.31-1.319,11.826-6.335l10.427-34.483
		l18.262,5.522c1.769,0.534,3.597,0.806,5.436,0.806c8.324,0,15.538-5.355,17.951-13.329l28.553-94.439
		C350.826,142.88,345.207,132.392,335.308,129.397z M301.536,241.85c-0.047,0.153-0.204,0.158-0.205,0.158l-18.33-5.538
		l28.678-94.849l18.263,5.522c0.115,0.035,0.181,0.157,0.146,0.271L301.536,241.85z"/>
	<path class="st3" d="M291.433,139.689l-35.928,118.828c-1.213,4.011-5.45,6.279-9.462,5.066c-4.013-1.213-6.28-5.449-5.067-9.461
		l35.928-118.827l-72.493-21.92c-2.232,5.943-4.722,12.688-7.186,19.483c-1.615,5.503-6.286,18.377-15.724,23.539
		c-4.343,2.377-9.092,2.891-13.732,1.488c-0.856-0.259-1.667-0.595-2.456-0.965L141.643,235.2l118.063,35.7l39.007-129.01
		L291.433,139.689z M194.682,223.293c-1.23,4.074-5.535,6.379-9.608,5.147c-4.075-1.232-6.378-5.534-5.147-9.609
		c1.23-4.076,5.534-6.379,9.61-5.146C193.61,214.916,195.914,219.218,194.682,223.293z M197.436,151.9
		c1.801-5.955,8.09-9.321,14.043-7.521c5.955,1.8,9.323,8.087,7.525,14.043c-1.801,5.956-8.093,9.322-14.045,7.522
		C199.005,164.145,195.637,157.856,197.436,151.9z M220.157,191.478c-1.231,4.074-5.534,6.378-9.607,5.147
		c-4.075-1.233-6.379-5.535-5.148-9.61c1.234-4.073,5.536-6.378,9.61-5.147C219.086,183.1,221.392,187.403,220.157,191.478z"/>
	<path class="st4" d="M302.069,106.939c-6.111-1.848-11.638-5.31-15.877-9.898c-6.429,0.956-13.065,0.465-19.402-1.452
		c-2.618-0.791-5.139-1.808-7.543-3.039c-3.049,3.67-7.591,7.179-14.262,8.709c-4.119,0.945-8.365,0.77-12.625-0.518
		c-2.12-0.642-4.253-1.582-6.306-2.773c-1.837,1.282-3.919,2.368-6.226,3.241c-3.567,1.354-7.32,1.713-11.189,1.082
		c-1.213,3.114-2.658,6.903-4.229,11.085l72.493,21.92l-35.928,118.827c-1.213,4.012,1.055,8.248,5.067,9.461
		c4.012,1.213,8.249-1.056,9.462-5.066l35.928-118.828l7.28,2.201l0.001,0l10.174-33.65
		C306.653,108.06,304.374,107.637,302.069,106.939z"/>
	<path class="st2" d="M219.005,158.423c1.798-5.956-1.57-12.244-7.525-14.043c-5.953-1.8-12.243,1.566-14.043,7.521
		c-1.799,5.956,1.569,12.244,7.524,14.045C210.912,167.745,217.204,164.379,219.005,158.423z"/>
	<circle class="st2" cx="212.781" cy="189.246" r="7.709"/>
	<circle class="st2" cx="187.304" cy="221.063" r="7.707"/>
	<path class="st1" d="M165.312,156.922c0.789,0.37,1.6,0.706,2.456,0.965c4.64,1.402,9.389,0.889,13.732-1.488
		c9.438-5.161,14.109-18.036,15.724-23.539c2.464-6.796,4.954-13.541,7.186-19.483c1.571-4.182,3.017-7.971,4.229-11.085
		c3.869,0.632,7.622,0.272,11.189-1.082c2.307-0.873,4.389-1.958,6.226-3.241c2.053,1.191,4.186,2.132,6.306,2.773
		c4.26,1.288,8.506,1.463,12.625,0.518c6.671-1.53,11.213-5.04,14.262-8.709c2.404,1.231,4.925,2.248,7.543,3.039
		c6.337,1.917,12.974,2.407,19.402,1.452c4.239,4.588,9.766,8.05,15.877,9.898c2.305,0.697,4.584,1.121,6.818,1.301
		c4.807,0.39,9.396-0.379,13.543-2.184c7.994-3.479,14.347-10.786,17.434-20.993c5.431-17.966-2.521-34.065-19.342-39.152
		c-1.127-0.341-2.27-0.627-3.418-0.857c-4.745-11.651-14.832-20.696-27.608-24.56c-7.358-2.225-14.991-2.537-22.273-0.936
		c-4.961-4.45-10.954-7.81-17.511-9.793c-12.229-3.698-25.403-2.182-35.898,4.005c-0.917-0.361-1.852-0.686-2.798-0.973
		c-17.278-5.224-31.942,2.176-40.236,20.305c-4.877,10.657-2.056,27.076,3.416,38.773l-15.229,50.369
		c-1.935,4.497-5.459,14.538-3.091,23.267c0.266,0.978,0.585,1.944,1.01,2.88C158.622,152.221,161.575,155.168,165.312,156.922z
		 M175.956,35.473c6.798-14.856,18.49-21.736,33.415-17.225c1.713,0.518,3.363,1.179,4.938,1.973
		c9.415-6.631,21.968-8.571,33.757-5.006c6.805,2.058,12.78,5.709,17.502,10.66c7.113-2.173,14.879-2.169,22.283,0.069
		c12.219,3.695,21.612,12.938,25.041,24.236c2.011,0.189,4.012,0.583,5.983,1.178c14.924,4.514,19.719,18.237,15.538,32.058
		c-4.177,13.822-15.772,22.587-30.698,18.074c-6.221-1.881-11.593-5.664-15.289-10.664c-6.479,1.521-13.424,1.3-19.986-0.684
		c-3.938-1.191-7.61-2.96-10.903-5.233c-2.469,4.676-6.777,9.186-13.824,10.803c-3.14,0.719-6.403,0.579-9.701-0.418
		c-3.034-0.917-5.932-2.557-8.368-4.468c-1.742,1.898-4.22,3.694-7.829,5.061c-3.367,1.275-7.005,1.34-10.812,0.188
		c-0.621-0.188-1.217-0.398-1.779-0.614c-2.956,7.283-8.487,22.042-13.409,35.629c-0.889,3.061-5.031,15.936-13.041,20.313
		c-2.977,1.628-6.21,1.984-9.354,1.033c-3.372-1.019-5.911-3.23-7.349-6.397c-3.475-7.659,0.943-18.85,2.25-21.832l15.977-52.834
		C174.81,60.876,171.719,44.731,175.956,35.473z"/>
	<path class="st4" d="M164.317,124.208c-1.307,2.981-5.725,14.173-2.25,21.832c1.438,3.167,3.977,5.379,7.349,6.397
		c3.144,0.951,6.377,0.595,9.354-1.033c8.01-4.378,12.152-17.253,13.041-20.313c4.922-13.587,10.453-28.347,13.409-35.629
		c0.562,0.216,1.158,0.426,1.779,0.614c3.808,1.151,7.445,1.087,10.812-0.188c3.609-1.366,6.087-3.163,7.829-5.061
		c2.437,1.912,5.334,3.551,8.368,4.468c3.298,0.997,6.562,1.137,9.701,0.418c7.047-1.617,11.355-6.126,13.824-10.803
		c3.293,2.273,6.966,4.042,10.903,5.233c6.562,1.983,13.507,2.204,19.986,0.684c3.696,5,9.068,8.782,15.289,10.664
		c14.926,4.513,26.521-4.252,30.698-18.074c4.181-13.821-0.614-27.544-15.538-32.058c-1.972-0.595-3.973-0.989-5.983-1.178
		c-3.429-11.298-12.822-20.541-25.041-24.236c-7.404-2.238-15.17-2.243-22.283-0.069c-4.722-4.951-10.697-8.602-17.502-10.66
		c-11.789-3.564-24.342-1.625-33.757,5.006c-1.574-0.794-3.225-1.456-4.938-1.973c-14.925-4.511-26.617,2.368-33.415,17.225
		c-4.237,9.259-1.146,25.403,4.338,35.902L164.317,124.208z"/>
	<polygon class="st2" points="57.156,57.881 51.361,91.377 126.349,87.603 	"/>
	<polygon class="st2" points="117.012,4.554 101.562,20.57 144.9,74.259 	"/>
	<polygon class="st2" points="72.985,137.051 78.28,158.664 137.449,112.452 	"/>
</g>
</svg>
