<?xml version="1.0" encoding="utf-8"?>
<!-- Generator: Adobe Illustrator 15.0.0, SVG Export Plug-In . SVG Version: 6.00 Build 0)  -->
<!DOCTYPE svg PUBLIC "-//W3C//DTD SVG 1.1//EN" "http://www.w3.org/Graphics/SVG/1.1/DTD/svg11.dtd">
<svg version="1.1" id="レイヤー_1" xmlns="http://www.w3.org/2000/svg" xmlns:xlink="http://www.w3.org/1999/xlink" x="0px"
	 y="0px" width="400px" height="300px" viewBox="0 0 400 300" style="enable-background:new 0 0 400 300;" xml:space="preserve">
<style type="text/css">
<![CDATA[
	.st0{fill:#4E4E4F;}
	.st1{fill:#F4A60B;}
	.st2{fill:#F5F5F5;}
	.st3{fill:#93A6AD;}
	.st4{fill:#FF7517;}
	.st5{fill:#FFBC8F;}
	.st6{fill:#303030;}
	.st7{fill:#DB910E;}
	.st8{fill:#A9B8BF;}
]]>
</style>
<g>
	<path class="st8" d="M254.625,166.764c-0.737,5.32-1.816,10.627-3.256,15.893c-1.722,6.301-3.934,12.369-6.557,18.189l10.662,2.914
		l9.348-34.209L254.625,166.764z"/>
	<path class="st6" d="M376.612,195.291L266.044,165.08l-1.222,4.471l-9.348,34.209l-1.222,4.471l110.568,30.211
		c11.17,3.053,22.703-3.529,25.754-14.699l0.736-2.697C394.363,209.873,387.783,198.344,376.612,195.291z M366.39,214.957
		c1.167-4.27,5.575-6.787,9.848-5.619c4.269,1.168,6.785,5.576,5.619,9.846c-1.166,4.271-5.576,6.787-9.846,5.621
		C367.739,223.637,365.224,219.229,366.39,214.957z"/>
	<circle class="st2" cx="374.123" cy="217.07" r="8.017"/>
	<path class="st0" d="M244.523,180.785c8.224-30.095,4.234-61.591-11.231-88.687c-15.466-27.095-40.557-46.546-70.652-54.769
		c-10.104-2.761-20.485-4.16-30.856-4.16c-52.454,0-98.757,35.383-112.602,86.045c-16.974,62.127,19.76,126.481,81.886,143.456
		c10.104,2.76,20.486,4.16,30.857,4.16C184.378,266.83,230.681,231.447,244.523,180.785z M107.829,237.928
		c-48.562-13.268-77.173-63.391-63.903-111.954c13.268-48.559,63.393-77.172,111.953-63.902
		c48.56,13.27,77.171,63.393,63.902,111.952C206.512,222.586,156.39,251.195,107.829,237.928z"/>
	<path class="st6" d="M219.78,174.023c13.27-48.559-15.342-98.682-63.902-111.952c-48.561-13.27-98.686,15.344-111.953,63.902
		c-13.27,48.563,15.342,98.686,63.903,111.954S206.512,222.586,219.78,174.023z M136.601,77.554
		c1.438-6.686,7.959-10.966,14.651-9.57c1.702,0.353,17.012,3.808,30.182,15.816c12.11,11.038,17.213,19.604,17.752,20.544
		c3.428,5.952,1.383,13.556-4.563,16.984c-5.952,3.433-13.566,1.376-16.987-4.563c-0.006-0.009-3.79-6.226-12.958-14.584
		c-8.227-7.501-18.471-9.839-18.574-9.866c-2.84-0.627-5.246-2.189-6.96-4.284C136.831,85.202,135.776,81.392,136.601,77.554z
		 M77.756,95.495c1.549-0.791,15.643-7.7,33.437-6.606c16.356,1.007,25.704,4.476,26.714,4.871
		c6.405,2.484,9.581,9.691,7.096,16.091c-2.485,6.406-9.706,9.578-16.095,7.098c-0.012-0.002-6.857-2.472-19.245-3.234
		c-11.113-0.682-20.562,3.919-20.657,3.965c-2.608,1.292-5.462,1.586-8.111,1.027c-3.575-0.753-6.785-3.06-8.551-6.566
		C69.273,106.031,71.668,98.608,77.756,95.495z M159.316,230.146c-29.563,8.229-37.844,6.744-53.477,1.277
		c-15.635-5.463-40.041-29.58-34.376-54.355c6.281-27.455,16.075-49.317,38.418-52.788c22.339-3.472,50.596,3.243,66.902,17.268
		c13.089,11.262,19.694,17.5,20.312,34.866C198.048,203.182,178.478,224.812,159.316,230.146z"/>
	<path class="st2" d="M197.096,176.414c-0.618-17.365-7.224-23.604-20.312-34.866c-16.307-14.024-44.563-20.739-66.902-17.268
		c-22.343,3.471-32.137,25.333-38.418,52.788c-5.665,24.775,18.741,48.893,34.376,54.355c15.633,5.467,23.913,6.951,53.477-1.277
		C178.478,224.812,198.048,203.182,197.096,176.414z M127.458,197.002c-0.476-0.002-0.948-0.016-1.418-0.039
		c-0.095-0.004-0.188-0.014-0.283-0.02c-0.374-0.023-0.746-0.047-1.116-0.082c-0.119-0.012-0.235-0.029-0.354-0.043
		c-0.343-0.037-0.686-0.074-1.025-0.123c-0.127-0.018-0.251-0.043-0.378-0.062c-0.327-0.051-0.654-0.102-0.977-0.164
		c-0.139-0.025-0.276-0.059-0.415-0.088c-0.306-0.062-0.613-0.125-0.916-0.197c-0.152-0.035-0.302-0.078-0.453-0.117
		c-0.284-0.072-0.568-0.143-0.848-0.223c-0.168-0.049-0.333-0.104-0.499-0.154c-0.259-0.08-0.52-0.158-0.775-0.244
		c-0.18-0.061-0.355-0.127-0.533-0.191c-0.238-0.084-0.476-0.168-0.71-0.258c-0.192-0.074-0.38-0.156-0.569-0.234
		c-0.214-0.088-0.43-0.176-0.642-0.268c-0.205-0.09-0.405-0.188-0.606-0.283c-0.191-0.088-0.384-0.176-0.572-0.27
		c-0.214-0.105-0.424-0.219-0.634-0.33c-0.17-0.09-0.342-0.178-0.51-0.271c-0.224-0.123-0.443-0.254-0.663-0.383
		c-0.147-0.088-0.297-0.174-0.443-0.262c-0.235-0.145-0.464-0.297-0.694-0.447c-0.125-0.082-0.251-0.16-0.374-0.244
		c-0.242-0.166-0.478-0.336-0.713-0.508c-0.105-0.076-0.212-0.15-0.316-0.229c-0.248-0.186-0.489-0.377-0.73-0.57
		c-0.085-0.068-0.173-0.135-0.258-0.205c-0.252-0.207-0.497-0.422-0.741-0.637c-0.068-0.061-0.138-0.119-0.205-0.18
		c-0.254-0.229-0.501-0.465-0.745-0.703c-0.052-0.051-0.105-0.1-0.157-0.152c-0.254-0.252-0.501-0.51-0.744-0.771
		c-0.037-0.041-0.075-0.078-0.112-0.119c-0.252-0.275-0.496-0.555-0.735-0.84c-0.025-0.029-0.051-0.059-0.076-0.088
		c-0.248-0.297-0.487-0.6-0.72-0.906c-0.014-0.02-0.028-0.037-0.042-0.055c-0.241-0.318-0.472-0.643-0.697-0.971
		c-0.006-0.008-0.012-0.018-0.017-0.025c-0.23-0.338-0.451-0.68-0.664-1.027l0,0c-2.241-3.664-3.515-7.885-3.495-12.377
		c0.06-13.943,12.503-25.188,27.794-25.118c13.234,0.06,24.257,8.579,26.941,19.909l0,0c0,0,0,0.002,0.001,0.004
		c0.103,0.434,0.194,0.873,0.272,1.316c0.001,0.004,0.002,0.01,0.002,0.014c0.073,0.412,0.134,0.828,0.184,1.246
		c0.005,0.045,0.012,0.088,0.018,0.133c0.042,0.369,0.073,0.744,0.098,1.119c0.006,0.088,0.016,0.176,0.021,0.264
		c0.024,0.451,0.037,0.904,0.035,1.361C155.19,185.83,142.749,197.074,127.458,197.002z"/>
	<path class="st1" d="M112.12,192.695c-0.235-0.145-0.464-0.297-0.694-0.447C111.655,192.398,111.885,192.551,112.12,192.695z"/>
	<path class="st1" d="M113.225,193.34c-0.224-0.123-0.443-0.254-0.663-0.383C112.782,193.086,113.001,193.217,113.225,193.34z"/>
	<path class="st1" d="M111.052,192.004c-0.242-0.166-0.478-0.336-0.713-0.508C110.574,191.668,110.81,191.838,111.052,192.004z"/>
	<path class="st1" d="M108.089,189.676c-0.254-0.23-0.501-0.465-0.745-0.703C107.588,189.211,107.835,189.447,108.089,189.676z"/>
	<path class="st1" d="M110.022,191.268c-0.248-0.186-0.49-0.377-0.73-0.57C109.533,190.891,109.774,191.082,110.022,191.268z"/>
	<path class="st1" d="M109.035,190.492c-0.252-0.207-0.498-0.422-0.741-0.637C108.538,190.07,108.783,190.285,109.035,190.492z"/>
	<path class="st1" d="M118.002,195.445c-0.18-0.061-0.355-0.127-0.533-0.191C117.646,195.318,117.822,195.385,118.002,195.445z"/>
	<path class="st1" d="M116.758,194.996c-0.192-0.074-0.38-0.156-0.569-0.234C116.378,194.84,116.566,194.922,116.758,194.996z"/>
	<path class="st1" d="M115.547,194.494c-0.205-0.092-0.405-0.188-0.606-0.283C115.143,194.307,115.343,194.404,115.547,194.494z"/>
	<path class="st1" d="M114.369,193.941c-0.214-0.105-0.424-0.219-0.634-0.33C113.945,193.723,114.155,193.836,114.369,193.941z"/>
	<path class="st1" d="M104.044,185.045c-0.23-0.338-0.452-0.68-0.664-1.027C103.593,184.365,103.814,184.707,104.044,185.045z"/>
	<path class="st1" d="M107.187,188.82c-0.254-0.252-0.501-0.51-0.744-0.771C106.686,188.311,106.933,188.568,107.187,188.82z"/>
	<path class="st1" d="M155.098,169.145c0.043,0.369,0.072,0.744,0.098,1.119C155.171,169.889,155.14,169.514,155.098,169.145z"/>
	<path class="st1" d="M155.251,171.889c0.002-0.457-0.011-0.91-0.035-1.361C155.241,170.979,155.254,171.432,155.251,171.889z"/>
	<path class="st1" d="M154.622,166.436c0.103,0.434,0.194,0.873,0.272,1.316C154.816,167.309,154.725,166.869,154.622,166.436z"/>
	<path class="st1" d="M126.839,192.135c15.29,0.068,27.732-11.178,27.796-25.115c0-0.197-0.01-0.393-0.015-0.588
		c-2.685-11.33-13.707-19.849-26.941-19.909c-15.291-0.07-27.734,11.174-27.794,25.118c-0.021,4.492,1.254,8.713,3.495,12.377
		c-2.14-3.504-3.393-7.52-3.481-11.791C102.586,183.557,113.606,192.074,126.839,192.135z"/>
	<path class="st1" d="M119.276,195.844c-0.168-0.049-0.333-0.104-0.499-0.154C118.944,195.74,119.108,195.795,119.276,195.844z"/>
	<path class="st1" d="M106.331,187.93c-0.251-0.275-0.496-0.555-0.735-0.84C105.834,187.375,106.079,187.654,106.331,187.93z"/>
	<path class="st1" d="M105.52,187.002c-0.248-0.297-0.487-0.6-0.72-0.906C105.033,186.402,105.272,186.705,105.52,187.002z"/>
	<path class="st1" d="M104.758,186.041c-0.24-0.318-0.473-0.643-0.697-0.971C104.286,185.398,104.517,185.723,104.758,186.041z"/>
	<path class="st1" d="M154.896,167.766c0.073,0.412,0.133,0.828,0.184,1.246C155.03,168.594,154.969,168.178,154.896,167.766z"/>
	<path class="st1" d="M126.041,196.963c-0.095-0.004-0.188-0.014-0.283-0.02C125.852,196.949,125.945,196.959,126.041,196.963z"/>
	<path class="st1" d="M123.263,196.695c-0.127-0.018-0.251-0.043-0.378-0.062C123.011,196.652,123.136,196.678,123.263,196.695z"/>
	<path class="st1" d="M124.642,196.861c-0.119-0.012-0.235-0.029-0.354-0.043C124.407,196.832,124.523,196.85,124.642,196.861z"/>
	<path class="st1" d="M120.578,196.184c-0.152-0.035-0.302-0.078-0.453-0.117C120.276,196.105,120.425,196.148,120.578,196.184z"/>
	<path class="st1" d="M121.908,196.469c-0.139-0.025-0.276-0.059-0.415-0.088C121.632,196.41,121.769,196.443,121.908,196.469z"/>
	<path class="st7" d="M155.196,170.264c-0.025-0.375-0.055-0.75-0.098-1.119c-0.005-0.045-0.012-0.088-0.018-0.133
		c-0.051-0.418-0.111-0.834-0.184-1.246c0-0.004-0.001-0.01-0.002-0.014c-0.079-0.443-0.17-0.883-0.272-1.316
		c0-0.002,0-0.004-0.001-0.004l0,0c0.005,0.195,0.015,0.391,0.015,0.588c-0.063,13.938-12.506,25.184-27.796,25.115
		c-13.233-0.061-24.253-8.578-26.94-19.908c0.088,4.271,1.341,8.287,3.481,11.791l0,0c0.212,0.348,0.434,0.689,0.664,1.027
		c0.005,0.008,0.011,0.018,0.017,0.025c0.224,0.328,0.457,0.652,0.697,0.971c0.014,0.018,0.028,0.035,0.042,0.055
		c0.233,0.307,0.473,0.609,0.72,0.906c0.024,0.029,0.051,0.059,0.076,0.088c0.239,0.285,0.483,0.564,0.735,0.84
		c0.037,0.041,0.075,0.078,0.112,0.119c0.243,0.262,0.49,0.52,0.744,0.771c0.052,0.053,0.105,0.102,0.157,0.152
		c0.244,0.238,0.491,0.473,0.745,0.703c0.067,0.061,0.137,0.119,0.205,0.18c0.243,0.215,0.489,0.43,0.741,0.637
		c0.085,0.07,0.172,0.137,0.258,0.205c0.24,0.193,0.482,0.385,0.73,0.57c0.104,0.078,0.21,0.152,0.316,0.229
		c0.235,0.172,0.472,0.342,0.713,0.508c0.123,0.084,0.25,0.162,0.374,0.244c0.229,0.15,0.459,0.303,0.694,0.447
		c0.146,0.088,0.295,0.174,0.443,0.262c0.22,0.129,0.438,0.26,0.663,0.383c0.167,0.094,0.339,0.182,0.51,0.271
		c0.21,0.111,0.42,0.225,0.634,0.33c0.188,0.094,0.381,0.182,0.572,0.27c0.202,0.096,0.402,0.191,0.606,0.283
		c0.211,0.092,0.427,0.18,0.642,0.268c0.189,0.078,0.377,0.16,0.569,0.234c0.234,0.09,0.473,0.174,0.71,0.258
		c0.178,0.064,0.354,0.131,0.533,0.191c0.256,0.086,0.516,0.164,0.775,0.244c0.167,0.051,0.331,0.105,0.499,0.154
		c0.28,0.08,0.564,0.15,0.848,0.223c0.151,0.039,0.301,0.082,0.453,0.117c0.303,0.072,0.609,0.135,0.916,0.197
		c0.139,0.029,0.275,0.062,0.415,0.088c0.323,0.062,0.65,0.113,0.977,0.164c0.126,0.02,0.251,0.045,0.378,0.062
		c0.339,0.049,0.682,0.086,1.025,0.123c0.119,0.014,0.235,0.031,0.354,0.043c0.37,0.035,0.742,0.059,1.116,0.082
		c0.095,0.006,0.188,0.016,0.283,0.02c0.47,0.023,0.942,0.037,1.418,0.039c15.29,0.072,27.731-11.172,27.793-25.113
		c0.002-0.457-0.01-0.91-0.035-1.361C155.211,170.439,155.202,170.352,155.196,170.264z"/>
	<path class="st3" d="M254.625,166.764c3.732-26.927-1.47-54.183-15.169-78.184c-16.405-28.741-43.021-49.373-74.945-58.096
		c-10.713-2.928-21.724-4.411-32.727-4.411c-55.644,0-104.762,37.531-119.447,91.271c-18.005,65.903,20.96,134.167,86.861,152.172
		c10.713,2.928,21.725,4.412,32.728,4.412c49.119,0,93.135-29.258,112.887-73.082c2.623-5.82,4.835-11.889,6.557-18.189
		C252.809,177.391,253.888,172.084,254.625,166.764z M101.068,262.67c-62.126-16.975-98.859-81.328-81.886-143.456
		C33.027,68.552,79.33,33.169,131.784,33.169c10.372,0,20.753,1.399,30.856,4.16c30.095,8.223,55.186,27.674,70.652,54.769
		c15.466,27.096,19.455,58.592,11.231,88.687c-13.843,50.662-60.145,86.045-112.598,86.045
		C121.554,266.83,111.171,265.43,101.068,262.67z"/>
	<path class="st4" d="M80.894,118.706c2.649,0.559,5.503,0.265,8.111-1.027c0.096-0.046,9.544-4.646,20.657-3.965
		c12.388,0.763,19.233,3.232,19.245,3.234c6.389,2.48,13.609-0.691,16.095-7.098c2.485-6.399-0.69-13.606-7.096-16.091
		c-1.01-0.396-10.357-3.864-26.714-4.871c-17.794-1.094-31.888,5.815-33.437,6.606c-6.088,3.113-8.483,10.536-5.413,16.645
		C74.109,115.646,77.319,117.953,80.894,118.706z M114.935,94.415c0.397-0.844,5.981,0.703,8.243,4.752
		c1.957,3.502,2.538,7.729,1.785,8.234c-0.758,0.505-2.614-2.902-5.513-6.898C118.129,98.677,114.536,95.256,114.935,94.415z
		 M102.183,94.028c0.43-0.83,5.951,0.928,8.056,5.059c1.823,3.573,2.245,7.822,1.476,8.298c-0.772,0.475-2.5-3.001-5.244-7.104
		C105.216,98.407,101.753,94.856,102.183,94.028z M90.961,97.11c0.36-0.862,6.007,0.447,8.437,4.396
		c2.105,3.414,2.863,7.616,2.134,8.152c-0.733,0.532-2.734-2.789-5.799-6.662C94.333,101.231,90.598,97.966,90.961,97.11z"/>
	<path class="st5" d="M101.532,109.659c0.729-0.536-0.028-4.738-2.134-8.152c-2.43-3.949-8.076-5.259-8.437-4.396
		c-0.363,0.856,3.371,4.121,4.771,5.887C98.797,106.87,100.798,110.191,101.532,109.659z"/>
	<path class="st5" d="M124.963,107.401c0.753-0.505,0.172-4.732-1.785-8.234c-2.262-4.049-7.846-5.596-8.243-4.752
		c-0.399,0.842,3.194,4.263,4.516,6.088C122.349,104.499,124.206,107.906,124.963,107.401z"/>
	<path class="st5" d="M111.714,107.384c0.77-0.476,0.348-4.725-1.476-8.298c-2.104-4.131-7.626-5.889-8.056-5.059
		c-0.43,0.828,3.033,4.379,4.287,6.252C109.214,104.383,110.942,107.859,111.714,107.384z"/>
	<path class="st4" d="M146.103,92.315c0.104,0.027,10.348,2.365,18.574,9.866c9.168,8.358,12.952,14.575,12.958,14.584
		c3.421,5.939,11.035,7.996,16.987,4.563c5.946-3.429,7.992-11.032,4.563-16.984c-0.539-0.94-5.642-9.506-17.752-20.544
		c-13.17-12.009-28.479-15.464-30.182-15.816c-6.692-1.396-13.214,2.885-14.651,9.57c-0.825,3.838,0.229,7.647,2.542,10.477
		C140.857,90.125,143.263,91.688,146.103,92.315z M180.884,90.45c0.84-0.406,4.219,4.299,3.438,8.871
		c-0.669,3.955-2.867,7.614-3.771,7.536c-0.904-0.083-0.213-3.901,0.035-8.831C180.702,95.776,180.044,90.855,180.884,90.45z
		 M170.613,89.711c0.197-2.245-0.271-7.184,0.584-7.558c0.856-0.375,4.051,4.454,3.102,8.992c-0.82,3.93-3.158,7.501-4.055,7.389
		C169.345,98.422,170.175,94.631,170.613,89.711z M160.523,77.52c0.821-0.443,4.399,4.113,3.814,8.714
		c-0.504,3.98-2.547,7.729-3.449,7.688c-0.907-0.041-0.382-3.888-0.339-8.825C160.565,82.843,159.705,77.959,160.523,77.52z"/>
	<path class="st5" d="M160.888,93.921c0.902,0.042,2.945-3.707,3.449-7.688c0.585-4.601-2.993-9.157-3.814-8.714
		c-0.818,0.439,0.042,5.323,0.026,7.576C160.506,90.034,159.981,93.88,160.888,93.921z"/>
	<path class="st5" d="M180.55,106.857c0.904,0.078,3.103-3.581,3.771-7.536c0.781-4.572-2.598-9.277-3.438-8.871
		c-0.84,0.405-0.183,5.326-0.299,7.576C180.337,102.956,179.646,106.774,180.55,106.857z"/>
	<path class="st5" d="M170.244,98.535c0.896,0.112,3.234-3.459,4.055-7.389c0.949-4.538-2.245-9.367-3.102-8.992
		c-0.854,0.374-0.387,5.312-0.584,7.558C170.175,94.631,169.345,98.422,170.244,98.535z"/>
</g>
</svg>
