<?xml version="1.0" encoding="utf-8"?>
<!-- Generator: Adobe Illustrator 15.0.0, SVG Export Plug-In . SVG Version: 6.00 Build 0)  -->
<!DOCTYPE svg PUBLIC "-//W3C//DTD SVG 1.1//EN" "http://www.w3.org/Graphics/SVG/1.1/DTD/svg11.dtd">
<svg version="1.1" id="レイヤー_1" xmlns="http://www.w3.org/2000/svg" xmlns:xlink="http://www.w3.org/1999/xlink" x="0px"
	 y="0px" width="400px" height="300px" viewBox="0 0 400 300" style="enable-background:new 0 0 400 300;" xml:space="preserve">
<style type="text/css">
<![CDATA[
	.st0{fill:#A9B8BF;}
]]>
</style>
<g>
	<path class="st0" d="M151.695,6.414c-21.832,0-39.515,26.543-39.515,59.246c0,28.937,13.791,52.979,32.049,58.21
		c-6.726,46.61-11.434,139.336-11.434,147.137c0,10.425,8.459,18.883,18.9,18.883s18.9-8.458,18.9-18.883
		c0-7.801-4.708-100.527-11.434-147.137c18.256-5.232,32.049-29.274,32.049-58.21C191.21,32.957,173.524,6.414,151.695,6.414z"/>
	<path class="st0" d="M287.737,19.834c0-4.662-3.379-8.459-8.024-8.459c-4.681,0-8.46,3.798-8.46,8.459V69.39
		c0,0-1,4.162-6.859,4.162c-5.862,0-7.427-4.162-7.427-4.162V19.834c0-4.662-3.814-8.459-8.444-8.459
		c-4.662,0-8.459,3.798-8.459,8.459V69.39c0,0-2.312,3.097-7.11,3.097c-4.794,0-6.727-3.097-6.727-3.097V19.834
		c0-4.662-3.779-8.459-8.425-8.459c-4.678,0-8.459,3.798-8.459,8.459V69.39h-0.234c0,1.198,0.667,10.757,0.75,11.222
		c3.049,23.745,15.485,42.395,31.305,46.924c-6.727,46.59-11.439,139.375-11.439,147.167c0,10.424,8.459,18.883,18.899,18.883
		c10.441,0,18.9-8.459,18.9-18.883c0-7.792-4.713-100.576-11.438-147.167c15.668-4.495,28.473-22.845,31.652-46.257
		C287.922,80.579,287.737,19.834,287.737,19.834z"/>
</g>
</svg>
