<?xml version="1.0" encoding="utf-8"?>
<!-- Generator: Adobe Illustrator 15.0.0, SVG Export Plug-In . SVG Version: 6.00 Build 0)  -->
<!DOCTYPE svg PUBLIC "-//W3C//DTD SVG 1.1//EN" "http://www.w3.org/Graphics/SVG/1.1/DTD/svg11.dtd">
<svg version="1.1" id="レイヤー_1" xmlns="http://www.w3.org/2000/svg" xmlns:xlink="http://www.w3.org/1999/xlink" x="0px"
	 y="0px" width="400px" height="300px" viewBox="0 0 400 300" style="enable-background:new 0 0 400 300;" xml:space="preserve">
<style type="text/css">
<![CDATA[
	.st0{fill:#4DAA4D;}
	.st1{fill:#F2EFE7;}
	.st2{fill:#F7CE94;}
	.st3{fill:#FF7517;}
	.st4{fill:#FF97BF;}
	.st5{fill:#FFDB9D;}
	.st6{fill:#FFE045;}
	.st7{fill:none;}
	.st8{fill:#6FBEEF;}
	.st9{fill:#D31111;}
]]>
</style>
<g>
	<path class="st7" d="M157.966,140.4c0.084-0.007,0.167-0.014,0.251-0.021h-0.248C157.969,140.387,157.967,140.394,157.966,140.4z"
		/>
	<path class="st3" d="M147.976,51.757c0-8.503,4.476-16.138,8.148-20.973c4.519,5.898,9.773,14.363,9.773,20.973
		c0,7.481-3.812,14.621-7.212,19.497h2.335c4.314-5.132,12.378-16.406,12.378-29.007c0-14.744-17.18-32.644-17.18-32.644
		s-15.744,14.173-15.744,32.644c0,14.409,7.572,24.708,11.415,29.007h2.336C151.282,66.907,147.976,60.165,147.976,51.757z"/>
	<path class="st6" d="M156.125,30.784c-3.673,4.835-8.148,12.47-8.148,20.973c0,8.408,3.306,15.15,6.251,19.497h4.459
		c3.4-4.876,7.212-12.016,7.212-19.497C165.898,45.147,160.643,36.683,156.125,30.784z"/>
	<path class="st8" d="M157.97,140.38h0.248c2.736-0.216,5.5-0.413,8.287-0.589c-0.188-0.907-0.295-1.847-0.295-2.815
		c0,0,1.63-8.897,5.062-19.07V71.254h-25.807v29.65c8.504,14.352,12.742,36.913,12.742,36.913
		C158.207,138.695,158.125,139.552,157.97,140.38z"/>
	<path class="st3" d="M223.031,51.758c0-8.504,4.473-16.137,8.146-20.972c4.52,5.898,9.775,14.361,9.775,20.972
		c0,7.48-3.812,14.62-7.213,19.498h2.334c4.312-5.131,12.379-16.405,12.379-29.008c0-14.745-17.18-32.645-17.18-32.645
		s-15.742,14.173-15.742,32.645c0,14.41,7.572,24.709,11.416,29.008h2.334C226.336,66.908,223.031,60.167,223.031,51.758z"/>
	<path class="st6" d="M231.178,30.786c-3.674,4.835-8.146,12.468-8.146,20.972c0,8.409,3.305,15.15,6.25,19.498h4.459
		c3.4-4.878,7.213-12.018,7.213-19.498C240.953,45.147,235.697,36.685,231.178,30.786z"/>
	<path class="st0" d="M222.346,138.924c5.209,0.164,10.367,0.398,15.439,0.703c-0.164-0.856-0.256-1.742-0.256-2.651
		c0,0,2.803-15.298,8.797-28.713V71.256H220.52v57.088c1.316,5.125,1.977,8.631,1.977,8.631
		C222.496,137.64,222.436,138.287,222.346,138.924z"/>
	<path class="st5" d="M78.455,280.308c0,5.571,3.555,10.089,7.943,10.089h227.209c4.385,0,7.945-4.518,7.945-10.089v-17.065H78.455
		V280.308z"/>
	<path class="st5" d="M316.604,228.54c-15.381-1.255-7.15-21.775-18.002-23.084c-8.658-1.048-10.52,21.829-18.883,21.829
		c-15.578,0-8.311-20.162-21.426-21.829c-12.955,0.401-9.637,21.829-28.752,21.829s-14.084-21.428-27.451-21.428
		c-15.37,0-11.946,23.933-27.437,23.933c-19.065,0-15.88-22.318-26.304-24.334c-13.611-2.637-13.02,24.334-24.936,24.334
		s-10.564-21.896-20.133-23.025c-11.125-1.309-13.375,21.775-20.686,20.521c-1.595,0.01-2.964-0.253-4.141-0.705v10.043h243.098
		v-9.462C320.129,228.126,318.482,228.693,316.604,228.54z"/>
	<path class="st2" d="M316.604,219.351c-15.381-1.253-7.15-21.774-18.002-23.084c-8.658-1.048-10.52,21.831-18.883,21.831
		c-15.578,0-8.311-20.162-21.426-21.831c-12.955,0.404-9.637,21.831-28.752,21.831s-14.084-21.427-27.451-21.427
		c-15.37,0-11.946,23.931-27.437,23.931c-19.065,0-15.88-22.318-26.304-24.335c-13.611-2.635-13.02,24.335-24.936,24.335
		s-10.564-21.896-20.133-23.024c-11.125-1.311-13.375,21.773-20.686,20.521c-1.594,0.01-2.962-0.255-4.141-0.706v9.188
		c1.177,0.452,2.546,0.715,4.141,0.705c7.311,1.255,9.561-21.829,20.686-20.521c9.568,1.129,8.217,23.025,20.133,23.025
		s11.324-26.971,24.936-24.334c10.424,2.016,7.238,24.334,26.304,24.334c15.491,0,12.067-23.933,27.437-23.933
		c13.367,0,8.336,21.428,27.451,21.428s15.797-21.428,28.752-21.829c13.115,1.667,5.848,21.829,21.426,21.829
		c8.363,0,10.225-22.877,18.883-21.829c10.852,1.309,2.621,21.829,18.002,23.084c1.879,0.153,3.525-0.414,4.949-1.379v-9.188
		C320.129,218.938,318.482,219.504,316.604,219.351z"/>
	<path class="st1" d="M328.689,206.661l-0.234-37.393c0-10.335-15.25-17.962-38.312-23.021c-2.102,2.168-4.932,3.506-8.051,3.506
		h-32.836c-5.643,0-10.35-4.342-11.471-10.126c-5.072-0.305-10.23-0.539-15.439-0.703c-0.863,6.13-5.711,10.829-11.574,10.829
		l-32.836-0.001c-5.588,0-10.253-4.26-11.431-9.961c-2.787,0.176-5.551,0.373-8.287,0.589c-0.084,0.007-0.167,0.014-0.251,0.021
		c-1.097,5.816-5.824,10.189-11.486,10.189h-32.836c-2.697,0-5.173-1.002-7.153-2.669c-21.196,5.102-34.995,12.257-34.995,21.348
		l-0.185,37.393c0,0,0.643,8.241,7.144,10.731c1.178,0.451,2.546,0.716,4.141,0.706c7.311,1.252,9.561-21.832,20.686-20.521
		c9.568,1.129,8.217,23.024,20.133,23.024s11.324-26.97,24.936-24.335c10.424,2.017,7.238,24.335,26.304,24.335
		c15.491,0,12.067-23.931,27.437-23.931c13.367,0,8.336,21.427,27.451,21.427s15.797-21.427,28.752-21.831
		c13.115,1.669,5.848,21.831,21.426,21.831c8.363,0,10.225-22.879,18.883-21.831c10.852,1.31,2.621,21.831,18.002,23.084
		c1.879,0.153,3.525-0.413,4.949-1.377C326.432,214.67,328.689,206.661,328.689,206.661z"/>
	<rect x="78.455" y="236.623" class="st4" width="243.098" height="26.619"/>
	<path class="st9" d="M146.48,150.59c5.663,0,10.389-4.374,11.486-10.189c0.001-0.007,0.002-0.014,0.003-0.021
		c0.155-0.828,0.237-1.685,0.237-2.562c0,0-4.238-22.561-12.742-36.913c-3.966-6.693-8.858-11.604-14.684-11.604
		c-19.979,0-28.859,48.517-28.859,48.517c0,4.116,1.794,7.768,4.569,10.103c1.98,1.667,4.457,2.669,7.153,2.669H146.48z"/>
	<path class="st9" d="M237.785,139.627c1.121,5.784,5.828,10.126,11.471,10.126h32.836c3.119,0,5.949-1.338,8.051-3.506
		c2.256-2.329,3.672-5.616,3.672-9.271c0,0-9.105-48.513-27.422-48.513c-8.76,0-15.387,9.326-20.066,19.8
		c-5.994,13.415-8.797,28.713-8.797,28.713C237.529,137.885,237.621,138.771,237.785,139.627z"/>
	<path class="st9" d="M166.504,139.791c1.178,5.701,5.843,9.961,11.431,9.961l32.836,0.001c5.863,0,10.711-4.699,11.574-10.829
		c0.09-0.637,0.15-1.284,0.15-1.948c0,0-0.66-3.507-1.977-8.631c-3.586-13.943-12.055-39.881-25.45-39.881
		c-11.423,0-19.217,15.859-23.799,29.443c-3.431,10.173-5.062,19.07-5.062,19.07C166.209,137.944,166.317,138.884,166.504,139.791z"
		/>
</g>
</svg>
