<?xml version="1.0" encoding="utf-8"?>
<!-- Generator: Adobe Illustrator 15.0.0, SVG Export Plug-In . SVG Version: 6.00 Build 0)  -->
<!DOCTYPE svg PUBLIC "-//W3C//DTD SVG 1.1//EN" "http://www.w3.org/Graphics/SVG/1.1/DTD/svg11.dtd">
<svg version="1.1" id="レイヤー_1" xmlns="http://www.w3.org/2000/svg" xmlns:xlink="http://www.w3.org/1999/xlink" x="0px"
	 y="0px" width="400px" height="300px" viewBox="0 0 400 300" style="enable-background:new 0 0 400 300;" xml:space="preserve">
<style type="text/css">
<![CDATA[
	.st0{fill:#7A4C37;}
	.st1{fill:#4DAA4D;}
	.st2{fill:#88C472;}
	.st3{fill:#8CD873;}
	.st4{fill:#C18468;}
	.st5{fill:#C67842;}
	.st6{fill:#2F752F;}
	.st7{fill:#FF7517;}
	.st8{fill:#FF9E3D;}
	.st9{fill:none;}
	.st10{fill:#665046;}
	.st11{fill:#9B5C3D;}
	.st12{opacity:0.36;fill:#F5F5F5;}
	.st13{fill:#757575;}
	.st14{fill:#DBDBDB;}
]]>
</style>
<g>
	<path class="st9" d="M263.239,92.664c-2.717-10.957-5.98-20.342-9.189-27.95c-1.332-3.157-2.896-5.88-4.519-8.208
		c-1.731,0.726-3.553,1.54-5.493,2.479c-2.277,1.102-4.359,2.276-6.268,3.484c4.018,4.565,6.618,9.872,7.246,15.596l2.183,14.675
		c0.332-0.044,0.669-0.075,1.014-0.075H263.239z"/>
	<rect x="318.285" y="116.602" class="st9" width="8.146" height="28.293"/>
	<path class="st9" d="M65.943,125.007c-0.983-0.678-1.297-1.092-1.297-1.092l7.222-45.854c0.802-7.312,4.815-13.946,10.907-19.216
		c-1.194-0.68-2.442-1.344-3.761-1.982c-1.94-0.938-3.762-1.753-5.494-2.479c-1.622,2.329-3.186,5.052-4.518,8.21
		c-10.067,23.866-20.701,65.144-13.14,117.97c0.262,1.828,0.568,3.668,0.9,5.51l8.058-52.641c-0.122-0.122-0.174-0.189-0.174-0.189
		L65.943,125.007z"/>
	<path class="st9" d="M329.876,258.186c-3.489-7.279-7.343-16.59-11.591-28.49v28.627
		C318.991,258.299,323.6,258.156,329.876,258.186z"/>
	<rect x="135.341" y="29.926" class="st9" width="46.203" height="16.759"/>
	<path class="st9" d="M353.525,275.477c4.325,0.832,8.179,0.297,10.571-1.467c1.025-0.756,1.694-1.674,1.998-2.74
		c-2.425-1.656-10.385-2.971-20.787-3.66C349.623,273.971,352.362,275.254,353.525,275.477z"/>
	<path class="st10" d="M249.531,56.505c1.622,2.328,3.187,5.051,4.519,8.208c3.209,7.608,6.473,16.993,9.189,27.95h30.043
		c-7.081-28.072-19.266-42.677-19.266-42.677s-0.257-0.179-0.72-0.469c2.019,2.139,2.919,3.825,2.919,3.825
		S269.972,47.936,249.531,56.505z"/>
	<path class="st4" d="M237.771,62.468c1.908-1.208,3.99-2.383,6.268-3.484c1.94-0.938,3.762-1.753,5.493-2.479
		c20.44-8.569,26.685-3.162,26.685-3.162s-0.9-1.687-2.919-3.825c-3.888-4.119-11.924-9.918-25.682-8.591
		c-9.21,0.887-19.426,4.868-28.375,9.327C226.746,53.021,233.186,57.257,237.771,62.468z"/>
	<path class="st10" d="M55.862,180.564c-7.562-52.827,3.073-94.104,13.14-117.97c1.332-3.158,2.896-5.881,4.518-8.21
		c-20.439-8.569-26.685-3.161-26.685-3.161s0.901-1.687,2.919-3.825c-0.463,0.291-0.72,0.469-0.72,0.469
		S12.983,91.054,28.867,171.701c3.551,18.025,12.871,35.248,22.559,49.234l5.336-34.861
		C56.431,184.232,56.124,182.393,55.862,180.564z"/>
	<path class="st4" d="M73.52,54.384c1.732,0.727,3.553,1.541,5.494,2.479c1.319,0.639,2.567,1.303,3.761,1.982
		c5.635-4.874,13.052-8.571,21.371-10.548c-9.028-4.525-19.386-8.595-28.71-9.493c-13.757-1.326-21.793,4.474-25.681,8.593
		c-2.019,2.139-2.919,3.825-2.919,3.825S53.08,45.815,73.52,54.384z"/>
	<path class="st11" d="M135.341,46.685V29.926h46.203v16.759h17.402c0.565,0,1.126,0.015,1.688,0.03V28.154
		c0-9.549-7.769-17.317-17.317-17.317h-49.749c-9.548,0-17.316,7.769-17.316,17.317v18.562c0.561-0.016,1.123-0.03,1.688-0.03
		H135.341z"/>
	<path class="st1" d="M92.655,281.656c-0.324-0.08-0.65-0.154-0.972-0.238C92.004,281.502,92.331,281.576,92.655,281.656z"/>
	<path class="st1" d="M84.504,278.994c-0.353-0.148-0.701-0.305-1.051-0.459C83.803,278.689,84.151,278.846,84.504,278.994z"/>
	<path class="st1" d="M56.359,252.865c-0.314-0.621-0.619-1.246-0.911-1.879C55.741,251.619,56.045,252.244,56.359,252.865z"/>
	<path class="st1" d="M55.353,250.773c-1.589-3.486-2.83-7.166-3.672-10.996C52.523,243.607,53.763,247.285,55.353,250.773z"/>
	<path class="st1" d="M82.212,277.975c-0.371-0.176-0.738-0.357-1.104-0.539C81.475,277.617,81.841,277.799,82.212,277.975z"/>
	<path class="st1" d="M95.245,282.221c-0.347-0.066-0.693-0.133-1.038-0.207C94.552,282.088,94.898,282.154,95.245,282.221z"/>
	<path class="st1" d="M97.842,282.658c-0.352-0.049-0.702-0.104-1.052-0.162C97.14,282.555,97.49,282.609,97.842,282.658z"/>
	<path class="st1" d="M57.488,254.977c-0.338-0.6-0.664-1.209-0.98-1.822C56.824,253.768,57.149,254.377,57.488,254.977z"/>
	<path class="st1" d="M86.855,279.914c-0.295-0.107-0.584-0.229-0.877-0.34C86.271,279.686,86.56,279.807,86.855,279.914z"/>
	<path class="st1" d="M89.961,280.93c-0.25-0.074-0.502-0.141-0.75-0.219C89.459,280.789,89.712,280.855,89.961,280.93z"/>
	<path class="st1" d="M70.809,270.793c-0.434-0.354-0.856-0.719-1.279-1.086C69.953,270.074,70.375,270.439,70.809,270.793z"/>
	<path class="st1" d="M100.462,282.975c-0.34-0.033-0.678-0.072-1.017-0.111C99.784,282.902,100.122,282.941,100.462,282.975z"/>
	<path class="st1" d="M63.971,264.16c-2.4-2.762-4.533-5.762-6.355-8.961C59.438,258.398,61.569,261.398,63.971,264.16z"/>
	<path class="st1" d="M73.99,273.191c-0.949-0.666-1.877-1.361-2.782-2.084C72.113,271.83,73.041,272.525,73.99,273.191z"/>
	<path class="st1" d="M68.952,269.207c-0.412-0.367-0.815-0.744-1.215-1.121C68.137,268.463,68.54,268.84,68.952,269.207z"/>
	<path class="st1" d="M67.18,267.555c-0.402-0.391-0.798-0.789-1.188-1.191C66.382,266.766,66.778,267.164,67.18,267.555z"/>
	<path class="st1" d="M77.821,275.654c-0.381-0.223-0.762-0.445-1.137-0.678C77.059,275.209,77.44,275.432,77.821,275.654z"/>
	<path class="st1" d="M75.755,274.381c-0.394-0.254-0.79-0.506-1.176-0.77C74.966,273.875,75.362,274.127,75.755,274.381z"/>
	<path class="st1" d="M65.507,265.854c-0.403-0.426-0.802-0.857-1.191-1.297C64.705,264.996,65.104,265.428,65.507,265.854z"/>
	<path class="st1" d="M79.982,276.859c-0.376-0.199-0.751-0.4-1.123-0.607C79.231,276.459,79.606,276.66,79.982,276.859z"/>
	<path class="st1" d="M227.674,280.711c-0.248,0.078-0.502,0.145-0.752,0.219C227.172,280.855,227.426,280.789,227.674,280.711z"/>
	<path class="st1" d="M86.626,248.074v-49.637c0-13.703,11.109-24.812,24.813-24.812h89.341c13.704,0,24.813,11.109,24.813,24.812
		v49.637c0,3.293-0.647,6.436-1.813,9.311c5.869-0.41,11.51-1.516,16.817-3.232v-85.459v-6.703v-6.701v-16.623
		c-11.011,3.354-32.401,7.11-73.338,7.585v5.852c0,5.385-4.363,9.746-9.747,9.746h-6.824c-5.383,0-9.746-4.361-9.746-9.746v-6.007
		c-62.651-1.535-74.653-11.192-76.123-12.663l-8.058,52.641l-5.336,34.861l-1.054,6.883c0,4.102,0.459,8.094,1.304,11.941
		c9.442,8.934,22.201,15.146,36.57,17.137C87.203,254.154,86.626,251.182,86.626,248.074z"/>
	<path class="st1" d="M225.202,281.418c-0.321,0.084-0.647,0.158-0.972,0.238C224.555,281.576,224.88,281.502,225.202,281.418z"/>
	<path class="st1" d="M222.678,282.014c-0.345,0.074-0.691,0.141-1.039,0.207C221.986,282.154,222.333,282.088,222.678,282.014z"/>
	<path class="st1" d="M220.095,282.496c-0.35,0.059-0.7,0.113-1.052,0.162C219.396,282.609,219.745,282.555,220.095,282.496z"/>
	<path class="st1" d="M233.437,278.533c-0.352,0.154-0.701,0.312-1.057,0.461C232.735,278.846,233.085,278.688,233.437,278.533z"/>
	<path class="st1" d="M235.777,277.436c-0.367,0.182-0.735,0.363-1.107,0.539C235.042,277.799,235.41,277.617,235.777,277.436z"/>
	<path class="st1" d="M230.908,279.574c-0.293,0.111-0.583,0.232-0.878,0.34C230.325,279.807,230.615,279.686,230.908,279.574z"/>
	<path class="st1" d="M240.202,274.975c-0.377,0.234-0.759,0.457-1.142,0.682C239.443,275.432,239.825,275.209,240.202,274.975z"/>
	<path class="st1" d="M238.025,276.25c-0.371,0.209-0.746,0.41-1.123,0.609C237.279,276.66,237.654,276.459,238.025,276.25z"/>
	<path class="st1" d="M103.11,283.168c-0.292-0.014-0.58-0.039-0.87-0.059C102.53,283.129,102.819,283.154,103.11,283.168z"/>
	<path class="st1" d="M217.44,282.863c-0.339,0.039-0.677,0.078-1.018,0.111C216.764,282.941,217.102,282.902,217.44,282.863z"/>
	<path class="st1" d="M214.646,283.109c-0.291,0.02-0.579,0.043-0.871,0.059C214.066,283.154,214.354,283.129,214.646,283.109z"/>
	<path class="st11" d="M240.598,254.152c-5.308,1.717-10.948,2.822-16.817,3.232c-3.683,9.088-12.59,15.502-23,15.502h-89.341
		c-10.595,0-19.635-6.645-23.192-15.99c-14.369-1.99-27.128-8.203-36.57-17.137c0,0,0,0,0,0c0.001,0.006,0.003,0.012,0.004,0.018
		c0.843,3.83,2.083,7.51,3.672,10.996c0.032,0.07,0.063,0.143,0.096,0.213c0.292,0.633,0.596,1.258,0.911,1.879
		c0.049,0.096,0.099,0.191,0.148,0.289c0.316,0.613,0.642,1.223,0.98,1.822c0.042,0.074,0.085,0.148,0.127,0.223
		c1.822,3.199,3.956,6.199,6.355,8.961c0.115,0.131,0.229,0.266,0.345,0.396c0.389,0.439,0.788,0.871,1.191,1.297
		c0.161,0.172,0.322,0.342,0.485,0.51c0.39,0.402,0.786,0.801,1.188,1.191c0.184,0.178,0.371,0.354,0.557,0.531
		c0.4,0.377,0.804,0.754,1.215,1.121c0.19,0.17,0.386,0.334,0.578,0.5c0.423,0.367,0.846,0.732,1.279,1.086
		c0.131,0.107,0.267,0.209,0.399,0.314c0.904,0.723,1.833,1.418,2.782,2.084c0.197,0.139,0.39,0.283,0.589,0.42
		c0.387,0.264,0.783,0.516,1.176,0.77c0.309,0.199,0.616,0.402,0.929,0.596c0.375,0.232,0.756,0.455,1.137,0.678
		c0.344,0.201,0.689,0.402,1.039,0.598c0.372,0.207,0.746,0.408,1.123,0.607c0.373,0.195,0.748,0.387,1.126,0.576
		c0.366,0.182,0.733,0.363,1.104,0.539c0.41,0.193,0.825,0.377,1.241,0.561c0.35,0.154,0.698,0.311,1.051,0.459
		c0.487,0.201,0.98,0.391,1.474,0.58c0.293,0.111,0.582,0.232,0.877,0.34c0.777,0.281,1.563,0.549,2.356,0.797
		c0.248,0.078,0.5,0.145,0.75,0.219c0.571,0.17,1.143,0.336,1.721,0.488c0.322,0.084,0.648,0.158,0.972,0.238
		c0.516,0.125,1.032,0.246,1.553,0.357c0.345,0.074,0.691,0.141,1.038,0.207c0.513,0.1,1.027,0.191,1.545,0.275
		c0.35,0.059,0.7,0.113,1.052,0.162c0.532,0.078,1.066,0.143,1.603,0.205c0.339,0.039,0.677,0.078,1.017,0.111
		c0.59,0.057,1.183,0.098,1.778,0.135c0.29,0.02,0.579,0.045,0.87,0.059c0.888,0.041,1.779,0.066,2.677,0.066h105.31
		c0.897,0,1.789-0.025,2.677-0.066c0.292-0.016,0.58-0.039,0.871-0.059c0.595-0.037,1.188-0.078,1.777-0.135
		c0.341-0.033,0.679-0.072,1.018-0.111c0.536-0.062,1.071-0.127,1.603-0.205c0.352-0.049,0.702-0.104,1.052-0.162
		c0.518-0.084,1.032-0.176,1.544-0.275c0.348-0.066,0.694-0.133,1.039-0.207c0.521-0.111,1.037-0.232,1.553-0.357
		c0.324-0.08,0.65-0.154,0.972-0.238c0.578-0.152,1.149-0.318,1.72-0.488c0.25-0.074,0.504-0.141,0.752-0.219
		c0.793-0.248,1.579-0.516,2.356-0.797c0.295-0.107,0.585-0.229,0.878-0.34c0.493-0.189,0.985-0.379,1.472-0.58
		c0.355-0.148,0.705-0.307,1.057-0.461c0.413-0.184,0.825-0.367,1.233-0.559c0.372-0.176,0.74-0.357,1.107-0.539
		c0.377-0.189,0.753-0.381,1.125-0.576c0.377-0.199,0.752-0.4,1.123-0.609c0.349-0.193,0.692-0.393,1.035-0.594
		c0.383-0.225,0.765-0.447,1.142-0.682c0.132-0.082,0.265-0.164,0.396-0.246V254.152z"/>
	<path class="st6" d="M133.854,136.554c-49.142-1.792-63.959-8.818-67.911-11.547l-1.297,8.236c0,0,0.052,0.067,0.174,0.189
		c1.47,1.471,13.472,11.128,76.123,12.663v-2.307C137.34,143.055,134.522,140.181,133.854,136.554z"/>
	<path class="st6" d="M174.302,136.806c-0.749,3.508-3.523,6.266-7.042,6.983v2.462c40.937-0.475,62.327-4.23,73.338-7.585v-9.328
		C230.236,132.496,210.685,136.007,174.302,136.806z"/>
	<path class="st1" d="M71.868,78.062l-7.222,45.854c0,0,0.314,0.414,1.297,1.092c3.952,2.729,18.769,9.755,67.911,11.547
		c-0.099-0.536-0.157-1.086-0.157-1.65v-3.628c0-4.384,3.111-8.041,7.246-8.884v-9.282c0-5.385,4.363-9.748,9.746-9.748h6.824
		c5.383,0,9.747,4.363,9.747,9.748v9.282c4.134,0.843,7.246,4.5,7.246,8.884v3.628c0,0.652-0.072,1.288-0.203,1.902
		c36.382-0.799,55.934-4.311,66.295-7.468V100.28c0-3.861,2.876-7.044,6.602-7.541l-2.183-14.675
		c-0.628-5.724-3.229-11.03-7.246-15.596c-4.585-5.211-11.024-9.447-18.53-12.214c-5.706-2.104-12.023-3.354-18.607-3.539
		c-0.561-0.016-1.123-0.03-1.688-0.03h-17.402h-46.203h-17.402c-0.565,0-1.126,0.015-1.688,0.03
		c-4.171,0.116-8.234,0.664-12.105,1.583c-8.319,1.977-15.736,5.674-21.371,10.548C76.683,64.116,72.67,70.75,71.868,78.062z"/>
	<path class="st11" d="M165.438,143.973h-22.674c-0.624,0-1.233-0.063-1.822-0.184v2.307v6.007c0,5.385,4.363,9.746,9.746,9.746
		h6.824c5.383,0,9.747-4.361,9.747-9.746v-5.852v-2.462C166.671,143.91,166.062,143.973,165.438,143.973z"/>
	<path class="st11" d="M165.438,122.208c0.624,0,1.233,0.063,1.821,0.184v-9.282c0-5.385-4.363-9.748-9.747-9.748h-6.824
		c-5.383,0-9.746,4.363-9.746,9.748v9.282c0.588-0.12,1.198-0.184,1.822-0.184H165.438z"/>
	<path class="st14" d="M140.943,143.79c0.588,0.12,1.198,0.184,1.822,0.184h22.674c0.624,0,1.233-0.063,1.821-0.184
		c3.519-0.718,6.293-3.476,7.042-6.983c0.131-0.614,0.203-1.25,0.203-1.902v-3.628c0-4.384-3.111-8.041-7.246-8.884
		c-0.588-0.12-1.197-0.184-1.821-0.184h-22.674c-0.624,0-1.233,0.063-1.822,0.184c-4.135,0.843-7.246,4.5-7.246,8.884v3.628
		c0,0.564,0.059,1.114,0.157,1.65C134.522,140.181,137.34,143.055,140.943,143.79z"/>
	<path class="st2" d="M225.594,198.438c0-13.703-11.109-24.812-24.813-24.812h-89.341c-13.704,0-24.813,11.109-24.813,24.812v49.637
		c0,3.107,0.577,6.08,1.621,8.822c3.558,9.346,12.597,15.99,23.192,15.99h89.341c10.41,0,19.317-6.414,23-15.502
		c1.166-2.875,1.813-6.018,1.813-9.311V198.438z M94.399,213.928v-8.494v-6.996c0-9.396,7.643-17.041,17.04-17.041h89.341
		c9.397,0,17.042,7.645,17.042,17.041v6.996v8.494v6.994H94.399V213.928z"/>
	<rect x="94.399" y="213.928" class="st13" width="123.423" height="6.994"/>
	<path class="st3" d="M217.822,205.434v-6.996c0-9.396-7.645-17.041-17.042-17.041h-89.341c-9.397,0-17.04,7.645-17.04,17.041v6.996
		v8.494h123.423V205.434z"/>
	<path class="st7" d="M248.213,92.664c-0.345,0-0.682,0.031-1.014,0.075c-3.726,0.497-6.602,3.68-6.602,7.541v29.059v9.328v16.623
		h10.599V98.875h14.04v56.414h48.566v0.775h4.482h13.73c3.084,0,5.585-2.5,5.585-5.584v-39.463c0-3.085-2.501-5.585-5.585-5.585
		h-13.73v-5.152c0-4.206-3.41-7.616-7.616-7.616h-17.387h-30.043H248.213z M326.431,116.602v28.293h-8.146v-28.293H326.431z"/>
	<path class="st8" d="M318.285,258.322v-28.627c-0.054-0.15-0.106-0.295-0.16-0.445c-5.196-14.605-9.552-29.152-12.262-38.674
		c-1.954-1.209-3.396-5.352-3.396-10.291c0-5.889,2.046-10.662,4.57-10.662c2.103,0,3.87,3.32,4.401,7.836l0.078-0.021
		c0.041,0.156,2.636,10.131,6.769,23.672v-32.416h-53.049v115.344h-14.04V168.693h-10.599v85.459v20.576v6.82
		c0,4.205,3.409,7.615,7.615,7.615h62.456c4.206,0,7.616-3.41,7.616-7.615v-20.762l-0.087-2.461
		C318.213,258.324,318.248,258.324,318.285,258.322z"/>
	<path class="st0" d="M373.103,265.576c-2.576-2.777-8.473-6.098-31.387-7.111c-0.596-0.025-1.188-0.051-1.778-0.072
		c-3.726-7.232-8.185-17.504-13.375-32.088c-3.129-8.789-5.946-17.557-8.277-25.195c-4.133-13.541-6.728-23.516-6.769-23.672
		l-0.078,0.021c-0.531-4.516-2.299-7.836-4.401-7.836c-2.524,0-4.57,4.773-4.57,10.662c0,4.939,1.442,9.082,3.396,10.291
		c2.71,9.521,7.065,24.068,12.262,38.674c0.054,0.15,0.106,0.295,0.16,0.445c4.248,11.9,8.102,21.211,11.591,28.49
		c-6.276-0.029-10.885,0.113-11.591,0.137c-0.037,0.002-0.072,0.002-0.087,0.004l0.087,2.461l0.229,6.469
		c5.451-0.191,10.884-0.221,16.037-0.107c7.64,13.314,13.248,16.328,17.29,17.104c1.906,0.367,3.765,0.547,5.55,0.547
		c4.642,0,8.789-1.223,12.008-3.596c3.267-2.408,5.302-5.867,5.732-9.744C375.367,269.332,374.647,267.242,373.103,265.576z
		 M364.097,274.01c-2.393,1.764-6.246,2.299-10.571,1.467c-1.163-0.223-3.902-1.506-8.218-7.867
		c10.402,0.689,18.362,2.004,20.787,3.66C365.791,272.336,365.122,273.254,364.097,274.01z"/>
	<rect x="251.196" y="98.875" class="st7" width="14.04" height="56.414"/>
	<rect x="251.196" y="98.875" class="st12" width="14.04" height="56.414"/>
	<rect x="251.196" y="168.693" class="st8" width="14.04" height="115.344"/>
	<rect x="251.196" y="168.693" class="st12" width="14.04" height="115.344"/>
	<polygon class="st5" points="313.803,155.289 265.236,155.289 251.196,155.289 240.598,155.289 240.598,161.99 240.598,168.693 
		251.196,168.693 265.236,168.693 318.285,168.693 318.285,161.99 318.285,156.064 313.803,156.064 	"/>
</g>
</svg>
