<?xml version="1.0" encoding="utf-8"?>
<!-- Generator: Adobe Illustrator 15.0.0, SVG Export Plug-In . SVG Version: 6.00 Build 0)  -->
<!DOCTYPE svg PUBLIC "-//W3C//DTD SVG 1.1//EN" "http://www.w3.org/Graphics/SVG/1.1/DTD/svg11.dtd">
<svg version="1.1" id="レイヤー_1" xmlns="http://www.w3.org/2000/svg" xmlns:xlink="http://www.w3.org/1999/xlink" x="0px"
	 y="0px" width="400px" height="300px" viewBox="0 0 400 300" style="enable-background:new 0 0 400 300;" xml:space="preserve">
<style type="text/css">
<![CDATA[
	.st0{fill:#FF5215;}
	.st1{fill:#FFAB17;}
	.st2{fill:#FFE045;}
	.st3{fill:#FFF9D9;}
	.st4{fill:#303030;}
	.st5{fill:#3D3D3B;}
]]>
</style>
<g>
	<g>
		<g>
			<path class="st1" d="M293.1,17.392H106.9c-21.824,0-39.508,17.684-39.508,39.51v186.197c0,21.812,17.684,39.51,39.508,39.51
				H293.1c21.824,0,39.508-17.697,39.508-39.51V56.901C332.607,35.075,314.924,17.392,293.1,17.392z M320.607,243.099
				c0,15.168-12.34,27.51-27.508,27.51H106.9c-15.168,0-27.508-12.342-27.508-27.51V56.901c0-15.168,12.34-27.51,27.508-27.51H293.1
				c15.168,0,27.508,12.342,27.508,27.51V243.099z"/>
		</g>
	</g>
	<g>
		<g>
			<path class="st3" d="M293.1,29.392H106.9c-15.168,0-27.508,12.342-27.508,27.51v186.197c0,15.168,12.34,27.51,27.508,27.51H293.1
				c15.168,0,27.508-12.342,27.508-27.51V56.901C320.607,41.733,308.268,29.392,293.1,29.392z M312.607,243.099
				c0,10.758-8.751,19.51-19.508,19.51H106.9c-10.757,0-19.508-8.752-19.508-19.51V56.901c0-10.758,8.751-19.51,19.508-19.51H293.1
				c10.757,0,19.508,8.752,19.508,19.51V243.099z"/>
		</g>
	</g>
	<path class="st2" d="M293.1,37.392H106.9c-10.757,0-19.508,8.752-19.508,19.51v186.197c0,10.758,8.751,19.51,19.508,19.51H293.1
		c10.757,0,19.508-8.752,19.508-19.51V56.901C312.607,46.144,303.856,37.392,293.1,37.392z M253.756,54.891h13.114V41.776
		c0-2.209,1.791-4,4-4s4,1.791,4,4v21.114h-21.114c-2.209,0-4-1.791-4-4S251.547,54.891,253.756,54.891z M253.756,69.64h21.114
		v21.114c0,2.209-1.791,4-4,4s-4-1.791-4-4V77.64h-13.114c-2.209,0-4-1.791-4-4S251.547,69.64,253.756,69.64z M233.445,131.991
		l33.944-27.002c2.846-2.265,6.988-1.791,9.253,1.054c2.264,2.847,1.791,6.989-1.055,9.253l-33.944,27.002
		c-1.212,0.964-2.658,1.432-4.095,1.432c-1.938,0-3.857-0.852-5.158-2.485C230.127,138.397,230.6,134.255,233.445,131.991z
		 M125.378,105.973c2.302-2.814,6.452-3.229,9.266-0.927l33.003,27.002c2.815,2.303,3.23,6.452,0.927,9.267
		c-1.301,1.591-3.193,2.415-5.1,2.415c-1.467,0-2.942-0.487-4.166-1.488l-33.003-27.002
		C123.49,112.937,123.075,108.787,125.378,105.973z M108.017,152.809c0-8.135,13.183-14.731,29.451-14.731
		s29.463,6.597,29.463,14.731c0,8.134-13.194,14.73-29.463,14.73S108.017,160.942,108.017,152.809z M264.227,216.985
		c-1.13,1.613-2.932,2.478-4.762,2.478c-1.15,0-2.312-0.341-3.326-1.051c-0.281-0.197-28.914-19.952-56.676-19.952
		c-27.118,0-46.713,19.117-46.908,19.31c-2.274,2.255-5.948,2.249-8.208-0.021c-2.259-2.27-2.26-5.935,0.004-8.199
		c0.927-0.927,23.071-22.702,55.111-22.702c31.472,0,62.05,21.151,63.336,22.052C265.426,210.737,266.065,214.357,264.227,216.985z
		 M263.418,169.379c-16.269,0-29.451-6.597-29.451-14.73c0-8.135,13.183-14.732,29.451-14.732s29.462,6.598,29.462,14.732
		C292.88,162.782,279.687,169.379,263.418,169.379z M304.092,77.64h-13.115v13.114c0,2.209-1.791,4-4,4s-4-1.791-4-4V69.64h21.115
		c2.209,0,4,1.791,4,4S306.301,77.64,304.092,77.64z M308.092,58.891c0,2.209-1.791,4-4,4h-21.115V41.776c0-2.209,1.791-4,4-4
		s4,1.791,4,4v13.114h13.115C306.301,54.891,308.092,56.682,308.092,58.891z"/>
	<path class="st0" d="M263.418,139.916c-16.269,0-29.451,6.598-29.451,14.732c0,8.134,13.183,14.73,29.451,14.73
		s29.462-6.597,29.462-14.73C292.88,146.514,279.687,139.916,263.418,139.916z"/>
	<path class="st0" d="M166.931,152.809c0-8.135-13.194-14.731-29.463-14.731s-29.451,6.597-29.451,14.731
		c0,8.134,13.183,14.73,29.451,14.73S166.931,160.942,166.931,152.809z"/>
	<path class="st4" d="M262.799,208.898c-1.286-0.9-31.864-22.052-63.336-22.052c-32.04,0-54.184,21.775-55.111,22.702
		c-2.264,2.265-2.264,5.93-0.004,8.199c2.259,2.271,5.934,2.276,8.208,0.021c0.195-0.192,19.79-19.31,46.908-19.31
		c27.762,0,56.395,19.755,56.676,19.952c1.014,0.71,2.176,1.051,3.326,1.051c1.83,0,3.632-0.864,4.762-2.478
		C266.065,214.357,265.426,210.737,262.799,208.898z"/>
	<path class="st5" d="M126.305,115.239l33.003,27.002c1.224,1.001,2.699,1.488,4.166,1.488c1.907,0,3.799-0.824,5.1-2.415
		c2.303-2.814,1.888-6.964-0.927-9.267l-33.003-27.002c-2.813-2.302-6.963-1.888-9.266,0.927
		C123.075,108.787,123.49,112.937,126.305,115.239z"/>
	<path class="st5" d="M237.549,143.729c1.437,0,2.883-0.468,4.095-1.432l33.944-27.002c2.846-2.264,3.318-6.406,1.055-9.253
		c-2.265-2.845-6.407-3.318-9.253-1.054l-33.944,27.002c-2.846,2.264-3.318,6.406-1.055,9.253
		C233.691,142.878,235.611,143.729,237.549,143.729z"/>
	<path class="st5" d="M253.756,62.891h21.114V41.776c0-2.209-1.791-4-4-4s-4,1.791-4,4v13.114h-13.114c-2.209,0-4,1.791-4,4
		S251.547,62.891,253.756,62.891z"/>
	<path class="st5" d="M290.977,54.891V41.776c0-2.209-1.791-4-4-4s-4,1.791-4,4v21.114h21.115c2.209,0,4-1.791,4-4s-1.791-4-4-4
		H290.977z"/>
	<path class="st5" d="M253.756,77.64h13.114v13.114c0,2.209,1.791,4,4,4s4-1.791,4-4V69.64h-21.114c-2.209,0-4,1.791-4,4
		S251.547,77.64,253.756,77.64z"/>
	<path class="st5" d="M304.092,69.64h-21.115v21.114c0,2.209,1.791,4,4,4s4-1.791,4-4V77.64h13.115c2.209,0,4-1.791,4-4
		S306.301,69.64,304.092,69.64z"/>
</g>
</svg>
