<?xml version="1.0" encoding="utf-8"?>
<!-- Generator: Adobe Illustrator 15.0.0, SVG Export Plug-In . SVG Version: 6.00 Build 0)  -->
<!DOCTYPE svg PUBLIC "-//W3C//DTD SVG 1.1//EN" "http://www.w3.org/Graphics/SVG/1.1/DTD/svg11.dtd">
<svg version="1.1" id="レイヤー_1" xmlns="http://www.w3.org/2000/svg" xmlns:xlink="http://www.w3.org/1999/xlink" x="0px"
	 y="0px" width="400px" height="300px" viewBox="0 0 400 300" style="enable-background:new 0 0 400 300;" xml:space="preserve">
<style type="text/css">
<![CDATA[
	.st0{fill:#19A3F7;}
	.st1{fill:#FFAB17;}
	.st2{fill:#FFE045;}
	.st3{fill:#FFF9D9;}
	.st4{fill:#303030;}
	.st5{fill:#A2C0ED;}
]]>
</style>
<g>
	<g>
		<g>
			<path class="st1" d="M293.1,17.392H106.9c-21.824,0-39.508,17.684-39.508,39.51v186.197c0,21.812,17.684,39.51,39.508,39.51
				H293.1c21.824,0,39.508-17.697,39.508-39.51V56.901C332.607,35.075,314.924,17.392,293.1,17.392z M320.607,243.099
				c0,15.168-12.34,27.51-27.508,27.51H106.9c-15.168,0-27.508-12.342-27.508-27.51V56.901c0-15.168,12.34-27.51,27.508-27.51H293.1
				c15.168,0,27.508,12.342,27.508,27.51V243.099z"/>
		</g>
	</g>
	<g>
		<g>
			<path class="st3" d="M293.1,29.392H106.9c-15.168,0-27.508,12.342-27.508,27.51v186.197c0,15.168,12.34,27.51,27.508,27.51H293.1
				c15.168,0,27.508-12.342,27.508-27.51V56.901C320.607,41.733,308.268,29.392,293.1,29.392z M312.607,115.93v127.169
				c0,10.758-8.751,19.51-19.508,19.51H106.9c-10.757,0-19.508-8.752-19.508-19.51V115.17V56.901c0-10.758,8.751-19.51,19.508-19.51
				H293.1c10.757,0,19.508,8.752,19.508,19.51V115.93z"/>
		</g>
	</g>
	<path class="st2" d="M265.037,109.038c0,13.271-7.164,24.023-16.012,24.023S233,122.31,233,109.038
		c0-2.997,0.369-5.863,1.038-8.509c-11.497-0.998-23.258-1.531-35.236-1.531c-11.829,0-23.445,0.518-34.805,1.491
		c0.675,2.657,1.048,5.537,1.048,8.549c0,13.271-7.178,24.023-16.025,24.023c-8.836,0-16.012-10.752-16.012-24.023
		c0-1.61,0.107-3.183,0.309-4.704c-16.083,2.687-31.458,6.337-45.924,10.836v127.929c0,10.758,8.751,19.51,19.508,19.51H293.1
		c10.757,0,19.508-8.752,19.508-19.51V115.93c-15.026-4.804-31.062-8.681-47.869-11.511
		C264.933,105.914,265.037,107.457,265.037,109.038z M229.432,228.326c-0.73,0.292-1.483,0.431-2.225,0.431
		c-2.378,0-4.628-1.423-5.568-3.763c-0.096-0.233-7.836-18.892-21.565-18.892c-13.796,0-22.464,18.873-22.548,19.063
		c-1.332,3.034-4.872,4.417-7.905,3.083c-3.034-1.331-4.415-4.871-3.083-7.905c0.47-1.071,11.766-26.241,33.536-26.241
		c21.894,0,32.272,25.347,32.703,26.426C234.006,223.605,232.509,227.097,229.432,228.326z M286.756,151.985
		c8.24,0,14.918,27.557,14.918,35.797c0,8.236-6.678,14.91-14.918,14.91s-14.918-6.674-14.918-14.91
		C271.838,179.542,278.516,151.985,286.756,151.985z"/>
	<path class="st0" d="M286.756,202.692c8.24,0,14.918-6.674,14.918-14.91c0-8.24-6.678-35.797-14.918-35.797
		s-14.918,27.557-14.918,35.797C271.838,196.019,278.516,202.692,286.756,202.692z"/>
	<path class="st5" d="M293.1,37.392H106.9c-10.757,0-19.508,8.752-19.508,19.51v58.269c14.466-4.499,29.841-8.149,45.924-10.836
		c0.18-1.362,0.439-2.68,0.766-3.948c-6.173,3.811-11.324,4.797-14.993,4.797c-3.399,0-5.526-0.843-6.019-1.061l4.854-10.975
		c0,0-0.091-0.052-0.275-0.11c0.053,0.017,5.684,1.673,15.221-6.67c13.456-11.772,15.44-23.351,15.457-23.465
		c0.469-3.28,3.506-5.566,6.789-5.09c3.28,0.469,5.56,3.508,5.09,6.789c-0.07,0.494-1.48,9.597-9.78,20.512
		c6.225,0.813,11.43,6.958,13.569,15.377c11.36-0.973,22.977-1.491,34.805-1.491c11.979,0,23.739,0.533,35.236,1.531
		c1.977-7.82,6.597-13.684,12.225-15.151c-8.479-11.033-9.91-20.28-9.981-20.777c-0.469-3.28,1.81-6.32,5.09-6.789
		c3.259-0.472,6.292,1.788,6.782,5.044c0.096,0.581,2.107,11.826,15.463,23.511c9.248,8.091,14.885,6.802,14.933,6.782
		c3.03-1.343,6.574,0.026,7.916,3.056c1.342,3.03-0.026,6.574-3.057,7.916c-0.491,0.218-2.619,1.062-6.017,1.062
		c-3.302,0-7.808-0.807-13.177-3.747c0.215,0.969,0.392,1.963,0.523,2.983c16.808,2.83,32.843,6.707,47.869,11.511V56.901
		C312.607,46.144,303.856,37.392,293.1,37.392z"/>
	<path class="st4" d="M249.025,133.062c8.848,0,16.012-10.752,16.012-24.023c0-1.581-0.104-3.125-0.299-4.62
		c-0.132-1.02-0.309-2.014-0.523-2.983c5.369,2.94,9.875,3.747,13.177,3.747c3.397,0,5.525-0.844,6.017-1.062
		c3.03-1.342,4.398-4.886,3.057-7.916c-1.342-3.029-4.886-4.398-7.916-3.056c-0.048,0.02-5.685,1.309-14.933-6.782
		c-13.355-11.685-15.367-22.931-15.463-23.511c-0.49-3.256-3.523-5.516-6.782-5.044c-3.28,0.469-5.559,3.508-5.09,6.789
		c0.071,0.498,1.502,9.745,9.981,20.777c-5.628,1.467-10.248,7.331-12.225,15.151c-0.669,2.646-1.038,5.512-1.038,8.509
		C233,122.31,240.178,133.062,249.025,133.062z"/>
	<path class="st4" d="M149.02,133.062c8.848,0,16.025-10.752,16.025-24.023c0-3.012-0.373-5.892-1.048-8.549
		c-2.14-8.419-7.345-14.564-13.569-15.377c8.299-10.915,9.709-20.018,9.78-20.512c0.469-3.28-1.81-6.32-5.09-6.789
		c-3.283-0.476-6.32,1.81-6.789,5.09c-0.017,0.114-2.001,11.693-15.457,23.465c-9.537,8.344-15.168,6.687-15.221,6.67
		c0.185,0.059,0.275,0.11,0.275,0.11l-4.854,10.975c0.492,0.217,2.62,1.061,6.019,1.061c3.668,0,8.82-0.987,14.993-4.797
		c-0.327,1.268-0.586,2.586-0.766,3.948c-0.202,1.521-0.309,3.094-0.309,4.704C133.008,122.31,140.184,133.062,149.02,133.062z"/>
	<path class="st4" d="M200.073,194.103c-21.771,0-33.066,25.17-33.536,26.241c-1.332,3.034,0.049,6.574,3.083,7.905
		c3.034,1.334,6.574-0.049,7.905-3.083c0.084-0.19,8.751-19.063,22.548-19.063c13.729,0,21.47,18.658,21.565,18.892
		c0.94,2.34,3.19,3.763,5.568,3.763c0.741,0,1.494-0.139,2.225-0.431c3.077-1.229,4.574-4.721,3.345-7.798
		C232.346,219.449,221.967,194.103,200.073,194.103z"/>
</g>
</svg>
