<?xml version="1.0" encoding="utf-8"?>
<!-- Generator: Adobe Illustrator 15.0.0, SVG Export Plug-In . SVG Version: 6.00 Build 0)  -->
<!DOCTYPE svg PUBLIC "-//W3C//DTD SVG 1.1//EN" "http://www.w3.org/Graphics/SVG/1.1/DTD/svg11.dtd">
<svg version="1.1" id="レイヤー_1" xmlns="http://www.w3.org/2000/svg" xmlns:xlink="http://www.w3.org/1999/xlink" x="0px"
	 y="0px" width="400px" height="300px" viewBox="0 0 400 300" style="enable-background:new 0 0 400 300;" xml:space="preserve">
<style type="text/css">
<![CDATA[
	.st0{fill:#FFAB17;}
	.st1{fill:#FFE045;}
	.st2{fill:#FFF9D9;}
	.st3{fill:#303030;}
]]>
</style>
<g>
	<g>
		<g>
			<path class="st0" d="M293.1,17.392H106.9c-21.824,0-39.508,17.684-39.508,39.51v186.197c0,21.812,17.684,39.51,39.508,39.51
				H293.1c21.824,0,39.508-17.697,39.508-39.51V56.901C332.607,35.075,314.924,17.392,293.1,17.392z M320.607,243.099
				c0,15.168-12.34,27.51-27.508,27.51H106.9c-15.168,0-27.508-12.342-27.508-27.51V56.901c0-15.168,12.34-27.51,27.508-27.51H293.1
				c15.168,0,27.508,12.342,27.508,27.51V243.099z"/>
		</g>
	</g>
	<g>
		<g>
			<path class="st2" d="M293.1,29.392H106.9c-15.168,0-27.508,12.342-27.508,27.51v186.197c0,15.168,12.34,27.51,27.508,27.51H293.1
				c15.168,0,27.508-12.342,27.508-27.51V56.901C320.607,41.733,308.268,29.392,293.1,29.392z M312.607,243.099
				c0,10.758-8.751,19.51-19.508,19.51H106.9c-10.757,0-19.508-8.752-19.508-19.51V56.901c0-10.758,8.751-19.51,19.508-19.51H293.1
				c10.757,0,19.508,8.752,19.508,19.51V243.099z"/>
		</g>
	</g>
	<path class="st1" d="M293.1,37.392H106.9c-10.757,0-19.508,8.752-19.508,19.51v186.197c0,10.758,8.751,19.51,19.508,19.51H293.1
		c10.757,0,19.508-8.752,19.508-19.51V56.901C312.607,46.144,303.856,37.392,293.1,37.392z M111.617,125.778c0-3.313,2.687-6,6-6
		h48.376c3.313,0,6,2.687,6,6s-2.687,6-6,6h-48.376C114.304,131.778,111.617,129.092,111.617,125.778z M255.252,211.14
		c-11.716,12.729-33.432,19.165-64.603,19.165c-2.193,0-4.432-0.032-6.719-0.096c-3.57-0.1-10.318-1.508-20.206-3.645
		c-4.468-0.966-9.533-2.061-11.182-2.24c-3.615-0.396-6.225-3.646-5.83-7.262c0.396-3.615,3.654-6.222,7.262-5.83
		c2.217,0.242,6.207,1.093,12.532,2.46c6.043,1.306,15.175,3.279,17.791,3.353c38.37,1.069,54.496-7.471,61.265-14.824
		c5.511-5.987,5.158-11.66,5.152-11.715c-0.402-3.615,2.202-6.87,5.816-7.272c3.607-0.402,6.87,2.203,7.271,5.817
		C263.934,190.22,264.797,200.771,255.252,211.14z M281.635,131.778h-48.376c-3.313,0-6-2.687-6-6s2.687-6,6-6h48.376
		c3.313,0,6,2.687,6,6S284.948,131.778,281.635,131.778z"/>
	<path class="st3" d="M171.993,125.778c0-3.313-2.687-6-6-6h-48.376c-3.313,0-6,2.687-6,6s2.687,6,6,6h48.376
		C169.307,131.778,171.993,129.092,171.993,125.778z"/>
	<path class="st3" d="M281.635,119.778h-48.376c-3.313,0-6,2.687-6,6s2.687,6,6,6h48.376c3.313,0,6-2.687,6-6
		S284.948,119.778,281.635,119.778z"/>
	<path class="st3" d="M256.531,183.233c-3.614,0.402-6.219,3.657-5.816,7.272c0.006,0.055,0.358,5.728-5.152,11.715
		c-6.769,7.354-22.895,15.894-61.265,14.824c-2.616-0.073-11.748-2.047-17.791-3.353c-6.325-1.367-10.315-2.218-12.532-2.46
		c-3.608-0.392-6.866,2.215-7.262,5.83c-0.395,3.615,2.215,6.866,5.83,7.262c1.649,0.18,6.714,1.274,11.182,2.24
		c9.887,2.137,16.636,3.545,20.206,3.645c2.287,0.063,4.525,0.096,6.719,0.096c31.171,0,52.887-6.437,64.603-19.165
		c9.545-10.369,8.682-20.92,8.551-22.089C263.401,185.437,260.139,182.831,256.531,183.233z"/>
</g>
</svg>
