<?xml version="1.0" encoding="utf-8"?>
<!-- Generator: Adobe Illustrator 15.0.0, SVG Export Plug-In . SVG Version: 6.00 Build 0)  -->
<!DOCTYPE svg PUBLIC "-//W3C//DTD SVG 1.1//EN" "http://www.w3.org/Graphics/SVG/1.1/DTD/svg11.dtd">
<svg version="1.1" id="レイヤー_1" xmlns="http://www.w3.org/2000/svg" xmlns:xlink="http://www.w3.org/1999/xlink" x="0px"
	 y="0px" width="400px" height="300px" viewBox="0 0 400 300" style="enable-background:new 0 0 400 300;" xml:space="preserve">
<style type="text/css">
<![CDATA[
	.st0{fill:#F9AAB6;}
	.st1{fill:#FF5215;}
	.st2{fill:#FFAB17;}
	.st3{fill:#FFE045;}
	.st4{fill:#FFF9D9;}
	.st5{fill:#303030;}
]]>
</style>
<g>
	<g>
		<g>
			<path class="st2" d="M293.1,17.392H106.9c-21.824,0-39.508,17.684-39.508,39.509v186.198c0,21.812,17.684,39.51,39.508,39.51
				H293.1c21.824,0,39.508-17.697,39.508-39.51V56.9C332.607,35.075,314.924,17.392,293.1,17.392z M320.607,243.099
				c0,15.168-12.34,27.51-27.508,27.51H106.9c-15.168,0-27.508-12.342-27.508-27.51V56.9c0-15.168,12.34-27.509,27.508-27.509H293.1
				c15.168,0,27.508,12.341,27.508,27.509V243.099z"/>
		</g>
	</g>
	<g>
		<g>
			<path class="st4" d="M293.1,29.392H106.9c-15.168,0-27.508,12.341-27.508,27.509v186.198c0,15.168,12.34,27.51,27.508,27.51
				H293.1c15.168,0,27.508-12.342,27.508-27.51V56.9C320.607,41.732,308.268,29.392,293.1,29.392z M312.607,243.099
				c0,10.758-8.751,19.51-19.508,19.51H106.9c-10.757,0-19.508-8.752-19.508-19.51V56.9c0-10.757,8.751-19.509,19.508-19.509H293.1
				c10.757,0,19.508,8.752,19.508,19.509V243.099z"/>
		</g>
	</g>
	<path class="st3" d="M293.1,37.392H106.9c-10.757,0-19.508,8.752-19.508,19.509v186.198c0,10.758,8.751,19.51,19.508,19.51H293.1
		c10.757,0,19.508-8.752,19.508-19.51V56.9C312.607,46.144,303.856,37.392,293.1,37.392z M105.532,141.333
		c0-6.2,7.663-11.504,18.51-13.677c-0.593-1.258-0.801-2.709-0.489-4.173c2.754-12.93,13.602-23.704,27.635-27.45
		c7.094-1.894,14.441-1.882,21.249,0.033c3.501,0.984,5.541,4.62,4.556,8.121c-0.984,3.502-4.621,5.542-8.122,4.557
		c-4.535-1.275-9.476-1.271-14.288,0.014c-9.294,2.48-16.418,9.337-18.15,17.469c-0.029,0.136-0.083,0.259-0.12,0.392
		c15.652,0.349,28.133,6.804,28.133,14.715c0,8.134-13.193,14.73-29.463,14.73C118.716,156.063,105.532,149.467,105.532,141.333z
		 M252.73,205.077c-7.488,13.505-22.633,29.604-52.256,29.604c-29.539,0-45.324-16.021-53.365-29.461
		c-8.545-14.283-10.202-28.446-10.268-29.043c-0.157-1.413,0.295-2.827,1.243-3.887c0.949-1.061,2.304-1.666,3.726-1.666h114.954
		c1.385,0,2.707,0.574,3.653,1.586c0.945,1.012,1.429,2.37,1.335,3.751C261.713,176.559,260.673,190.753,252.73,205.077z
		 M269.531,156.063c-16.268,0-29.451-6.596-29.451-14.73c0-7.13,10.13-13.078,23.587-14.438c-0.072-0.221-0.155-0.436-0.205-0.668
		c-1.731-8.132-8.856-14.988-18.15-17.469c-4.812-1.285-9.753-1.289-14.287-0.014c-3.501,0.982-7.137-1.055-8.122-4.557
		c-0.984-3.501,1.056-7.137,4.556-8.121c6.81-1.915,14.158-1.926,21.25-0.032c14.033,3.745,24.881,14.52,27.635,27.449
		c0.257,1.207,0.158,2.404-0.214,3.493c13.093,1.499,22.865,7.356,22.865,14.356C298.994,149.468,285.801,156.063,269.531,156.063z"
		/>
	<path class="st1" d="M200.475,224.681c19.875,0,34.514-8.228,43.51-24.453c4.104-7.399,6.081-14.807,7.011-19.604H147.808
		C150.856,193.625,162.15,224.681,200.475,224.681z"/>
	<path class="st5" d="M256.765,170.624H141.811c-1.422,0-2.777,0.605-3.726,1.666c-0.948,1.06-1.4,2.474-1.243,3.887
		c0.066,0.597,1.723,14.76,10.268,29.043c8.041,13.439,23.827,29.461,53.365,29.461c29.623,0,44.768-16.099,52.256-29.604
		c7.942-14.324,8.982-28.519,9.022-29.116c0.094-1.381-0.39-2.739-1.335-3.751C259.472,171.198,258.149,170.624,256.765,170.624z
		 M243.984,200.228c-8.996,16.226-23.635,24.453-43.51,24.453c-38.325,0-49.619-31.056-52.667-44.057h103.187
		C250.065,185.421,248.088,192.828,243.984,200.228z"/>
	<path class="st0" d="M276.129,126.977c-0.725,2.119-2.505,3.818-4.854,4.318c-0.463,0.099-0.925,0.146-1.379,0.146
		c-2.813,0.001-5.341-1.825-6.229-4.546c-13.457,1.36-23.587,7.309-23.587,14.438c0,8.135,13.184,14.73,29.451,14.73
		c16.27,0,29.463-6.596,29.463-14.73C298.994,134.333,289.222,128.476,276.129,126.977z"/>
	<path class="st0" d="M164.446,141.333c0-7.911-12.481-14.366-28.133-14.715c-0.801,2.874-3.406,4.822-6.314,4.822
		c-0.454,0-0.916-0.047-1.378-0.146c-2.092-0.445-3.733-1.843-4.58-3.639c-10.847,2.173-18.51,7.477-18.51,13.677
		c0,8.134,13.184,14.73,29.451,14.73C151.253,156.063,164.446,149.467,164.446,141.333z"/>
	<path class="st5" d="M269.896,131.44c0.454,0,0.916-0.047,1.379-0.146c2.35-0.5,4.13-2.199,4.854-4.318
		c0.372-1.089,0.471-2.286,0.214-3.493c-2.754-12.93-13.602-23.704-27.635-27.449c-7.092-1.894-14.44-1.883-21.25,0.032
		c-3.5,0.984-5.54,4.62-4.556,8.121c0.985,3.502,4.621,5.539,8.122,4.557c4.534-1.275,9.476-1.271,14.287,0.014
		c9.294,2.48,16.419,9.337,18.15,17.469c0.05,0.232,0.133,0.447,0.205,0.668C264.555,129.615,267.082,131.441,269.896,131.44z"/>
	<path class="st5" d="M128.622,131.295c0.462,0.099,0.924,0.146,1.378,0.146c2.908,0,5.513-1.948,6.314-4.822
		c0.037-0.133,0.091-0.256,0.12-0.392c1.732-8.132,8.856-14.988,18.15-17.469c4.812-1.284,9.752-1.289,14.288-0.014
		c3.501,0.985,7.138-1.055,8.122-4.557c0.984-3.501-1.055-7.137-4.556-8.121c-6.808-1.915-14.155-1.927-21.249-0.033
		c-14.034,3.746-24.881,14.521-27.635,27.45c-0.312,1.464-0.104,2.915,0.489,4.173C124.889,129.452,126.529,130.85,128.622,131.295z
		"/>
</g>
</svg>
