<?xml version="1.0" encoding="utf-8"?>
<!-- Generator: Adobe Illustrator 15.0.0, SVG Export Plug-In . SVG Version: 6.00 Build 0)  -->
<!DOCTYPE svg PUBLIC "-//W3C//DTD SVG 1.1//EN" "http://www.w3.org/Graphics/SVG/1.1/DTD/svg11.dtd">
<svg version="1.1" id="レイヤー_1" xmlns="http://www.w3.org/2000/svg" xmlns:xlink="http://www.w3.org/1999/xlink" x="0px"
	 y="0px" width="400px" height="300px" viewBox="0 0 400 300" style="enable-background:new 0 0 400 300;" xml:space="preserve">
<style type="text/css">
<![CDATA[
	.st0{fill:#19A3F7;}
	.st1{fill:#FF5215;}
	.st2{fill:#FFAB17;}
	.st3{fill:#FFE045;}
	.st4{fill:#FFF9D9;}
	.st5{fill:#303030;}
]]>
</style>
<g>
	<g>
		<g>
			<path class="st2" d="M293.1,17.392H106.9c-21.824,0-39.508,17.684-39.508,39.51v186.197c0,21.812,17.684,39.51,39.508,39.51
				H293.1c21.824,0,39.508-17.697,39.508-39.51V56.901C332.607,35.075,314.924,17.392,293.1,17.392z M320.607,243.099
				c0,15.168-12.34,27.51-27.508,27.51H106.9c-15.168,0-27.508-12.342-27.508-27.51V56.901c0-15.168,12.34-27.51,27.508-27.51H293.1
				c15.168,0,27.508,12.342,27.508,27.51V243.099z"/>
		</g>
	</g>
	<g>
		<g>
			<path class="st4" d="M293.1,29.392H106.9c-15.168,0-27.508,12.342-27.508,27.51v186.197c0,15.168,12.34,27.51,27.508,27.51H293.1
				c15.168,0,27.508-12.342,27.508-27.51V56.901C320.607,41.733,308.268,29.392,293.1,29.392z M312.607,243.099
				c0,10.758-8.751,19.51-19.508,19.51H106.9c-10.757,0-19.508-8.752-19.508-19.51V56.901c0-10.758,8.751-19.51,19.508-19.51H293.1
				c10.757,0,19.508,8.752,19.508,19.51V243.099z"/>
		</g>
	</g>
	<path class="st3" d="M293.1,37.392H106.9c-10.757,0-19.508,8.752-19.508,19.51v186.197c0,10.758,8.751,19.51,19.508,19.51H293.1
		c10.757,0,19.508-8.752,19.508-19.51V56.901C312.607,46.144,303.856,37.392,293.1,37.392z M133.008,109.038
		c0-13.271,7.176-24.023,16.012-24.023c8.848,0,16.025,10.752,16.025,24.023s-7.178,24.023-16.025,24.023
		C140.184,133.062,133.008,122.31,133.008,109.038z M246.189,237.164c-2.603,1.697-5.683,2.558-9.154,2.559c0,0-0.001,0-0.002,0
		c-5.163,0-10.659-1.851-16.478-3.81c-6.074-2.045-12.352-4.159-18.697-4.396c-6.338,0.378-12.567,2.631-18.594,4.81
		c-5.945,2.15-11.561,4.182-16.863,4.182c-3.275,0-6.214-0.794-8.736-2.359c-4.44-2.757-5.905-8.842-3.918-16.278
		c4.02-15.044,20.28-30.631,47.544-31.54c0.074-0.003,0.147-0.002,0.223-0.003c27.277,0.303,43.879,15.524,48.232,30.476
		C251.897,228.193,250.568,234.31,246.189,237.164z M249.025,133.062c-8.848,0-16.025-10.752-16.025-24.023
		s7.178-24.023,16.025-24.023s16.012,10.752,16.012,24.023S257.873,133.062,249.025,133.062z M288.361,202.692
		c-8.24,0-14.918-6.674-14.918-14.91c0-8.24,6.678-35.797,14.918-35.797s14.918,27.557,14.918,35.797
		C303.279,196.019,296.602,202.692,288.361,202.692z"/>
	<path class="st5" d="M249.025,85.015c-8.848,0-16.025,10.752-16.025,24.023s7.178,24.023,16.025,24.023
		s16.012-10.752,16.012-24.023S257.873,85.015,249.025,85.015z"/>
	<path class="st5" d="M165.045,109.038c0-13.271-7.178-24.023-16.025-24.023c-8.836,0-16.012,10.752-16.012,24.023
		s7.176,24.023,16.012,24.023C157.867,133.062,165.045,122.31,165.045,109.038z"/>
	<path class="st1" d="M201.514,200.329c-24.746,0.866-34.02,15.129-36.275,19.485c-2.748,5.306-2.518,9.034-2.094,9.96
		c0.895,0.5,1.937,0.734,3.256,0.734c3.549,0,8.365-1.741,13.462-3.585c6.462-2.337,13.786-4.985,21.675-5.404
		c0.14-0.008,0.28-0.008,0.418-0.005c7.897,0.243,15.278,2.729,21.79,4.921c5.021,1.69,9.764,3.287,13.288,3.287
		c1.438,0,2.555-0.259,3.491-0.81c0.403-0.936,0.55-4.669-2.314-9.912C235.858,214.696,226.271,200.645,201.514,200.329z"/>
	<path class="st5" d="M201.514,190.328c-0.075,0.001-0.148,0-0.223,0.003c-27.264,0.909-43.524,16.496-47.544,31.54
		c-1.987,7.437-0.522,13.521,3.918,16.278c2.521,1.565,5.46,2.359,8.736,2.359c5.302,0,10.918-2.031,16.863-4.182
		c6.027-2.179,12.256-4.432,18.594-4.81c6.346,0.236,12.623,2.351,18.697,4.396c5.818,1.959,11.314,3.81,16.478,3.81
		c0.001,0,0.002,0,0.002,0c3.472-0.001,6.552-0.861,9.154-2.559c4.379-2.854,5.708-8.971,3.557-16.36
		C245.393,205.853,228.791,190.631,201.514,190.328z M240.525,228.913c-0.937,0.551-2.054,0.81-3.491,0.81
		c-3.524,0-8.267-1.597-13.288-3.287c-6.512-2.192-13.893-4.678-21.79-4.921c-0.138-0.003-0.278-0.003-0.418,0.005
		c-7.889,0.419-15.213,3.067-21.675,5.404c-5.098,1.844-9.913,3.585-13.462,3.585c-1.319,0-2.361-0.234-3.256-0.734
		c-0.424-0.926-0.654-4.654,2.094-9.96c2.255-4.356,11.529-18.619,36.275-19.485c24.757,0.315,34.345,14.367,36.697,18.672
		C241.075,224.244,240.929,227.978,240.525,228.913z"/>
	<path class="st0" d="M288.361,151.985c-8.24,0-14.918,27.557-14.918,35.797c0,8.236,6.678,14.91,14.918,14.91
		s14.918-6.674,14.918-14.91C303.279,179.542,296.602,151.985,288.361,151.985z"/>
</g>
</svg>
