<?xml version="1.0" encoding="utf-8"?>
<!-- Generator: Adobe Illustrator 15.0.0, SVG Export Plug-In . SVG Version: 6.00 Build 0)  -->
<!DOCTYPE svg PUBLIC "-//W3C//DTD SVG 1.1//EN" "http://www.w3.org/Graphics/SVG/1.1/DTD/svg11.dtd">
<svg version="1.1" id="レイヤー_1" xmlns="http://www.w3.org/2000/svg" xmlns:xlink="http://www.w3.org/1999/xlink" x="0px"
	 y="0px" width="400px" height="300px" viewBox="0 0 400 300" style="enable-background:new 0 0 400 300;" xml:space="preserve">
<style type="text/css">
<![CDATA[
	.st0{fill:#FF5215;}
	.st1{fill:#FFAB17;}
	.st2{fill:#FFE045;}
	.st3{fill:#FFF9D9;}
	.st4{fill:#303030;}
]]>
</style>
<g>
	<g>
		<g>
			<path class="st1" d="M293.1,17.392H106.9c-21.824,0-39.508,17.684-39.508,39.51v186.197c0,21.812,17.684,39.51,39.508,39.51
				H293.1c21.824,0,39.508-17.697,39.508-39.51V56.901C332.607,35.075,314.924,17.392,293.1,17.392z M320.607,243.099
				c0,15.168-12.34,27.51-27.508,27.51H106.9c-15.168,0-27.508-12.342-27.508-27.51V56.901c0-15.168,12.34-27.51,27.508-27.51H293.1
				c15.168,0,27.508,12.342,27.508,27.51V243.099z"/>
		</g>
	</g>
	<g>
		<g>
			<path class="st3" d="M293.1,29.392H106.9c-15.168,0-27.508,12.342-27.508,27.51v186.197c0,15.168,12.34,27.51,27.508,27.51H293.1
				c15.168,0,27.508-12.342,27.508-27.51V56.901C320.607,41.733,308.268,29.392,293.1,29.392z M312.607,243.099
				c0,10.758-8.751,19.51-19.508,19.51H106.9c-10.757,0-19.508-8.752-19.508-19.51V56.901c0-10.758,8.751-19.51,19.508-19.51H293.1
				c10.757,0,19.508,8.752,19.508,19.51V243.099z"/>
		</g>
	</g>
	<path class="st2" d="M293.1,37.392H106.9c-10.757,0-19.508,8.752-19.508,19.51v186.197c0,10.758,8.751,19.51,19.508,19.51H293.1
		c10.757,0,19.508-8.752,19.508-19.51V56.901C312.607,46.144,303.856,37.392,293.1,37.392z M149.02,133.062
		c-8.836,0-16.012-10.752-16.012-24.023s7.176-24.023,16.012-24.023c8.848,0,16.025,10.752,16.025,24.023
		S157.867,133.062,149.02,133.062z M201.259,250.778c-15.14,0-27-17.131-27-39s11.86-39,27-39c15.14,0,27,17.131,27,39
		S216.398,250.778,201.259,250.778z M249.025,133.062c-8.848,0-16.025-10.752-16.025-24.023s7.178-24.023,16.025-24.023
		s16.012,10.752,16.012,24.023S257.873,133.062,249.025,133.062z"/>
	<path class="st4" d="M249.025,85.015c-8.848,0-16.025,10.752-16.025,24.023s7.178,24.023,16.025,24.023
		s16.012-10.752,16.012-24.023S257.873,85.015,249.025,85.015z"/>
	<path class="st4" d="M149.02,85.015c-8.836,0-16.012,10.752-16.012,24.023s7.176,24.023,16.012,24.023
		c8.848,0,16.025-10.752,16.025-24.023S157.867,85.015,149.02,85.015z"/>
	<path class="st0" d="M201.259,182.778c-9.215,0-17,13.28-17,29s7.785,29,17,29s17-13.28,17-29S210.474,182.778,201.259,182.778z"/>
	<path class="st4" d="M201.259,172.778c-15.14,0-27,17.131-27,39s11.86,39,27,39c15.14,0,27-17.131,27-39
		S216.398,172.778,201.259,172.778z M201.259,240.778c-9.215,0-17-13.28-17-29s7.785-29,17-29s17,13.28,17,29
		S210.474,240.778,201.259,240.778z"/>
</g>
</svg>
