<?xml version="1.0" encoding="utf-8"?>
<!-- Generator: Adobe Illustrator 15.0.0, SVG Export Plug-In . SVG Version: 6.00 Build 0)  -->
<!DOCTYPE svg PUBLIC "-//W3C//DTD SVG 1.1//EN" "http://www.w3.org/Graphics/SVG/1.1/DTD/svg11.dtd">
<svg version="1.1" id="レイヤー_1" xmlns="http://www.w3.org/2000/svg" xmlns:xlink="http://www.w3.org/1999/xlink" x="0px"
	 y="0px" width="400px" height="300px" viewBox="0 0 400 300" style="enable-background:new 0 0 400 300;" xml:space="preserve">
<style type="text/css">
<![CDATA[
	.st0{fill:#FFAB17;}
	.st1{fill:#FFE045;}
	.st2{fill:#FFF9D9;}
	.st3{fill:#303030;}
]]>
</style>
<g>
	<g>
		<g>
			<path class="st0" d="M293.1,17.392H106.9c-21.824,0-39.508,17.684-39.508,39.51v186.197c0,21.812,17.684,39.51,39.508,39.51
				H293.1c21.824,0,39.508-17.697,39.508-39.51V56.901C332.607,35.075,314.924,17.392,293.1,17.392z M320.607,243.099
				c0,15.168-12.34,27.51-27.508,27.51H106.9c-15.168,0-27.508-12.342-27.508-27.51V56.901c0-15.168,12.34-27.51,27.508-27.51H293.1
				c15.168,0,27.508,12.342,27.508,27.51V243.099z"/>
		</g>
	</g>
	<g>
		<g>
			<path class="st2" d="M293.1,29.392H106.9c-15.168,0-27.508,12.342-27.508,27.51v186.197c0,15.168,12.34,27.51,27.508,27.51H293.1
				c15.168,0,27.508-12.342,27.508-27.51V56.901C320.607,41.733,308.268,29.392,293.1,29.392z M312.607,243.099
				c0,10.758-8.751,19.51-19.508,19.51H106.9c-10.757,0-19.508-8.752-19.508-19.51V56.901c0-10.758,8.751-19.51,19.508-19.51H293.1
				c10.757,0,19.508,8.752,19.508,19.51V243.099z"/>
		</g>
	</g>
	<path class="st1" d="M293.1,37.392H106.9c-10.757,0-19.508,8.752-19.508,19.51v186.197c0,10.758,8.751,19.51,19.508,19.51H293.1
		c10.757,0,19.508-8.752,19.508-19.51V56.901C312.607,46.144,303.856,37.392,293.1,37.392z M136.045,149.575
		c-2.364,0-4.648-1.276-5.829-3.512c-1.698-3.216-0.467-7.199,2.749-8.897l25.506-13.465l-25.75-15.024
		c-3.141-1.833-4.202-5.865-2.369-9.006c1.832-3.142,5.864-4.202,9.006-2.369l35.992,20.999c2.066,1.205,3.315,3.436,3.265,5.827
		c-0.051,2.391-1.394,4.567-3.509,5.684l-35.992,19.001C138.133,149.33,137.082,149.575,136.045,149.575z M240.969,234.125h-77.584
		c-3.313,0-6-2.687-6-6s2.687-6,6-6h77.584c3.313,0,6,2.687,6,6S244.282,234.125,240.969,234.125z M270.792,146.063
		c-1.181,2.235-3.465,3.512-5.829,3.512c-1.036,0-2.088-0.245-3.068-0.763l-35.992-19.001c-2.115-1.117-3.458-3.292-3.509-5.684
		s1.199-4.622,3.265-5.827l35.992-20.999c3.138-1.833,7.173-0.773,9.006,2.369c1.833,3.141,0.771,7.173-2.369,9.006l-25.751,15.024
		l25.507,13.465C271.259,138.864,272.489,142.848,270.792,146.063z"/>
	<path class="st3" d="M178.615,124.128c0.05-2.391-1.199-4.622-3.265-5.827l-35.992-20.999c-3.142-1.833-7.174-0.772-9.006,2.369
		c-1.833,3.141-0.772,7.173,2.369,9.006l25.75,15.024l-25.506,13.465c-3.216,1.698-4.447,5.682-2.749,8.897
		c1.181,2.235,3.465,3.512,5.829,3.512c1.036,0,2.088-0.245,3.068-0.763l35.992-19.001
		C177.221,128.695,178.564,126.519,178.615,124.128z"/>
	<path class="st3" d="M268.043,137.166l-25.507-13.465l25.751-15.024c3.141-1.833,4.202-5.865,2.369-9.006
		c-1.833-3.142-5.868-4.202-9.006-2.369l-35.992,20.999c-2.065,1.205-3.315,3.436-3.265,5.827s1.394,4.567,3.509,5.684
		l35.992,19.001c0.98,0.518,2.032,0.763,3.068,0.763c2.364,0,4.648-1.276,5.829-3.512
		C272.489,142.848,271.259,138.864,268.043,137.166z"/>
	<path class="st3" d="M240.969,222.125h-77.584c-3.313,0-6,2.687-6,6s2.687,6,6,6h77.584c3.313,0,6-2.687,6-6
		S244.282,222.125,240.969,222.125z"/>
</g>
</svg>
