<?xml version="1.0" encoding="utf-8"?>
<!-- Generator: Adobe Illustrator 15.0.0, SVG Export Plug-In . SVG Version: 6.00 Build 0)  -->
<!DOCTYPE svg PUBLIC "-//W3C//DTD SVG 1.1//EN" "http://www.w3.org/Graphics/SVG/1.1/DTD/svg11.dtd">
<svg version="1.1" id="レイヤー_1" xmlns="http://www.w3.org/2000/svg" xmlns:xlink="http://www.w3.org/1999/xlink" x="0px"
	 y="0px" width="400px" height="300px" viewBox="0 0 400 300" style="enable-background:new 0 0 400 300;" xml:space="preserve">
<style type="text/css">
<![CDATA[
	.st0{fill:#FFAB17;}
	.st1{fill:#FFE045;}
	.st2{fill:#FFFBE9;}
	.st3{fill:#303030;}
]]>
</style>
<g>
	<g>
		<g>
			<path class="st0" d="M293.1,17.392H106.9c-21.824,0-39.508,17.684-39.508,39.509v186.198c0,21.812,17.684,39.51,39.508,39.51
				H293.1c21.824,0,39.508-17.697,39.508-39.51V56.9C332.607,35.075,314.924,17.392,293.1,17.392z M320.607,243.099
				c0,15.168-12.34,27.51-27.508,27.51H106.9c-15.168,0-27.508-12.342-27.508-27.51V56.9c0-15.168,12.34-27.509,27.508-27.509H293.1
				c15.168,0,27.508,12.341,27.508,27.509V243.099z"/>
		</g>
	</g>
	<g>
		<g>
			<path class="st2" d="M293.1,29.392H106.9c-15.168,0-27.508,12.341-27.508,27.509v186.198c0,15.168,12.34,27.51,27.508,27.51
				H293.1c15.168,0,27.508-12.342,27.508-27.51V56.9C320.607,41.732,308.268,29.392,293.1,29.392z M312.607,243.099
				c0,10.758-8.751,19.51-19.508,19.51H106.9c-10.757,0-19.508-8.752-19.508-19.51V56.9c0-10.757,8.751-19.509,19.508-19.509H293.1
				c10.757,0,19.508,8.752,19.508,19.509V243.099z"/>
		</g>
	</g>
	<path class="st1" d="M293.1,37.392H106.9c-10.757,0-19.508,8.752-19.508,19.509v186.198c0,10.758,8.751,19.51,19.508,19.51H293.1
		c10.757,0,19.508-8.752,19.508-19.51V56.9C312.607,46.144,303.856,37.392,293.1,37.392z M249.025,85.014
		c8.848,0,16.012,10.752,16.012,24.023c0,13.272-7.164,24.024-16.012,24.024S233,122.31,233,109.037
		C233,95.766,240.178,85.014,249.025,85.014z M149.02,85.014c8.848,0,16.025,10.752,16.025,24.023
		c0,13.272-7.178,24.024-16.025,24.024c-8.836,0-16.012-10.752-16.012-24.024C133.008,95.766,140.184,85.014,149.02,85.014z
		 M287.327,183.182c-0.845,1.658-21.465,40.595-87.841,40.595c-65.691,0-83.983-39.192-84.73-40.86
		c-1.31-2.928,0.001-6.362,2.929-7.673c2.917-1.307,6.341-0.006,7.66,2.902c0.671,1.448,16.436,34.018,74.142,34.018
		c58.874,0,76.776-32.885,77.51-34.285c1.48-2.829,4.978-3.946,7.817-2.479C287.651,176.866,288.778,180.336,287.327,183.182z"/>
	<path class="st3" d="M249.025,133.062c8.848,0,16.012-10.752,16.012-24.024c0-13.271-7.164-24.023-16.012-24.023
		S233,95.766,233,109.037C233,122.31,240.178,133.062,249.025,133.062z"/>
	<path class="st3" d="M149.02,133.062c8.848,0,16.025-10.752,16.025-24.024c0-13.271-7.178-24.023-16.025-24.023
		c-8.836,0-16.012,10.752-16.012,24.023C133.008,122.31,140.184,133.062,149.02,133.062z"/>
	<path class="st3" d="M284.813,175.399c-2.84-1.468-6.337-0.351-7.817,2.479c-0.733,1.4-18.636,34.285-77.51,34.285
		c-57.706,0-73.471-32.569-74.142-34.018c-1.319-2.908-4.742-4.209-7.66-2.902c-2.927,1.311-4.239,4.745-2.929,7.673
		c0.747,1.668,19.039,40.86,84.73,40.86c66.376,0,86.996-38.937,87.841-40.595C288.778,180.336,287.651,176.866,284.813,175.399z"/>
</g>
</svg>
