<?xml version="1.0" encoding="utf-8"?>
<!-- Generator: Adobe Illustrator 15.0.0, SVG Export Plug-In . SVG Version: 6.00 Build 0)  -->
<!DOCTYPE svg PUBLIC "-//W3C//DTD SVG 1.1//EN" "http://www.w3.org/Graphics/SVG/1.1/DTD/svg11.dtd">
<svg version="1.1" id="レイヤー_1" xmlns="http://www.w3.org/2000/svg" xmlns:xlink="http://www.w3.org/1999/xlink" x="0px"
	 y="0px" width="400px" height="300px" viewBox="0 0 400 300" style="enable-background:new 0 0 400 300;" xml:space="preserve">
<style type="text/css">
<![CDATA[
	.st0{fill:#19A3F7;}
	.st1{fill:#FF5215;}
	.st2{fill:#FFAB17;}
	.st3{fill:#FFE045;}
	.st4{fill:#FFF9D9;}
	.st5{fill:#303030;}
]]>
</style>
<g>
	<g>
		<g>
			<path class="st2" d="M293.1,17.392H106.9c-21.824,0-39.508,17.684-39.508,39.51v186.197c0,21.812,17.684,39.51,39.508,39.51
				H293.1c21.824,0,39.508-17.697,39.508-39.51V56.901C332.607,35.075,314.924,17.392,293.1,17.392z M320.607,243.099
				c0,15.168-12.34,27.51-27.508,27.51H106.9c-15.168,0-27.508-12.342-27.508-27.51V56.901c0-15.168,12.34-27.51,27.508-27.51H293.1
				c15.168,0,27.508,12.342,27.508,27.51V243.099z"/>
		</g>
	</g>
	<g>
		<g>
			<path class="st4" d="M293.1,29.392H106.9c-15.168,0-27.508,12.342-27.508,27.51v186.197c0,15.168,12.34,27.51,27.508,27.51H293.1
				c15.168,0,27.508-12.342,27.508-27.51V56.901C320.607,41.733,308.268,29.392,293.1,29.392z M312.607,243.099
				c0,10.758-8.751,19.51-19.508,19.51H106.9c-10.757,0-19.508-8.752-19.508-19.51V56.901c0-10.758,8.751-19.51,19.508-19.51H293.1
				c10.757,0,19.508,8.752,19.508,19.51V243.099z"/>
		</g>
	</g>
	<path class="st3" d="M293.1,37.392H106.9c-10.757,0-19.508,8.752-19.508,19.51v186.197c0,10.758,8.751,19.51,19.508,19.51H293.1
		c10.757,0,19.508-8.752,19.508-19.51V56.901C312.607,46.144,303.856,37.392,293.1,37.392z M111.916,208.726
		c-8.24,0-14.918-6.673-14.918-14.909c0-8.241,6.678-35.798,14.918-35.798s14.918,27.557,14.918,35.798
		C126.834,202.053,120.156,208.726,111.916,208.726z M134.123,122.993c0.118,2.93-2.16,5.4-5.09,5.519
		c-0.073,0.003-0.146,0.005-0.219,0.005c-2.832,0-5.185-2.238-5.301-5.094c-0.334-8.267,1.834-16.195,6.104-22.326
		c4.585-6.58,11.017-10.363,18.113-10.65c14.063-0.596,26.091,13.299,26.803,30.911c0.118,2.93-2.16,5.401-5.089,5.519
		c-2.922,0.113-5.401-2.159-5.52-5.089c-0.469-11.564-7.734-18.558-15.766-18.237c-3.698,0.15-7.189,2.32-9.83,6.111
		C135.375,113.902,133.881,117.028,134.123,122.993z M254.616,204.57c-7.488,13.505-22.633,29.604-52.256,29.604
		c-29.539,0-45.324-16.021-53.365-29.461c-8.545-14.283-10.202-28.446-10.268-29.043c-0.157-1.413,0.295-2.827,1.243-3.887
		c0.949-1.061,2.304-1.666,3.726-1.666H258.65c1.385,0,2.707,0.574,3.652,1.586c0.946,1.012,1.43,2.37,1.336,3.751
		C263.599,176.052,262.559,190.246,254.616,204.57z M277.701,123.423c-0.116,2.855-2.469,5.094-5.301,5.094
		c-0.072,0-0.146-0.002-0.219-0.005c-2.93-0.118-5.208-2.589-5.09-5.519c0.242-5.965-1.252-9.091-4.207-13.332
		c-2.641-3.791-6.132-5.961-9.83-6.111c-8.031-0.32-15.297,6.673-15.766,18.237c-0.118,2.93-2.598,5.202-5.52,5.089
		c-2.929-0.117-5.207-2.589-5.089-5.519c0.712-17.612,12.739-31.507,26.803-30.911c7.097,0.287,13.528,4.07,18.113,10.65
		C275.867,107.228,278.035,115.156,277.701,123.423z"/>
	<path class="st1" d="M202.36,224.174c19.875,0,34.514-8.228,43.51-24.453c4.104-7.399,6.081-14.807,7.011-19.604H149.694
		C152.742,193.118,164.036,224.174,202.36,224.174z"/>
	<path class="st5" d="M258.65,170.117H143.696c-1.422,0-2.777,0.605-3.726,1.666c-0.948,1.06-1.4,2.474-1.243,3.887
		c0.066,0.597,1.723,14.76,10.268,29.043c8.041,13.439,23.827,29.461,53.365,29.461c29.623,0,44.768-16.099,52.256-29.604
		c7.942-14.324,8.982-28.519,9.022-29.116c0.094-1.381-0.39-2.739-1.336-3.751C261.357,170.691,260.035,170.117,258.65,170.117z
		 M245.87,199.721c-8.996,16.226-23.635,24.453-43.51,24.453c-38.325,0-49.619-31.056-52.667-44.057h103.187
		C251.951,184.914,249.974,192.321,245.87,199.721z"/>
	<path class="st5" d="M253.483,90.446c-14.063-0.596-26.091,13.299-26.803,30.911c-0.118,2.93,2.16,5.401,5.089,5.519
		c2.922,0.113,5.401-2.159,5.52-5.089c0.469-11.564,7.734-18.558,15.766-18.237c3.698,0.15,7.189,2.32,9.83,6.111
		c2.955,4.241,4.449,7.367,4.207,13.332c-0.118,2.93,2.16,5.4,5.09,5.519c0.073,0.003,0.146,0.005,0.219,0.005
		c2.832,0,5.185-2.238,5.301-5.094c0.334-8.267-1.834-16.195-6.104-22.326C267.012,94.517,260.58,90.733,253.483,90.446z"/>
	<path class="st5" d="M148.16,103.55c8.031-0.32,15.297,6.673,15.766,18.237c0.118,2.93,2.598,5.202,5.52,5.089
		c2.929-0.117,5.207-2.589,5.089-5.519c-0.712-17.612-12.739-31.507-26.803-30.911c-7.097,0.287-13.528,4.07-18.113,10.65
		c-4.271,6.131-6.438,14.06-6.104,22.326c0.116,2.855,2.469,5.094,5.301,5.094c0.072,0,0.146-0.002,0.219-0.005
		c2.93-0.118,5.208-2.589,5.09-5.519c-0.242-5.965,1.252-9.091,4.207-13.332C140.971,105.87,144.462,103.7,148.16,103.55z"/>
	<path class="st0" d="M111.916,158.019c-8.24,0-14.918,27.557-14.918,35.798c0,8.236,6.678,14.909,14.918,14.909
		s14.918-6.673,14.918-14.909C126.834,185.575,120.156,158.019,111.916,158.019z"/>
</g>
</svg>
