<?xml version="1.0" encoding="utf-8"?>
<!-- Generator: Adobe Illustrator 15.0.0, SVG Export Plug-In . SVG Version: 6.00 Build 0)  -->
<!DOCTYPE svg PUBLIC "-//W3C//DTD SVG 1.1//EN" "http://www.w3.org/Graphics/SVG/1.1/DTD/svg11.dtd">
<svg version="1.1" id="レイヤー_1" xmlns="http://www.w3.org/2000/svg" xmlns:xlink="http://www.w3.org/1999/xlink" x="0px"
	 y="0px" width="400px" height="300px" viewBox="0 0 400 300" style="enable-background:new 0 0 400 300;" xml:space="preserve">
<style type="text/css">
<![CDATA[
	.st0{fill:#19A3F7;}
	.st1{fill:#FF5215;}
	.st2{fill:#FFAB17;}
	.st3{fill:#FFE045;}
	.st4{fill:#FFF9D9;}
	.st5{fill:#FFFFFF;}
	.st6{fill:#303030;}
	.st7{fill:#A2C0ED;}
]]>
</style>
<g>
	<g>
		<g>
			<path class="st2" d="M293.1,17.392H106.9c-21.824,0-39.508,17.684-39.508,39.51v186.197c0,21.812,17.684,39.51,39.508,39.51
				H293.1c21.824,0,39.508-17.697,39.508-39.51V56.901C332.607,35.075,314.924,17.392,293.1,17.392z M320.607,243.099
				c0,15.168-12.34,27.51-27.508,27.51H106.9c-15.168,0-27.508-12.342-27.508-27.51V56.901c0-15.168,12.34-27.51,27.508-27.51H293.1
				c15.168,0,27.508,12.342,27.508,27.51V243.099z"/>
		</g>
	</g>
	<g>
		<g>
			<path class="st4" d="M293.1,29.392H106.9c-15.168,0-27.508,12.342-27.508,27.51v186.197c0,15.168,12.34,27.51,27.508,27.51H293.1
				c15.168,0,27.508-12.342,27.508-27.51V56.901C320.607,41.733,308.268,29.392,293.1,29.392z M312.607,115.93v127.169
				c0,10.758-8.752,19.51-19.508,19.51H106.9c-10.757,0-19.508-8.752-19.508-19.51V115.17V56.901c0-10.758,8.751-19.51,19.508-19.51
				H293.1c10.756,0,19.508,8.752,19.508,19.51V115.93z"/>
		</g>
	</g>
	<path class="st3" d="M271.795,108.905c0,12.958-10.542,23.5-23.5,23.5s-23.5-10.542-23.5-23.5c0-3.169,0.634-6.192,1.776-8.954
		c-9.11-0.619-18.372-0.954-27.771-0.954c-9.737,0-19.332,0.35-28.759,1.013c1.127,2.746,1.753,5.748,1.753,8.894
		c0,12.958-10.542,23.5-23.5,23.5s-23.5-10.542-23.5-23.5c0-1.042,0.075-2.067,0.208-3.074c-13.079,2.494-25.659,5.622-37.61,9.339
		v127.929c0,10.758,8.751,19.51,19.508,19.51H293.1c10.756,0,19.508-8.752,19.508-19.51V115.93
		c-12.979-4.149-26.714-7.604-41.045-10.295C271.712,106.704,271.795,107.795,271.795,108.905z M200.295,237.905
		c-15.14,0-27-17.131-27-39s11.86-39,27-39c15.141,0,27,17.131,27,39S215.436,237.905,200.295,237.905z M286.756,151.985
		c8.24,0,14.918,27.557,14.918,35.797c0,8.236-6.678,14.91-14.918,14.91s-14.918-6.674-14.918-14.91
		C271.838,179.542,278.516,151.985,286.756,151.985z"/>
	<path class="st0" d="M286.756,202.692c8.24,0,14.918-6.674,14.918-14.91c0-8.24-6.678-35.797-14.918-35.797
		s-14.918,27.557-14.918,35.797C271.838,196.019,278.516,202.692,286.756,202.692z"/>
	<path class="st7" d="M293.1,37.392H106.9c-10.757,0-19.508,8.752-19.508,19.51v58.269c11.951-3.717,24.531-6.845,37.61-9.339
		c1.511-11.51,11.377-20.426,23.292-20.426c9.812,0,18.233,6.046,21.747,14.606c9.427-0.664,19.021-1.013,28.759-1.013
		c9.398,0,18.66,0.334,27.771,0.954c3.528-8.529,11.935-14.546,21.724-14.546c11.848,0,21.67,8.814,23.268,20.229
		c14.331,2.69,28.066,6.146,41.045,10.295V56.901C312.607,46.144,303.855,37.392,293.1,37.392z"/>
	<path class="st1" d="M200.295,169.905c-9.215,0-17,13.28-17,29s7.785,29,17,29s17-13.28,17-29S209.51,169.905,200.295,169.905z"/>
	<path class="st6" d="M200.295,159.905c-15.14,0-27,17.131-27,39s11.86,39,27,39c15.141,0,27-17.131,27-39
		S215.436,159.905,200.295,159.905z M200.295,227.905c-9.215,0-17-13.28-17-29s7.785-29,17-29s17,13.28,17,29
		S209.51,227.905,200.295,227.905z"/>
	<path class="st5" d="M133.795,108.905c0,7.995,6.505,14.5,14.5,14.5s14.5-6.505,14.5-14.5s-6.505-14.5-14.5-14.5
		S133.795,100.91,133.795,108.905z"/>
	<path class="st6" d="M148.295,132.405c12.958,0,23.5-10.542,23.5-23.5c0-3.146-0.626-6.148-1.753-8.894
		c-3.514-8.56-11.936-14.606-21.747-14.606c-11.915,0-21.781,8.916-23.292,20.426c-0.133,1.007-0.208,2.032-0.208,3.074
		C124.795,121.863,135.337,132.405,148.295,132.405z M148.295,94.405c7.995,0,14.5,6.505,14.5,14.5s-6.505,14.5-14.5,14.5
		s-14.5-6.505-14.5-14.5S140.3,94.405,148.295,94.405z"/>
	<path class="st5" d="M233.795,108.905c0,7.995,6.505,14.5,14.5,14.5s14.5-6.505,14.5-14.5s-6.505-14.5-14.5-14.5
		S233.795,100.91,233.795,108.905z"/>
	<path class="st6" d="M248.295,132.405c12.958,0,23.5-10.542,23.5-23.5c0-1.11-0.083-2.201-0.232-3.271
		c-1.598-11.415-11.42-20.229-23.268-20.229c-9.789,0-18.195,6.018-21.724,14.546c-1.143,2.761-1.776,5.784-1.776,8.954
		C224.795,121.863,235.337,132.405,248.295,132.405z M248.295,94.405c7.995,0,14.5,6.505,14.5,14.5s-6.505,14.5-14.5,14.5
		s-14.5-6.505-14.5-14.5S240.3,94.405,248.295,94.405z"/>
</g>
</svg>
