<?xml version="1.0" encoding="utf-8"?>
<!-- Generator: Adobe Illustrator 15.0.0, SVG Export Plug-In . SVG Version: 6.00 Build 0)  -->
<!DOCTYPE svg PUBLIC "-//W3C//DTD SVG 1.1//EN" "http://www.w3.org/Graphics/SVG/1.1/DTD/svg11.dtd">
<svg version="1.1" id="レイヤー_1" xmlns="http://www.w3.org/2000/svg" xmlns:xlink="http://www.w3.org/1999/xlink" x="0px"
	 y="0px" width="400px" height="300px" viewBox="0 0 400 300" style="enable-background:new 0 0 400 300;" xml:space="preserve">
<style type="text/css">
<![CDATA[
	.st0{fill:#FF5215;}
	.st1{fill:#FFAB17;}
	.st2{fill:#FFE045;}
	.st3{fill:#FFF9D9;}
	.st4{fill:#303030;}
]]>
</style>
<g>
	<g>
		<g>
			<path class="st1" d="M293.1,17.392H106.9c-21.824,0-39.508,17.684-39.508,39.509v186.198c0,21.812,17.684,39.51,39.508,39.51
				H293.1c21.824,0,39.508-17.697,39.508-39.51V56.9C332.607,35.075,314.924,17.392,293.1,17.392z M320.607,243.099
				c0,15.168-12.34,27.51-27.508,27.51H106.9c-15.168,0-27.508-12.342-27.508-27.51V56.9c0-15.168,12.34-27.509,27.508-27.509H293.1
				c15.168,0,27.508,12.341,27.508,27.509V243.099z"/>
		</g>
	</g>
	<g>
		<g>
			<path class="st3" d="M293.1,29.392H106.9c-15.168,0-27.508,12.341-27.508,27.509v186.198c0,15.168,12.34,27.51,27.508,27.51
				H293.1c15.168,0,27.508-12.342,27.508-27.51V56.9C320.607,41.732,308.268,29.392,293.1,29.392z M312.607,243.099
				c0,10.758-8.751,19.51-19.508,19.51H106.9c-10.757,0-19.508-8.752-19.508-19.51V56.9c0-10.757,8.751-19.509,19.508-19.509H293.1
				c10.757,0,19.508,8.752,19.508,19.509V243.099z"/>
		</g>
	</g>
	<path class="st2" d="M293.1,37.392H106.9c-10.757,0-19.508,8.752-19.508,19.509v186.198c0,10.758,8.751,19.51,19.508,19.51H293.1
		c10.757,0,19.508-8.752,19.508-19.51V56.9C312.607,46.144,303.856,37.392,293.1,37.392z M149.02,85.014
		c8.848,0,16.025,10.752,16.025,24.023c0,13.272-7.178,24.024-16.025,24.024c-8.836,0-16.012-10.752-16.012-24.024
		C133.008,95.766,140.184,85.014,149.02,85.014z M253.295,205.077c-7.488,13.505-22.633,29.604-52.256,29.604
		c-29.539,0-45.324-16.021-53.365-29.461c-8.545-14.283-10.202-28.446-10.268-29.043c-0.157-1.413,0.295-2.827,1.243-3.887
		c0.949-1.061,2.304-1.666,3.726-1.666h114.954c1.385,0,2.707,0.574,3.653,1.586c0.945,1.012,1.429,2.37,1.335,3.751
		C262.277,176.559,261.237,190.753,253.295,205.077z M249.025,133.062c-8.848,0-16.025-10.752-16.025-24.024
		c0-13.271,7.178-24.023,16.025-24.023s16.012,10.752,16.012,24.023C265.037,122.31,257.873,133.062,249.025,133.062z"/>
	<path class="st4" d="M249.025,85.014c-8.848,0-16.025,10.752-16.025,24.023c0,13.272,7.178,24.024,16.025,24.024
		s16.012-10.752,16.012-24.024C265.037,95.766,257.873,85.014,249.025,85.014z"/>
	<path class="st4" d="M149.02,133.062c8.848,0,16.025-10.752,16.025-24.024c0-13.271-7.178-24.023-16.025-24.023
		c-8.836,0-16.012,10.752-16.012,24.023C133.008,122.31,140.184,133.062,149.02,133.062z"/>
	<path class="st0" d="M201.039,224.681c19.875,0,34.514-8.228,43.51-24.453c4.104-7.399,6.081-14.807,7.011-19.604H148.373
		C151.42,193.625,162.714,224.681,201.039,224.681z"/>
	<path class="st4" d="M257.329,170.624H142.375c-1.422,0-2.777,0.605-3.726,1.666c-0.948,1.06-1.4,2.474-1.243,3.887
		c0.066,0.597,1.723,14.76,10.268,29.043c8.041,13.439,23.827,29.461,53.365,29.461c29.623,0,44.768-16.099,52.256-29.604
		c7.942-14.324,8.982-28.519,9.022-29.116c0.094-1.381-0.39-2.739-1.335-3.751C260.036,171.198,258.714,170.624,257.329,170.624z
		 M244.549,200.228c-8.996,16.226-23.635,24.453-43.51,24.453c-38.325,0-49.619-31.056-52.667-44.057H251.56
		C250.63,185.421,248.652,192.828,244.549,200.228z"/>
</g>
</svg>
