<?xml version="1.0" encoding="utf-8"?>
<!-- Generator: Adobe Illustrator 15.0.0, SVG Export Plug-In . SVG Version: 6.00 Build 0)  -->
<!DOCTYPE svg PUBLIC "-//W3C//DTD SVG 1.1//EN" "http://www.w3.org/Graphics/SVG/1.1/DTD/svg11.dtd">
<svg version="1.1" id="レイヤー_1" xmlns="http://www.w3.org/2000/svg" xmlns:xlink="http://www.w3.org/1999/xlink" x="0px"
	 y="0px" width="400px" height="300px" viewBox="0 0 400 300" style="enable-background:new 0 0 400 300;" xml:space="preserve">
<style type="text/css">
<![CDATA[
	.st0{fill:#5390EA;}
	.st1{fill:#FFAB17;}
	.st2{fill:#FFE045;}
	.st3{fill:#FFF9D9;}
	.st4{fill:#303030;}
	.st5{fill:#D4E6FC;}
]]>
</style>
<g>
	<g>
		<g>
			<path class="st1" d="M293.1,17.392H106.9c-21.824,0-39.508,17.684-39.508,39.51v186.197c0,21.812,17.684,39.51,39.508,39.51
				H293.1c21.824,0,39.508-17.697,39.508-39.51V56.901C332.607,35.075,314.924,17.392,293.1,17.392z M320.607,243.099
				c0,15.168-12.34,27.51-27.508,27.51H106.9c-15.168,0-27.508-12.342-27.508-27.51V56.901c0-15.168,12.34-27.51,27.508-27.51H293.1
				c15.168,0,27.508,12.342,27.508,27.51V243.099z"/>
		</g>
	</g>
	<g>
		<g>
			<path class="st3" d="M293.1,29.392H106.9c-15.168,0-27.508,12.342-27.508,27.51v186.197c0,15.168,12.34,27.51,27.508,27.51H293.1
				c15.168,0,27.508-12.342,27.508-27.51V56.901C320.607,41.733,308.268,29.392,293.1,29.392z M312.607,243.099
				c0,10.758-8.751,19.51-19.508,19.51H106.9c-10.757,0-19.508-8.752-19.508-19.51V56.901c0-10.758,8.751-19.51,19.508-19.51H293.1
				c10.757,0,19.508,8.752,19.508,19.51V243.099z"/>
		</g>
	</g>
	<path class="st2" d="M293.1,37.392H106.9c-10.757,0-19.508,8.752-19.508,19.51v186.197c0,10.758,8.751,19.51,19.508,19.51H293.1
		c10.757,0,19.508-8.752,19.508-19.51V56.901C312.607,46.144,303.856,37.392,293.1,37.392z M287.327,183.182
		c-0.845,1.658-21.465,40.595-87.841,40.595c-65.691,0-83.983-39.192-84.73-40.86c-1.31-2.928,0.001-6.362,2.929-7.673
		c2.918-1.306,6.341-0.006,7.66,2.902c0.671,1.448,16.436,34.018,74.142,34.018c58.874,0,76.775-32.885,77.51-34.285
		c1.482-2.829,4.979-3.943,7.816-2.479C287.65,176.866,288.779,180.336,287.327,183.182z M304.027,117.577
		c0,14.993-12.197,27.19-27.189,27.19h-45.5c-14.613,0-26.565-11.588-27.162-26.057h-12.248
		c-0.597,14.469-12.549,26.057-27.162,26.057h-45.5c-14.993,0-27.19-12.197-27.19-27.19V98.709c0-14.993,12.198-27.19,27.19-27.19
		h45.5c14.993,0,27.19,12.198,27.19,27.19v10.002h12.189V98.709c0-14.993,12.198-27.19,27.191-27.19h45.5
		c14.992,0,27.189,12.198,27.189,27.19V117.577z"/>
	<path class="st4" d="M284.812,175.399c-2.838-1.465-6.334-0.351-7.816,2.479c-0.734,1.4-18.636,34.285-77.51,34.285
		c-57.706,0-73.471-32.569-74.142-34.018c-1.318-2.908-4.742-4.208-7.66-2.902c-2.927,1.311-4.239,4.745-2.929,7.673
		c0.747,1.668,19.039,40.86,84.73,40.86c66.376,0,86.996-38.937,87.841-40.595C288.779,180.336,287.65,176.866,284.812,175.399z"/>
	<path class="st5" d="M276.838,81.519h-45.5c-9.479,0-17.191,7.711-17.191,17.19v18.868c0,9.479,7.712,17.19,17.191,17.19h45.5
		c9.479,0,17.189-7.712,17.189-17.19V98.709C294.027,89.23,286.316,81.519,276.838,81.519z M249.025,133.062
		c-8.848,0-16.025-10.752-16.025-24.023s7.178-24.023,16.025-24.023s16.012,10.752,16.012,24.023S257.873,133.062,249.025,133.062z"
		/>
	<path class="st0" d="M276.838,71.519h-45.5c-14.993,0-27.191,12.198-27.191,27.19v10.002h-12.189V98.709
		c0-14.993-12.198-27.19-27.19-27.19h-45.5c-14.993,0-27.19,12.198-27.19,27.19v18.868c0,14.993,12.198,27.19,27.19,27.19h45.5
		c14.612,0,26.564-11.588,27.162-26.057h12.248c0.597,14.469,12.549,26.057,27.162,26.057h45.5c14.992,0,27.189-12.197,27.189-27.19
		V98.709C304.027,83.716,291.83,71.519,276.838,71.519z M294.027,117.577c0,9.479-7.711,17.19-17.189,17.19h-45.5
		c-9.479,0-17.191-7.712-17.191-17.19V98.709c0-9.479,7.712-17.19,17.191-17.19h45.5c9.479,0,17.189,7.711,17.189,17.19V117.577z
		 M164.767,134.768h-45.5c-9.479,0-17.19-7.712-17.19-17.19V98.709c0-9.479,7.711-17.19,17.19-17.19h45.5
		c9.479,0,17.19,7.711,17.19,17.19v18.868C181.957,127.056,174.246,134.768,164.767,134.768z"/>
	<path class="st5" d="M181.957,98.709c0-9.479-7.711-17.19-17.19-17.19h-45.5c-9.479,0-17.19,7.711-17.19,17.19v18.868
		c0,9.479,7.711,17.19,17.19,17.19h45.5c9.479,0,17.19-7.712,17.19-17.19V98.709z M149.02,133.062
		c-8.836,0-16.012-10.752-16.012-24.023s7.176-24.023,16.012-24.023c8.848,0,16.025,10.752,16.025,24.023
		S157.867,133.062,149.02,133.062z"/>
	<path class="st4" d="M249.025,85.015c-8.848,0-16.025,10.752-16.025,24.023s7.178,24.023,16.025,24.023
		s16.012-10.752,16.012-24.023S257.873,85.015,249.025,85.015z"/>
	<path class="st4" d="M149.02,85.015c-8.836,0-16.012,10.752-16.012,24.023s7.176,24.023,16.012,24.023
		c8.848,0,16.025-10.752,16.025-24.023S157.867,85.015,149.02,85.015z"/>
</g>
</svg>
