<?xml version="1.0" encoding="utf-8"?>
<!-- Generator: Adobe Illustrator 15.0.0, SVG Export Plug-In . SVG Version: 6.00 Build 0)  -->
<!DOCTYPE svg PUBLIC "-//W3C//DTD SVG 1.1//EN" "http://www.w3.org/Graphics/SVG/1.1/DTD/svg11.dtd">
<svg version="1.1" id="レイヤー_1" xmlns="http://www.w3.org/2000/svg" xmlns:xlink="http://www.w3.org/1999/xlink" x="0px"
	 y="0px" width="400px" height="300px" viewBox="0 0 400 300" style="enable-background:new 0 0 400 300;" xml:space="preserve">
<style type="text/css">
<![CDATA[
	.st0{fill:#19A3F7;}
	.st1{fill:#FFAB17;}
	.st2{fill:#FFE045;}
	.st3{fill:#FFF9D9;}
	.st4{fill:#303030;}
]]>
</style>
<g>
	<g>
		<g>
			<path class="st1" d="M293.1,17.392H106.9c-21.824,0-39.508,17.684-39.508,39.51v186.197c0,21.812,17.684,39.51,39.508,39.51
				H293.1c21.824,0,39.508-17.697,39.508-39.51V56.901C332.607,35.075,314.924,17.392,293.1,17.392z M320.607,243.099
				c0,15.168-12.34,27.51-27.508,27.51H106.9c-15.168,0-27.508-12.342-27.508-27.51V56.901c0-15.168,12.34-27.51,27.508-27.51H293.1
				c15.168,0,27.508,12.342,27.508,27.51V243.099z"/>
		</g>
	</g>
	<g>
		<g>
			<path class="st3" d="M293.1,29.392H106.9c-15.168,0-27.508,12.342-27.508,27.51v186.197c0,15.168,12.34,27.51,27.508,27.51H293.1
				c15.168,0,27.508-12.342,27.508-27.51V56.901C320.607,41.733,308.268,29.392,293.1,29.392z M312.607,243.099
				c0,10.758-8.751,19.51-19.508,19.51H106.9c-10.757,0-19.508-8.752-19.508-19.51V56.901c0-10.758,8.751-19.51,19.508-19.51H293.1
				c10.757,0,19.508,8.752,19.508,19.51V243.099z"/>
		</g>
	</g>
	<path class="st2" d="M293.1,37.392H106.9c-10.757,0-19.508,8.752-19.508,19.51v186.197c0,10.758,8.751,19.51,19.508,19.51H293.1
		c10.757,0,19.508-8.752,19.508-19.51V56.901C312.607,46.144,303.856,37.392,293.1,37.392z M234.431,116.103h48.376
		c3.313,0,6,2.687,6,6s-2.687,6-6,6h-48.376c-3.313,0-6-2.687-6-6S231.117,116.103,234.431,116.103z M112.789,122.103
		c0-3.313,2.687-6,6-6h48.376c3.313,0,6,2.687,6,6s-2.687,6-6,6h-48.376C115.476,128.103,112.789,125.417,112.789,122.103z
		 M239.671,241.716h-77.584c-3.313,0-6-2.687-6-6s2.687-6,6-6h77.584c3.313,0,6,2.687,6,6S242.984,241.716,239.671,241.716z
		 M286.091,202.692c-8.24,0-14.918-6.674-14.918-14.91c0-8.24,6.678-35.797,14.918-35.797s14.918,27.557,14.918,35.797
		C301.009,196.019,294.331,202.692,286.091,202.692z"/>
	<path class="st4" d="M239.671,229.716h-77.584c-3.313,0-6,2.687-6,6s2.687,6,6,6h77.584c3.313,0,6-2.687,6-6
		S242.984,229.716,239.671,229.716z"/>
	<path class="st4" d="M173.165,122.103c0-3.313-2.687-6-6-6h-48.376c-3.313,0-6,2.687-6,6s2.687,6,6,6h48.376
		C170.479,128.103,173.165,125.417,173.165,122.103z"/>
	<path class="st4" d="M234.431,128.103h48.376c3.313,0,6-2.687,6-6s-2.687-6-6-6h-48.376c-3.313,0-6,2.687-6,6
		S231.117,128.103,234.431,128.103z"/>
	<path class="st0" d="M286.091,151.985c-8.24,0-14.918,27.557-14.918,35.797c0,8.236,6.678,14.91,14.918,14.91
		s14.918-6.674,14.918-14.91C301.009,179.542,294.331,151.985,286.091,151.985z"/>
</g>
</svg>
