<?xml version="1.0" encoding="utf-8"?>
<!-- Generator: Adobe Illustrator 15.0.0, SVG Export Plug-In . SVG Version: 6.00 Build 0)  -->
<!DOCTYPE svg PUBLIC "-//W3C//DTD SVG 1.1//EN" "http://www.w3.org/Graphics/SVG/1.1/DTD/svg11.dtd">
<svg version="1.1" id="レイヤー_1" xmlns="http://www.w3.org/2000/svg" xmlns:xlink="http://www.w3.org/1999/xlink" x="0px"
	 y="0px" width="400px" height="300px" viewBox="0 0 400 300" style="enable-background:new 0 0 400 300;" xml:space="preserve">
<style type="text/css">
<![CDATA[
	.st0{fill:#19A3F7;}
	.st1{fill:#FF5215;}
	.st2{fill:#FFAB17;}
	.st3{fill:#FFE045;}
	.st4{fill:#FFF9D9;}
	.st5{fill:#303030;}
]]>
</style>
<g>
	<g>
		<g>
			<path class="st2" d="M293.1,17.392H106.9c-21.824,0-39.508,17.684-39.508,39.51v186.197c0,21.812,17.684,39.51,39.508,39.51
				H293.1c21.824,0,39.508-17.697,39.508-39.51V56.901C332.607,35.075,314.924,17.392,293.1,17.392z M320.607,243.099
				c0,15.168-12.34,27.51-27.508,27.51H106.9c-15.168,0-27.508-12.342-27.508-27.51V56.901c0-15.168,12.34-27.51,27.508-27.51H293.1
				c15.168,0,27.508,12.342,27.508,27.51V243.099z"/>
		</g>
	</g>
	<g>
		<g>
			<path class="st4" d="M293.1,29.392H106.9c-15.168,0-27.508,12.342-27.508,27.51v186.197c0,15.168,12.34,27.51,27.508,27.51H293.1
				c15.168,0,27.508-12.342,27.508-27.51V56.901C320.607,41.733,308.268,29.392,293.1,29.392z M312.607,243.099
				c0,10.758-8.751,19.51-19.508,19.51H106.9c-10.757,0-19.508-8.752-19.508-19.51V56.901c0-10.758,8.751-19.51,19.508-19.51H293.1
				c10.757,0,19.508,8.752,19.508,19.51V243.099z"/>
		</g>
	</g>
	<path class="st3" d="M293.1,37.392H106.9c-10.757,0-19.508,8.752-19.508,19.51v186.197c0,10.758,8.751,19.51,19.508,19.51H293.1
		c10.757,0,19.508-8.752,19.508-19.51V56.901C312.607,46.144,303.856,37.392,293.1,37.392z M122.897,174.371
		c-3.467,7.472-12.333,10.714-19.808,7.246c-7.476-3.469-10.724-12.332-7.257-19.804c3.469-7.476,21.124-29.663,28.599-26.194
		C131.906,139.087,126.366,166.896,122.897,174.371z M129.87,131.507c-0.454,0-0.916-0.047-1.378-0.146
		c-3.557-0.758-5.826-4.255-5.069-7.812c2.754-12.93,13.602-23.704,27.635-27.45c7.09-1.894,14.438-1.883,21.249,0.032
		c3.501,0.984,5.541,4.62,4.557,8.121c-0.984,3.5-4.618,5.542-8.121,4.557c-4.536-1.275-9.477-1.271-14.287,0.014
		c-9.295,2.48-16.419,9.337-18.151,17.469C135.645,129.387,132.912,131.507,129.87,131.507z M252.601,205.142
		c-7.488,13.505-22.633,29.604-52.256,29.604c-29.539,0-45.324-16.021-53.365-29.461c-8.545-14.283-10.202-28.446-10.268-29.043
		c-0.157-1.413,0.295-2.827,1.243-3.887c0.949-1.061,2.304-1.666,3.726-1.666h114.954c1.385,0,2.707,0.574,3.652,1.586
		c0.946,1.012,1.43,2.37,1.336,3.751C261.583,176.623,260.543,190.817,252.601,205.142z M263.332,126.292
		c-1.731-8.131-8.856-14.988-18.15-17.468c-4.811-1.285-9.751-1.29-14.288-0.015c-3.499,0.985-7.137-1.055-8.121-4.557
		c-0.984-3.501,1.056-7.137,4.557-8.121c6.811-1.915,14.159-1.926,21.25-0.032c14.032,3.745,24.88,14.52,27.634,27.449
		c0.758,3.557-1.512,7.054-5.068,7.812c-0.463,0.098-0.924,0.146-1.379,0.146C266.724,131.507,263.991,129.387,263.332,126.292z
		 M295.329,181.617c-7.475,3.468-16.34,0.226-19.807-7.246c-3.469-7.476-9.01-35.284-1.535-38.752
		c7.475-3.469,25.131,18.719,28.6,26.194C306.054,169.285,302.805,178.148,295.329,181.617z"/>
	<path class="st1" d="M200.345,224.745c19.875,0,34.514-8.228,43.51-24.453c4.104-7.399,6.081-14.807,7.011-19.604H147.678
		C150.726,193.689,162.02,224.745,200.345,224.745z"/>
	<path class="st5" d="M256.635,170.688H141.681c-1.422,0-2.777,0.605-3.726,1.666c-0.948,1.06-1.4,2.474-1.243,3.887
		c0.066,0.597,1.723,14.76,10.268,29.043c8.041,13.439,23.827,29.461,53.365,29.461c29.623,0,44.768-16.099,52.256-29.604
		c7.942-14.324,8.982-28.519,9.022-29.116c0.094-1.381-0.39-2.739-1.336-3.751C259.342,171.263,258.02,170.688,256.635,170.688z
		 M243.854,200.292c-8.996,16.226-23.635,24.453-43.51,24.453c-38.325,0-49.619-31.056-52.667-44.057h103.187
		C249.936,185.485,247.958,192.893,243.854,200.292z"/>
	<path class="st5" d="M276.213,123.549c-2.754-12.93-13.602-23.704-27.634-27.449c-7.091-1.894-14.439-1.883-21.25,0.032
		c-3.501,0.984-5.541,4.62-4.557,8.121c0.984,3.501,4.622,5.542,8.121,4.557c4.537-1.275,9.478-1.271,14.288,0.015
		c9.294,2.48,16.419,9.337,18.15,17.468c0.659,3.095,3.392,5.215,6.434,5.214c0.455,0,0.916-0.047,1.379-0.146
		C274.701,130.604,276.971,127.106,276.213,123.549z"/>
	<path class="st5" d="M154.455,108.824c4.81-1.286,9.751-1.29,14.287-0.014c3.503,0.985,7.137-1.057,8.121-4.557
		c0.984-3.501-1.056-7.137-4.557-8.121c-6.811-1.915-14.158-1.926-21.249-0.032c-14.034,3.746-24.881,14.52-27.635,27.45
		c-0.757,3.557,1.512,7.054,5.069,7.812c0.462,0.098,0.924,0.146,1.378,0.146c3.042,0,5.775-2.12,6.434-5.214
		C138.036,118.161,145.16,111.304,154.455,108.824z"/>
	<path class="st0" d="M273.987,135.619c-7.475,3.468-1.934,31.276,1.535,38.752c3.467,7.472,12.332,10.714,19.807,7.246
		c7.476-3.469,10.725-12.332,7.258-19.804C299.118,154.338,281.462,132.15,273.987,135.619z"/>
	<path class="st0" d="M124.432,135.619c-7.475-3.469-25.13,18.719-28.599,26.194c-3.467,7.472-0.219,16.335,7.257,19.804
		c7.475,3.468,16.341,0.226,19.808-7.246C126.366,166.896,131.906,139.087,124.432,135.619z"/>
</g>
</svg>
