<?xml version="1.0" encoding="utf-8"?>
<!-- Generator: Adobe Illustrator 15.0.0, SVG Export Plug-In . SVG Version: 6.00 Build 0)  -->
<!DOCTYPE svg PUBLIC "-//W3C//DTD SVG 1.1//EN" "http://www.w3.org/Graphics/SVG/1.1/DTD/svg11.dtd">
<svg version="1.1" id="レイヤー_1" xmlns="http://www.w3.org/2000/svg" xmlns:xlink="http://www.w3.org/1999/xlink" x="0px"
	 y="0px" width="400px" height="300px" viewBox="0 0 400 300" style="enable-background:new 0 0 400 300;" xml:space="preserve">
<style type="text/css">
<![CDATA[
	.st0{fill:#F9AAB6;}
	.st1{fill:#FFAB17;}
	.st2{fill:#FFE045;}
	.st3{fill:#FFF9D9;}
	.st4{fill:#FFFFFF;}
	.st5{fill:#303030;}
]]>
</style>
<g>
	<g>
		<g>
			<path class="st1" d="M293.1,17.392H106.9c-21.824,0-39.508,17.684-39.508,39.509v186.198c0,21.812,17.684,39.51,39.508,39.51
				H293.1c21.824,0,39.508-17.697,39.508-39.51V56.9C332.607,35.075,314.924,17.392,293.1,17.392z M320.607,243.099
				c0,15.168-12.34,27.51-27.508,27.51H106.9c-15.168,0-27.508-12.342-27.508-27.51V56.9c0-15.168,12.34-27.509,27.508-27.509H293.1
				c15.168,0,27.508,12.341,27.508,27.509V243.099z"/>
		</g>
	</g>
	<g>
		<g>
			<path class="st3" d="M293.1,29.392H106.9c-15.168,0-27.508,12.341-27.508,27.509v186.198c0,15.168,12.34,27.51,27.508,27.51
				H293.1c15.168,0,27.508-12.342,27.508-27.51V56.9C320.607,41.732,308.268,29.392,293.1,29.392z M312.607,243.099
				c0,10.758-8.751,19.51-19.508,19.51H106.9c-10.757,0-19.508-8.752-19.508-19.51V56.9c0-10.757,8.751-19.509,19.508-19.509H293.1
				c10.757,0,19.508,8.752,19.508,19.509V243.099z"/>
		</g>
	</g>
	<path class="st2" d="M293.1,37.392H106.9c-10.757,0-19.508,8.752-19.508,19.509v186.198c0,10.758,8.751,19.51,19.508,19.51H293.1
		c10.757,0,19.508-8.752,19.508-19.51V56.9C312.607,46.144,303.856,37.392,293.1,37.392z M143.252,160.196
		c-16.269,0-29.451-6.598-29.451-14.731c0-5.004,4.993-9.423,12.621-12.086c-3.248-6.211-5.189-14.029-5.189-22.532
		c0-20.2,10.917-36.561,24.381-36.561s24.381,16.36,24.381,36.561c0,9.247-2.294,17.687-6.071,24.126
		c5.425,2.672,8.792,6.386,8.792,10.492C172.715,153.599,159.521,160.196,143.252,160.196z M233.342,181.569
		c-0.36,0.901-9.083,22.074-31.165,22.074c-22.105,0-30.815-21.176-31.175-22.077c-1.189-2.979,0.261-6.356,3.239-7.546
		c2.972-1.188,6.342,0.255,7.538,3.219c0.282,0.684,6.28,14.791,20.398,14.791c14.143,0,20.144-14.195,20.393-14.799
		c1.215-2.957,4.601-4.39,7.558-3.186C233.089,175.247,234.528,178.603,233.342,181.569z M259.226,162.035
		c-16.27,0-29.451-6.597-29.451-14.731c0-4.674,4.356-8.836,11.146-11.535c-4.061-6.531-6.55-15.289-6.55-24.922
		c0-20.2,10.918-36.561,24.371-36.561c13.463,0,24.381,16.36,24.381,36.561c0,9.484-2.409,18.124-6.359,24.621
		c7.233,2.686,11.924,6.987,11.924,11.836C288.687,155.438,275.493,162.035,259.226,162.035z"/>
	<path class="st5" d="M230.127,174.046c-2.957-1.204-6.343,0.229-7.558,3.186c-0.249,0.604-6.25,14.799-20.393,14.799
		c-14.118,0-20.116-14.107-20.398-14.791c-1.196-2.964-4.566-4.407-7.538-3.219c-2.979,1.189-4.429,4.567-3.239,7.546
		c0.36,0.901,9.07,22.077,31.175,22.077c22.082,0,30.805-21.173,31.165-22.074C234.528,178.603,233.089,175.247,230.127,174.046z"/>
	<path class="st0" d="M276.763,135.468c-4.46,7.336-10.883,11.939-18.021,11.939c-7.034,0-13.372-4.481-17.821-11.639
		c-6.789,2.699-11.146,6.861-11.146,11.535c0,8.135,13.182,14.731,29.451,14.731c16.268,0,29.461-6.597,29.461-14.731
		C288.687,142.455,283.996,138.153,276.763,135.468z"/>
	<path class="st0" d="M163.924,134.973c-4.468,7.619-11.013,12.435-18.31,12.435c-7.793,0-14.729-5.492-19.192-14.028
		c-7.627,2.663-12.621,7.082-12.621,12.086c0,8.134,13.183,14.731,29.451,14.731s29.463-6.598,29.463-14.731
		C172.715,141.358,169.349,137.645,163.924,134.973z"/>
	<path class="st5" d="M145.614,147.407c7.297,0,13.842-4.815,18.31-12.435c3.776-6.439,6.071-14.879,6.071-24.126
		c0-20.2-10.917-36.561-24.381-36.561s-24.381,16.36-24.381,36.561c0,8.503,1.941,16.321,5.189,22.532
		C130.885,141.915,137.82,147.407,145.614,147.407z M146.165,78.148c5.081,0,9.202,4.752,9.202,10.62
		c0,5.869-4.121,10.621-9.202,10.621c-5.082,0-9.203-4.752-9.203-10.621C136.961,82.9,141.083,78.148,146.165,78.148z
		 M142.486,119.008l4.423-8.091l4.423,8.091l8.091,4.423l-8.091,4.424l-4.434,8.091l-4.424-8.091l-8.091-4.424L142.486,119.008z"/>
	<path class="st4" d="M146.165,99.39c5.081,0,9.202-4.752,9.202-10.621c0-5.868-4.121-10.62-9.202-10.62
		c-5.082,0-9.203,4.752-9.203,10.62C136.961,94.638,141.083,99.39,146.165,99.39z"/>
	<polygon class="st4" points="146.898,135.945 151.332,127.854 159.422,123.431 151.332,119.008 146.909,110.917 142.486,119.008 
		134.383,123.431 142.474,127.854 	"/>
	<path class="st5" d="M258.741,147.407c7.139,0,13.562-4.604,18.021-11.939c3.95-6.497,6.359-15.137,6.359-24.621
		c0-20.2-10.918-36.561-24.381-36.561c-13.453,0-24.371,16.36-24.371,36.561c0,9.633,2.489,18.391,6.55,24.922
		C245.369,142.926,251.707,147.407,258.741,147.407z M259.302,78.148c5.07,0,9.191,4.752,9.191,10.62
		c0,5.869-4.121,10.621-9.191,10.621c-5.092,0-9.213-4.752-9.213-10.621C250.089,82.9,254.21,78.148,259.302,78.148z
		 M256.69,117.174l4.436-8.091l4.422,8.091l8.092,4.423l-8.102,4.424l-4.424,8.091l-4.424-8.091l-8.09-4.424L256.69,117.174z"/>
	<path class="st4" d="M259.302,99.39c5.07,0,9.191-4.752,9.191-10.621c0-5.868-4.121-10.62-9.191-10.62
		c-5.092,0-9.213,4.752-9.213,10.62C250.089,94.638,254.21,99.39,259.302,99.39z"/>
	<polygon class="st4" points="261.114,134.111 265.538,126.021 273.64,121.597 265.548,117.174 261.126,109.083 256.69,117.174 
		248.601,121.597 256.69,126.021 	"/>
</g>
</svg>
