<?xml version="1.0" encoding="utf-8"?>
<!-- Generator: Adobe Illustrator 15.0.0, SVG Export Plug-In . SVG Version: 6.00 Build 0)  -->
<!DOCTYPE svg PUBLIC "-//W3C//DTD SVG 1.1//EN" "http://www.w3.org/Graphics/SVG/1.1/DTD/svg11.dtd">
<svg version="1.1" id="レイヤー_1" xmlns="http://www.w3.org/2000/svg" xmlns:xlink="http://www.w3.org/1999/xlink" x="0px"
	 y="0px" width="400px" height="300px" viewBox="0 0 400 300" style="enable-background:new 0 0 400 300;" xml:space="preserve">
<style type="text/css">
<![CDATA[
	.st0{fill:#FFAB17;}
	.st1{fill:#FFE045;}
	.st2{fill:#FFFBE9;}
	.st3{fill:#FFFFFF;}
	.st4{fill:#303030;}
]]>
</style>
<g>
	<g>
		<g>
			<path class="st0" d="M293.1,17.392H106.9c-21.824,0-39.508,17.684-39.508,39.509v186.198c0,21.812,17.684,39.51,39.508,39.51
				H293.1c21.824,0,39.508-17.697,39.508-39.51V56.9C332.607,35.075,314.924,17.392,293.1,17.392z M320.607,243.099
				c0,15.168-12.34,27.51-27.508,27.51H106.9c-15.168,0-27.508-12.342-27.508-27.51V56.9c0-15.168,12.34-27.509,27.508-27.509H293.1
				c15.168,0,27.508,12.341,27.508,27.509V243.099z"/>
		</g>
	</g>
	<g>
		<g>
			<path class="st2" d="M293.1,29.392H106.9c-15.168,0-27.508,12.341-27.508,27.509v186.198c0,15.168,12.34,27.51,27.508,27.51
				H293.1c15.168,0,27.508-12.342,27.508-27.51V56.9C320.607,41.732,308.268,29.392,293.1,29.392z M312.607,243.099
				c0,10.758-8.751,19.51-19.508,19.51H106.9c-10.757,0-19.508-8.752-19.508-19.51V56.9c0-10.757,8.751-19.509,19.508-19.509H293.1
				c10.757,0,19.508,8.752,19.508,19.509V243.099z"/>
		</g>
	</g>
	<path class="st1" d="M293.1,37.392H106.9c-10.757,0-19.508,8.752-19.508,19.509v186.198c0,10.758,8.751,19.51,19.508,19.51H293.1
		c10.757,0,19.508-8.752,19.508-19.51V56.9C312.607,46.144,303.856,37.392,293.1,37.392z M251.592,94.953
		c7.097,0.287,13.528,4.069,18.113,10.65c4.271,6.131,6.438,14.059,6.104,22.325c-0.116,2.855-2.469,5.094-5.301,5.094
		c-0.072,0-0.146-0.002-0.219-0.005c-2.93-0.118-5.208-2.589-5.09-5.519c0.242-5.965-1.252-9.091-4.207-13.332
		c-2.641-3.79-6.132-5.961-9.83-6.11c-8.031-0.321-15.297,6.672-15.766,18.236c-0.118,2.93-2.598,5.203-5.52,5.09
		c-2.929-0.118-5.207-2.59-5.089-5.52C225.501,108.251,237.528,94.357,251.592,94.953z M127.727,105.604
		c4.584-6.581,11.017-10.363,18.113-10.65c14.063-0.596,26.09,13.298,26.803,30.91c0.119,2.93-2.16,5.401-5.089,5.52
		c-2.921,0.113-5.401-2.16-5.519-5.09c-0.468-11.564-7.735-18.558-15.765-18.236c-3.699,0.149-7.19,2.32-9.831,6.11
		c-2.955,4.241-4.449,7.367-4.208,13.332c0.119,2.93-2.16,5.4-5.089,5.519c-0.073,0.003-0.146,0.005-0.219,0.005
		c-2.833,0-5.185-2.238-5.3-5.094C121.288,119.662,123.456,111.734,127.727,105.604z M288.608,216.144
		c0,9.397-7.646,17.043-17.044,17.043H127.046c-9.398,0-17.043-7.646-17.043-17.043v-24.086c0-9.397,7.646-17.043,17.043-17.043
		h144.518c9.398,0,17.044,7.646,17.044,17.043V216.144z"/>
	<path class="st4" d="M229.878,131.383c2.922,0.113,5.401-2.16,5.52-5.09c0.469-11.564,7.734-18.558,15.766-18.236
		c3.698,0.149,7.189,2.32,9.83,6.11c2.955,4.241,4.449,7.367,4.207,13.332c-0.118,2.93,2.16,5.4,5.09,5.519
		c0.073,0.003,0.146,0.005,0.219,0.005c2.832,0,5.185-2.238,5.301-5.094c0.334-8.267-1.834-16.194-6.104-22.325
		c-4.585-6.581-11.017-10.363-18.113-10.65c-14.063-0.596-26.091,13.298-26.803,30.91
		C224.671,128.793,226.949,131.265,229.878,131.383z"/>
	<path class="st4" d="M126.923,133.022c0.073,0,0.146-0.002,0.219-0.005c2.93-0.118,5.208-2.589,5.089-5.519
		c-0.241-5.965,1.253-9.091,4.208-13.332c2.641-3.79,6.132-5.961,9.831-6.11c8.03-0.321,15.297,6.672,15.765,18.236
		c0.118,2.93,2.598,5.203,5.519,5.09c2.929-0.118,5.208-2.59,5.089-5.52c-0.712-17.612-12.74-31.506-26.803-30.91
		c-7.096,0.287-13.529,4.069-18.113,10.65c-4.271,6.131-6.439,14.059-6.104,22.325C121.738,130.784,124.09,133.022,126.923,133.022z
		"/>
	<rect x="175.104" y="185.015" class="st3" width="19.653" height="38.172"/>
	<rect x="202.757" y="185.015" class="st3" width="19.652" height="38.172"/>
	<rect x="147.452" y="185.015" class="st3" width="19.652" height="38.172"/>
	<path class="st3" d="M271.564,185.015h-13.503v38.172h13.503c3.884,0,7.044-3.159,7.044-7.043v-24.086
		C278.608,188.174,275.448,185.015,271.564,185.015z"/>
	<path class="st3" d="M139.452,223.187v-38.172h-12.405c-3.884,0-7.043,3.159-7.043,7.043v24.086c0,3.884,3.16,7.043,7.043,7.043
		H139.452z"/>
	<rect x="230.409" y="185.015" class="st3" width="19.652" height="38.172"/>
	<path class="st4" d="M271.564,175.015H127.046c-9.398,0-17.043,7.646-17.043,17.043v24.086c0,9.397,7.646,17.043,17.043,17.043
		h144.518c9.398,0,17.044-7.646,17.044-17.043v-24.086C288.608,182.66,280.963,175.015,271.564,175.015z M278.608,216.144
		c0,3.884-3.16,7.043-7.044,7.043h-13.503v-38.172h13.503c3.884,0,7.044,3.159,7.044,7.043V216.144z M120.003,216.144v-24.086
		c0-3.884,3.16-7.043,7.043-7.043h12.405v38.172h-12.405C123.163,223.187,120.003,220.027,120.003,216.144z M230.409,223.187
		v-38.172h19.652v38.172H230.409z M202.757,223.187v-38.172h19.652v38.172H202.757z M175.104,223.187v-38.172h19.653v38.172H175.104
		z M147.452,223.187v-38.172h19.652v38.172H147.452z"/>
</g>
</svg>
