<?xml version="1.0" encoding="utf-8"?>
<!-- Generator: Adobe Illustrator 15.0.0, SVG Export Plug-In . SVG Version: 6.00 Build 0)  -->
<!DOCTYPE svg PUBLIC "-//W3C//DTD SVG 1.1//EN" "http://www.w3.org/Graphics/SVG/1.1/DTD/svg11.dtd">
<svg version="1.1" id="レイヤー_1" xmlns="http://www.w3.org/2000/svg" xmlns:xlink="http://www.w3.org/1999/xlink" x="0px"
	 y="0px" width="400px" height="300px" viewBox="0 0 400 300" style="enable-background:new 0 0 400 300;" xml:space="preserve">
<style type="text/css">
<![CDATA[
	.st0{fill:#FFAB17;}
	.st1{fill:#FFE045;}
	.st2{fill:#FFF9D9;}
	.st3{fill:#303030;}
	.st4{fill:#A2C0ED;}
]]>
</style>
<g>
	<g>
		<g>
			<path class="st0" d="M293.1,17.392H106.9c-21.824,0-39.508,17.684-39.508,39.51v186.197c0,21.812,17.684,39.51,39.508,39.51
				H293.1c21.824,0,39.508-17.697,39.508-39.51V56.901C332.607,35.075,314.924,17.392,293.1,17.392z M320.607,243.099
				c0,15.168-12.34,27.51-27.508,27.51H106.9c-15.168,0-27.508-12.342-27.508-27.51V56.901c0-15.168,12.34-27.51,27.508-27.51H293.1
				c15.168,0,27.508,12.342,27.508,27.51V243.099z"/>
		</g>
	</g>
	<g>
		<g>
			<path class="st2" d="M293.1,29.392H106.9c-15.168,0-27.508,12.342-27.508,27.51v186.197c0,15.168,12.34,27.51,27.508,27.51H293.1
				c15.168,0,27.508-12.342,27.508-27.51V56.901C320.607,41.733,308.268,29.392,293.1,29.392z M312.607,115.93v127.169
				c0,10.758-8.751,19.51-19.508,19.51H106.9c-10.757,0-19.508-8.752-19.508-19.51V115.17V56.901c0-10.758,8.751-19.51,19.508-19.51
				H293.1c10.757,0,19.508,8.752,19.508,19.51V115.93z"/>
		</g>
	</g>
	<path class="st1" d="M273.596,116.141c2.162,2.162,2.162,5.662,0,7.833c-1.082,1.077-2.5,1.615-3.917,1.615
		s-2.836-0.538-3.917-1.624l-15.543-15.544l-15.555,15.553c-1.081,1.077-2.499,1.615-3.918,1.615c-1.417,0-2.834-0.538-3.916-1.624
		c-2.162-2.162-2.162-5.662,0-7.833l14.865-14.863c-13.91-1.481-28.24-2.271-42.894-2.271c-14.401,0-28.492,0.761-42.178,2.192
		l14.947,14.95c2.163,2.162,2.163,5.671,0,7.833c-1.081,1.077-2.499,1.615-3.917,1.615s-2.835-0.538-3.917-1.623l-15.549-15.554
		l-15.553,15.554c-1.082,1.085-2.499,1.623-3.917,1.623c-1.418,0-2.835-0.538-3.917-1.623c-2.163-2.163-2.163-5.663,0-7.834
		l12.416-12.413c-17.497,2.734-34.195,6.591-49.824,11.451v127.929c0,10.758,8.751,19.51,19.508,19.51H293.1
		c10.757,0,19.508-8.752,19.508-19.51V115.93c-16.038-5.128-33.231-9.192-51.282-12.061L273.596,116.141z M258.336,223.742
		c-1.072,1.13-2.513,1.696-3.953,1.696c-1.346,0-2.688-0.494-3.742-1.489l-15.667-14.834l-15.695,14.834
		c-2.1,1.974-5.375,1.974-7.474,0l-15.7-14.843l-15.699,14.833c-2.096,1.975-5.375,1.983-7.47,0l-15.74-14.851l-15.74,14.851
		c-2.176,2.073-5.622,1.983-7.69-0.224c-2.064-2.182-1.965-5.627,0.224-7.69l19.473-18.378c2.091-1.975,5.376-1.975,7.466,0
		l15.735,14.851l15.704-14.842c2.1-1.975,5.375-1.975,7.475,0l15.699,14.842l15.699-14.833c2.1-1.975,5.38-1.983,7.479,0.009
		l19.405,18.378C260.306,218.115,260.4,221.562,258.336,223.742z"/>
	<path class="st4" d="M293.1,37.392H106.9c-10.757,0-19.508,8.752-19.508,19.51v58.269c15.628-4.86,32.327-8.717,49.824-11.451
		l3.14-3.139l-15.556-15.56c-2.163-2.163-2.163-5.672,0-7.835c2.163-2.153,5.671-2.162,7.833,0.009l15.552,15.557l15.55-15.547
		c2.163-2.172,5.671-2.172,7.833,0c2.163,2.162,2.163,5.662,0,7.825l-15.554,15.554l0.607,0.607
		c13.687-1.432,27.777-2.192,42.178-2.192c14.653,0,28.983,0.789,42.894,2.271l0.686-0.687L226.83,85.029
		c-2.162-2.163-2.162-5.663,0-7.835c2.162-2.153,5.671-2.162,7.834,0.01l15.547,15.549l15.551-15.549
		c2.162-2.154,5.672-2.163,7.834,0.009c2.162,2.162,2.162,5.663,0,7.834l-15.547,15.545l3.276,3.277
		c18.051,2.868,35.244,6.933,51.282,12.061V56.901C312.607,46.144,303.856,37.392,293.1,37.392z"/>
	<path class="st3" d="M238.72,197.674c-2.1-1.992-5.38-1.983-7.479-0.009l-15.699,14.833l-15.699-14.842
		c-2.1-1.975-5.375-1.975-7.475,0l-15.704,14.842l-15.735-14.851c-2.09-1.975-5.375-1.975-7.466,0l-19.473,18.378
		c-2.189,2.063-2.288,5.509-0.224,7.69c2.069,2.207,5.514,2.297,7.69,0.224l15.74-14.851l15.74,14.851
		c2.095,1.983,5.375,1.975,7.47,0l15.699-14.833l15.7,14.843c2.099,1.974,5.374,1.974,7.474,0l15.695-14.834l15.667,14.834
		c1.055,0.995,2.396,1.489,3.742,1.489c1.44,0,2.881-0.566,3.953-1.696c2.064-2.181,1.97-5.627-0.211-7.69L238.72,197.674z"/>
	<path class="st3" d="M226.83,123.965c1.082,1.086,2.499,1.624,3.916,1.624c1.419,0,2.837-0.538,3.918-1.615l15.555-15.553
		l15.543,15.544c1.081,1.086,2.5,1.624,3.917,1.624s2.835-0.538,3.917-1.615c2.162-2.171,2.162-5.671,0-7.833l-12.271-12.271
		l-3.276-3.277l15.547-15.545c2.162-2.171,2.162-5.672,0-7.834c-2.162-2.172-5.672-2.163-7.834-0.009l-15.551,15.549l-15.547-15.549
		c-2.163-2.172-5.672-2.163-7.834-0.01c-2.162,2.172-2.162,5.672,0,7.835l15.551,15.553l-0.686,0.687l-14.865,14.863
		C224.668,118.303,224.668,121.803,226.83,123.965z"/>
	<path class="st3" d="M124.801,123.966c1.082,1.085,2.499,1.623,3.917,1.623c1.417,0,2.835-0.538,3.917-1.623l15.553-15.554
		l15.549,15.554c1.082,1.085,2.5,1.623,3.917,1.623s2.836-0.538,3.917-1.615c2.163-2.162,2.163-5.671,0-7.833l-14.947-14.95
		l-0.607-0.607l15.554-15.554c2.163-2.163,2.163-5.663,0-7.825c-2.162-2.172-5.671-2.172-7.833,0l-15.55,15.547l-15.552-15.557
		c-2.162-2.171-5.671-2.162-7.833-0.009c-2.163,2.163-2.163,5.672,0,7.835l15.556,15.56l-3.14,3.139l-12.416,12.413
		C122.638,118.303,122.638,121.803,124.801,123.966z"/>
</g>
</svg>
