<?xml version="1.0" encoding="utf-8"?>
<!-- Generator: Adobe Illustrator 15.0.0, SVG Export Plug-In . SVG Version: 6.00 Build 0)  -->
<!DOCTYPE svg PUBLIC "-//W3C//DTD SVG 1.1//EN" "http://www.w3.org/Graphics/SVG/1.1/DTD/svg11.dtd">
<svg version="1.1" id="レイヤー_1" xmlns="http://www.w3.org/2000/svg" xmlns:xlink="http://www.w3.org/1999/xlink" x="0px"
	 y="0px" width="400px" height="300px" viewBox="0 0 400 300" style="enable-background:new 0 0 400 300;" xml:space="preserve">
<style type="text/css">
<![CDATA[
	.st0{fill:#FFAB17;}
	.st1{fill:#FFE045;}
	.st2{fill:#FFF9D9;}
	.st3{fill:#303030;}
]]>
</style>
<g>
	<g>
		<g>
			<path class="st0" d="M293.1,17.392H106.9c-21.824,0-39.508,17.684-39.508,39.51v186.197c0,21.812,17.684,39.51,39.508,39.51
				H293.1c21.824,0,39.508-17.697,39.508-39.51V56.901C332.607,35.075,314.924,17.392,293.1,17.392z M320.607,243.099
				c0,15.168-12.34,27.51-27.508,27.51H106.9c-15.168,0-27.508-12.342-27.508-27.51V56.901c0-15.168,12.34-27.51,27.508-27.51H293.1
				c15.168,0,27.508,12.342,27.508,27.51V243.099z"/>
		</g>
	</g>
	<g>
		<g>
			<path class="st2" d="M293.1,29.392H106.9c-15.168,0-27.508,12.342-27.508,27.51v186.197c0,15.168,12.34,27.51,27.508,27.51H293.1
				c15.168,0,27.508-12.342,27.508-27.51V56.901C320.607,41.733,308.268,29.392,293.1,29.392z M312.607,243.099
				c0,10.758-8.751,19.51-19.508,19.51H106.9c-10.757,0-19.508-8.752-19.508-19.51V56.901c0-10.758,8.751-19.51,19.508-19.51H293.1
				c10.757,0,19.508,8.752,19.508,19.51V243.099z"/>
		</g>
	</g>
	<path class="st1" d="M293.1,37.392H106.9c-10.757,0-19.508,8.752-19.508,19.51v186.197c0,10.758,8.751,19.51,19.508,19.51H293.1
		c10.757,0,19.508-8.752,19.508-19.51V56.901C312.607,46.144,303.856,37.392,293.1,37.392z M130.925,202.408
		c-7.1-1.875-13.475-5.527-18.437-10.563c-2.552-2.59-2.521-6.759,0.069-9.312c2.591-2.552,6.761-2.522,9.312,0.069
		c3.306,3.354,7.599,5.8,12.417,7.072c9.299,2.455,18.888,0.031,24.424-6.172c2.422-2.712,6.584-2.95,9.297-0.527
		c2.713,2.422,2.949,6.584,0.527,9.297c-6.617,7.413-16.602,11.502-27.116,11.502C137.944,203.774,134.413,203.328,130.925,202.408z
		 M261.4,234.842c-0.591,0.945-14.977,23.153-60.16,23.153c-44.808,0-57.641-22.482-58.165-23.439
		c-1.541-2.812-0.51-6.342,2.303-7.883c2.792-1.527,6.292-0.525,7.85,2.243c0.496,0.841,10.796,17.466,48.013,17.466
		c38.221,0,49.869-17.023,50.346-17.748c1.698-2.72,5.263-3.521,7.982-1.821C262.289,228.511,263.099,232.122,261.4,234.842z
		 M286.753,192.272c-6.616,7.413-16.602,11.502-27.116,11.502c-3.475,0-7.006-0.446-10.493-1.366
		c-7.101-1.875-13.476-5.527-18.437-10.563c-2.553-2.59-2.521-6.759,0.068-9.312c2.592-2.552,6.761-2.522,9.312,0.069
		c3.306,3.354,7.6,5.8,12.416,7.072c9.301,2.455,18.889,0.031,24.425-6.172c2.422-2.712,6.585-2.95,9.298-0.527
		C288.939,185.397,289.175,189.56,286.753,192.272z"/>
	<path class="st3" d="M286.227,182.976c-2.713-2.423-6.876-2.185-9.298,0.527c-5.536,6.203-15.124,8.627-24.425,6.172
		c-4.816-1.272-9.11-3.718-12.416-7.072c-2.552-2.592-6.721-2.621-9.312-0.069c-2.59,2.553-2.621,6.722-0.068,9.312
		c4.961,5.036,11.336,8.688,18.437,10.563c3.487,0.92,7.019,1.366,10.493,1.366c10.515,0,20.5-4.089,27.116-11.502
		C289.175,189.56,288.939,185.397,286.227,182.976z"/>
	<path class="st3" d="M168.534,192.272c2.422-2.713,2.186-6.875-0.527-9.297c-2.713-2.423-6.875-2.185-9.297,0.527
		c-5.537,6.203-15.125,8.627-24.424,6.172c-4.817-1.272-9.111-3.718-12.417-7.072c-2.551-2.592-6.721-2.621-9.312-0.069
		c-2.59,2.553-2.621,6.722-0.069,9.312c4.961,5.036,11.336,8.688,18.437,10.563c3.488,0.92,7.019,1.366,10.493,1.366
		C151.933,203.774,161.917,199.686,168.534,192.272z"/>
	<path class="st3" d="M259.568,226.812c-2.72-1.699-6.284-0.898-7.982,1.821c-0.477,0.725-12.125,17.748-50.346,17.748
		c-37.216,0-47.517-16.625-48.013-17.466c-1.558-2.769-5.057-3.771-7.85-2.243c-2.812,1.541-3.843,5.07-2.303,7.883
		c0.524,0.957,13.357,23.439,58.165,23.439c45.184,0,59.569-22.208,60.16-23.153C263.099,232.122,262.289,228.511,259.568,226.812z"
		/>
</g>
</svg>
