<?xml version="1.0" encoding="utf-8"?>
<!-- Generator: Adobe Illustrator 15.0.0, SVG Export Plug-In . SVG Version: 6.00 Build 0)  -->
<!DOCTYPE svg PUBLIC "-//W3C//DTD SVG 1.1//EN" "http://www.w3.org/Graphics/SVG/1.1/DTD/svg11.dtd">
<svg version="1.1" id="レイヤー_1" xmlns="http://www.w3.org/2000/svg" xmlns:xlink="http://www.w3.org/1999/xlink" x="0px"
	 y="0px" width="400px" height="300px" viewBox="0 0 400 300" style="enable-background:new 0 0 400 300;" xml:space="preserve">
<style type="text/css">
<![CDATA[
	.st0{fill:#F9AAB6;}
	.st1{fill:#FF5215;}
	.st2{fill:#FFAB17;}
	.st3{fill:#FFE045;}
	.st4{fill:#FFF9D9;}
	.st5{fill:#303030;}
]]>
</style>
<g>
	<g>
		<g>
			<path class="st2" d="M293.1,17.392H106.9c-21.824,0-39.508,17.684-39.508,39.509v186.198c0,21.812,17.684,39.51,39.508,39.51
				H293.1c21.824,0,39.508-17.697,39.508-39.51V56.9C332.607,35.075,314.924,17.392,293.1,17.392z M320.607,243.099
				c0,15.168-12.34,27.51-27.508,27.51H106.9c-15.168,0-27.508-12.342-27.508-27.51V56.9c0-15.168,12.34-27.509,27.508-27.509H293.1
				c15.168,0,27.508,12.341,27.508,27.509V243.099z"/>
		</g>
	</g>
	<g>
		<g>
			<path class="st4" d="M293.1,29.392H106.9c-15.168,0-27.508,12.341-27.508,27.509v186.198c0,15.168,12.34,27.51,27.508,27.51
				H293.1c15.168,0,27.508-12.342,27.508-27.51V56.9C320.607,41.732,308.268,29.392,293.1,29.392z M312.607,243.099
				c0,10.758-8.751,19.51-19.508,19.51H106.9c-10.757,0-19.508-8.752-19.508-19.51V56.9c0-10.757,8.751-19.509,19.508-19.509H293.1
				c10.757,0,19.508,8.752,19.508,19.509V243.099z"/>
		</g>
	</g>
	<path class="st3" d="M293.1,37.392H106.9c-10.757,0-19.508,8.752-19.508,19.509v186.198c0,10.758,8.751,19.51,19.508,19.51H293.1
		c10.757,0,19.508-8.752,19.508-19.51V56.9C312.607,46.144,303.856,37.392,293.1,37.392z M107.853,137.465
		c0-8.135,13.183-14.731,29.451-14.731c0.381,0,0.758,0.007,1.136,0.014l20.989-11.08l-25.75-15.023
		c-3.141-1.833-4.202-5.865-2.369-9.006c1.833-3.143,5.865-4.203,9.006-2.369l35.992,20.998c2.066,1.205,3.315,3.437,3.265,5.827
		c-0.051,2.392-1.394,4.567-3.509,5.684l-17.744,9.367c5.223,2.658,8.448,6.301,8.448,10.32c0,8.134-13.194,14.731-29.463,14.731
		S107.853,145.599,107.853,137.465z M253.461,206.663c-10.64,24.936-28.768,38.115-52.423,38.115
		c-23.595,0-42.114-13.136-53.557-37.986c-8.345-18.124-9.954-35.989-10.018-36.741c-0.119-1.396,0.352-2.776,1.298-3.808
		c0.947-1.032,2.283-1.619,3.684-1.619h114.813c1.371,0,2.683,0.563,3.626,1.558c0.944,0.994,1.438,2.333,1.367,3.702
		C262.213,170.636,261.204,188.518,253.461,206.663z M263.254,154.035c-16.269,0-29.451-6.597-29.451-14.731
		c0-4.783,4.562-9.032,11.625-11.724l-18.568-9.803c-2.115-1.116-3.458-3.292-3.509-5.684c-0.051-2.391,1.199-4.622,3.265-5.827
		l35.992-20.998c3.142-1.834,7.174-0.772,9.006,2.369c1.833,3.141,0.771,7.173-2.369,9.006l-25.751,15.023l24.875,13.132
		c13.83,1.211,24.348,7.243,24.348,14.505C292.716,147.438,279.522,154.035,263.254,154.035z"/>
	<path class="st1" d="M156.667,202.832c9.832,21.198,24.76,31.946,44.371,31.946c19.539,0,34.05-10.704,43.13-31.816
		c4.701-10.932,6.723-22.027,7.555-28.338H148.175C149.234,180.966,151.633,191.978,156.667,202.832z"/>
	<path class="st5" d="M257.259,164.624H142.445c-1.4,0-2.736,0.587-3.684,1.619c-0.947,1.031-1.417,2.412-1.298,3.808
		c0.064,0.752,1.673,18.617,10.018,36.741c11.442,24.851,29.962,37.986,53.557,37.986c23.655,0,41.783-13.18,52.423-38.115
		c7.743-18.146,8.752-36.027,8.791-36.779c0.071-1.369-0.423-2.708-1.367-3.702C259.941,165.188,258.63,164.624,257.259,164.624z
		 M244.168,202.962c-9.08,21.112-23.591,31.816-43.13,31.816c-19.611,0-34.539-10.748-44.371-31.946
		c-5.034-10.854-7.433-21.866-8.493-28.208h103.548C250.891,180.935,248.869,192.03,244.168,202.962z"/>
	<path class="st0" d="M268.368,124.799l0.632,0.333c3.216,1.698,4.446,5.682,2.749,8.897c-1.181,2.236-3.465,3.513-5.829,3.513
		c-1.036,0-2.088-0.246-3.068-0.764l-17.424-9.198c-7.063,2.691-11.625,6.94-11.625,11.724c0,8.135,13.183,14.731,29.451,14.731
		s29.462-6.597,29.462-14.731C292.716,132.042,282.198,126.01,268.368,124.799z"/>
	<path class="st0" d="M166.767,137.465c0-4.02-3.225-7.662-8.448-10.32l-18.248,9.634c-0.98,0.518-2.032,0.764-3.068,0.764
		c-2.364,0-4.648-1.276-5.829-3.513c-1.698-3.216-0.467-7.199,2.749-8.897l4.517-2.385c-0.377-0.007-0.755-0.014-1.136-0.014
		c-16.269,0-29.451,6.597-29.451,14.731c0,8.134,13.183,14.731,29.451,14.731S166.767,145.599,166.767,137.465z"/>
	<path class="st5" d="M131.173,134.029c1.181,2.236,3.465,3.513,5.829,3.513c1.036,0,2.088-0.246,3.068-0.764l18.248-9.634
		l17.744-9.367c2.115-1.116,3.458-3.292,3.509-5.684c0.05-2.391-1.199-4.622-3.265-5.827l-35.992-20.998
		c-3.141-1.834-7.173-0.773-9.006,2.369c-1.833,3.141-0.772,7.173,2.369,9.006l25.75,15.023l-20.989,11.08l-4.517,2.385
		C130.707,126.83,129.476,130.813,131.173,134.029z"/>
	<path class="st5" d="M265.92,137.542c2.364,0,4.648-1.276,5.829-3.513c1.697-3.216,0.467-7.199-2.749-8.897l-0.632-0.333
		l-24.875-13.132l25.751-15.023c3.141-1.833,4.202-5.865,2.369-9.006c-1.832-3.142-5.864-4.203-9.006-2.369l-35.992,20.998
		c-2.065,1.205-3.315,3.437-3.265,5.827c0.051,2.392,1.394,4.567,3.509,5.684l18.568,9.803l17.424,9.198
		C263.832,137.296,264.884,137.542,265.92,137.542z"/>
</g>
</svg>
