<?xml version="1.0" encoding="utf-8"?>
<!-- Generator: Adobe Illustrator 15.0.0, SVG Export Plug-In . SVG Version: 6.00 Build 0)  -->
<!DOCTYPE svg PUBLIC "-//W3C//DTD SVG 1.1//EN" "http://www.w3.org/Graphics/SVG/1.1/DTD/svg11.dtd">
<svg version="1.1" id="レイヤー_1" xmlns="http://www.w3.org/2000/svg" xmlns:xlink="http://www.w3.org/1999/xlink" x="0px"
	 y="0px" width="400px" height="300px" viewBox="0 0 400 300" style="enable-background:new 0 0 400 300;" xml:space="preserve">
<style type="text/css">
<![CDATA[
	.st0{fill:#19A3F7;}
	.st1{fill:#FF5215;}
	.st2{fill:#FFAB17;}
	.st3{fill:#FFE045;}
	.st4{fill:#FFF9D9;}
	.st5{fill:#303030;}
]]>
</style>
<g>
	<g>
		<g>
			<path class="st2" d="M293.1,17.392H106.9c-21.824,0-39.508,17.684-39.508,39.51v186.197c0,21.812,17.684,39.51,39.508,39.51
				H293.1c21.824,0,39.508-17.697,39.508-39.51V56.901C332.607,35.075,314.924,17.392,293.1,17.392z M320.607,243.099
				c0,15.168-12.34,27.51-27.508,27.51H106.9c-15.168,0-27.508-12.342-27.508-27.51V56.901c0-15.168,12.34-27.51,27.508-27.51H293.1
				c15.168,0,27.508,12.342,27.508,27.51V243.099z"/>
		</g>
	</g>
	<g>
		<g>
			<path class="st4" d="M293.1,29.392H106.9c-15.168,0-27.508,12.342-27.508,27.51v186.197c0,15.168,12.34,27.51,27.508,27.51H293.1
				c15.168,0,27.508-12.342,27.508-27.51V56.901C320.607,41.733,308.268,29.392,293.1,29.392z M312.607,243.099
				c0,10.758-8.751,19.51-19.508,19.51H106.9c-10.757,0-19.508-8.752-19.508-19.51V56.901c0-10.758,8.751-19.51,19.508-19.51H293.1
				c10.757,0,19.508,8.752,19.508,19.51V243.099z"/>
		</g>
	</g>
	<path class="st3" d="M293.1,37.392H106.9c-10.757,0-19.508,8.752-19.508,19.51v186.197c0,10.758,8.751,19.51,19.508,19.51H293.1
		c10.757,0,19.508-8.752,19.508-19.51V56.901C312.607,46.144,303.856,37.392,293.1,37.392z M111.42,178.617
		c-7.476-3.469-10.724-12.332-7.257-19.804c2.504-5.396,12.4-18.456,20.523-24c-1.135-1.155-1.807-2.759-1.718-4.504
		c0.167-3.309,2.972-5.862,6.295-5.689c0.263,0.003,8.109,0.151,17.511-6.627c13.943-10.051,14.929-22.107,14.964-22.615
		c0.161-3.31,2.968-5.826,6.282-5.672c3.31,0.161,5.861,3.004,5.701,6.314c-0.036,0.733-1.089,18.126-19.93,31.708
		c-7.062,5.09-13.708,7.27-18.398,8.201c3.136,8.468-1.247,29.152-4.166,35.442C127.761,178.843,118.895,182.085,111.42,178.617z
		 M259.83,242.044c-3.308,2.157-7.082,3.206-11.539,3.207h-0.002c-6.775,0-14.172-2.49-22.003-5.127
		c-8.481-2.855-17.25-5.808-26.25-6.125c-8.99,0.517-17.692,3.664-26.11,6.709c-7.995,2.892-15.546,5.623-22.491,5.623
		c-4.14,0-7.84-0.995-10.999-2.956c-5.277-3.276-7.024-11.042-4.559-20.267c3.981-14.898,21.828-40.483,63.462-41.872
		c0.073-0.003,0.144-0.004,0.222-0.003c41.654,0.461,60.064,25.644,64.376,40.45C266.607,230.851,265.033,238.652,259.83,242.044z
		 M291.153,178.617c-7.475,3.468-16.34,0.226-19.807-7.246c-2.93-6.313-7.336-27.126-4.134-35.535
		c-5.024-1.027-11.451-3.348-17.128-8.553c-16.509-15.136-19.197-29.921-19.304-30.543c-0.559-3.266,1.637-6.367,4.902-6.925
		c3.263-0.558,6.339,1.617,6.918,4.857c0.058,0.289,2.424,11.692,15.593,23.767c7.249,6.646,16.789,6.193,16.881,6.186
		c3.291-0.178,6.139,2.322,6.346,5.613c0.136,2.165-0.889,4.128-2.539,5.288c7.918,5.88,17.127,18.111,19.529,23.289
		C301.878,166.285,298.629,175.148,291.153,178.617z"/>
	<path class="st1" d="M199.562,191.234c-35.703,1.233-50.757,22.231-54.023,34.456c-1.583,5.924-0.325,8.88,0.172,9.188
		c1.595,0.99,3.414,1.452,5.724,1.452c5.191,0,11.942-2.442,19.09-5.027c8.741-3.161,18.647-6.744,29.191-7.303
		c0.14-0.008,0.279-0.007,0.418-0.005c10.554,0.324,20.536,3.686,29.343,6.65c7.033,2.368,13.677,4.604,18.813,4.604
		c2.491-0.001,4.422-0.504,6.078-1.584c0.491-0.319,1.683-3.302-0.031-9.188C250.8,212.33,235.283,191.672,199.562,191.234z"/>
	<path class="st5" d="M199.562,181.233c-0.079-0.001-0.149,0-0.222,0.003c-41.634,1.389-59.481,26.974-63.462,41.872
		c-2.465,9.225-0.718,16.99,4.559,20.267c3.159,1.961,6.859,2.956,10.999,2.956c6.944,0,14.496-2.731,22.491-5.623
		c8.418-3.045,17.12-6.192,26.11-6.709c9,0.317,17.769,3.27,26.25,6.125c7.831,2.637,15.228,5.127,22.003,5.127h0.002
		c4.457-0.001,8.231-1.05,11.539-3.207c5.203-3.392,6.777-11.193,4.108-20.36C259.627,206.877,241.217,181.694,199.562,181.233z
		 M254.368,233.667c-1.656,1.08-3.587,1.583-6.078,1.584c-5.137,0-11.78-2.236-18.813-4.604c-8.807-2.965-18.789-6.326-29.343-6.65
		c-0.139-0.002-0.278-0.003-0.418,0.005c-10.543,0.559-20.45,4.142-29.191,7.303c-7.147,2.585-13.898,5.027-19.09,5.027
		c-2.31,0-4.128-0.462-5.724-1.452c-0.497-0.309-1.755-3.265-0.172-9.188c3.267-12.225,18.321-33.223,54.023-34.456
		c35.721,0.438,51.237,21.096,54.774,33.245C256.051,230.365,254.859,233.348,254.368,233.667z"/>
	<path class="st0" d="M278.882,135.524c-0.859,0.604-1.885,0.994-3.012,1.073c-0.094,0.007-0.527,0.033-1.233,0.033
		c-1.477,0-4.156-0.127-7.424-0.795c-3.202,8.409,1.204,29.222,4.134,35.535c3.467,7.472,12.332,10.714,19.807,7.246
		c7.476-3.469,10.725-12.332,7.258-19.804C296.009,153.636,286.8,141.404,278.882,135.524z"/>
	<path class="st0" d="M135.394,135.929c-3.005,0.598-5.214,0.687-6.191,0.687c-0.306,0-0.492-0.008-0.546-0.011
		c-1.564-0.079-2.953-0.755-3.971-1.791c-8.123,5.544-18.019,18.604-20.523,24c-3.467,7.472-0.219,16.335,7.257,19.804
		c7.475,3.468,16.341,0.226,19.808-7.246C134.146,165.081,138.53,144.396,135.394,135.929z"/>
	<path class="st5" d="M128.657,136.604c0.054,0.003,0.24,0.011,0.546,0.011c0.977,0,3.186-0.089,6.191-0.687
		c4.69-0.932,11.337-3.111,18.398-8.201c18.841-13.582,19.894-30.975,19.93-31.708c0.16-3.31-2.391-6.153-5.701-6.314
		c-3.314-0.154-6.122,2.363-6.282,5.672c-0.035,0.508-1.021,12.564-14.964,22.615c-9.402,6.778-17.249,6.63-17.511,6.627
		c-3.324-0.173-6.128,2.38-6.295,5.689c-0.088,1.745,0.583,3.35,1.718,4.504C125.704,135.85,127.093,136.525,128.657,136.604z"/>
	<path class="st5" d="M275.87,136.598c1.127-0.079,2.152-0.469,3.012-1.073c1.65-1.16,2.675-3.123,2.539-5.288
		c-0.207-3.291-3.055-5.791-6.346-5.613c-0.092,0.007-9.632,0.459-16.881-6.186c-13.169-12.075-15.535-23.478-15.593-23.767
		c-0.579-3.24-3.655-5.415-6.918-4.857c-3.266,0.559-5.461,3.659-4.902,6.925c0.106,0.622,2.795,15.407,19.304,30.543
		c5.677,5.205,12.104,7.526,17.128,8.553c3.268,0.668,5.947,0.795,7.424,0.795C275.343,136.631,275.776,136.604,275.87,136.598z"/>
</g>
</svg>
